<svg width="70" height="22" viewBox="0 0 70 22" fill="none" xmlns="http://www.w3.org/2000/svg">
<path d="M32.592 18H30.198L34.95 4.842H37.308L42.06 18H39.63L38.568 14.958H33.654L32.592 18ZM35.832 8.766L34.338 13.014H37.902L36.39 8.766C36.282 8.424 36.156 8.028 36.12 7.758C36.066 8.01 35.958 8.406 35.832 8.766ZM50.91 12.618H46.014V18H43.71V4.842H51.846V6.966H46.014V10.548H50.91V12.618ZM62.0864 11.43L57.7124 4.842H60.4484L62.0504 7.2C62.5904 8.01 63.0404 8.766 63.5264 9.666L66.5864 4.842H69.2684L64.9664 11.412L69.2864 18H66.5684L65.0924 15.822C64.5164 14.94 64.0484 14.148 63.5264 13.194L60.3224 18H57.6224L62.0864 11.43Z" fill="white"/>
<path d="M10.7182 0.143436C10.5574 0.0494695 10.375 0 10.1894 0C10.0037 0 9.82134 0.0494695 9.66056 0.143436L4.63477 3.12029L14.4671 8.93473V20.7072L19.48 17.7391C19.6385 17.6454 19.7699 17.5114 19.8612 17.3502C19.9525 17.1891 20.0004 17.0065 20.0002 16.8208V5.65758L10.7182 0.143436Z" fill="#1657FF"/>
<path d="M4.64316 6.24566L0 8.94833L7.30868 13.2613V22.0004L11.9433 19.302C12.061 19.2332 12.1587 19.1343 12.2266 19.0151C12.2946 18.8959 12.3303 18.7607 12.3302 18.6231V10.3236L5.45142 6.24566C5.32945 6.17119 5.18972 6.13184 5.04729 6.13184C4.90486 6.13184 4.76513 6.17119 4.64316 6.24566Z" fill="#1657FF"/>
<path d="M5.09032 20.3684V14.4756L0.111816 17.422L5.09032 20.3684Z" fill="#1657FF"/>
</svg>
