<svg width="213" height="165" viewBox="0 0 213 165" fill="none" xmlns="http://www.w3.org/2000/svg">
<g filter="url(#filter0_b_2011_739)">
<rect x="0.202637" width="211.859" height="164.465" rx="10" fill="#131417"/>
<rect x="0.702637" y="0.5" width="210.859" height="163.465" rx="9.5" stroke="#DCD9F0" stroke-opacity="0.02"/>
</g>
<g opacity="0.5">
<path fill-rule="evenodd" clip-rule="evenodd" d="M12.815 23.8082C13.9089 27.4336 17.2492 30.0711 21.2002 30.0711C26.0403 30.0711 29.9641 26.1122 29.9641 21.2289C29.9641 16.3455 26.0403 12.3867 21.2002 12.3867C16.5556 12.3867 12.7552 16.0321 12.4551 20.6414C12.4585 20.6473 12.462 20.6532 12.4654 20.659C12.4661 20.6466 12.4665 20.6401 12.4665 20.6401L17.1516 22.6018C17.2791 22.5165 17.4149 22.4427 17.5599 22.3826C17.8887 22.2448 18.2356 22.1831 18.5812 22.1991L20.7148 19.0467C20.7141 19.0327 20.7141 19.0177 20.7141 19.0028C20.7141 17.1423 22.1997 15.6289 24.0259 15.6289C25.8528 15.6289 27.3377 17.1423 27.3377 19.0028C27.3377 20.8631 25.8528 22.378 24.0259 22.378C24.0012 22.378 23.9758 22.3772 23.9511 22.3765L20.8982 24.5955C20.9072 24.938 20.8451 25.2814 20.7118 25.6087C20.1999 26.8609 18.7809 27.457 17.5503 26.934C16.7981 26.6151 16.2883 25.952 16.122 25.1961L12.815 23.8082Z" fill="#DCD9F0"/>
<path fill-rule="evenodd" clip-rule="evenodd" d="M20.2021 25.391C19.8059 26.3585 18.7128 26.8175 17.7625 26.4148C17.3242 26.2291 16.9932 25.8888 16.8023 25.4831L17.8804 25.9375C18.5812 26.2344 19.3852 25.8964 19.6764 25.1839C19.9686 24.4706 19.6372 23.6515 18.9368 23.3547L17.8223 22.885C18.2523 22.719 18.7412 22.7129 19.198 22.9063C19.6585 23.1012 20.0158 23.4681 20.2051 23.937C20.3945 24.4059 20.3937 24.9236 20.2021 25.391Z" fill="#DCD9F0"/>
<path fill-rule="evenodd" clip-rule="evenodd" d="M24.0259 21.2514C22.8097 21.2514 21.8195 20.2427 21.8195 19.0028C21.8195 17.7639 22.8097 16.755 24.0259 16.755C25.2429 16.755 26.233 17.7639 26.233 19.0028C26.233 20.2427 25.2429 21.2514 24.0259 21.2514ZM22.3726 18.9994C22.3726 19.9322 23.1151 20.688 24.0297 20.688C24.945 20.688 25.6874 19.9322 25.6874 18.9994C25.6874 18.0666 24.945 17.3101 24.0297 17.3101C23.1151 17.3101 22.3726 18.0666 22.3726 18.9994Z" fill="#DCD9F0"/>
</g>
<defs>
<filter id="filter0_b_2011_739" x="-12.2974" y="-12.5" width="236.859" height="189.465" filterUnits="userSpaceOnUse" color-interpolation-filters="sRGB">
<feFlood flood-opacity="0" result="BackgroundImageFix"/>
<feGaussianBlur in="BackgroundImageFix" stdDeviation="6.25"/>
<feComposite in2="SourceAlpha" operator="in" result="effect1_backgroundBlur_2011_739"/>
<feBlend mode="normal" in="SourceGraphic" in2="effect1_backgroundBlur_2011_739" result="shape"/>
</filter>
</defs>
</svg>
