<svg width="1722" height="603" viewBox="0 0 1722 603" fill="none" xmlns="http://www.w3.org/2000/svg">
<path d="M400.999 1.00038H440.999M400.999 1.00038V41.067M400.999 1.00038H361M440.999 1.00038V41.067M440.999 1.00038H480.999M440.999 41.067H400.999M440.999 41.067H480.999M440.999 41.067V81.1337M400.999 41.067V81.1337M400.999 41.067L361 41.067M480.999 1.00038V41.067M480.999 1.00038H520.999M480.999 41.067H520.999M480.999 41.067V81.1337M520.999 1.00038V41.067M520.999 1.00038H560.999M520.999 41.067H560.999M520.999 41.067V81.1337M560.999 1.00038V41.067M560.999 1.00038H600.999M560.999 41.067H600.999M560.999 41.067V81.1337M600.999 1.00038V41.067M600.999 1.00038H640.999M600.999 41.067H640.999M600.999 41.067V81.1337M640.999 1.00038V41.067M640.999 1.00038H680.999M640.999 41.067H680.999M640.999 41.067V81.1337M680.999 1.00038V41.067M680.999 1.00038H720.999M680.999 41.067H720.999M680.999 41.067V81.1337M720.999 1.00038V41.067M720.999 1.00038H760.999M720.999 41.067H760.999M720.999 41.067V81.1337M760.999 1.00038V41.067M760.999 1.00038H800.999M760.999 41.067H800.999M760.999 41.067V81.1337M800.999 1.00038V41.067M800.999 1.00038H840.999M800.999 41.067H840.999M800.999 41.067V81.1337M840.999 1.00038V41.067M840.999 1.00038H881M840.999 41.067H881M840.999 41.067V81.1337M881 1.00038V41.067M881 1.00038H920.999M881 41.067H920.999M881 41.067V81.1337M920.999 1.00038V41.067M920.999 1.00038H960.999M920.999 41.067H960.999M920.999 41.067V81.1337M960.999 1.00038V41.067M960.999 1.00038H1001M960.999 41.067H1001M960.999 41.067V81.1337M1001 1.00038V41.067M1001 1.00038H1041M1001 41.067H1041M1001 41.067V81.1337M1041 1.00038V41.067M1041 1.00038H1081M1041 41.067H1081M1041 41.067V81.1337M1081 1.00038V41.067M1081 1.00038H1121M1081 41.067V81.1337M1081 41.067H1121M440.999 81.1337H400.999M440.999 81.1337H480.999M440.999 81.1337V121.2M400.999 81.1337V121.2M400.999 81.1337L361 81.1337M480.999 81.1337H520.999M480.999 81.1337V121.2M520.999 81.1337H560.999M520.999 81.1337V121.2M560.999 81.1337H600.999M560.999 81.1337V121.2M600.999 81.1337H640.999M600.999 81.1337V121.2M640.999 81.1337H680.999M640.999 81.1337V121.2M680.999 81.1337H720.999M680.999 81.1337V121.2M720.999 81.1337H760.999M720.999 81.1337V121.2M760.999 81.1337H800.999M760.999 81.1337V121.2M800.999 81.1337H840.999M800.999 81.1337V121.2M840.999 81.1337H881M840.999 81.1337V121.2M881 81.1337H920.999M881 81.1337V121.2M920.999 81.1337H960.999M920.999 81.1337V121.2M960.999 81.1337H1001M960.999 81.1337V121.2M1001 81.1337H1041M1001 81.1337V121.2M1041 81.1337H1081M1041 81.1337V121.2M1081 81.1337V121.2M1081 81.1337H1121M440.999 121.2H400.999M440.999 121.2H480.999M440.999 121.2V161.267M400.999 121.2V161.267M400.999 121.2H361M480.999 121.2H520.999M480.999 121.2V161.267M520.999 121.2H560.999M520.999 121.2V161.267M560.999 121.2H600.999M560.999 121.2V161.267M600.999 121.2H640.999M600.999 121.2V161.267M640.999 121.2H680.999M640.999 121.2V161.267M680.999 121.2H720.999M680.999 121.2V161.267M720.999 121.2H760.999M720.999 121.2V161.267M760.999 121.2H800.999M760.999 121.2V161.267M800.999 121.2H840.999M800.999 121.2V161.267M840.999 121.2H881M840.999 121.2V161.267M881 121.2H920.999M881 121.2V161.267M920.999 121.2H960.999M920.999 121.2V161.267M960.999 121.2H1001M960.999 121.2V161.267M1001 121.2H1041M1001 121.2V161.267M1041 121.2H1081M1041 121.2V161.267M1081 121.2V161.267M1081 121.2H1121M440.999 161.267H400.999M440.999 161.267H480.999M440.999 161.267V201.334M400.999 161.267V201.334M400.999 161.267H361M480.999 161.267H520.999M480.999 161.267V201.334M520.999 161.267H560.999M520.999 161.267V201.334M560.999 161.267H600.999M560.999 161.267V201.334M600.999 161.267H640.999M600.999 161.267V201.334M640.999 161.267H680.999M640.999 161.267V201.334M680.999 161.267H720.999M680.999 161.267V201.334M720.999 161.267H760.999M720.999 161.267V201.334M760.999 161.267H800.999M760.999 161.267V201.334M800.999 161.267H840.999M800.999 161.267V201.334M840.999 161.267H881M840.999 161.267V201.334M881 161.267H920.999M881 161.267V201.334M920.999 161.267H960.999M920.999 161.267V201.334M960.999 161.267H1001M960.999 161.267V201.334M1001 161.267H1041M1001 161.267V201.334M1041 161.267H1081M1041 161.267V201.334M1081 161.267V201.334M1081 161.267H1121M440.999 201.334H400.999M440.999 201.334H480.999M440.999 201.334V241.4M400.999 201.334V241.4M400.999 201.334H361M480.999 201.334H520.999M480.999 201.334V241.4M520.999 201.334H560.999M520.999 201.334V241.4M560.999 201.334H600.999M560.999 201.334V241.4M600.999 201.334H640.999M600.999 201.334V241.4M640.999 201.334H680.999M640.999 201.334V241.4M680.999 201.334H720.999M680.999 201.334V241.4M720.999 201.334H760.999M720.999 201.334V241.4M760.999 201.334H800.999M760.999 201.334V241.4M800.999 201.334H840.999M800.999 201.334V241.4M840.999 201.334H881M840.999 201.334V241.4M881 201.334H920.999M881 201.334V241.4M920.999 201.334H960.999M920.999 201.334V241.4M960.999 201.334H1001M960.999 201.334V241.4M1001 201.334H1041M1001 201.334V241.4M1041 201.334H1081M1041 201.334V241.4M1081 201.334V241.4M1081 201.334H1121M440.999 241.4H400.999M440.999 241.4H480.999M440.999 241.4V281.467M400.999 241.4V281.467M400.999 241.4H361M480.999 241.4H520.999M480.999 241.4V281.467M520.999 241.4H560.999M520.999 241.4V281.467M560.999 241.4H600.999M560.999 241.4V281.467M600.999 241.4H640.999M600.999 241.4V281.467M640.999 241.4H680.999M640.999 241.4V281.467M680.999 241.4H720.999M680.999 241.4V281.467M720.999 241.4H760.999M720.999 241.4V281.467M760.999 241.4H800.999M760.999 241.4V281.467M800.999 241.4H840.999M800.999 241.4V281.467M840.999 241.4H881M840.999 241.4V281.467M881 241.4H920.999M881 241.4V281.467M920.999 241.4H960.999M920.999 241.4V281.467M960.999 241.4H1001M960.999 241.4V281.467M1001 241.4H1041M1001 241.4V281.467M1041 241.4H1081M1041 241.4V281.467M1081 241.4V281.467M1081 241.4H1121M440.999 281.467H400.999M440.999 281.467H480.999M440.999 281.467V321.533M400.999 281.467V321.533M400.999 281.467H361M480.999 281.467H520.999M480.999 281.467V321.533M520.999 281.467H560.999M520.999 281.467V321.533M560.999 281.467H600.999M560.999 281.467V321.533M600.999 281.467H640.999M600.999 281.467V321.533M640.999 281.467H680.999M640.999 281.467V321.533M680.999 281.467H720.999M680.999 281.467V321.533M720.999 281.467H760.999M720.999 281.467V321.533M760.999 281.467H800.999M760.999 281.467V321.533M800.999 281.467H840.999M800.999 281.467V321.533M840.999 281.467H881M840.999 281.467V321.533M881 281.467H920.999M881 281.467V321.533M920.999 281.467H960.999M920.999 281.467V321.533M960.999 281.467H1001M960.999 281.467V321.533M1001 281.467H1041M1001 281.467V321.533M1041 281.467H1081M1041 281.467V321.533M1081 281.467V321.533M1081 281.467H1121M440.999 321.533H400.999M440.999 321.533H480.999M440.999 321.533V361.6M400.999 321.533V361.6M400.999 321.533H361M480.999 321.533H520.999M480.999 321.533V361.6M520.999 321.533H560.999M520.999 321.533V361.6M560.999 321.533H600.999M560.999 321.533V361.6M600.999 321.533H640.999M600.999 321.533V361.6M640.999 321.533H680.999M640.999 321.533V361.6M680.999 321.533H720.999M680.999 321.533V361.6M720.999 321.533H760.999M720.999 321.533V361.6M760.999 321.533H800.999M760.999 321.533V361.6M800.999 321.533H840.999M800.999 321.533V361.6M840.999 321.533H881M840.999 321.533V361.6M881 321.533H920.999M881 321.533V361.6M920.999 321.533H960.999M920.999 321.533V361.6M960.999 321.533H1001M960.999 321.533V361.6M1001 321.533H1041M1001 321.533V361.6M1041 321.533H1081M1041 321.533V361.6M1081 321.533V361.6M1081 321.533H1121M440.999 361.6H400.999M440.999 361.6H480.999M440.999 361.6V401.667M400.999 361.6V401.667M400.999 361.6H361M480.999 361.6H520.999M480.999 361.6V401.667M520.999 361.6H560.999M520.999 361.6V401.667M560.999 361.6H600.999M560.999 361.6V401.667M600.999 361.6H640.999M600.999 361.6V401.667M640.999 361.6H680.999M640.999 361.6V401.667M680.999 361.6H720.999M680.999 361.6V401.667M720.999 361.6H760.999M720.999 361.6V401.667M760.999 361.6H800.999M760.999 361.6V401.667M800.999 361.6H840.999M800.999 361.6V401.667M840.999 361.6H881M840.999 361.6V401.667M881 361.6H920.999M881 361.6V401.667M920.999 361.6H960.999M920.999 361.6V401.667M960.999 361.6H1001M960.999 361.6V401.667M1001 361.6H1041M1001 361.6V401.667M1041 361.6H1081M1041 361.6V401.667M1081 361.6V401.667M1081 361.6H1121M440.999 401.667H400.999M440.999 401.667H480.999M440.999 401.667V441.733M400.999 401.667V441.733M400.999 401.667H361M480.999 401.667H520.999M480.999 401.667V441.733M520.999 401.667H560.999M520.999 401.667V441.733M560.999 401.667H600.999M560.999 401.667V441.733M600.999 401.667H640.999M600.999 401.667V441.733M640.999 401.667H680.999M640.999 401.667V441.733M680.999 401.667H720.999M680.999 401.667V441.733M720.999 401.667H760.999M720.999 401.667V441.733M760.999 401.667H800.999M760.999 401.667V441.733M800.999 401.667H840.999M800.999 401.667V441.733M840.999 401.667H881M840.999 401.667V441.733M881 401.667H920.999M881 401.667V441.733M920.999 401.667H960.999M920.999 401.667V441.733M960.999 401.667H1001M960.999 401.667V441.733M1001 401.667H1041M1001 401.667V441.733M1041 401.667H1081M1041 401.667V441.733M1081 401.667V441.733M1081 401.667H1121M440.999 441.733H400.999M440.999 441.733H480.999M440.999 441.733V481.8M400.999 441.733V481.8M400.999 441.733H361M480.999 441.733H520.999M480.999 441.733V481.8M520.999 441.733H560.999M520.999 441.733V481.8M560.999 441.733H600.999M560.999 441.733V481.8M600.999 441.733H640.999M600.999 441.733V481.8M640.999 441.733H680.999M640.999 441.733V481.8M680.999 441.733H720.999M680.999 441.733V481.8M720.999 441.733H760.999M720.999 441.733V481.8M760.999 441.733H800.999M760.999 441.733V481.8M800.999 441.733H840.999M800.999 441.733V481.8M840.999 441.733H881M840.999 441.733V481.8M881 441.733H920.999M881 441.733V481.8M920.999 441.733H960.999M920.999 441.733V481.8M960.999 441.733H1001M960.999 441.733V481.8M1001 441.733H1041M1001 441.733V481.8M1041 441.733H1081M1041 441.733V481.8M1081 441.733V481.8M1081 441.733H1121M440.999 481.8H400.999M440.999 481.8H480.999M440.999 481.8V521.867M400.999 481.8H361M400.999 481.8V521.867M480.999 481.8H520.999M480.999 481.8V521.867M520.999 481.8H560.999M520.999 481.8V521.867M560.999 481.8H600.999M560.999 481.8V521.867M600.999 481.8H640.999M600.999 481.8V521.867M640.999 481.8H680.999M640.999 481.8V521.867M680.999 481.8H720.999M680.999 481.8V521.867M720.999 481.8H760.999M720.999 481.8V521.867M760.999 481.8H800.999M760.999 481.8V521.867M800.999 481.8H840.999M800.999 481.8V521.867M840.999 481.8H881M840.999 481.8V521.867M881 481.8H920.999M881 481.8V521.867M920.999 481.8H960.999M920.999 481.8V521.867M960.999 481.8H1001M960.999 481.8V521.867M1001 481.8H1041M1001 481.8V521.867M1041 481.8H1081M1041 481.8V521.867M1081 481.8H1121M1081 481.8V521.867M1121 1.00038V41.067M1121 1.00038H1161M1121 41.067V81.1337M1121 41.067H1161M1121 81.1337V121.2M1121 81.1337H1161M1121 121.2V161.267M1121 121.2H1161M1121 161.267V201.334M1121 161.267H1161M1121 201.334V241.4M1121 201.334H1161M1121 241.4V281.467M1121 241.4H1161M1121 281.467V321.533M1121 281.467H1161M1121 321.533V361.6M1121 321.533H1161M1121 361.6V401.667M1121 361.6H1161M1121 401.667V441.733M1121 401.667H1161M1121 441.733V481.8M1121 441.733H1161M1121 481.8H1161M1121 481.8V521.867M1161 1.00038V41.067M1161 1.00038H1201M1161 41.067V81.1337M1161 41.067H1201M1161 81.1337V121.2M1161 81.1337H1201M1161 121.2V161.267M1161 121.2H1201M1161 161.267V201.334M1161 161.267H1201M1161 201.334V241.4M1161 201.334H1201M1161 241.4V281.467M1161 241.4H1201M1161 281.467V321.533M1161 281.467H1201M1161 321.533V361.6M1161 321.533H1201M1161 361.6V401.667M1161 361.6H1201M1161 401.667V441.733M1161 401.667H1201M1161 441.733V481.8M1161 441.733H1201M1161 481.8H1201M1161 481.8V521.867M1201 1.00038V41.067M1201 1.00038H1241M1201 41.067H1241M1201 41.067V81.1337M1241 1.00038V41.067M1241 1.00038H1281M1241 41.067V81.1337M1241 41.067H1281M1201 81.1337H1241M1201 81.1337V121.2M1241 81.1337V121.2M1241 81.1337H1281M1201 121.2H1241M1201 121.2V161.267M1241 121.2V161.267M1241 121.2H1281M1201 161.267H1241M1201 161.267V201.334M1241 161.267V201.334M1241 161.267H1281M1201 201.334H1241M1201 201.334V241.4M1241 201.334V241.4M1241 201.334H1281M1201 241.4H1241M1201 241.4V281.467M1241 241.4V281.467M1241 241.4H1281M1201 281.467H1241M1201 281.467V321.533M1241 281.467V321.533M1241 281.467H1281M1201 321.533H1241M1201 321.533V361.6M1241 321.533V361.6M1241 321.533H1281M1201 361.6H1241M1201 361.6V401.667M1241 361.6V401.667M1241 361.6H1281M1201 401.667H1241M1201 401.667V441.733M1241 401.667V441.733M1241 401.667H1281M1201 441.733H1241M1201 441.733V481.8M1241 441.733V481.8M1241 441.733H1281M1201 481.8H1241M1201 481.8V521.867M1241 481.8H1281M1241 481.8V521.867M1281 1.00038V41.067M1281 1.00038H1321M1281 41.067V81.1337M1281 41.067H1321M1281 81.1337V121.2M1281 81.1337H1321M1281 121.2V161.267M1281 121.2H1321M1281 161.267V201.334M1281 161.267H1321M1281 201.334V241.4M1281 201.334H1321M1281 241.4V281.467M1281 241.4H1321M1281 281.467V321.533M1281 281.467H1321M1281 321.533V361.6M1281 321.533H1321M1281 361.6V401.667M1281 361.6H1321M1281 401.667V441.733M1281 401.667H1321M1281 441.733V481.8M1281 441.733H1321M1281 481.8H1321M1281 481.8V521.867M1321 1.00038V41.067M1321 1.00038H1361M1321 41.067V81.1337M1321 41.067L1361 41.067M1321 81.1337V121.2M1321 81.1337H1361M1321 121.2V161.267M1321 121.2H1361M1321 161.267V201.334M1321 161.267H1361M1321 201.334V241.4M1321 201.334H1361M1321 241.4V281.467M1321 241.4H1361M1321 281.467V321.533M1321 281.467H1361M1321 321.533V361.6M1321 321.533H1361M1321 361.6V401.667M1321 361.6H1361M1321 401.667V441.733M1321 401.667H1361M1321 441.733V481.8M1321 441.733H1361M1321 481.8H1361M1321 481.8V521.867M1361 1.00038V41.067M1361 1.00038H1401M1361 41.067V81.1337M1361 41.067H1401M1361 81.1337V121.2M1361 81.1337H1401M1361 121.2V161.267M1361 121.2H1401M1361 161.267V201.334M1361 161.267H1401M1361 201.334V241.4M1361 201.334H1401M1361 241.4V281.467M1361 241.4H1401M1361 281.467V321.533M1361 281.467H1401M1361 321.533V361.6M1361 321.533H1401M1361 361.6V401.667M1361 361.6H1401M1361 401.667V441.733M1361 401.667H1401M1361 441.733V481.8M1361 441.733H1401M1361 481.8H1401M1361 481.8V521.867M1401 1.00038V41.067M1401 1.00038H1441M1401 41.067V81.1337M1401 41.067H1441M1401 81.1337V121.2M1401 81.1337H1441M1401 121.2V161.267M1401 121.2H1441M1401 161.267V201.334M1401 161.267H1441M1401 201.334V241.4M1401 201.334H1441M1401 241.4V281.467M1401 241.4H1441M1401 281.467V321.533M1401 281.467H1441M1401 321.533V361.6M1401 321.533H1441M1401 361.6V401.667M1401 361.6H1441M1401 401.667V441.733M1401 401.667H1441M1401 441.733V481.8M1401 441.733H1441M1401 481.8H1441M1401 481.8V521.867M1441 1.00038V41.067M1441 1.00038H1481M1441 41.067V81.1337M1441 41.067L1481 41.067M1441 81.1337V121.2M1441 81.1337H1481M1441 121.2V161.267M1441 121.2H1481M1441 161.267V201.334M1441 161.267H1481M1441 201.334V241.4M1441 201.334H1481M1441 241.4V281.467M1441 241.4H1481M1441 281.467V321.533M1441 281.467H1481M1441 321.533V361.6M1441 321.533H1481M1441 361.6V401.667M1441 361.6H1481M1441 401.667V441.733M1441 401.667H1481M1441 441.733V481.8M1441 441.733H1481M1441 481.8V521.867M1441 481.8H1481M281 1.00038V41.067M281 1.00038H321M281 1.00038H241M281 41.067V81.1337M281 41.067H321M281 41.067H241M281 81.1337V121.2M281 81.1337H321M281 81.1337L241 81.1336M281 121.2V161.267M281 121.2H321M281 121.2L241 121.2M281 161.267V201.334M281 161.267H321M281 161.267L241 161.267M281 201.334V241.4M281 201.334H321M281 201.334L241 201.334M281 241.4V281.467M281 241.4H321M281 241.4H241M281 281.467V321.533M281 281.467H321M281 281.467H241M281 321.533V361.6M281 321.533H321M281 321.533H241M281 361.6V401.667M281 361.6H321M281 361.6H241M281 401.667V441.733M281 401.667H321M281 401.667H241M281 441.733V481.8M281 441.733H321M281 441.733H241M281 481.8H321M281 481.8V521.867M281 481.8L241 481.8M321 1.00038V41.067M321 1.00038H361M321 41.067V81.1337M321 41.067H361M321 81.1337V121.2M321 81.1337H361M321 121.2V161.267M321 121.2H361M321 161.267V201.334M321 161.267H361M321 201.334V241.4M321 201.334H361M321 241.4V281.467M321 241.4H361M321 281.467V321.533M321 281.467H361M321 321.533V361.6M321 321.533H361M321 361.6V401.667M321 361.6H361M321 401.667V441.733M321 401.667H361M321 441.733V481.8M321 441.733H361M321 481.8H361M321 481.8V521.867M361 1.00038V41.067M361 41.067V81.1337M361 81.1337V121.2M361 121.2V161.267M361 161.267V201.334M361 201.334V241.4M361 241.4V281.467M361 281.467V321.533M361 321.533V361.6M361 361.6V401.667M361 401.667V441.733M361 441.733V481.8M361 481.8V521.867M440.999 521.867H400.999M440.999 521.867H480.999M440.999 521.867V561.933M400.999 521.867V561.933M400.999 521.867H361M480.999 521.867H520.999M480.999 521.867V561.933M520.999 521.867H560.999M520.999 521.867V561.933M560.999 521.867H600.999M560.999 521.867V561.933M600.999 521.867H640.999M600.999 521.867V561.933M640.999 521.867H680.999M640.999 521.867V561.933M680.999 521.867H720.999M680.999 521.867V561.933M720.999 521.867H760.999M720.999 521.867V561.933M760.999 521.867H800.999M760.999 521.867V561.933M800.999 521.867H840.999M800.999 521.867V561.933M840.999 521.867H881M840.999 521.867V561.933M881 521.867H920.999M881 521.867V561.933M920.999 521.867H960.999M920.999 521.867V561.933M960.999 521.867H1001M960.999 521.867V561.933M1001 521.867H1041M1001 521.867V561.933M1041 521.867H1081M1041 521.867V561.933M1081 521.867V561.933M1081 521.867H1121M440.999 561.933H400.999M440.999 561.933H480.999M440.999 561.933V602M400.999 561.933V602M400.999 561.933H361M480.999 561.933H520.999M480.999 561.933V602M520.999 561.933H560.999M520.999 561.933V602M560.999 561.933H600.999M560.999 561.933V602M600.999 561.933H640.999M600.999 561.933V602M640.999 561.933H680.999M640.999 561.933V602M680.999 561.933H720.999M680.999 561.933V602M720.999 561.933H760.999M720.999 561.933V602M760.999 561.933H800.999M760.999 561.933V602M800.999 561.933H840.999M800.999 561.933V602M840.999 561.933H881M840.999 561.933V602M881 561.933H920.999M881 561.933V602M920.999 561.933H960.999M920.999 561.933V602M960.999 561.933H1001M960.999 561.933V602M1001 561.933H1041M1001 561.933V602M1041 561.933H1081M1041 561.933V602M1081 561.933V602M1081 561.933H1121M440.999 602H400.999M440.999 602H480.999M400.999 602H361M480.999 602H520.999M520.999 602H560.999M560.999 602H600.999M600.999 602H640.999M640.999 602H680.999M680.999 602H720.999M720.999 602H760.999M760.999 602H800.999M800.999 602H840.999M840.999 602H881M881 602H920.999M920.999 602H960.999M960.999 602H1001M1001 602H1041M1041 602H1081M1081 602H1121M1121 521.867V561.933M1121 521.867H1161M1121 561.933V602M1121 561.933H1161M1121 602H1161M1161 521.867V561.933M1161 521.867H1201M1161 561.933V602M1161 561.933H1201M1161 602H1201M1201 521.867H1241M1201 521.867V561.933M1241 521.867V561.933M1241 521.867H1281M1201 561.933H1241M1201 561.933V602M1241 561.933V602M1241 561.933H1281M1201 602H1241M1241 602H1281M1281 521.867V561.933M1281 521.867H1321M1281 561.933V602M1281 561.933H1321M1281 602H1321M1321 521.867V561.933M1321 521.867H1361M1321 561.933V602M1321 561.933H1361M1321 602H1361M1361 521.867V561.933M1361 521.867H1401M1361 561.933V602M1361 561.933H1401M1361 602H1401M1401 521.867V561.933M1401 521.867H1441M1401 561.933V602M1401 561.933H1441M1401 602H1441M1441 521.867V561.933M1441 521.867H1481M1441 561.933V602M1441 561.933H1481M1441 602H1481M281 521.867V561.933M281 521.867H321M281 521.867L241 521.867M281 561.933V602M281 561.933H321M281 561.933L241 561.933M281 602H321M281 602L241 602M321 521.867V561.933M321 521.867H361M321 561.933V602M321 561.933H361M321 602H361M361 521.867V561.933M361 561.933V602M1481 1.00038V41.067M1481 1.00038H1521M1481 41.067H1521M1481 41.067V81.1337M1521 1.00038V41.067M1521 1.00038H1561M1521 41.067V81.1337M1521 41.067H1561M1481 81.1337H1521M1481 81.1337V121.2M1521 81.1337V121.2M1521 81.1337H1561M1481 121.2H1521M1481 121.2V161.267M1521 121.2V161.267M1521 121.2H1561M1481 161.267H1521M1481 161.267V201.334M1521 161.267V201.334M1521 161.267H1561M1481 201.334H1521M1481 201.334V241.4M1521 201.334V241.4M1521 201.334H1561M1481 241.4H1521M1481 241.4V281.467M1521 241.4V281.467M1521 241.4H1561M1481 281.467H1521M1481 281.467V321.533M1521 281.467V321.533M1521 281.467H1561M1481 321.533H1521M1481 321.533V361.6M1521 321.533V361.6M1521 321.533H1561M1481 361.6H1521M1481 361.6V401.667M1521 361.6V401.667M1521 361.6H1561M1481 401.667H1521M1481 401.667V441.733M1521 401.667V441.733M1521 401.667H1561M1481 441.733H1521M1481 441.733V481.8M1521 441.733V481.8M1521 441.733H1561M1481 481.8H1521M1481 481.8V521.867M1521 481.8H1561M1521 481.8V521.867M1561 1.00038V41.067M1561 1.00038H1601M1561 41.067V81.1337M1561 41.067H1601M1561 81.1337V121.2M1561 81.1337H1601M1561 121.2V161.267M1561 121.2H1601M1561 161.267V201.334M1561 161.267H1601M1561 201.334V241.4M1561 201.334H1601M1561 241.4V281.467M1561 241.4H1601M1561 281.467V321.533M1561 281.467H1601M1561 321.533V361.6M1561 321.533H1601M1561 361.6V401.667M1561 361.6H1601M1561 401.667V441.733M1561 401.667H1601M1561 441.733V481.8M1561 441.733H1601M1561 481.8H1601M1561 481.8V521.867M1601 1.00038V41.067M1601 1.00038H1641M1601 41.067V81.1337M1601 41.067L1641 41.067M1601 81.1337V121.2M1601 81.1337H1641M1601 121.2V161.267M1601 121.2H1641M1601 161.267V201.334M1601 161.267H1641M1601 201.334V241.4M1601 201.334H1641M1601 241.4V281.467M1601 241.4H1641M1601 281.467V321.533M1601 281.467H1641M1601 321.533V361.6M1601 321.533H1641M1601 361.6V401.667M1601 361.6H1641M1601 401.667V441.733M1601 401.667H1641M1601 441.733V481.8M1601 441.733H1641M1601 481.8H1641M1601 481.8V521.867M1641 1.00038V41.067M1641 1.00038H1681M1641 41.067V81.1337M1641 41.067H1681M1641 81.1337V121.2M1641 81.1337H1681M1641 121.2V161.267M1641 121.2H1681M1641 161.267V201.334M1641 161.267H1681M1641 201.334V241.4M1641 201.334H1681M1641 241.4V281.467M1641 241.4H1681M1641 281.467V321.533M1641 281.467H1681M1641 321.533V361.6M1641 321.533H1681M1641 361.6V401.667M1641 361.6H1681M1641 401.667V441.733M1641 401.667H1681M1641 441.733V481.8M1641 441.733H1681M1641 481.8H1681M1641 481.8V521.867M1681 1.00038V41.067M1681 1.00038H1721V41.067M1681 41.067V81.1337M1681 41.067H1721M1681 81.1337V121.2M1681 81.1337H1721M1681 121.2V161.267M1681 121.2H1721M1681 161.267V201.334M1681 161.267H1721M1681 201.334V241.4M1681 201.334H1721M1681 241.4V281.467M1681 241.4H1721M1681 281.467V321.533M1681 281.467H1721M1681 321.533V361.6M1681 321.533H1721M1681 361.6V401.667M1681 361.6H1721M1681 401.667V441.733M1681 401.667H1721M1681 441.733V481.8M1681 441.733H1721M1681 481.8H1721M1681 481.8V521.867M1721 41.067V81.1337M1721 81.1337V121.2M1721 121.2V161.267M1721 161.267V201.334M1721 201.334V241.4M1721 241.4V281.467M1721 281.467V321.533M1721 321.533V361.6M1721 361.6V401.667M1721 401.667V441.733M1721 441.733V481.8M1721 481.8V521.867M1481 521.867H1521M1481 521.867V561.933M1521 521.867V561.933M1521 521.867H1561M1481 561.933H1521M1481 561.933V602M1521 561.933V602M1521 561.933H1561M1481 602H1521M1521 602H1561M1561 521.867V561.933M1561 521.867H1601M1561 561.933V602M1561 561.933H1601M1561 602H1601M1601 521.867V561.933M1601 521.867H1641M1601 561.933V602M1601 561.933H1641M1601 602H1641M1641 521.867V561.933M1641 521.867H1681M1641 561.933V602M1641 561.933H1681M1641 602H1681M1681 521.867V561.933M1681 521.867H1721M1681 561.933V602M1681 561.933H1721M1681 602H1721V561.933M1721 521.867V561.933M161 1.00038V41.067M161 1.00038H201M161 1.00038L121.001 1M161 41.067V81.1336M161 41.067H201M161 41.067L121.001 41.0666M161 81.1336V121.2M161 81.1336H201M161 81.1336L121.001 81.1333M161 121.2V161.267M161 121.2H201M161 121.2L121.001 121.2M161 161.267V201.334M161 161.267H201M161 161.267L121.001 161.267M161 201.334V241.4M161 201.334H201M161 201.334L121.001 201.333M161 241.4V281.467M161 241.4H201M161 241.4L121.001 241.4M161 281.467V321.533M161 281.467H201M161 281.467L121.001 281.466M161 321.533V361.6M161 321.533H201M161 321.533L121.001 321.533M161 361.6V401.667M161 361.6H201M161 361.6L121.001 361.6M161 401.667V441.733M161 401.667H201M161 401.667L121.001 401.666M161 441.733V481.8M161 441.733H201M161 441.733L121.001 441.733M161 481.8H201M161 481.8V521.867M161 481.8L121.001 481.8M201 1.00038V41.067M201 1.00038H241M201 41.067V81.1336M201 41.067H241M201 81.1336V121.2M201 81.1336H241M201 121.2V161.267M201 121.2H241M201 161.267V201.334M201 161.267H241M201 201.334V241.4M201 201.334H241M201 241.4V281.467M201 241.4H241M201 281.467V321.533M201 281.467H241M201 321.533V361.6M201 321.533H241M201 361.6V401.667M201 361.6H241M201 401.667V441.733M201 401.667H241M201 441.733V481.8M201 441.733H241M201 481.8H241M201 481.8V521.867M241 1.00038V41.067M241 41.067V81.1336M241 81.1336V121.2M241 121.2V161.267M241 161.267V201.334M241 201.334V241.4M241 241.4V281.467M241 281.467V321.533M241 321.533V361.6M241 361.6V401.667M241 401.667V441.733M241 441.733V481.8M241 481.8V521.867M161 521.867V561.933M161 521.867H201M161 521.867L121.001 521.866M161 561.933V602M161 561.933H201M161 561.933L121.001 561.933M161 602H201M161 602L121.001 602M201 521.867V561.933M201 521.867H241M201 561.933V602M201 561.933H241M201 602H241M241 521.867V561.933M241 561.933V602M41.0005 1V41.0666M41.0005 1H81.0005M41.0005 1H1V41.0666M41.0005 41.0666V81.1333M41.0005 41.0666H81.0005M41.0005 41.0666H1M41.0005 81.1333V121.2M41.0005 81.1333H81.0005M41.0005 81.1333H1M41.0005 121.2V161.267M41.0005 121.2H81.0005M41.0005 121.2H1M41.0005 161.267V201.333M41.0005 161.267H81.0005M41.0005 161.267H1M41.0005 201.333V241.4M41.0005 201.333H81.0005M41.0005 201.333H1M41.0005 241.4V281.466M41.0005 241.4H81.0005M41.0005 241.4H1M41.0005 281.466V321.533M41.0005 281.466H81.0005M41.0005 281.466H1M41.0005 321.533V361.6M41.0005 321.533H81.0005M41.0005 321.533H1M41.0005 361.6V401.666M41.0005 361.6H81.0005M41.0005 361.6H1M41.0005 401.666V441.733M41.0005 401.666H81.0005M41.0005 401.666H1M41.0005 441.733V481.8M41.0005 441.733H81.0005M41.0005 441.733H1M41.0005 481.8H81.0005M41.0005 481.8V521.866M41.0005 481.8H1M81.0005 1V41.0666M81.0005 1H121.001M81.0005 41.0666V81.1333M81.0005 41.0666H121.001M81.0005 81.1333V121.2M81.0005 81.1333H121.001M81.0005 121.2V161.267M81.0005 121.2H121.001M81.0005 161.267V201.333M81.0005 161.267H121.001M81.0005 201.333V241.4M81.0005 201.333H121.001M81.0005 241.4V281.466M81.0005 241.4H121.001M81.0005 281.466V321.533M81.0005 281.466H121.001M81.0005 321.533V361.6M81.0005 321.533H121.001M81.0005 361.6V401.666M81.0005 361.6H121.001M81.0005 401.666V441.733M81.0005 401.666H121.001M81.0005 441.733V481.8M81.0005 441.733H121.001M81.0005 481.8H121.001M81.0005 481.8V521.866M121.001 1V41.0666M121.001 41.0666V81.1333M121.001 81.1333V121.2M121.001 121.2V161.267M121.001 161.267V201.333M121.001 201.333V241.4M121.001 241.4V281.466M121.001 281.466V321.533M121.001 321.533V361.6M121.001 361.6V401.666M121.001 401.666V441.733M121.001 441.733V481.8M121.001 481.8V521.866M41.0005 521.866V561.933M41.0005 521.866H81.0005M41.0005 521.866H1M41.0005 561.933V602M41.0005 561.933H81.0005M41.0005 561.933H1M41.0005 602H81.0005M41.0005 602H1V561.933M81.0005 521.866V561.933M81.0005 521.866H121.001M81.0005 561.933V602M81.0005 561.933H121.001M81.0005 602H121.001M121.001 521.866V561.933M121.001 561.933V602M1 41.0666V81.1333M1 81.1333V121.2M1 121.2V161.267M1 161.267V201.333M1 201.333V241.4M1 241.4V281.466M1 281.466V321.533M1 321.533V361.6M1 361.6V401.666M1 401.666V441.733M1 441.733V481.8M1 481.8V521.866M1 521.866V561.933" stroke="url(#paint0_radial_65_482)" stroke-opacity="0.04"/>
<defs>
<radialGradient id="paint0_radial_65_482" cx="0" cy="0" r="1" gradientUnits="userSpaceOnUse" gradientTransform="translate(1107 -428) rotate(110.538) scale(736.833 736.833)">
<stop stop-color="#C3D1FF"/>
<stop offset="1" stop-color="#C3D1FF" stop-opacity="0"/>
</radialGradient>
</defs>
</svg>
