<svg width="27" height="29" viewBox="0 0 27 29" fill="none" xmlns="http://www.w3.org/2000/svg">
<path d="M14.4694 0.189072C14.2523 0.0652087 14.0061 0 13.7555 0C13.5049 0 13.2587 0.0652087 13.0416 0.189072L6.25687 4.11304L19.5304 11.7774V27.2955L26.2977 23.383C26.5117 23.2595 26.6891 23.0828 26.8123 22.8704C26.9356 22.658 27.0003 22.4173 27 22.1725V7.4576L14.4694 0.189072Z" fill="black"/>
<path d="M6.26821 8.23278L0 11.7953L9.86662 17.4805V29L16.1232 25.4432C16.2821 25.3525 16.4141 25.222 16.5058 25.0649C16.5975 24.9078 16.6457 24.7296 16.6456 24.5482V13.6082L7.35934 8.23278C7.19469 8.13462 7.00606 8.08274 6.81377 8.08274C6.62149 8.08274 6.43286 8.13462 6.26821 8.23278Z" fill="black"/>
<path d="M6.87186 26.8488V19.0811L0.150951 22.965L6.87186 26.8488Z" fill="black"/>
</svg>
