<svg width="34" height="36" viewBox="0 0 34 36" fill="none" xmlns="http://www.w3.org/2000/svg">
<path d="M18.2207 0.23471C17.9474 0.0809488 17.6373 0 17.3217 0C17.0061 0 16.6961 0.0809488 16.4228 0.23471L7.87902 5.10585L24.5938 14.6202V33.884L33.1157 29.0271C33.3851 28.8739 33.6085 28.6545 33.7637 28.3908C33.9189 28.1271 34.0003 27.8284 34 27.5245V9.25771L18.2207 0.23471Z" fill="white"/>
<path d="M7.8933 10.22L0 14.6425L12.4246 21.6999V36L20.3033 31.5846C20.5034 31.4721 20.6696 31.3101 20.7851 31.1151C20.9005 30.9201 20.9612 30.6988 20.9611 30.4737V16.8929L9.26732 10.22C9.05998 10.0981 8.82244 10.0337 8.58031 10.0337C8.33818 10.0337 8.10064 10.0981 7.8933 10.22Z" fill="white"/>
<path d="M8.65346 33.3295V23.6869L0.190086 28.5082L8.65346 33.3295Z" fill="white"/>
</svg>
