<svg width="30" height="30" viewBox="0 0 30 30" fill="none" xmlns="http://www.w3.org/2000/svg">
<g filter="url(#filter0_i_29_1567)">
<path d="M24.9132 5.59703C28.1319 10.363 29.7215 15.7388 29.1273 21.9276C29.1248 21.9538 29.1113 21.9778 29.0899 21.9936C26.6524 23.7961 24.2909 24.89 21.9624 25.6154C21.9443 25.621 21.9249 25.6207 21.9069 25.6146C21.889 25.6084 21.8734 25.5968 21.8623 25.5813C21.3244 24.8276 20.8356 24.0329 20.4074 23.1984C20.3828 23.1492 20.4052 23.09 20.4558 23.0707C21.2321 22.7761 21.9702 22.4231 22.6803 22.0051C22.7362 21.9721 22.7397 21.8914 22.6881 21.8526C22.5374 21.74 22.3881 21.6216 22.2453 21.5032C22.2186 21.4813 22.1826 21.477 22.1523 21.4917C17.5428 23.6354 12.4933 23.6354 7.82928 21.4917C7.799 21.4781 7.76302 21.4827 7.73701 21.5043C7.59451 21.6227 7.44489 21.74 7.29562 21.8526C7.24397 21.8914 7.24824 21.9721 7.30453 22.0051C8.01453 22.4152 8.75268 22.7761 9.52788 23.0721C9.57811 23.0915 9.60198 23.1492 9.57704 23.1984C9.15809 24.034 8.66932 24.8286 8.12141 25.5824C8.09754 25.6129 8.05835 25.6269 8.0213 25.6154C5.7039 24.89 3.34232 23.7961 0.904863 21.9936C0.884556 21.9778 0.86995 21.9527 0.867813 21.9265C0.371201 16.5733 1.38331 11.153 5.07797 5.59596C5.08687 5.58125 5.10041 5.56977 5.11609 5.56295C6.93403 4.72271 8.88164 4.10454 10.9173 3.75151C10.9543 3.74577 10.9914 3.76299 11.0106 3.796C11.2621 4.24446 11.5496 4.81958 11.7441 5.28957C13.8898 4.9595 16.069 4.9595 18.2596 5.28957C18.4541 4.82962 18.7316 4.24446 18.982 3.796C18.9909 3.77963 19.0048 3.76651 19.0215 3.75852C19.0383 3.75053 19.0571 3.74808 19.0754 3.75151C21.112 4.10562 23.0597 4.72378 24.8762 5.56295C24.8922 5.56977 24.9054 5.58125 24.9132 5.59703ZM12.8349 15.7754C12.8574 14.1928 11.7117 12.8833 10.2735 12.8833C8.84709 12.8833 7.71243 14.1814 7.71243 15.7754C7.71243 17.3691 8.86953 18.6671 10.2735 18.6671C11.7003 18.6671 12.8349 17.3691 12.8349 15.7754ZM22.3048 15.7754C22.3272 14.1928 21.1815 12.8833 19.7437 12.8833C18.3169 12.8833 17.1823 14.1814 17.1823 15.7754C17.1823 17.3691 18.3394 18.6671 19.7437 18.6671C21.1815 18.6671 22.3048 17.3691 22.3048 15.7754Z" fill="black"/>
</g>
<defs>
<filter id="filter0_i_29_1567" x="0" y="0" width="30" height="30.5" filterUnits="userSpaceOnUse" color-interpolation-filters="sRGB">
<feFlood flood-opacity="0" result="BackgroundImageFix"/>
<feBlend mode="normal" in="SourceGraphic" in2="BackgroundImageFix" result="shape"/>
<feColorMatrix in="SourceAlpha" type="matrix" values="0 0 0 0 0 0 0 0 0 0 0 0 0 0 0 0 0 0 127 0" result="hardAlpha"/>
<feOffset dy="0.5"/>
<feGaussianBlur stdDeviation="1.25"/>
<feComposite in2="hardAlpha" operator="arithmetic" k2="-1" k3="1"/>
<feColorMatrix type="matrix" values="0 0 0 0 0 0 0 0 0 0 0 0 0 0 0 0 0 0 0.1 0"/>
<feBlend mode="normal" in2="shape" result="effect1_innerShadow_29_1567"/>
</filter>
</defs>
</svg>
