<svg width="24" height="24" viewBox="0 0 24 24" fill="none" xmlns="http://www.w3.org/2000/svg">
<g filter="url(#filter0_i_0_713)">
<path d="M19.9302 4.47763C22.5052 8.29037 23.7768 12.591 23.3014 17.5421C23.2995 17.563 23.2886 17.5823 23.2715 17.5949C21.3216 19.0369 19.4323 19.912 17.5695 20.4923C17.555 20.4968 17.5395 20.4965 17.5252 20.4916C17.5108 20.4868 17.4983 20.4775 17.4895 20.4651C17.0591 19.8621 16.6681 19.2263 16.3255 18.5587C16.3058 18.5194 16.3238 18.472 16.3643 18.4565C16.9853 18.2209 17.5758 17.9385 18.1438 17.6041C18.1886 17.5777 18.1914 17.5131 18.1501 17.4821C18.0295 17.392 17.9101 17.2973 17.7958 17.2025C17.7745 17.185 17.7457 17.1816 17.7214 17.1934C14.0338 18.9083 9.99425 18.9083 6.26304 17.1934C6.23881 17.1825 6.21003 17.1862 6.18922 17.2034C6.07522 17.2981 5.95552 17.392 5.83611 17.4821C5.79478 17.5131 5.7982 17.5777 5.84323 17.6041C6.41124 17.9321 7.00175 18.2209 7.62191 18.4577C7.6621 18.4732 7.68119 18.5194 7.66124 18.5587C7.32608 19.2272 6.93506 19.8629 6.49674 20.4659C6.47764 20.4903 6.44629 20.5015 6.41665 20.4923C4.56273 19.912 2.67347 19.0369 0.723499 17.5949C0.707255 17.5823 0.69557 17.5622 0.69386 17.5412C0.29657 13.2586 1.10625 8.92238 4.06198 4.47677C4.06911 4.465 4.07994 4.45581 4.09248 4.45036C5.54683 3.77817 7.10492 3.28364 8.73341 3.00121C8.76305 2.99662 8.79269 3.01039 8.80808 3.0368C9.00929 3.39557 9.23929 3.85566 9.3949 4.23165C11.1114 3.9676 12.8548 3.9676 14.6073 4.23165C14.7629 3.8637 14.9849 3.39557 15.1852 3.0368C15.1924 3.0237 15.2034 3.01321 15.2168 3.00681C15.2302 3.00042 15.2453 2.99846 15.2599 3.00121C16.8892 3.2845 18.4473 3.77903 19.9005 4.45036C19.9134 4.45581 19.9239 4.465 19.9302 4.47763ZM10.2676 12.6203C10.2855 11.3543 9.36896 10.3067 8.21842 10.3067C7.07728 10.3067 6.16956 11.3451 6.16956 12.6203C6.16956 13.8952 7.09523 14.9337 8.21842 14.9337C9.35984 14.9337 10.2676 13.8952 10.2676 12.6203ZM17.8434 12.6203C17.8614 11.3543 16.9448 10.3067 15.7946 10.3067C14.6531 10.3067 13.7454 11.3451 13.7454 12.6203C13.7454 13.8952 14.6711 14.9337 15.7946 14.9337C16.9448 14.9337 17.8434 13.8952 17.8434 12.6203Z" fill="white"/>
</g>
<defs>
<filter id="filter0_i_0_713" x="0" y="0" width="24" height="24.5" filterUnits="userSpaceOnUse" color-interpolation-filters="sRGB">
<feFlood flood-opacity="0" result="BackgroundImageFix"/>
<feBlend mode="normal" in="SourceGraphic" in2="BackgroundImageFix" result="shape"/>
<feColorMatrix in="SourceAlpha" type="matrix" values="0 0 0 0 0 0 0 0 0 0 0 0 0 0 0 0 0 0 127 0" result="hardAlpha"/>
<feOffset dy="0.5"/>
<feGaussianBlur stdDeviation="1.25"/>
<feComposite in2="hardAlpha" operator="arithmetic" k2="-1" k3="1"/>
<feColorMatrix type="matrix" values="0 0 0 0 0 0 0 0 0 0 0 0 0 0 0 0 0 0 0.1 0"/>
<feBlend mode="normal" in2="shape" result="effect1_innerShadow_0_713"/>
</filter>
</defs>
</svg>
