<svg width="18" height="18" viewBox="0 0 18 18" fill="none" xmlns="http://www.w3.org/2000/svg">
<path d="M9 0.875C4.51992 0.875 0.875 4.51992 0.875 9C0.875 13.4801 4.51992 17.125 9 17.125C13.4801 17.125 17.125 13.4801 17.125 9C17.125 4.51992 13.4801 0.875 9 0.875ZM9.07812 4.625C9.63438 4.625 10.1782 4.78995 10.6407 5.09899C11.1032 5.40803 11.4637 5.84729 11.6765 6.3612C11.8894 6.87512 11.9451 7.44062 11.8366 7.98619C11.7281 8.53176 11.4602 9.0329 11.0669 9.42624C10.6735 9.81957 10.1724 10.0874 9.62682 10.196C9.08124 10.3045 8.51574 10.2488 8.00183 10.0359C7.48791 9.82304 7.04866 9.46255 6.73962 9.00004C6.43057 8.53753 6.26562 7.99376 6.26562 7.4375C6.26562 6.69158 6.56194 5.97621 7.08939 5.44876C7.61683 4.92132 8.3322 4.625 9.07812 4.625ZM9 15.875C8.05174 15.8754 7.11371 15.6791 6.24516 15.2986C5.37661 14.918 4.59643 14.3615 3.95391 13.6641C4.29922 11.8758 7.40078 11.5 9 11.5C10.5992 11.5 13.7008 11.8758 14.0461 13.6637C13.4036 14.3612 12.6235 14.9179 11.7549 15.2985C10.8864 15.6791 9.9483 15.8754 9 15.875Z" fill="white"/>
</svg>
