<svg width="20" height="20" viewBox="0 0 20 20" fill="none" xmlns="http://www.w3.org/2000/svg">
<path fill-rule="evenodd" clip-rule="evenodd" d="M20 10C20 15.5228 15.5228 20 10 20C4.47715 20 0 15.5228 0 10C0 4.47715 4.47715 0 10 0C15.5228 0 20 4.47715 20 10ZM9.8629 6.47591C10.2771 6.47266 10.6155 6.80579 10.6188 7.21999L10.6342 9.17584L12.59 9.19123C13.0042 9.19449 13.3373 9.53291 13.3341 9.94711C13.3308 10.3613 12.9924 10.6944 12.5782 10.6912L10.646 10.676L10.6612 12.6082C10.6644 13.0224 10.3313 13.3608 9.91711 13.364C9.50291 13.3673 9.16449 13.0342 9.16123 12.62L9.14584 10.6642L7.19002 10.6488C6.77582 10.6455 6.44269 10.3071 6.44595 9.8929C6.44921 9.4787 6.78762 9.14557 7.20183 9.14883L9.13404 9.16403L9.11883 7.23179C9.11557 6.81759 9.4487 6.47917 9.8629 6.47591Z" fill="black"/>
</svg>
