<svg width="20" height="20" viewBox="0 0 20 20" fill="none" xmlns="http://www.w3.org/2000/svg">
<path d="M9.99994 14.4584C10.7501 14.4584 11.3583 13.8502 11.3583 13.1C11.3583 12.3498 10.7501 11.7417 9.99994 11.7417C9.24975 11.7417 8.6416 12.3498 8.6416 13.1C8.6416 13.8502 9.24975 14.4584 9.99994 14.4584Z" fill="white"/>
<path d="M13.8753 7.86663H6.12533C6.05866 7.86663 6.00033 7.86663 5.93366 7.86663V6.89996C5.93366 4.45829 6.62533 2.83329 10.0003 2.83329C13.6087 2.83329 14.067 4.59163 14.067 6.12496C14.067 6.44996 14.3253 6.70829 14.6503 6.70829C14.9753 6.70829 15.2337 6.44996 15.2337 6.12496C15.2337 3.16663 13.4753 1.66663 10.0003 1.66663C5.30866 1.66663 4.76699 4.64996 4.76699 6.89996V7.94163C2.43366 8.23329 1.66699 9.41663 1.66699 12.325V13.875C1.66699 17.2916 2.70866 18.3333 6.12533 18.3333H13.8753C17.292 18.3333 18.3337 17.2916 18.3337 13.875V12.325C18.3337 8.90829 17.292 7.86663 13.8753 7.86663ZM10.0003 15.6166C8.60866 15.6166 7.48366 14.4833 7.48366 13.1C7.48366 11.7083 8.61699 10.5833 10.0003 10.5833C11.3837 10.5833 12.517 11.7166 12.517 13.1C12.517 14.4916 11.392 15.6166 10.0003 15.6166Z" fill="white"/>
</svg>
