<svg width="24" height="24" viewBox="0 0 24 24" fill="none" xmlns="http://www.w3.org/2000/svg">
<g filter="url(#filter0_i_0_718)">
<path d="M16.4999 7.21526C16.9545 7.21526 17.3984 7.25304 17.8364 7.30704C17.0446 3.82958 13.3921 1.19922 9.00014 1.19922C4.02899 1.19922 0 4.56659 0 8.71929C0 11.1135 1.34708 13.2377 3.4365 14.6121L2.24996 16.9915L5.4823 15.6032C6.17544 15.8501 6.8957 16.0534 7.66501 16.1479C7.55988 15.689 7.50014 15.2186 7.50014 14.7357C7.50014 10.5889 11.5364 7.21526 16.4999 7.21526ZM12.0002 4.58302C12.6213 4.58302 13.125 5.08833 13.125 5.71119C13.125 6.33425 12.6213 6.83919 12.0002 6.83919C11.3787 6.83919 10.8751 6.33425 10.8751 5.71119C10.8751 5.08828 11.3787 4.58302 12.0002 4.58302ZM6.00003 6.83919C5.37879 6.83919 4.87505 6.33425 4.87505 5.71119C4.87505 5.08833 5.37884 4.58302 6.00003 4.58302C6.62121 4.58302 7.12506 5.08833 7.12506 5.71119C7.125 6.33425 6.62116 6.83919 6.00003 6.83919Z" fill="white"/>
<path d="M24 14.7356C24 11.4129 20.6412 8.71929 16.4999 8.71929C12.3584 8.71929 9.00014 11.4129 9.00014 14.7356C9.00014 18.058 12.3584 20.7517 16.4999 20.7517C17.181 20.7517 17.8288 20.6554 18.4574 20.5187L22.5 22.2557L21.1019 19.4539C22.854 18.3527 24 16.6593 24 14.7356ZM14.25 14.3595C13.6288 14.3595 13.125 13.8544 13.125 13.2313C13.125 12.6084 13.6288 12.1035 14.25 12.1035C14.8714 12.1035 15.3749 12.6086 15.3749 13.2313C15.3749 13.8545 14.8713 14.3595 14.25 14.3595ZM18.7499 14.3595C18.1284 14.3595 17.625 13.8544 17.625 13.2313C17.625 12.6084 18.1284 12.1035 18.7499 12.1035C19.3714 12.1035 19.875 12.6086 19.875 13.2313C19.875 13.8545 19.3714 14.3595 18.7499 14.3595Z" fill="white"/>
</g>
<defs>
<filter id="filter0_i_0_718" x="0" y="0" width="24" height="24.5" filterUnits="userSpaceOnUse" color-interpolation-filters="sRGB">
<feFlood flood-opacity="0" result="BackgroundImageFix"/>
<feBlend mode="normal" in="SourceGraphic" in2="BackgroundImageFix" result="shape"/>
<feColorMatrix in="SourceAlpha" type="matrix" values="0 0 0 0 0 0 0 0 0 0 0 0 0 0 0 0 0 0 127 0" result="hardAlpha"/>
<feOffset dy="0.5"/>
<feGaussianBlur stdDeviation="1.25"/>
<feComposite in2="hardAlpha" operator="arithmetic" k2="-1" k3="1"/>
<feColorMatrix type="matrix" values="0 0 0 0 0 0 0 0 0 0 0 0 0 0 0 0 0 0 0.1 0"/>
<feBlend mode="normal" in2="shape" result="effect1_innerShadow_0_718"/>
</filter>
</defs>
</svg>
