<svg width="252" height="252" viewBox="0 0 252 252" fill="none" xmlns="http://www.w3.org/2000/svg">
<g filter="url(#filter0_i_2021_816)">
<path d="M133.5 118.026C134.257 118.026 134.997 118.088 135.727 118.178C134.408 112.383 128.32 107.999 121 107.999C112.715 107.999 106 113.611 106 120.532C106 124.523 108.245 128.063 111.728 130.354L109.75 134.319L115.137 132.005C116.292 132.417 117.493 132.756 118.775 132.913C118.6 132.148 118.5 131.364 118.5 130.56C118.5 123.648 125.227 118.026 133.5 118.026ZM126 113.638C127.035 113.638 127.875 114.481 127.875 115.519C127.875 116.557 127.036 117.399 126 117.399C124.964 117.399 124.125 116.557 124.125 115.519C124.125 114.481 124.964 113.638 126 113.638ZM116 117.399C114.965 117.399 114.125 116.557 114.125 115.519C114.125 114.481 114.965 113.638 116 113.638C117.035 113.638 117.875 114.481 117.875 115.519C117.875 116.557 117.035 117.399 116 117.399Z" fill="black"/>
<path d="M146 130.559C146 125.022 140.402 120.532 133.5 120.532C126.597 120.532 121 125.022 121 130.559C121 136.097 126.597 140.586 133.5 140.586C134.635 140.586 135.715 140.426 136.762 140.198L143.5 143.093L141.17 138.423C144.09 136.588 146 133.766 146 130.559ZM129.75 129.933C128.715 129.933 127.875 129.091 127.875 128.052C127.875 127.014 128.715 126.173 129.75 126.173C130.786 126.173 131.625 127.014 131.625 128.052C131.625 129.091 130.785 129.933 129.75 129.933ZM137.25 129.933C136.214 129.933 135.375 129.091 135.375 128.052C135.375 127.014 136.214 126.173 137.25 126.173C138.286 126.173 139.125 127.014 139.125 128.052C139.125 129.091 138.286 129.933 137.25 129.933Z" fill="black"/>
</g>
<path d="M1 1H8.57576V8.57576H1V1Z" fill="black"/>
<path d="M8.57576 1H16.1515V8.57576H8.57576V1Z" fill="black"/>
<path d="M16.1515 1H23.7273V8.57576H16.1515V1Z" fill="black"/>
<path d="M23.7273 1H31.303V8.57576H23.7273V1Z" fill="black"/>
<path d="M31.303 1H38.8788V8.57576H31.303V1Z" fill="black"/>
<path d="M38.8788 1H46.4545V8.57576H38.8788V1Z" fill="black"/>
<path d="M46.4545 1H54.0303V8.57576H46.4545V1Z" fill="black"/>
<path d="M91.9091 1H99.4848V8.57576H91.9091V1Z" fill="black"/>
<path d="M107.061 1H114.636V8.57576H107.061V1Z" fill="black"/>
<path d="M114.636 1H122.212V8.57576H114.636V1Z" fill="black"/>
<path d="M122.212 1H129.788V8.57576H122.212V1Z" fill="black"/>
<path d="M129.788 1H137.364V8.57576H129.788V1Z" fill="black"/>
<path d="M137.364 1H144.939V8.57576H137.364V1Z" fill="black"/>
<path d="M152.515 1H160.091V8.57576H152.515V1Z" fill="black"/>
<path d="M175.242 1H182.818V8.57576H175.242V1Z" fill="black"/>
<path d="M197.97 1H205.545V8.57576H197.97V1Z" fill="black"/>
<path d="M205.545 1H213.121V8.57576H205.545V1Z" fill="black"/>
<path d="M213.121 1H220.697V8.57576H213.121V1Z" fill="black"/>
<path d="M220.697 1H228.273V8.57576H220.697V1Z" fill="black"/>
<path d="M228.273 1H235.848V8.57576H228.273V1Z" fill="black"/>
<path d="M235.848 1H243.424V8.57576H235.848V1Z" fill="black"/>
<path d="M243.424 1H251V8.57576H243.424V1Z" fill="black"/>
<path d="M1 8.57576H8.57576V16.1515H1V8.57576Z" fill="black"/>
<path d="M46.4545 8.57576H54.0303V16.1515H46.4545V8.57576Z" fill="black"/>
<path d="M61.6061 8.57576H69.1818V16.1515H61.6061V8.57576Z" fill="black"/>
<path d="M76.7576 8.57576H84.3333V16.1515H76.7576V8.57576Z" fill="black"/>
<path d="M84.3333 8.57576H91.9091V16.1515H84.3333V8.57576Z" fill="black"/>
<path d="M91.9091 8.57576H99.4848V16.1515H91.9091V8.57576Z" fill="black"/>
<path d="M122.212 8.57576H129.788V16.1515H122.212V8.57576Z" fill="black"/>
<path d="M137.364 8.57576H144.939V16.1515H137.364V8.57576Z" fill="black"/>
<path d="M175.242 8.57576H182.818V16.1515H175.242V8.57576Z" fill="black"/>
<path d="M182.818 8.57576H190.394V16.1515H182.818V8.57576Z" fill="black"/>
<path d="M197.97 8.57576H205.545V16.1515H197.97V8.57576Z" fill="black"/>
<path d="M243.424 8.57576H251V16.1515H243.424V8.57576Z" fill="black"/>
<path d="M1 16.1515H8.57576V23.7273H1V16.1515Z" fill="black"/>
<path d="M16.1515 16.1515H23.7273V23.7273H16.1515V16.1515Z" fill="black"/>
<path d="M23.7273 16.1515H31.303V23.7273H23.7273V16.1515Z" fill="black"/>
<path d="M31.303 16.1515H38.8788V23.7273H31.303V16.1515Z" fill="black"/>
<path d="M46.4545 16.1515H54.0303V23.7273H46.4545V16.1515Z" fill="black"/>
<path d="M61.6061 16.1515H69.1818V23.7273H61.6061V16.1515Z" fill="black"/>
<path d="M69.1818 16.1515H76.7576V23.7273H69.1818V16.1515Z" fill="black"/>
<path d="M99.4848 16.1515H107.061V23.7273H99.4848V16.1515Z" fill="black"/>
<path d="M107.061 16.1515H114.636V23.7273H107.061V16.1515Z" fill="black"/>
<path d="M114.636 16.1515H122.212V23.7273H114.636V16.1515Z" fill="black"/>
<path d="M122.212 16.1515H129.788V23.7273H122.212V16.1515Z" fill="black"/>
<path d="M129.788 16.1515H137.364V23.7273H129.788V16.1515Z" fill="black"/>
<path d="M152.515 16.1515H160.091V23.7273H152.515V16.1515Z" fill="black"/>
<path d="M167.667 16.1515H175.242V23.7273H167.667V16.1515Z" fill="black"/>
<path d="M175.242 16.1515H182.818V23.7273H175.242V16.1515Z" fill="black"/>
<path d="M197.97 16.1515H205.545V23.7273H197.97V16.1515Z" fill="black"/>
<path d="M213.121 16.1515H220.697V23.7273H213.121V16.1515Z" fill="black"/>
<path d="M220.697 16.1515H228.273V23.7273H220.697V16.1515Z" fill="black"/>
<path d="M228.273 16.1515H235.848V23.7273H228.273V16.1515Z" fill="black"/>
<path d="M243.424 16.1515H251V23.7273H243.424V16.1515Z" fill="black"/>
<path d="M1 23.7273H8.57576V31.303H1V23.7273Z" fill="black"/>
<path d="M16.1515 23.7273H23.7273V31.303H16.1515V23.7273Z" fill="black"/>
<path d="M23.7273 23.7273H31.303V31.303H23.7273V23.7273Z" fill="black"/>
<path d="M31.303 23.7273H38.8788V31.303H31.303V23.7273Z" fill="black"/>
<path d="M46.4545 23.7273H54.0303V31.303H46.4545V23.7273Z" fill="black"/>
<path d="M69.1818 23.7273H76.7576V31.303H69.1818V23.7273Z" fill="black"/>
<path d="M99.4848 23.7273H107.061V31.303H99.4848V23.7273Z" fill="black"/>
<path d="M107.061 23.7273H114.636V31.303H107.061V23.7273Z" fill="black"/>
<path d="M144.939 23.7273H152.515V31.303H144.939V23.7273Z" fill="black"/>
<path d="M167.667 23.7273H175.242V31.303H167.667V23.7273Z" fill="black"/>
<path d="M182.818 23.7273H190.394V31.303H182.818V23.7273Z" fill="black"/>
<path d="M197.97 23.7273H205.545V31.303H197.97V23.7273Z" fill="black"/>
<path d="M213.121 23.7273H220.697V31.303H213.121V23.7273Z" fill="black"/>
<path d="M220.697 23.7273H228.273V31.303H220.697V23.7273Z" fill="black"/>
<path d="M228.273 23.7273H235.848V31.303H228.273V23.7273Z" fill="black"/>
<path d="M243.424 23.7273H251V31.303H243.424V23.7273Z" fill="black"/>
<path d="M1 31.303H8.57576V38.8788H1V31.303Z" fill="black"/>
<path d="M16.1515 31.303H23.7273V38.8788H16.1515V31.303Z" fill="black"/>
<path d="M23.7273 31.303H31.303V38.8788H23.7273V31.303Z" fill="black"/>
<path d="M31.303 31.303H38.8788V38.8788H31.303V31.303Z" fill="black"/>
<path d="M46.4545 31.303H54.0303V38.8788H46.4545V31.303Z" fill="black"/>
<path d="M69.1818 31.303H76.7576V38.8788H69.1818V31.303Z" fill="black"/>
<path d="M76.7576 31.303H84.3333V38.8788H76.7576V31.303Z" fill="black"/>
<path d="M91.9091 31.303H99.4848V38.8788H91.9091V31.303Z" fill="black"/>
<path d="M99.4848 31.303H107.061V38.8788H99.4848V31.303Z" fill="black"/>
<path d="M114.636 31.303H122.212V38.8788H114.636V31.303Z" fill="black"/>
<path d="M122.212 31.303H129.788V38.8788H122.212V31.303Z" fill="black"/>
<path d="M152.515 31.303H160.091V38.8788H152.515V31.303Z" fill="black"/>
<path d="M160.091 31.303H167.667V38.8788H160.091V31.303Z" fill="black"/>
<path d="M175.242 31.303H182.818V38.8788H175.242V31.303Z" fill="black"/>
<path d="M182.818 31.303H190.394V38.8788H182.818V31.303Z" fill="black"/>
<path d="M197.97 31.303H205.545V38.8788H197.97V31.303Z" fill="black"/>
<path d="M213.121 31.303H220.697V38.8788H213.121V31.303Z" fill="black"/>
<path d="M220.697 31.303H228.273V38.8788H220.697V31.303Z" fill="black"/>
<path d="M228.273 31.303H235.848V38.8788H228.273V31.303Z" fill="black"/>
<path d="M243.424 31.303H251V38.8788H243.424V31.303Z" fill="black"/>
<path d="M1 38.8788H8.57576V46.4545H1V38.8788Z" fill="black"/>
<path d="M46.4545 38.8788H54.0303V46.4545H46.4545V38.8788Z" fill="black"/>
<path d="M69.1818 38.8788H76.7576V46.4545H69.1818V38.8788Z" fill="black"/>
<path d="M76.7576 38.8788H84.3333V46.4545H76.7576V38.8788Z" fill="black"/>
<path d="M84.3333 38.8788H91.9091V46.4545H84.3333V38.8788Z" fill="black"/>
<path d="M91.9091 38.8788H99.4848V46.4545H91.9091V38.8788Z" fill="black"/>
<path d="M99.4848 38.8788H107.061V46.4545H99.4848V38.8788Z" fill="black"/>
<path d="M114.636 38.8788H122.212V46.4545H114.636V38.8788Z" fill="black"/>
<path d="M122.212 38.8788H129.788V46.4545H122.212V38.8788Z" fill="black"/>
<path d="M137.364 38.8788H144.939V46.4545H137.364V38.8788Z" fill="black"/>
<path d="M144.939 38.8788H152.515V46.4545H144.939V38.8788Z" fill="black"/>
<path d="M152.515 38.8788H160.091V46.4545H152.515V38.8788Z" fill="black"/>
<path d="M167.667 38.8788H175.242V46.4545H167.667V38.8788Z" fill="black"/>
<path d="M182.818 38.8788H190.394V46.4545H182.818V38.8788Z" fill="black"/>
<path d="M197.97 38.8788H205.545V46.4545H197.97V38.8788Z" fill="black"/>
<path d="M243.424 38.8788H251V46.4545H243.424V38.8788Z" fill="black"/>
<path d="M1 46.4545H8.57576V54.0303H1V46.4545Z" fill="black"/>
<path d="M8.57576 46.4545H16.1515V54.0303H8.57576V46.4545Z" fill="black"/>
<path d="M16.1515 46.4545H23.7273V54.0303H16.1515V46.4545Z" fill="black"/>
<path d="M23.7273 46.4545H31.303V54.0303H23.7273V46.4545Z" fill="black"/>
<path d="M31.303 46.4545H38.8788V54.0303H31.303V46.4545Z" fill="black"/>
<path d="M38.8788 46.4545H46.4545V54.0303H38.8788V46.4545Z" fill="black"/>
<path d="M46.4545 46.4545H54.0303V54.0303H46.4545V46.4545Z" fill="black"/>
<path d="M61.6061 46.4545H69.1818V54.0303H61.6061V46.4545Z" fill="black"/>
<path d="M76.7576 46.4545H84.3333V54.0303H76.7576V46.4545Z" fill="black"/>
<path d="M91.9091 46.4545H99.4848V54.0303H91.9091V46.4545Z" fill="black"/>
<path d="M107.061 46.4545H114.636V54.0303H107.061V46.4545Z" fill="black"/>
<path d="M122.212 46.4545H129.788V54.0303H122.212V46.4545Z" fill="black"/>
<path d="M137.364 46.4545H144.939V54.0303H137.364V46.4545Z" fill="black"/>
<path d="M152.515 46.4545H160.091V54.0303H152.515V46.4545Z" fill="black"/>
<path d="M167.667 46.4545H175.242V54.0303H167.667V46.4545Z" fill="black"/>
<path d="M182.818 46.4545H190.394V54.0303H182.818V46.4545Z" fill="black"/>
<path d="M197.97 46.4545H205.545V54.0303H197.97V46.4545Z" fill="black"/>
<path d="M205.545 46.4545H213.121V54.0303H205.545V46.4545Z" fill="black"/>
<path d="M213.121 46.4545H220.697V54.0303H213.121V46.4545Z" fill="black"/>
<path d="M220.697 46.4545H228.273V54.0303H220.697V46.4545Z" fill="black"/>
<path d="M228.273 46.4545H235.848V54.0303H228.273V46.4545Z" fill="black"/>
<path d="M235.848 46.4545H243.424V54.0303H235.848V46.4545Z" fill="black"/>
<path d="M243.424 46.4545H251V54.0303H243.424V46.4545Z" fill="black"/>
<path d="M84.3333 54.0303H91.9091V61.6061H84.3333V54.0303Z" fill="black"/>
<path d="M91.9091 54.0303H99.4848V61.6061H91.9091V54.0303Z" fill="black"/>
<path d="M129.788 54.0303H137.364V61.6061H129.788V54.0303Z" fill="black"/>
<path d="M137.364 54.0303H144.939V61.6061H137.364V54.0303Z" fill="black"/>
<path d="M144.939 54.0303H152.515V61.6061H144.939V54.0303Z" fill="black"/>
<path d="M152.515 54.0303H160.091V61.6061H152.515V54.0303Z" fill="black"/>
<path d="M175.242 54.0303H182.818V61.6061H175.242V54.0303Z" fill="black"/>
<path d="M8.57576 61.6061H16.1515V69.1818H8.57576V61.6061Z" fill="black"/>
<path d="M16.1515 61.6061H23.7273V69.1818H16.1515V61.6061Z" fill="black"/>
<path d="M23.7273 61.6061H31.303V69.1818H23.7273V61.6061Z" fill="black"/>
<path d="M38.8788 61.6061H46.4545V69.1818H38.8788V61.6061Z" fill="black"/>
<path d="M46.4545 61.6061H54.0303V69.1818H46.4545V61.6061Z" fill="black"/>
<path d="M91.9091 61.6061H99.4848V69.1818H91.9091V61.6061Z" fill="black"/>
<path d="M99.4848 61.6061H107.061V69.1818H99.4848V61.6061Z" fill="black"/>
<path d="M107.061 61.6061H114.636V69.1818H107.061V61.6061Z" fill="black"/>
<path d="M114.636 61.6061H122.212V69.1818H114.636V61.6061Z" fill="black"/>
<path d="M137.364 61.6061H144.939V69.1818H137.364V61.6061Z" fill="black"/>
<path d="M144.939 61.6061H152.515V69.1818H144.939V61.6061Z" fill="black"/>
<path d="M160.091 61.6061H167.667V69.1818H160.091V61.6061Z" fill="black"/>
<path d="M228.273 61.6061H235.848V69.1818H228.273V61.6061Z" fill="black"/>
<path d="M235.848 61.6061H243.424V69.1818H235.848V61.6061Z" fill="black"/>
<path d="M1 69.1818H8.57576V76.7576H1V69.1818Z" fill="black"/>
<path d="M23.7273 69.1818H31.303V76.7576H23.7273V69.1818Z" fill="black"/>
<path d="M54.0303 69.1818H61.6061V76.7576H54.0303V69.1818Z" fill="black"/>
<path d="M84.3333 69.1818H91.9091V76.7576H84.3333V69.1818Z" fill="black"/>
<path d="M91.9091 69.1818H99.4848V76.7576H91.9091V69.1818Z" fill="black"/>
<path d="M107.061 69.1818H114.636V76.7576H107.061V69.1818Z" fill="black"/>
<path d="M114.636 69.1818H122.212V76.7576H114.636V69.1818Z" fill="black"/>
<path d="M137.364 69.1818H144.939V76.7576H137.364V69.1818Z" fill="black"/>
<path d="M144.939 69.1818H152.515V76.7576H144.939V69.1818Z" fill="black"/>
<path d="M175.242 69.1818H182.818V76.7576H175.242V69.1818Z" fill="black"/>
<path d="M197.97 69.1818H205.545V76.7576H197.97V69.1818Z" fill="black"/>
<path d="M205.545 69.1818H213.121V76.7576H205.545V69.1818Z" fill="black"/>
<path d="M220.697 69.1818H228.273V76.7576H220.697V69.1818Z" fill="black"/>
<path d="M228.273 69.1818H235.848V76.7576H228.273V69.1818Z" fill="black"/>
<path d="M235.848 69.1818H243.424V76.7576H235.848V69.1818Z" fill="black"/>
<path d="M243.424 69.1818H251V76.7576H243.424V69.1818Z" fill="black"/>
<path d="M1 76.7576H8.57576V84.3333H1V76.7576Z" fill="black"/>
<path d="M16.1515 76.7576H23.7273V84.3333H16.1515V76.7576Z" fill="black"/>
<path d="M31.303 76.7576H38.8788V84.3333H31.303V76.7576Z" fill="black"/>
<path d="M46.4545 76.7576H54.0303V84.3333H46.4545V76.7576Z" fill="black"/>
<path d="M84.3333 76.7576H91.9091V84.3333H84.3333V76.7576Z" fill="black"/>
<path d="M91.9091 76.7576H99.4848V84.3333H91.9091V76.7576Z" fill="black"/>
<path d="M122.212 76.7576H129.788V84.3333H122.212V76.7576Z" fill="black"/>
<path d="M129.788 76.7576H137.364V84.3333H129.788V76.7576Z" fill="black"/>
<path d="M167.667 76.7576H175.242V84.3333H167.667V76.7576Z" fill="black"/>
<path d="M175.242 76.7576H182.818V84.3333H175.242V76.7576Z" fill="black"/>
<path d="M182.818 76.7576H190.394V84.3333H182.818V76.7576Z" fill="black"/>
<path d="M197.97 76.7576H205.545V84.3333H197.97V76.7576Z" fill="black"/>
<path d="M205.545 76.7576H213.121V84.3333H205.545V76.7576Z" fill="black"/>
<path d="M213.121 76.7576H220.697V84.3333H213.121V76.7576Z" fill="black"/>
<path d="M220.697 76.7576H228.273V84.3333H220.697V76.7576Z" fill="black"/>
<path d="M243.424 76.7576H251V84.3333H243.424V76.7576Z" fill="black"/>
<path d="M1 84.3333H8.57576V91.9091H1V84.3333Z" fill="black"/>
<path d="M61.6061 84.3333H69.1818V91.9091H61.6061V84.3333Z" fill="black"/>
<path d="M107.061 84.3333H114.636V91.9091H107.061V84.3333Z" fill="black"/>
<path d="M137.364 84.3333H144.939V91.9091H137.364V84.3333Z" fill="black"/>
<path d="M144.939 84.3333H152.515V91.9091H144.939V84.3333Z" fill="black"/>
<path d="M152.515 84.3333H160.091V91.9091H152.515V84.3333Z" fill="black"/>
<path d="M182.818 84.3333H190.394V91.9091H182.818V84.3333Z" fill="black"/>
<path d="M205.545 84.3333H213.121V91.9091H205.545V84.3333Z" fill="black"/>
<path d="M220.697 84.3333H228.273V91.9091H220.697V84.3333Z" fill="black"/>
<path d="M235.848 84.3333H243.424V91.9091H235.848V84.3333Z" fill="black"/>
<path d="M1 91.9091H8.57576V99.4848H1V91.9091Z" fill="black"/>
<path d="M8.57576 91.9091H16.1515V99.4848H8.57576V91.9091Z" fill="black"/>
<path d="M23.7273 91.9091H31.303V99.4848H23.7273V91.9091Z" fill="black"/>
<path d="M38.8788 91.9091H46.4545V99.4848H38.8788V91.9091Z" fill="black"/>
<path d="M46.4545 91.9091H54.0303V99.4848H46.4545V91.9091Z" fill="black"/>
<path d="M54.0303 91.9091H61.6061V99.4848H54.0303V91.9091Z" fill="black"/>
<path d="M61.6061 91.9091H69.1818V99.4848H61.6061V91.9091Z" fill="black"/>
<path d="M69.1818 91.9091H76.7576V99.4848H69.1818V91.9091Z" fill="black"/>
<path d="M76.7576 91.9091H84.3333V99.4848H76.7576V91.9091Z" fill="black"/>
<path d="M167.667 91.9091H175.242V99.4848H167.667V91.9091Z" fill="black"/>
<path d="M190.394 91.9091H197.97V99.4848H190.394V91.9091Z" fill="black"/>
<path d="M213.121 91.9091H220.697V99.4848H213.121V91.9091Z" fill="black"/>
<path d="M220.697 91.9091H228.273V99.4848H220.697V91.9091Z" fill="black"/>
<path d="M235.848 91.9091H243.424V99.4848H235.848V91.9091Z" fill="black"/>
<path d="M23.7273 99.4848H31.303V107.061H23.7273V99.4848Z" fill="black"/>
<path d="M54.0303 99.4848H61.6061V107.061H54.0303V99.4848Z" fill="black"/>
<path d="M84.3333 99.4848H91.9091V107.061H84.3333V99.4848Z" fill="black"/>
<path d="M175.242 99.4848H182.818V107.061H175.242V99.4848Z" fill="black"/>
<path d="M182.818 99.4848H190.394V107.061H182.818V99.4848Z" fill="black"/>
<path d="M220.697 99.4848H228.273V107.061H220.697V99.4848Z" fill="black"/>
<path d="M235.848 99.4848H243.424V107.061H235.848V99.4848Z" fill="black"/>
<path d="M1 107.061H8.57576V114.636H1V107.061Z" fill="black"/>
<path d="M23.7273 107.061H31.303V114.636H23.7273V107.061Z" fill="black"/>
<path d="M38.8788 107.061H46.4545V114.636H38.8788V107.061Z" fill="black"/>
<path d="M46.4545 107.061H54.0303V114.636H46.4545V107.061Z" fill="black"/>
<path d="M61.6061 107.061H69.1818V114.636H61.6061V107.061Z" fill="black"/>
<path d="M76.7576 107.061H84.3333V114.636H76.7576V107.061Z" fill="black"/>
<path d="M167.667 107.061H175.242V114.636H167.667V107.061Z" fill="black"/>
<path d="M197.97 107.061H205.545V114.636H197.97V107.061Z" fill="black"/>
<path d="M205.545 107.061H213.121V114.636H205.545V107.061Z" fill="black"/>
<path d="M213.121 107.061H220.697V114.636H213.121V107.061Z" fill="black"/>
<path d="M220.697 107.061H228.273V114.636H220.697V107.061Z" fill="black"/>
<path d="M1 114.636H8.57576V122.212H1V114.636Z" fill="black"/>
<path d="M23.7273 114.636H31.303V122.212H23.7273V114.636Z" fill="black"/>
<path d="M160.091 114.636H167.667V122.212H160.091V114.636Z" fill="black"/>
<path d="M167.667 114.636H175.242V122.212H167.667V114.636Z" fill="black"/>
<path d="M175.242 114.636H182.818V122.212H175.242V114.636Z" fill="black"/>
<path d="M182.818 114.636H190.394V122.212H182.818V114.636Z" fill="black"/>
<path d="M190.394 114.636H197.97V122.212H190.394V114.636Z" fill="black"/>
<path d="M197.97 114.636H205.545V122.212H197.97V114.636Z" fill="black"/>
<path d="M205.545 114.636H213.121V122.212H205.545V114.636Z" fill="black"/>
<path d="M213.121 114.636H220.697V122.212H213.121V114.636Z" fill="black"/>
<path d="M220.697 114.636H228.273V122.212H220.697V114.636Z" fill="black"/>
<path d="M228.273 114.636H235.848V122.212H228.273V114.636Z" fill="black"/>
<path d="M38.8788 122.212H46.4545V129.788H38.8788V122.212Z" fill="black"/>
<path d="M46.4545 122.212H54.0303V129.788H46.4545V122.212Z" fill="black"/>
<path d="M84.3333 122.212H91.9091V129.788H84.3333V122.212Z" fill="black"/>
<path d="M160.091 122.212H167.667V129.788H160.091V122.212Z" fill="black"/>
<path d="M167.667 122.212H175.242V129.788H167.667V122.212Z" fill="black"/>
<path d="M175.242 122.212H182.818V129.788H175.242V122.212Z" fill="black"/>
<path d="M190.394 122.212H197.97V129.788H190.394V122.212Z" fill="black"/>
<path d="M197.97 122.212H205.545V129.788H197.97V122.212Z" fill="black"/>
<path d="M213.121 122.212H220.697V129.788H213.121V122.212Z" fill="black"/>
<path d="M1 129.788H8.57576V137.364H1V129.788Z" fill="black"/>
<path d="M16.1515 129.788H23.7273V137.364H16.1515V129.788Z" fill="black"/>
<path d="M31.303 129.788H38.8788V137.364H31.303V129.788Z" fill="black"/>
<path d="M54.0303 129.788H61.6061V137.364H54.0303V129.788Z" fill="black"/>
<path d="M76.7576 129.788H84.3333V137.364H76.7576V129.788Z" fill="black"/>
<path d="M84.3333 129.788H91.9091V137.364H84.3333V129.788Z" fill="black"/>
<path d="M175.242 129.788H182.818V137.364H175.242V129.788Z" fill="black"/>
<path d="M182.818 129.788H190.394V137.364H182.818V129.788Z" fill="black"/>
<path d="M197.97 129.788H205.545V137.364H197.97V129.788Z" fill="black"/>
<path d="M213.121 129.788H220.697V137.364H213.121V129.788Z" fill="black"/>
<path d="M220.697 129.788H228.273V137.364H220.697V129.788Z" fill="black"/>
<path d="M243.424 129.788H251V137.364H243.424V129.788Z" fill="black"/>
<path d="M8.57576 137.364H16.1515V144.939H8.57576V137.364Z" fill="black"/>
<path d="M16.1515 137.364H23.7273V144.939H16.1515V137.364Z" fill="black"/>
<path d="M23.7273 137.364H31.303V144.939H23.7273V137.364Z" fill="black"/>
<path d="M46.4545 137.364H54.0303V144.939H46.4545V137.364Z" fill="black"/>
<path d="M54.0303 137.364H61.6061V144.939H54.0303V137.364Z" fill="black"/>
<path d="M84.3333 137.364H91.9091V144.939H84.3333V137.364Z" fill="black"/>
<path d="M160.091 137.364H167.667V144.939H160.091V137.364Z" fill="black"/>
<path d="M167.667 137.364H175.242V144.939H167.667V137.364Z" fill="black"/>
<path d="M197.97 137.364H205.545V144.939H197.97V137.364Z" fill="black"/>
<path d="M205.545 137.364H213.121V144.939H205.545V137.364Z" fill="black"/>
<path d="M213.121 137.364H220.697V144.939H213.121V137.364Z" fill="black"/>
<path d="M228.273 137.364H235.848V144.939H228.273V137.364Z" fill="black"/>
<path d="M1 144.939H8.57576V152.515H1V144.939Z" fill="black"/>
<path d="M23.7273 144.939H31.303V152.515H23.7273V144.939Z" fill="black"/>
<path d="M38.8788 144.939H46.4545V152.515H38.8788V144.939Z" fill="black"/>
<path d="M61.6061 144.939H69.1818V152.515H61.6061V144.939Z" fill="black"/>
<path d="M84.3333 144.939H91.9091V152.515H84.3333V144.939Z" fill="black"/>
<path d="M182.818 144.939H190.394V152.515H182.818V144.939Z" fill="black"/>
<path d="M190.394 144.939H197.97V152.515H190.394V144.939Z" fill="black"/>
<path d="M197.97 144.939H205.545V152.515H197.97V144.939Z" fill="black"/>
<path d="M213.121 144.939H220.697V152.515H213.121V144.939Z" fill="black"/>
<path d="M235.848 144.939H243.424V152.515H235.848V144.939Z" fill="black"/>
<path d="M8.57576 152.515H16.1515V160.091H8.57576V152.515Z" fill="black"/>
<path d="M16.1515 152.515H23.7273V160.091H16.1515V152.515Z" fill="black"/>
<path d="M23.7273 152.515H31.303V160.091H23.7273V152.515Z" fill="black"/>
<path d="M31.303 152.515H38.8788V160.091H31.303V152.515Z" fill="black"/>
<path d="M38.8788 152.515H46.4545V160.091H38.8788V152.515Z" fill="black"/>
<path d="M46.4545 152.515H54.0303V160.091H46.4545V152.515Z" fill="black"/>
<path d="M61.6061 152.515H69.1818V160.091H61.6061V152.515Z" fill="black"/>
<path d="M160.091 152.515H167.667V160.091H160.091V152.515Z" fill="black"/>
<path d="M182.818 152.515H190.394V160.091H182.818V152.515Z" fill="black"/>
<path d="M220.697 152.515H228.273V160.091H220.697V152.515Z" fill="black"/>
<path d="M228.273 152.515H235.848V160.091H228.273V152.515Z" fill="black"/>
<path d="M243.424 152.515H251V160.091H243.424V152.515Z" fill="black"/>
<path d="M1 160.091H8.57576V167.667H1V160.091Z" fill="black"/>
<path d="M8.57576 160.091H16.1515V167.667H8.57576V160.091Z" fill="black"/>
<path d="M16.1515 160.091H23.7273V167.667H16.1515V160.091Z" fill="black"/>
<path d="M23.7273 160.091H31.303V167.667H23.7273V160.091Z" fill="black"/>
<path d="M38.8788 160.091H46.4545V167.667H38.8788V160.091Z" fill="black"/>
<path d="M54.0303 160.091H61.6061V167.667H54.0303V160.091Z" fill="black"/>
<path d="M76.7576 160.091H84.3333V167.667H76.7576V160.091Z" fill="black"/>
<path d="M114.636 160.091H122.212V167.667H114.636V160.091Z" fill="black"/>
<path d="M122.212 160.091H129.788V167.667H122.212V160.091Z" fill="black"/>
<path d="M152.515 160.091H160.091V167.667H152.515V160.091Z" fill="black"/>
<path d="M160.091 160.091H167.667V167.667H160.091V160.091Z" fill="black"/>
<path d="M228.273 160.091H235.848V167.667H228.273V160.091Z" fill="black"/>
<path d="M243.424 160.091H251V167.667H243.424V160.091Z" fill="black"/>
<path d="M16.1515 167.667H23.7273V175.242H16.1515V167.667Z" fill="black"/>
<path d="M38.8788 167.667H46.4545V175.242H38.8788V167.667Z" fill="black"/>
<path d="M46.4545 167.667H54.0303V175.242H46.4545V167.667Z" fill="black"/>
<path d="M69.1818 167.667H76.7576V175.242H69.1818V167.667Z" fill="black"/>
<path d="M76.7576 167.667H84.3333V175.242H76.7576V167.667Z" fill="black"/>
<path d="M84.3333 167.667H91.9091V175.242H84.3333V167.667Z" fill="black"/>
<path d="M91.9091 167.667H99.4848V175.242H91.9091V167.667Z" fill="black"/>
<path d="M122.212 167.667H129.788V175.242H122.212V167.667Z" fill="black"/>
<path d="M167.667 167.667H175.242V175.242H167.667V167.667Z" fill="black"/>
<path d="M175.242 167.667H182.818V175.242H175.242V167.667Z" fill="black"/>
<path d="M182.818 167.667H190.394V175.242H182.818V167.667Z" fill="black"/>
<path d="M190.394 167.667H197.97V175.242H190.394V167.667Z" fill="black"/>
<path d="M197.97 167.667H205.545V175.242H197.97V167.667Z" fill="black"/>
<path d="M205.545 167.667H213.121V175.242H205.545V167.667Z" fill="black"/>
<path d="M228.273 167.667H235.848V175.242H228.273V167.667Z" fill="black"/>
<path d="M235.848 167.667H243.424V175.242H235.848V167.667Z" fill="black"/>
<path d="M243.424 167.667H251V175.242H243.424V167.667Z" fill="black"/>
<path d="M8.57576 175.242H16.1515V182.818H8.57576V175.242Z" fill="black"/>
<path d="M16.1515 175.242H23.7273V182.818H16.1515V175.242Z" fill="black"/>
<path d="M23.7273 175.242H31.303V182.818H23.7273V175.242Z" fill="black"/>
<path d="M31.303 175.242H38.8788V182.818H31.303V175.242Z" fill="black"/>
<path d="M54.0303 175.242H61.6061V182.818H54.0303V175.242Z" fill="black"/>
<path d="M61.6061 175.242H69.1818V182.818H61.6061V175.242Z" fill="black"/>
<path d="M99.4848 175.242H107.061V182.818H99.4848V175.242Z" fill="black"/>
<path d="M107.061 175.242H114.636V182.818H107.061V175.242Z" fill="black"/>
<path d="M114.636 175.242H122.212V182.818H114.636V175.242Z" fill="black"/>
<path d="M137.364 175.242H144.939V182.818H137.364V175.242Z" fill="black"/>
<path d="M144.939 175.242H152.515V182.818H144.939V175.242Z" fill="black"/>
<path d="M167.667 175.242H175.242V182.818H167.667V175.242Z" fill="black"/>
<path d="M182.818 175.242H190.394V182.818H182.818V175.242Z" fill="black"/>
<path d="M220.697 175.242H228.273V182.818H220.697V175.242Z" fill="black"/>
<path d="M235.848 175.242H243.424V182.818H235.848V175.242Z" fill="black"/>
<path d="M1 182.818H8.57576V190.394H1V182.818Z" fill="black"/>
<path d="M16.1515 182.818H23.7273V190.394H16.1515V182.818Z" fill="black"/>
<path d="M46.4545 182.818H54.0303V190.394H46.4545V182.818Z" fill="black"/>
<path d="M54.0303 182.818H61.6061V190.394H54.0303V182.818Z" fill="black"/>
<path d="M61.6061 182.818H69.1818V190.394H61.6061V182.818Z" fill="black"/>
<path d="M76.7576 182.818H84.3333V190.394H76.7576V182.818Z" fill="black"/>
<path d="M99.4848 182.818H107.061V190.394H99.4848V182.818Z" fill="black"/>
<path d="M122.212 182.818H129.788V190.394H122.212V182.818Z" fill="black"/>
<path d="M129.788 182.818H137.364V190.394H129.788V182.818Z" fill="black"/>
<path d="M137.364 182.818H144.939V190.394H137.364V182.818Z" fill="black"/>
<path d="M175.242 182.818H182.818V190.394H175.242V182.818Z" fill="black"/>
<path d="M182.818 182.818H190.394V190.394H182.818V182.818Z" fill="black"/>
<path d="M190.394 182.818H197.97V190.394H190.394V182.818Z" fill="black"/>
<path d="M197.97 182.818H205.545V190.394H197.97V182.818Z" fill="black"/>
<path d="M205.545 182.818H213.121V190.394H205.545V182.818Z" fill="black"/>
<path d="M213.121 182.818H220.697V190.394H213.121V182.818Z" fill="black"/>
<path d="M220.697 182.818H228.273V190.394H220.697V182.818Z" fill="black"/>
<path d="M228.273 182.818H235.848V190.394H228.273V182.818Z" fill="black"/>
<path d="M235.848 182.818H243.424V190.394H235.848V182.818Z" fill="black"/>
<path d="M243.424 182.818H251V190.394H243.424V182.818Z" fill="black"/>
<path d="M61.6061 190.394H69.1818V197.97H61.6061V190.394Z" fill="black"/>
<path d="M69.1818 190.394H76.7576V197.97H69.1818V190.394Z" fill="black"/>
<path d="M99.4848 190.394H107.061V197.97H99.4848V190.394Z" fill="black"/>
<path d="M137.364 190.394H144.939V197.97H137.364V190.394Z" fill="black"/>
<path d="M144.939 190.394H152.515V197.97H144.939V190.394Z" fill="black"/>
<path d="M160.091 190.394H167.667V197.97H160.091V190.394Z" fill="black"/>
<path d="M182.818 190.394H190.394V197.97H182.818V190.394Z" fill="black"/>
<path d="M213.121 190.394H220.697V197.97H213.121V190.394Z" fill="black"/>
<path d="M220.697 190.394H228.273V197.97H220.697V190.394Z" fill="black"/>
<path d="M235.848 190.394H243.424V197.97H235.848V190.394Z" fill="black"/>
<path d="M243.424 190.394H251V197.97H243.424V190.394Z" fill="black"/>
<path d="M1 197.97H8.57576V205.545H1V197.97Z" fill="black"/>
<path d="M8.57576 197.97H16.1515V205.545H8.57576V197.97Z" fill="black"/>
<path d="M16.1515 197.97H23.7273V205.545H16.1515V197.97Z" fill="black"/>
<path d="M23.7273 197.97H31.303V205.545H23.7273V197.97Z" fill="black"/>
<path d="M31.303 197.97H38.8788V205.545H31.303V197.97Z" fill="black"/>
<path d="M38.8788 197.97H46.4545V205.545H38.8788V197.97Z" fill="black"/>
<path d="M46.4545 197.97H54.0303V205.545H46.4545V197.97Z" fill="black"/>
<path d="M69.1818 197.97H76.7576V205.545H69.1818V197.97Z" fill="black"/>
<path d="M76.7576 197.97H84.3333V205.545H76.7576V197.97Z" fill="black"/>
<path d="M84.3333 197.97H91.9091V205.545H84.3333V197.97Z" fill="black"/>
<path d="M114.636 197.97H122.212V205.545H114.636V197.97Z" fill="black"/>
<path d="M122.212 197.97H129.788V205.545H122.212V197.97Z" fill="black"/>
<path d="M137.364 197.97H144.939V205.545H137.364V197.97Z" fill="black"/>
<path d="M144.939 197.97H152.515V205.545H144.939V197.97Z" fill="black"/>
<path d="M152.515 197.97H160.091V205.545H152.515V197.97Z" fill="black"/>
<path d="M167.667 197.97H175.242V205.545H167.667V197.97Z" fill="black"/>
<path d="M175.242 197.97H182.818V205.545H175.242V197.97Z" fill="black"/>
<path d="M182.818 197.97H190.394V205.545H182.818V197.97Z" fill="black"/>
<path d="M197.97 197.97H205.545V205.545H197.97V197.97Z" fill="black"/>
<path d="M213.121 197.97H220.697V205.545H213.121V197.97Z" fill="black"/>
<path d="M1 205.545H8.57576V213.121H1V205.545Z" fill="black"/>
<path d="M46.4545 205.545H54.0303V213.121H46.4545V205.545Z" fill="black"/>
<path d="M61.6061 205.545H69.1818V213.121H61.6061V205.545Z" fill="black"/>
<path d="M84.3333 205.545H91.9091V213.121H84.3333V205.545Z" fill="black"/>
<path d="M107.061 205.545H114.636V213.121H107.061V205.545Z" fill="black"/>
<path d="M114.636 205.545H122.212V213.121H114.636V205.545Z" fill="black"/>
<path d="M144.939 205.545H152.515V213.121H144.939V205.545Z" fill="black"/>
<path d="M160.091 205.545H167.667V213.121H160.091V205.545Z" fill="black"/>
<path d="M175.242 205.545H182.818V213.121H175.242V205.545Z" fill="black"/>
<path d="M182.818 205.545H190.394V213.121H182.818V205.545Z" fill="black"/>
<path d="M213.121 205.545H220.697V213.121H213.121V205.545Z" fill="black"/>
<path d="M220.697 205.545H228.273V213.121H220.697V205.545Z" fill="black"/>
<path d="M228.273 205.545H235.848V213.121H228.273V205.545Z" fill="black"/>
<path d="M235.848 205.545H243.424V213.121H235.848V205.545Z" fill="black"/>
<path d="M243.424 205.545H251V213.121H243.424V205.545Z" fill="black"/>
<path d="M1 213.121H8.57576V220.697H1V213.121Z" fill="black"/>
<path d="M16.1515 213.121H23.7273V220.697H16.1515V213.121Z" fill="black"/>
<path d="M23.7273 213.121H31.303V220.697H23.7273V213.121Z" fill="black"/>
<path d="M31.303 213.121H38.8788V220.697H31.303V213.121Z" fill="black"/>
<path d="M46.4545 213.121H54.0303V220.697H46.4545V213.121Z" fill="black"/>
<path d="M69.1818 213.121H76.7576V220.697H69.1818V213.121Z" fill="black"/>
<path d="M76.7576 213.121H84.3333V220.697H76.7576V213.121Z" fill="black"/>
<path d="M84.3333 213.121H91.9091V220.697H84.3333V213.121Z" fill="black"/>
<path d="M107.061 213.121H114.636V220.697H107.061V213.121Z" fill="black"/>
<path d="M129.788 213.121H137.364V220.697H129.788V213.121Z" fill="black"/>
<path d="M137.364 213.121H144.939V220.697H137.364V213.121Z" fill="black"/>
<path d="M152.515 213.121H160.091V220.697H152.515V213.121Z" fill="black"/>
<path d="M167.667 213.121H175.242V220.697H167.667V213.121Z" fill="black"/>
<path d="M175.242 213.121H182.818V220.697H175.242V213.121Z" fill="black"/>
<path d="M182.818 213.121H190.394V220.697H182.818V213.121Z" fill="black"/>
<path d="M190.394 213.121H197.97V220.697H190.394V213.121Z" fill="black"/>
<path d="M197.97 213.121H205.545V220.697H197.97V213.121Z" fill="black"/>
<path d="M205.545 213.121H213.121V220.697H205.545V213.121Z" fill="black"/>
<path d="M213.121 213.121H220.697V220.697H213.121V213.121Z" fill="black"/>
<path d="M228.273 213.121H235.848V220.697H228.273V213.121Z" fill="black"/>
<path d="M235.848 213.121H243.424V220.697H235.848V213.121Z" fill="black"/>
<path d="M1 220.697H8.57576V228.273H1V220.697Z" fill="black"/>
<path d="M16.1515 220.697H23.7273V228.273H16.1515V220.697Z" fill="black"/>
<path d="M23.7273 220.697H31.303V228.273H23.7273V220.697Z" fill="black"/>
<path d="M31.303 220.697H38.8788V228.273H31.303V220.697Z" fill="black"/>
<path d="M46.4545 220.697H54.0303V228.273H46.4545V220.697Z" fill="black"/>
<path d="M61.6061 220.697H69.1818V228.273H61.6061V220.697Z" fill="black"/>
<path d="M69.1818 220.697H76.7576V228.273H69.1818V220.697Z" fill="black"/>
<path d="M76.7576 220.697H84.3333V228.273H76.7576V220.697Z" fill="black"/>
<path d="M114.636 220.697H122.212V228.273H114.636V220.697Z" fill="black"/>
<path d="M144.939 220.697H152.515V228.273H144.939V220.697Z" fill="black"/>
<path d="M152.515 220.697H160.091V228.273H152.515V220.697Z" fill="black"/>
<path d="M160.091 220.697H167.667V228.273H160.091V220.697Z" fill="black"/>
<path d="M167.667 220.697H175.242V228.273H167.667V220.697Z" fill="black"/>
<path d="M182.818 220.697H190.394V228.273H182.818V220.697Z" fill="black"/>
<path d="M190.394 220.697H197.97V228.273H190.394V220.697Z" fill="black"/>
<path d="M205.545 220.697H213.121V228.273H205.545V220.697Z" fill="black"/>
<path d="M220.697 220.697H228.273V228.273H220.697V220.697Z" fill="black"/>
<path d="M235.848 220.697H243.424V228.273H235.848V220.697Z" fill="black"/>
<path d="M243.424 220.697H251V228.273H243.424V220.697Z" fill="black"/>
<path d="M1 228.273H8.57576V235.848H1V228.273Z" fill="black"/>
<path d="M16.1515 228.273H23.7273V235.848H16.1515V228.273Z" fill="black"/>
<path d="M23.7273 228.273H31.303V235.848H23.7273V228.273Z" fill="black"/>
<path d="M31.303 228.273H38.8788V235.848H31.303V228.273Z" fill="black"/>
<path d="M46.4545 228.273H54.0303V235.848H46.4545V228.273Z" fill="black"/>
<path d="M61.6061 228.273H69.1818V235.848H61.6061V228.273Z" fill="black"/>
<path d="M76.7576 228.273H84.3333V235.848H76.7576V228.273Z" fill="black"/>
<path d="M84.3333 228.273H91.9091V235.848H84.3333V228.273Z" fill="black"/>
<path d="M91.9091 228.273H99.4848V235.848H91.9091V228.273Z" fill="black"/>
<path d="M107.061 228.273H114.636V235.848H107.061V228.273Z" fill="black"/>
<path d="M114.636 228.273H122.212V235.848H114.636V228.273Z" fill="black"/>
<path d="M129.788 228.273H137.364V235.848H129.788V228.273Z" fill="black"/>
<path d="M137.364 228.273H144.939V235.848H137.364V228.273Z" fill="black"/>
<path d="M167.667 228.273H175.242V235.848H167.667V228.273Z" fill="black"/>
<path d="M175.242 228.273H182.818V235.848H175.242V228.273Z" fill="black"/>
<path d="M197.97 228.273H205.545V235.848H197.97V228.273Z" fill="black"/>
<path d="M205.545 228.273H213.121V235.848H205.545V228.273Z" fill="black"/>
<path d="M1 235.848H8.57576V243.424H1V235.848Z" fill="black"/>
<path d="M46.4545 235.848H54.0303V243.424H46.4545V235.848Z" fill="black"/>
<path d="M61.6061 235.848H69.1818V243.424H61.6061V235.848Z" fill="black"/>
<path d="M69.1818 235.848H76.7576V243.424H69.1818V235.848Z" fill="black"/>
<path d="M76.7576 235.848H84.3333V243.424H76.7576V235.848Z" fill="black"/>
<path d="M99.4848 235.848H107.061V243.424H99.4848V235.848Z" fill="black"/>
<path d="M107.061 235.848H114.636V243.424H107.061V235.848Z" fill="black"/>
<path d="M129.788 235.848H137.364V243.424H129.788V235.848Z" fill="black"/>
<path d="M137.364 235.848H144.939V243.424H137.364V235.848Z" fill="black"/>
<path d="M144.939 235.848H152.515V243.424H144.939V235.848Z" fill="black"/>
<path d="M152.515 235.848H160.091V243.424H152.515V235.848Z" fill="black"/>
<path d="M175.242 235.848H182.818V243.424H175.242V235.848Z" fill="black"/>
<path d="M182.818 235.848H190.394V243.424H182.818V235.848Z" fill="black"/>
<path d="M190.394 235.848H197.97V243.424H190.394V235.848Z" fill="black"/>
<path d="M205.545 235.848H213.121V243.424H205.545V235.848Z" fill="black"/>
<path d="M213.121 235.848H220.697V243.424H213.121V235.848Z" fill="black"/>
<path d="M243.424 235.848H251V243.424H243.424V235.848Z" fill="black"/>
<path d="M1 243.424H8.57576V251H1V243.424Z" fill="black"/>
<path d="M8.57576 243.424H16.1515V251H8.57576V243.424Z" fill="black"/>
<path d="M16.1515 243.424H23.7273V251H16.1515V243.424Z" fill="black"/>
<path d="M23.7273 243.424H31.303V251H23.7273V243.424Z" fill="black"/>
<path d="M31.303 243.424H38.8788V251H31.303V243.424Z" fill="black"/>
<path d="M38.8788 243.424H46.4545V251H38.8788V243.424Z" fill="black"/>
<path d="M46.4545 243.424H54.0303V251H46.4545V243.424Z" fill="black"/>
<path d="M99.4848 243.424H107.061V251H99.4848V243.424Z" fill="black"/>
<path d="M122.212 243.424H129.788V251H122.212V243.424Z" fill="black"/>
<path d="M129.788 243.424H137.364V251H129.788V243.424Z" fill="black"/>
<path d="M137.364 243.424H144.939V251H137.364V243.424Z" fill="black"/>
<path d="M160.091 243.424H167.667V251H160.091V243.424Z" fill="black"/>
<path d="M213.121 243.424H220.697V251H213.121V243.424Z" fill="black"/>
<path d="M220.697 243.424H228.273V251H220.697V243.424Z" fill="black"/>
<path d="M228.273 243.424H235.848V251H228.273V243.424Z" fill="black"/>
<path d="M8.57576 1H1V8.57576M8.57576 1V8.57576M8.57576 1H16.1515M8.57576 8.57576H1M8.57576 8.57576H16.1515M8.57576 8.57576V16.1515M1 8.57576V16.1515M16.1515 1V8.57576M16.1515 1H23.7273M16.1515 8.57576H23.7273M23.7273 1V8.57576M23.7273 1H31.303M23.7273 8.57576H31.303M31.303 1V8.57576M31.303 1H38.8788M31.303 8.57576H38.8788M38.8788 1V8.57576M38.8788 1H46.4545M38.8788 8.57576H46.4545M46.4545 1V8.57576M46.4545 1H54.0303V8.57576M46.4545 8.57576H54.0303M46.4545 8.57576V16.1515M54.0303 8.57576V16.1515M99.4848 8.57576V1H91.9091V8.57576M99.4848 8.57576H91.9091M99.4848 8.57576V16.1515M91.9091 8.57576H84.3333M91.9091 8.57576V16.1515M114.636 1H107.061V8.57576H114.636M114.636 1V8.57576M114.636 1H122.212M114.636 8.57576H122.212M122.212 1V8.57576M122.212 1H129.788M122.212 8.57576H129.788M122.212 8.57576V16.1515M129.788 1V8.57576M129.788 1H137.364M129.788 8.57576H137.364M129.788 8.57576V16.1515M137.364 1V8.57576M137.364 1H144.939V8.57576M137.364 8.57576H144.939M137.364 8.57576V16.1515M144.939 8.57576V16.1515H137.364M182.818 8.57576V1H175.242V8.57576M182.818 8.57576H175.242M182.818 8.57576V16.1515M182.818 8.57576H190.394V16.1515H182.818M175.242 8.57576V16.1515M205.545 1H197.97V8.57576M205.545 1V8.57576M205.545 1H213.121M205.545 8.57576H197.97M205.545 8.57576H213.121M205.545 8.57576V16.1515M197.97 8.57576V16.1515M213.121 1V8.57576M213.121 1H220.697M213.121 8.57576H220.697M220.697 1V8.57576M220.697 1H228.273M220.697 8.57576H228.273M228.273 1V8.57576M228.273 1H235.848M228.273 8.57576H235.848M235.848 1V8.57576M235.848 1H243.424M235.848 8.57576H243.424M243.424 1V8.57576M243.424 1H251V8.57576M243.424 8.57576H251M243.424 8.57576V16.1515M251 8.57576V16.1515M8.57576 16.1515H1M8.57576 16.1515V23.7273M1 16.1515V23.7273M54.0303 16.1515H46.4545M54.0303 16.1515V23.7273M46.4545 16.1515V23.7273M69.1818 16.1515V8.57576H61.6061V16.1515M69.1818 16.1515H61.6061M69.1818 16.1515V23.7273M69.1818 16.1515H76.7576M61.6061 16.1515V23.7273H69.1818M84.3333 8.57576H76.7576V16.1515M84.3333 8.57576V16.1515M84.3333 16.1515H76.7576M84.3333 16.1515H91.9091M76.7576 16.1515V23.7273M91.9091 16.1515H99.4848M99.4848 16.1515H107.061M99.4848 16.1515V23.7273M129.788 16.1515H122.212M129.788 16.1515V23.7273M129.788 16.1515H137.364M122.212 16.1515H114.636M122.212 16.1515V23.7273M137.364 16.1515V23.7273H129.788M182.818 16.1515H175.242M182.818 16.1515V23.7273M175.242 16.1515H167.667V23.7273M175.242 16.1515V23.7273M205.545 16.1515H197.97M205.545 16.1515V23.7273M197.97 16.1515V23.7273M251 16.1515H243.424M251 16.1515V23.7273M243.424 16.1515V23.7273M8.57576 23.7273H1M8.57576 23.7273V31.303M1 23.7273V31.303M23.7273 16.1515H16.1515V23.7273M23.7273 16.1515V23.7273M23.7273 16.1515H31.303M23.7273 23.7273H16.1515M23.7273 23.7273H31.303M23.7273 23.7273V31.303M16.1515 23.7273V31.303M31.303 16.1515V23.7273M31.303 16.1515H38.8788V23.7273M31.303 23.7273H38.8788M31.303 23.7273V31.303M38.8788 23.7273V31.303M54.0303 23.7273H46.4545M54.0303 23.7273V31.303M46.4545 23.7273V31.303M69.1818 23.7273H76.7576M69.1818 23.7273V31.303M76.7576 23.7273V31.303M107.061 16.1515V23.7273M107.061 16.1515H114.636M107.061 23.7273H99.4848M107.061 23.7273H114.636M107.061 23.7273V31.303M99.4848 23.7273V31.303M114.636 16.1515V23.7273M114.636 23.7273H122.212M114.636 23.7273V31.303M122.212 23.7273H129.788M152.515 23.7273H160.091V16.1515H152.515V23.7273ZM152.515 23.7273H144.939V31.303H152.515M152.515 23.7273V31.303M175.242 23.7273H167.667M175.242 23.7273H182.818M175.242 23.7273V31.303M167.667 23.7273V31.303M182.818 23.7273H190.394V31.303M182.818 23.7273V31.303M205.545 23.7273H197.97M205.545 23.7273V31.303M197.97 23.7273V31.303M220.697 16.1515H213.121V23.7273M220.697 16.1515V23.7273M220.697 16.1515H228.273M220.697 23.7273H213.121M220.697 23.7273H228.273M220.697 23.7273V31.303M213.121 23.7273V31.303M228.273 16.1515V23.7273M228.273 16.1515H235.848V23.7273M228.273 23.7273H235.848M228.273 23.7273V31.303M235.848 23.7273V31.303M251 23.7273H243.424M251 23.7273V31.303M243.424 23.7273V31.303M8.57576 31.303H1M8.57576 31.303V38.8788M1 31.303V38.8788M23.7273 31.303H16.1515M23.7273 31.303H31.303M23.7273 31.303V38.8788M16.1515 31.303V38.8788H23.7273M31.303 31.303H38.8788M31.303 31.303V38.8788M38.8788 31.303V38.8788H31.303M54.0303 31.303H46.4545M54.0303 31.303V38.8788M46.4545 31.303V38.8788M76.7576 31.303H69.1818M76.7576 31.303V38.8788M76.7576 31.303H84.3333V38.8788M69.1818 31.303V38.8788M107.061 31.303H99.4848M107.061 31.303H114.636M107.061 31.303V38.8788M99.4848 31.303H91.9091V38.8788M99.4848 31.303V38.8788M114.636 31.303H122.212M114.636 31.303V38.8788M152.515 31.303H160.091M152.515 31.303V38.8788M175.242 31.303H167.667M175.242 31.303H182.818M175.242 31.303V38.8788M167.667 31.303H160.091M167.667 31.303V38.8788M190.394 31.303H182.818M190.394 31.303V38.8788M182.818 31.303V38.8788M205.545 31.303H197.97M205.545 31.303V38.8788M197.97 31.303V38.8788M220.697 31.303H213.121M220.697 31.303H228.273M220.697 31.303V38.8788M213.121 31.303V38.8788H220.697M228.273 31.303H235.848M228.273 31.303V38.8788M235.848 31.303V38.8788H228.273M251 31.303H243.424M251 31.303V38.8788M243.424 31.303V38.8788M8.57576 38.8788H1M8.57576 38.8788V46.4545M1 38.8788V46.4545M23.7273 38.8788H31.303M54.0303 38.8788H46.4545M54.0303 38.8788V46.4545M46.4545 38.8788V46.4545M76.7576 38.8788H69.1818M76.7576 38.8788H84.3333M76.7576 38.8788V46.4545M69.1818 38.8788V46.4545M84.3333 38.8788V46.4545M84.3333 38.8788H91.9091M99.4848 38.8788H91.9091M99.4848 38.8788H107.061M99.4848 38.8788V46.4545M91.9091 38.8788V46.4545M107.061 38.8788V46.4545M122.212 31.303V38.8788M122.212 31.303H129.788V38.8788M122.212 38.8788H114.636M122.212 38.8788H129.788M122.212 38.8788V46.4545M114.636 38.8788V46.4545M129.788 38.8788V46.4545M160.091 31.303V38.8788M160.091 38.8788H152.515M160.091 38.8788H167.667M160.091 38.8788V46.4545M152.515 38.8788H144.939M152.515 38.8788V46.4545M167.667 38.8788H175.242M167.667 38.8788V46.4545M182.818 38.8788H175.242M182.818 38.8788H190.394M182.818 38.8788V46.4545M175.242 38.8788V46.4545M190.394 38.8788V46.4545M205.545 38.8788H197.97M205.545 38.8788V46.4545M197.97 38.8788V46.4545M220.697 38.8788H228.273M251 38.8788H243.424M251 38.8788V46.4545M243.424 38.8788V46.4545M8.57576 46.4545H1M8.57576 46.4545V54.0303M8.57576 46.4545H16.1515M1 46.4545V54.0303H8.57576M54.0303 46.4545H46.4545M54.0303 46.4545V54.0303H46.4545M46.4545 46.4545H38.8788M46.4545 46.4545V54.0303M76.7576 46.4545H69.1818M76.7576 46.4545H84.3333M76.7576 46.4545V54.0303H84.3333M69.1818 46.4545H61.6061V54.0303H69.1818V46.4545ZM84.3333 46.4545H91.9091M84.3333 46.4545V54.0303M91.9091 46.4545H99.4848M91.9091 46.4545V54.0303M99.4848 46.4545H107.061M99.4848 46.4545V54.0303M107.061 46.4545H114.636M107.061 46.4545V54.0303H114.636V46.4545M122.212 46.4545H114.636M122.212 46.4545H129.788M122.212 46.4545V54.0303H129.788M129.788 46.4545V54.0303M144.939 38.8788H137.364V46.4545M144.939 38.8788V46.4545M144.939 46.4545H137.364M144.939 46.4545H152.515M144.939 46.4545V54.0303M137.364 46.4545V54.0303M152.515 46.4545H160.091M152.515 46.4545V54.0303M160.091 46.4545V54.0303M175.242 46.4545H167.667M175.242 46.4545V54.0303M167.667 46.4545V54.0303H175.242M190.394 46.4545H182.818M190.394 46.4545V54.0303H182.818M182.818 46.4545V54.0303M205.545 46.4545H197.97M205.545 46.4545V54.0303M205.545 46.4545H213.121M197.97 46.4545V54.0303H205.545M251 46.4545H243.424M251 46.4545V54.0303H243.424M243.424 46.4545H235.848M243.424 46.4545V54.0303M8.57576 54.0303H16.1515M16.1515 46.4545V54.0303M16.1515 46.4545H23.7273M16.1515 54.0303H23.7273M23.7273 46.4545V54.0303M23.7273 46.4545H31.303M23.7273 54.0303H31.303M31.303 46.4545V54.0303M31.303 46.4545H38.8788M31.303 54.0303H38.8788M38.8788 46.4545V54.0303M38.8788 54.0303H46.4545M84.3333 54.0303H91.9091M84.3333 54.0303V61.6061H91.9091M99.4848 54.0303H91.9091M99.4848 54.0303V61.6061M91.9091 54.0303V61.6061M129.788 54.0303H137.364M129.788 54.0303V61.6061H137.364M144.939 54.0303H137.364M144.939 54.0303V61.6061M144.939 54.0303H152.515M137.364 54.0303V61.6061M160.091 54.0303H152.515M160.091 54.0303V61.6061M152.515 54.0303V61.6061M175.242 54.0303H182.818M175.242 54.0303V61.6061H182.818V54.0303M205.545 54.0303H213.121M213.121 46.4545V54.0303M213.121 46.4545H220.697M213.121 54.0303H220.697M220.697 46.4545V54.0303M220.697 46.4545H228.273M220.697 54.0303H228.273M228.273 46.4545V54.0303M228.273 46.4545H235.848M228.273 54.0303H235.848M235.848 46.4545V54.0303M235.848 54.0303H243.424M91.9091 61.6061H99.4848M91.9091 61.6061V69.1818M99.4848 61.6061V69.1818M99.4848 61.6061H107.061M137.364 61.6061H144.939M137.364 61.6061V69.1818M144.939 61.6061H152.515M144.939 61.6061V69.1818M152.515 61.6061H160.091M152.515 61.6061V69.1818M160.091 61.6061H167.667V69.1818H160.091V61.6061ZM16.1515 61.6061H8.57576V69.1818M16.1515 61.6061V69.1818M16.1515 61.6061H23.7273M16.1515 69.1818H8.57576M16.1515 69.1818H23.7273M8.57576 69.1818H1V76.7576M8.57576 69.1818V76.7576M23.7273 61.6061V69.1818M23.7273 61.6061H31.303V69.1818M23.7273 69.1818H31.303M23.7273 69.1818V76.7576M31.303 69.1818V76.7576M46.4545 61.6061H38.8788V69.1818H46.4545M46.4545 61.6061V69.1818M46.4545 61.6061H54.0303V69.1818M46.4545 69.1818H54.0303M54.0303 69.1818H61.6061V76.7576H54.0303M54.0303 69.1818V76.7576M99.4848 69.1818H91.9091M99.4848 69.1818H107.061M99.4848 69.1818V76.7576M91.9091 69.1818H84.3333V76.7576M91.9091 69.1818V76.7576M107.061 61.6061V69.1818M107.061 61.6061H114.636M107.061 69.1818H114.636M107.061 69.1818V76.7576H114.636M114.636 61.6061V69.1818M114.636 61.6061H122.212V69.1818M114.636 69.1818H122.212M114.636 69.1818V76.7576M122.212 69.1818V76.7576M144.939 69.1818H137.364M144.939 69.1818H152.515M144.939 69.1818V76.7576M137.364 69.1818V76.7576M152.515 69.1818V76.7576H144.939M235.848 61.6061H228.273V69.1818M235.848 61.6061V69.1818M235.848 61.6061H243.424V69.1818M235.848 69.1818H228.273M235.848 69.1818H243.424M235.848 69.1818V76.7576M228.273 69.1818H220.697V76.7576M228.273 69.1818V76.7576M243.424 69.1818V76.7576M243.424 69.1818H251V76.7576M8.57576 76.7576H1M8.57576 76.7576V84.3333M1 76.7576V84.3333M31.303 76.7576H23.7273M31.303 76.7576H38.8788V84.3333H31.303V76.7576ZM23.7273 76.7576H16.1515V84.3333H23.7273V76.7576ZM54.0303 76.7576H46.4545V84.3333H54.0303V76.7576ZM91.9091 76.7576H84.3333M91.9091 76.7576H99.4848M91.9091 76.7576V84.3333M84.3333 76.7576V84.3333H91.9091M99.4848 76.7576V84.3333H91.9091M114.636 76.7576H122.212M122.212 76.7576H129.788M122.212 76.7576V84.3333H129.788M144.939 76.7576H137.364M137.364 76.7576H129.788M137.364 76.7576V84.3333M182.818 76.7576V69.1818H175.242V76.7576M182.818 76.7576H175.242M182.818 76.7576V84.3333M182.818 76.7576H190.394V84.3333M175.242 76.7576H167.667V84.3333H175.242M175.242 76.7576V84.3333M205.545 69.1818H197.97V76.7576M205.545 69.1818V76.7576M205.545 69.1818H213.121V76.7576M205.545 76.7576H197.97M205.545 76.7576H213.121M205.545 76.7576V84.3333M197.97 76.7576V84.3333H205.545M213.121 76.7576V84.3333M213.121 76.7576H220.697M228.273 76.7576H220.697M228.273 76.7576H235.848M228.273 76.7576V84.3333M220.697 76.7576V84.3333M235.848 76.7576H243.424M243.424 76.7576H251M243.424 76.7576V84.3333M251 76.7576V84.3333H243.424M8.57576 84.3333H1M8.57576 84.3333V91.9091M1 84.3333V91.9091M129.788 76.7576V84.3333M129.788 84.3333H137.364M137.364 84.3333H144.939M137.364 84.3333V91.9091H144.939M175.242 84.3333H182.818M182.818 84.3333H190.394M182.818 84.3333V91.9091H190.394M190.394 84.3333V91.9091M205.545 84.3333H213.121M205.545 84.3333V91.9091H213.121M213.121 84.3333H220.697M213.121 84.3333V91.9091M220.697 84.3333H228.273M220.697 84.3333V91.9091M228.273 84.3333V91.9091M243.424 84.3333H235.848V91.9091M243.424 84.3333V91.9091M8.57576 91.9091H1M8.57576 91.9091V99.4848M8.57576 91.9091H16.1515V99.4848H8.57576M1 91.9091V99.4848H8.57576M69.1818 91.9091V84.3333H61.6061V91.9091M69.1818 91.9091H61.6061M69.1818 91.9091V99.4848M69.1818 91.9091H76.7576M61.6061 91.9091H54.0303M61.6061 91.9091V99.4848M144.939 84.3333V91.9091M144.939 84.3333H152.515M144.939 91.9091H152.515M152.515 84.3333V91.9091M152.515 84.3333H160.091V91.9091H152.515M190.394 91.9091H197.97V99.4848H190.394M190.394 91.9091V99.4848M213.121 91.9091H220.697M213.121 91.9091V99.4848H220.697M228.273 91.9091H220.697M228.273 91.9091V99.4848M220.697 91.9091V99.4848M243.424 91.9091H235.848M243.424 91.9091V99.4848M235.848 91.9091V99.4848M31.303 99.4848V91.9091H23.7273V99.4848M31.303 99.4848H23.7273M31.303 99.4848V107.061M23.7273 99.4848V107.061M46.4545 91.9091H38.8788V99.4848H46.4545M46.4545 91.9091V99.4848M46.4545 91.9091H54.0303M46.4545 99.4848H54.0303M54.0303 91.9091V99.4848M54.0303 99.4848H61.6061M54.0303 99.4848V107.061M61.6061 99.4848H69.1818M61.6061 99.4848V107.061M69.1818 99.4848H76.7576M76.7576 91.9091V99.4848M76.7576 91.9091H84.3333V99.4848M76.7576 99.4848H84.3333M84.3333 99.4848H91.9091V107.061H84.3333M84.3333 99.4848V107.061M175.242 99.4848V91.9091H167.667V99.4848H175.242ZM175.242 99.4848H182.818M175.242 99.4848V107.061M190.394 99.4848H182.818M190.394 99.4848V107.061H182.818M220.697 99.4848H228.273M220.697 99.4848V107.061M228.273 99.4848V107.061M243.424 99.4848H235.848M243.424 99.4848V107.061H235.848V99.4848M31.303 107.061H23.7273M31.303 107.061V114.636M23.7273 107.061V114.636M61.6061 107.061H54.0303M61.6061 107.061H69.1818V114.636H61.6061V107.061ZM54.0303 107.061H46.4545M54.0303 107.061V114.636H46.4545M84.3333 107.061H76.7576V114.636H84.3333V107.061ZM182.818 99.4848V107.061M182.818 107.061H175.242M175.242 107.061H167.667V114.636M175.242 107.061V114.636M228.273 107.061H220.697M228.273 107.061V114.636M220.697 107.061H213.121M220.697 107.061V114.636M8.57576 114.636V107.061H1V114.636M8.57576 114.636H1M8.57576 114.636V122.212H1V114.636M31.303 114.636H23.7273M31.303 114.636V122.212H23.7273V114.636M46.4545 107.061H38.8788V114.636H46.4545M46.4545 107.061V114.636M175.242 114.636H167.667M175.242 114.636V122.212M175.242 114.636H182.818M167.667 114.636H160.091V122.212M167.667 114.636V122.212M205.545 107.061H197.97V114.636M205.545 107.061V114.636M205.545 107.061H213.121M205.545 114.636H197.97M205.545 114.636H213.121M205.545 114.636V122.212M197.97 114.636H190.394M197.97 114.636V122.212M213.121 107.061V114.636M213.121 114.636H220.697M213.121 114.636V122.212M220.697 114.636H228.273M220.697 114.636V122.212M228.273 114.636V122.212M228.273 114.636H235.848V122.212H228.273M167.667 122.212H160.091M167.667 122.212H175.242M167.667 122.212V129.788M160.091 122.212V129.788H167.667M175.242 122.212H182.818M175.242 122.212V129.788M182.818 114.636V122.212M182.818 114.636H190.394M182.818 122.212H190.394M182.818 122.212V129.788M190.394 114.636V122.212M190.394 122.212H197.97M190.394 122.212V129.788M197.97 122.212H205.545M197.97 122.212V129.788M205.545 122.212H213.121M205.545 122.212V129.788M213.121 122.212H220.697M213.121 122.212V129.788M220.697 122.212H228.273M220.697 122.212V129.788M46.4545 122.212H38.8788V129.788M46.4545 122.212V129.788M46.4545 122.212H54.0303V129.788M46.4545 129.788H38.8788M46.4545 129.788H54.0303M38.8788 129.788H31.303V137.364M38.8788 129.788V137.364H31.303M54.0303 129.788H61.6061V137.364M54.0303 129.788V137.364M91.9091 129.788V122.212H84.3333V129.788M91.9091 129.788H84.3333M91.9091 129.788V137.364M84.3333 129.788H76.7576V137.364H84.3333M84.3333 129.788V137.364M167.667 129.788H175.242M175.242 129.788H182.818M175.242 129.788V137.364M182.818 129.788V137.364M182.818 129.788H190.394M197.97 129.788H190.394M197.97 129.788H205.545M197.97 129.788V137.364M190.394 129.788V137.364H182.818M205.545 129.788V137.364M220.697 129.788H213.121M220.697 129.788V137.364M220.697 129.788H228.273V137.364M213.121 129.788V137.364M8.57576 137.364V129.788H1V137.364H8.57576ZM8.57576 137.364H16.1515M8.57576 137.364V144.939M23.7273 137.364V129.788H16.1515V137.364M23.7273 137.364H16.1515M23.7273 137.364V144.939M23.7273 137.364H31.303M16.1515 137.364V144.939M31.303 137.364V144.939M61.6061 137.364H54.0303M61.6061 137.364V144.939M54.0303 137.364H46.4545V144.939M54.0303 137.364V144.939M84.3333 137.364H91.9091M84.3333 137.364V144.939M91.9091 137.364V144.939M182.818 137.364H175.242M175.242 137.364H167.667M175.242 137.364V144.939H167.667M205.545 137.364H197.97M205.545 137.364V144.939M205.545 137.364H213.121M197.97 137.364V144.939M220.697 137.364H213.121M220.697 137.364H228.273M220.697 137.364V144.939M213.121 137.364V144.939M228.273 137.364H235.848V144.939M228.273 137.364V144.939H235.848M16.1515 144.939H8.57576M16.1515 144.939H23.7273M8.57576 144.939H1V152.515H8.57576M8.57576 144.939V152.515M23.7273 144.939H31.303M23.7273 144.939V152.515M31.303 144.939V152.515M54.0303 144.939H46.4545M54.0303 144.939H61.6061M46.4545 144.939H38.8788V152.515M46.4545 144.939V152.515M61.6061 144.939H69.1818V152.515M61.6061 144.939V152.515M91.9091 144.939H84.3333M91.9091 144.939V152.515H84.3333V144.939M167.667 137.364H160.091V144.939H167.667M167.667 137.364V144.939M205.545 144.939H197.97M205.545 144.939H213.121M205.545 144.939V152.515H197.97M197.97 144.939H190.394M197.97 144.939V152.515M213.121 144.939H220.697M213.121 144.939V152.515H220.697M220.697 144.939V152.515M235.848 144.939H243.424V152.515M235.848 144.939V152.515M8.57576 152.515H16.1515M8.57576 152.515V160.091M31.303 152.515H23.7273M31.303 152.515V160.091M31.303 152.515H38.8788M23.7273 152.515H16.1515M23.7273 152.515V160.091M46.4545 152.515H38.8788M46.4545 152.515V160.091M46.4545 152.515H54.0303V160.091M38.8788 152.515V160.091M69.1818 152.515H61.6061M69.1818 152.515V160.091H61.6061M61.6061 152.515V160.091M190.394 144.939H182.818V152.515M190.394 144.939V152.515M190.394 152.515H182.818M190.394 152.515H197.97M190.394 152.515V160.091H182.818V152.515M220.697 152.515H228.273M220.697 152.515V160.091H228.273M243.424 152.515H235.848M243.424 152.515H251V160.091M243.424 152.515V160.091M235.848 152.515H228.273M235.848 152.515V160.091M16.1515 152.515V160.091M16.1515 160.091H8.57576M16.1515 160.091H23.7273M16.1515 160.091V167.667M8.57576 160.091H1V167.667H8.57576M8.57576 160.091V167.667M23.7273 160.091H31.303M23.7273 160.091V167.667M31.303 160.091H38.8788M31.303 160.091V167.667H23.7273M38.8788 160.091H46.4545M38.8788 160.091V167.667M46.4545 160.091H54.0303M46.4545 160.091V167.667M54.0303 160.091H61.6061M54.0303 160.091V167.667M61.6061 160.091V167.667H54.0303M167.667 160.091V152.515H160.091V160.091M167.667 160.091H160.091M167.667 160.091V167.667M160.091 160.091H152.515V167.667H160.091M160.091 160.091V167.667M228.273 152.515V160.091M228.273 160.091H235.848M228.273 160.091V167.667M235.848 160.091V167.667M251 160.091H243.424M251 160.091V167.667M243.424 160.091V167.667M8.57576 167.667H16.1515M16.1515 167.667H23.7273M16.1515 167.667V175.242M23.7273 167.667V175.242M46.4545 167.667H38.8788M46.4545 167.667V175.242M46.4545 167.667H54.0303M38.8788 167.667V175.242M54.0303 167.667V175.242M84.3333 167.667V160.091H76.7576V167.667M84.3333 167.667H76.7576M84.3333 167.667V175.242M84.3333 167.667H91.9091M76.7576 167.667H69.1818V175.242M76.7576 167.667V175.242M122.212 160.091H114.636V167.667H122.212M122.212 160.091V167.667M122.212 160.091H129.788V167.667M122.212 167.667H129.788M122.212 167.667V175.242M129.788 167.667V175.242H122.212M160.091 167.667H167.667M167.667 167.667H175.242M167.667 167.667V175.242M235.848 167.667H228.273M235.848 167.667V175.242M235.848 167.667H243.424M228.273 167.667V175.242M251 167.667H243.424M251 167.667V175.242H243.424M243.424 167.667V175.242M23.7273 175.242H16.1515M23.7273 175.242V182.818M23.7273 175.242H31.303M16.1515 175.242H8.57576V182.818M16.1515 175.242V182.818M46.4545 175.242H38.8788M46.4545 175.242H54.0303M38.8788 175.242H31.303M38.8788 175.242V182.818H31.303M54.0303 175.242H61.6061M54.0303 175.242V182.818M76.7576 175.242H69.1818M76.7576 175.242H84.3333M69.1818 175.242H61.6061M69.1818 175.242V182.818M84.3333 175.242H91.9091M91.9091 167.667V175.242M91.9091 167.667H99.4848V175.242M91.9091 175.242H99.4848M99.4848 175.242H107.061M99.4848 175.242V182.818M122.212 175.242H114.636M122.212 175.242V182.818M175.242 167.667V175.242M175.242 167.667H182.818M175.242 175.242H167.667M175.242 175.242H182.818M175.242 175.242V182.818M167.667 175.242V182.818H175.242M182.818 167.667V175.242M182.818 167.667H190.394M182.818 175.242H190.394M182.818 175.242V182.818M190.394 167.667V175.242M190.394 167.667H197.97M190.394 175.242H197.97M190.394 175.242V182.818M197.97 167.667V175.242M197.97 167.667H205.545M197.97 175.242H205.545M205.545 167.667V175.242M205.545 167.667H213.121V175.242H205.545M235.848 175.242H228.273M235.848 175.242H243.424M235.848 175.242V182.818M228.273 175.242H220.697V182.818M228.273 175.242V182.818M243.424 175.242V182.818M16.1515 182.818H8.57576M16.1515 182.818H23.7273M16.1515 182.818V190.394H23.7273V182.818M8.57576 182.818H1V190.394H8.57576V182.818ZM23.7273 182.818H31.303M31.303 175.242V182.818M61.6061 175.242V182.818M61.6061 182.818H54.0303M61.6061 182.818H69.1818M61.6061 182.818V190.394M54.0303 182.818H46.4545V190.394H54.0303M54.0303 182.818V190.394M69.1818 182.818V190.394M107.061 175.242V182.818M107.061 175.242H114.636M107.061 182.818H99.4848M107.061 182.818H114.636M107.061 182.818V190.394M99.4848 182.818V190.394M114.636 175.242V182.818M114.636 182.818H122.212M122.212 182.818H129.788M122.212 182.818V190.394H129.788M144.939 175.242H137.364V182.818M144.939 175.242V182.818M144.939 175.242H152.515V182.818H144.939M144.939 182.818H137.364M144.939 182.818V190.394M137.364 182.818H129.788M137.364 182.818V190.394M175.242 182.818H182.818M175.242 182.818V190.394H182.818M190.394 182.818H182.818M190.394 182.818V190.394M190.394 182.818H197.97M182.818 182.818V190.394M228.273 182.818H220.697M228.273 182.818V190.394M228.273 182.818H235.848M220.697 182.818H213.121M220.697 182.818V190.394M243.424 182.818H235.848M243.424 182.818V190.394M243.424 182.818H251V190.394M235.848 182.818V190.394M54.0303 190.394H61.6061M61.6061 190.394H69.1818M61.6061 190.394V197.97H69.1818M69.1818 190.394V197.97M69.1818 190.394H76.7576M76.7576 190.394H84.3333V182.818H76.7576V190.394ZM76.7576 190.394V197.97M107.061 190.394H99.4848M107.061 190.394V197.97H99.4848V190.394M129.788 182.818V190.394M129.788 190.394H137.364M137.364 190.394H144.939M137.364 190.394V197.97M144.939 190.394V197.97M144.939 190.394H152.515V197.97M182.818 190.394H190.394M182.818 190.394V197.97M190.394 190.394H197.97M190.394 190.394V197.97M197.97 182.818V190.394M197.97 182.818H205.545M197.97 190.394H205.545M205.545 182.818V190.394M205.545 182.818H213.121M205.545 190.394H213.121M213.121 182.818V190.394M213.121 190.394H220.697M213.121 190.394V197.97M220.697 190.394H228.273M220.697 190.394V197.97M228.273 190.394H235.848M228.273 190.394V197.97H220.697M235.848 190.394H243.424M235.848 190.394V197.97H243.424M243.424 190.394H251M243.424 190.394V197.97M251 190.394V197.97H243.424M69.1818 197.97H76.7576M69.1818 197.97V205.545M76.7576 197.97V205.545M76.7576 197.97H84.3333M144.939 197.97H137.364M144.939 197.97H152.515M144.939 197.97V205.545M137.364 197.97V205.545H144.939M152.515 197.97V205.545M152.515 197.97H160.091M167.667 197.97V190.394H160.091V197.97M167.667 197.97H160.091M167.667 197.97H175.242M167.667 197.97V205.545M160.091 197.97V205.545M190.394 197.97H182.818M190.394 197.97V205.545M182.818 197.97H175.242M182.818 197.97V205.545M220.697 197.97H213.121M220.697 197.97V205.545M213.121 197.97V205.545M8.57576 197.97H1V205.545M8.57576 197.97V205.545M8.57576 197.97H16.1515M8.57576 205.545H1M8.57576 205.545H16.1515M8.57576 205.545V213.121M1 205.545V213.121M16.1515 197.97V205.545M16.1515 197.97H23.7273M16.1515 205.545H23.7273M23.7273 197.97V205.545M23.7273 197.97H31.303M23.7273 205.545H31.303M31.303 197.97V205.545M31.303 197.97H38.8788M31.303 205.545H38.8788M38.8788 197.97V205.545M38.8788 197.97H46.4545M38.8788 205.545H46.4545M46.4545 197.97V205.545M46.4545 197.97H54.0303V205.545M46.4545 205.545H54.0303M46.4545 205.545V213.121M54.0303 205.545V213.121M76.7576 205.545H69.1818M76.7576 205.545H84.3333M69.1818 205.545H61.6061V213.121H69.1818M69.1818 205.545V213.121M84.3333 197.97V205.545M84.3333 197.97H91.9091V205.545M84.3333 205.545H91.9091M84.3333 205.545V213.121M91.9091 205.545V213.121M122.212 197.97H114.636V205.545M122.212 197.97V205.545M122.212 197.97H129.788V205.545H122.212M122.212 205.545H114.636M122.212 205.545V213.121H114.636M114.636 205.545H107.061V213.121M114.636 205.545V213.121M144.939 205.545H152.515M144.939 205.545V213.121M152.515 205.545H160.091M152.515 205.545V213.121M160.091 205.545H167.667M160.091 205.545V213.121M175.242 197.97V205.545M175.242 205.545H167.667M175.242 205.545H182.818M175.242 205.545V213.121M167.667 205.545V213.121M182.818 205.545H190.394M182.818 205.545V213.121M190.394 205.545V213.121M220.697 205.545H213.121M220.697 205.545V213.121M220.697 205.545H228.273M213.121 205.545V213.121M8.57576 213.121H1M8.57576 213.121V220.697M1 213.121V220.697M54.0303 213.121H46.4545M54.0303 213.121V220.697M46.4545 213.121V220.697M69.1818 213.121H76.7576M69.1818 213.121V220.697M91.9091 213.121H84.3333M91.9091 213.121V220.697H84.3333M84.3333 213.121H76.7576M84.3333 213.121V220.697M114.636 213.121H107.061M114.636 213.121V220.697M107.061 213.121V220.697H114.636M152.515 213.121H144.939M152.515 213.121H160.091M152.515 213.121V220.697M144.939 213.121H137.364M144.939 213.121V220.697M167.667 213.121H160.091M167.667 213.121H175.242M167.667 213.121V220.697M160.091 213.121V220.697M182.818 213.121H175.242M182.818 213.121H190.394M182.818 213.121V220.697M175.242 213.121V220.697M190.394 213.121V220.697M190.394 213.121H197.97M220.697 213.121H213.121M220.697 213.121H228.273M220.697 213.121V220.697M213.121 213.121H205.545M213.121 213.121V220.697M228.273 205.545V213.121M228.273 205.545H235.848M228.273 213.121H235.848M228.273 213.121V220.697M235.848 205.545V213.121M235.848 205.545H243.424M235.848 213.121H243.424M235.848 213.121V220.697M243.424 205.545V213.121M243.424 205.545H251V213.121H243.424M243.424 213.121V220.697M8.57576 220.697H1M8.57576 220.697V228.273M1 220.697V228.273M23.7273 213.121H16.1515V220.697M23.7273 213.121V220.697M23.7273 213.121H31.303M23.7273 220.697H16.1515M23.7273 220.697H31.303M23.7273 220.697V228.273M16.1515 220.697V228.273M31.303 213.121V220.697M31.303 213.121H38.8788V220.697M31.303 220.697H38.8788M31.303 220.697V228.273M38.8788 220.697V228.273M54.0303 220.697H46.4545M54.0303 220.697V228.273M46.4545 220.697V228.273M76.7576 213.121V220.697M76.7576 220.697H69.1818M76.7576 220.697H84.3333M76.7576 220.697V228.273M69.1818 220.697H61.6061V228.273M69.1818 220.697V228.273M84.3333 220.697V228.273M114.636 220.697H122.212V228.273M114.636 220.697V228.273M137.364 213.121H129.788V220.697H137.364M137.364 213.121V220.697M137.364 220.697H144.939M144.939 220.697H152.515M144.939 220.697V228.273M160.091 220.697H152.515M160.091 220.697V228.273M160.091 220.697H167.667M152.515 220.697V228.273M175.242 220.697H167.667M175.242 220.697H182.818M175.242 220.697V228.273M167.667 220.697V228.273M182.818 220.697H190.394M182.818 220.697V228.273M190.394 220.697H197.97M190.394 220.697V228.273M197.97 213.121V220.697M197.97 213.121H205.545M197.97 220.697H205.545M197.97 220.697V228.273M205.545 213.121V220.697M205.545 220.697H213.121M205.545 220.697V228.273M213.121 220.697H220.697M213.121 220.697V228.273M220.697 220.697H228.273M220.697 220.697V228.273H228.273V220.697M235.848 220.697H228.273M235.848 220.697H243.424M235.848 220.697V228.273H243.424M243.424 220.697V228.273M243.424 220.697H251V228.273H243.424M8.57576 228.273H1M8.57576 228.273V235.848M1 228.273V235.848M23.7273 228.273H16.1515M23.7273 228.273H31.303M23.7273 228.273V235.848M16.1515 228.273V235.848H23.7273M31.303 228.273H38.8788M31.303 228.273V235.848M38.8788 228.273V235.848H31.303M54.0303 228.273H46.4545M54.0303 228.273V235.848M46.4545 228.273V235.848M69.1818 228.273H61.6061M69.1818 228.273H76.7576M69.1818 228.273V235.848M61.6061 228.273V235.848M76.7576 228.273H84.3333M76.7576 228.273V235.848M84.3333 228.273V235.848M84.3333 228.273H91.9091M122.212 228.273H114.636M122.212 228.273V235.848H114.636M114.636 228.273H107.061V235.848M114.636 228.273V235.848M152.515 228.273H144.939M152.515 228.273H160.091M144.939 228.273H137.364M144.939 228.273V235.848M160.091 228.273H167.667M167.667 228.273H175.242M167.667 228.273V235.848H175.242M175.242 228.273V235.848M175.242 228.273H182.818M190.394 228.273H182.818M190.394 228.273H197.97M182.818 228.273V235.848M197.97 228.273H205.545M197.97 228.273V235.848M213.121 228.273H205.545M213.121 228.273V235.848M205.545 228.273V235.848M8.57576 235.848H1M8.57576 235.848V243.424M1 235.848V243.424M23.7273 235.848H31.303M54.0303 235.848H46.4545M54.0303 235.848V243.424M46.4545 235.848V243.424M69.1818 235.848H61.6061M69.1818 235.848V243.424M69.1818 235.848H76.7576M61.6061 235.848V243.424H69.1818M84.3333 235.848H76.7576M84.3333 235.848H91.9091M84.3333 235.848V243.424H76.7576M76.7576 235.848V243.424M91.9091 228.273V235.848M91.9091 228.273H99.4848V235.848M91.9091 235.848H99.4848M99.4848 235.848H107.061M99.4848 235.848V243.424M114.636 235.848H107.061M114.636 235.848V243.424H107.061M107.061 235.848V243.424M137.364 228.273H129.788V235.848M137.364 228.273V235.848M137.364 235.848H129.788M137.364 235.848H144.939M137.364 235.848V243.424M129.788 235.848V243.424M144.939 235.848V243.424M144.939 235.848H152.515M175.242 235.848H182.818M175.242 235.848V243.424H182.818M182.818 235.848V243.424M182.818 235.848H190.394M205.545 235.848H197.97M205.545 235.848H213.121M205.545 235.848V243.424H213.121M197.97 235.848H190.394M197.97 235.848V243.424H190.394M213.121 235.848V243.424M213.121 235.848H220.697V243.424M8.57576 243.424H1M8.57576 243.424V251M8.57576 243.424H16.1515M1 243.424V251H8.57576M54.0303 243.424H46.4545M54.0303 243.424V251H46.4545M46.4545 243.424H38.8788M46.4545 243.424V251M69.1818 243.424H76.7576M107.061 243.424H99.4848M107.061 243.424V251H99.4848V243.424M137.364 243.424H129.788M137.364 243.424H144.939M137.364 243.424V251M129.788 243.424H122.212V251H129.788M129.788 243.424V251M144.939 243.424H152.515M144.939 243.424V251H137.364M152.515 235.848V243.424M152.515 235.848H160.091V243.424M152.515 243.424H160.091M160.091 243.424H167.667V251H160.091V243.424ZM182.818 243.424H190.394M190.394 235.848V243.424M213.121 243.424H220.697M213.121 243.424V251H220.697M220.697 243.424V251M220.697 243.424H228.273M8.57576 251H16.1515M16.1515 243.424V251M16.1515 243.424H23.7273M16.1515 251H23.7273M23.7273 243.424V251M23.7273 243.424H31.303M23.7273 251H31.303M31.303 243.424V251M31.303 243.424H38.8788M31.303 251H38.8788M38.8788 243.424V251M38.8788 251H46.4545M129.788 251H137.364M220.697 251H228.273M228.273 243.424V251M228.273 243.424H235.848V251H228.273M152.515 1H160.091V8.57576H152.515V1ZM107.061 84.3333H114.636V91.9091H107.061V84.3333ZM243.424 129.788H251V137.364H243.424V129.788ZM197.97 197.97H205.545V205.545H197.97V197.97ZM243.424 235.848H251V243.424H243.424V235.848Z" stroke="black" stroke-width="0.5"/>
<defs>
<filter id="filter0_i_2021_816" x="106" y="106" width="40" height="40.5" filterUnits="userSpaceOnUse" color-interpolation-filters="sRGB">
<feFlood flood-opacity="0" result="BackgroundImageFix"/>
<feBlend mode="normal" in="SourceGraphic" in2="BackgroundImageFix" result="shape"/>
<feColorMatrix in="SourceAlpha" type="matrix" values="0 0 0 0 0 0 0 0 0 0 0 0 0 0 0 0 0 0 127 0" result="hardAlpha"/>
<feOffset dy="0.5"/>
<feGaussianBlur stdDeviation="1.25"/>
<feComposite in2="hardAlpha" operator="arithmetic" k2="-1" k3="1"/>
<feColorMatrix type="matrix" values="0 0 0 0 0 0 0 0 0 0 0 0 0 0 0 0 0 0 0.1 0"/>
<feBlend mode="normal" in2="shape" result="effect1_innerShadow_2021_816"/>
</filter>
</defs>
</svg>
