<svg width="14" height="14" viewBox="0 0 14 14" fill="none" xmlns="http://www.w3.org/2000/svg">
<g clip-path="url(#clip0_0_691)">
<path d="M11.1562 13.1251H5.03125C4.50911 13.1251 4.00835 12.9177 3.63913 12.5485C3.26992 12.1793 3.0625 11.6785 3.0625 11.1564V5.03137C3.0625 4.50923 3.26992 4.00847 3.63913 3.63926C4.00835 3.27004 4.50911 3.06262 5.03125 3.06262H11.1562C11.6784 3.06262 12.1792 3.27004 12.5484 3.63926C12.9176 4.00847 13.125 4.50923 13.125 5.03137V11.1564C13.125 11.6785 12.9176 12.1793 12.5484 12.5485C12.1792 12.9177 11.6784 13.1251 11.1562 13.1251Z" fill="#6A87F8"/>
<path d="M4.375 2.18762H10.8248C10.6887 1.80406 10.4373 1.472 10.1049 1.23701C9.77263 1.00202 9.37575 0.875613 8.96875 0.875122H2.84375C2.3216 0.875122 1.82085 1.08254 1.45163 1.45176C1.08242 1.82097 0.875 2.32173 0.875 2.84387V8.96887C0.875491 9.37587 1.0019 9.77276 1.23689 10.1051C1.47188 10.4374 1.80393 10.6888 2.1875 10.825V4.37512C2.1875 3.79496 2.41797 3.23856 2.8282 2.82833C3.23844 2.41809 3.79484 2.18762 4.375 2.18762Z" fill="#6A87F8"/>
</g>
<defs>
<clipPath id="clip0_0_691">
<rect width="14" height="14" fill="white"/>
</clipPath>
</defs>
</svg>
