<svg width="60" height="60" viewBox="0 0 60 60" fill="none" xmlns="http://www.w3.org/2000/svg">
<path d="M28.6632 36.854L28.8502 36.5842L28.6769 36.3053C28.0124 35.2357 27.4399 34.178 26.8779 33.1393C26.7791 32.9569 26.6807 32.775 26.5821 32.5937L26.166 31.8284L25.7151 32.5738C23.3705 36.4491 20.8486 39.1429 16.5 39.1429C11.4575 39.1429 7.35714 35.0425 7.35714 30C7.35714 24.9274 11.4274 20.8571 16.5 20.8571C19.4608 20.8571 21.3178 21.8996 23.0709 23.7176C24.8462 25.5586 26.3601 28.2381 27.9331 31.1422C28.0178 31.2985 28.1027 31.4556 28.1879 31.6132C29.6693 34.3541 31.2416 37.2632 33.4953 39.6263C35.9009 42.1487 39.2352 44 43.5 44C51.2117 44 57.5 37.7117 57.5 30C57.5 22.2808 51.2192 16 43.5 16C37.6545 16 34.0491 19.1464 31.3401 22.9605L31.1459 23.2339L31.3252 23.5173C32.1108 24.7593 32.8286 25.9781 33.4788 27.1663L33.8908 27.9193L34.3425 27.1895C36.6675 23.4338 39.1586 20.8571 43.5 20.8571C48.5425 20.8571 52.6429 24.9575 52.6429 30C52.6429 35.0726 48.5726 39.1429 43.5 39.1429C42.0309 39.1429 40.8566 38.8765 39.8395 38.396C38.8194 37.9141 37.9318 37.2048 37.0511 36.2839C35.2894 34.4418 33.7673 31.7607 32.1869 28.857C32.1306 28.7534 32.0741 28.6495 32.0174 28.5454C30.5007 25.7559 28.8828 22.7807 26.5633 20.3719C24.1356 17.8509 20.802 16 16.5 16C8.78831 16 2.5 22.2883 2.5 30C2.5 37.7192 8.78078 44 16.5 44C22.3827 44 25.9654 40.7474 28.6632 36.854Z" fill="#6A87F8" stroke="#6A87F8"/>
</svg>
