<svg width="200" height="200" viewBox="0 0 200 200" fill="none" xmlns="http://www.w3.org/2000/svg">
<rect width="200" height="200" rx="10" fill="#04DE6D"/>
<g clip-path="url(#clip0_239_774)" filter="url(#filter0_i_239_774)">
<path d="M104.706 94.9965C105.181 94.9965 105.646 95.036 106.104 95.0925C105.276 91.4559 101.456 88.7052 96.8631 88.7052C91.6645 88.7052 87.4512 92.2266 87.4512 96.5693C87.4512 99.0731 88.8599 101.294 91.0449 102.732L89.8041 105.22L93.1843 103.768C93.9091 104.026 94.6624 104.239 95.4669 104.338C95.3569 103.858 95.2945 103.366 95.2945 102.861C95.2945 98.5245 99.5154 94.9965 104.706 94.9965ZM100 92.2438C100.65 92.2438 101.177 92.7722 101.177 93.4236C101.177 94.0752 100.65 94.6032 100 94.6032C99.3504 94.6032 98.8239 94.0752 98.8239 93.4236C98.8239 92.7722 99.3504 92.2438 100 92.2438ZM93.7257 94.6032C93.076 94.6032 92.5493 94.0752 92.5493 93.4236C92.5493 92.7722 93.0761 92.2438 93.7257 92.2438C94.3753 92.2438 94.9022 92.7722 94.9022 93.4236C94.9022 94.0752 94.3753 94.6032 93.7257 94.6032Z" fill="black"/>
<path d="M112.549 102.861C112.549 99.3862 109.037 96.5693 104.706 96.5693C100.375 96.5693 96.8631 99.3862 96.8631 102.861C96.8631 106.335 100.375 109.152 104.706 109.152C105.418 109.152 106.096 109.052 106.753 108.909L110.981 110.725L109.519 107.795C111.351 106.643 112.549 104.873 112.549 102.861ZM102.353 102.468C101.704 102.468 101.177 101.939 101.177 101.288C101.177 100.636 101.703 100.108 102.353 100.108C103.003 100.108 103.53 100.637 103.53 101.288C103.53 101.939 103.003 102.468 102.353 102.468ZM107.059 102.468C106.409 102.468 105.883 101.939 105.883 101.288C105.883 100.636 106.409 100.108 107.059 100.108C107.709 100.108 108.235 100.637 108.235 101.288C108.235 101.939 107.709 102.468 107.059 102.468Z" fill="black"/>
</g>
<path d="M20 20H24.8485V24.8485H20V20Z" fill="black"/>
<path d="M24.8485 20H29.697V24.8485H24.8485V20Z" fill="black"/>
<path d="M29.697 20H34.5455V24.8485H29.697V20Z" fill="black"/>
<path d="M34.5455 20H39.3939V24.8485H34.5455V20Z" fill="black"/>
<path d="M39.3939 20H44.2424V24.8485H39.3939V20Z" fill="black"/>
<path d="M44.2424 20H49.0909V24.8485H44.2424V20Z" fill="black"/>
<path d="M49.0909 20H53.9394V24.8485H49.0909V20Z" fill="black"/>
<path d="M78.1818 20H83.0303V24.8485H78.1818V20Z" fill="black"/>
<path d="M87.8788 20H92.7273V24.8485H87.8788V20Z" fill="black"/>
<path d="M92.7273 20H97.5758V24.8485H92.7273V20Z" fill="black"/>
<path d="M97.5758 20H102.424V24.8485H97.5758V20Z" fill="black"/>
<path d="M102.424 20H107.273V24.8485H102.424V20Z" fill="black"/>
<path d="M107.273 20H112.121V24.8485H107.273V20Z" fill="black"/>
<path d="M116.97 20H121.818V24.8485H116.97V20Z" fill="black"/>
<path d="M131.515 20H136.364V24.8485H131.515V20Z" fill="black"/>
<path d="M146.061 20H150.909V24.8485H146.061V20Z" fill="black"/>
<path d="M150.909 20H155.758V24.8485H150.909V20Z" fill="black"/>
<path d="M155.758 20H160.606V24.8485H155.758V20Z" fill="black"/>
<path d="M160.606 20H165.455V24.8485H160.606V20Z" fill="black"/>
<path d="M165.455 20H170.303V24.8485H165.455V20Z" fill="black"/>
<path d="M170.303 20H175.152V24.8485H170.303V20Z" fill="black"/>
<path d="M175.152 20H180V24.8485H175.152V20Z" fill="black"/>
<path d="M20 24.8485H24.8485V29.697H20V24.8485Z" fill="black"/>
<path d="M49.0909 24.8485H53.9394V29.697H49.0909V24.8485Z" fill="black"/>
<path d="M58.7879 24.8485H63.6364V29.697H58.7879V24.8485Z" fill="black"/>
<path d="M68.4848 24.8485H73.3333V29.697H68.4848V24.8485Z" fill="black"/>
<path d="M73.3333 24.8485H78.1818V29.697H73.3333V24.8485Z" fill="black"/>
<path d="M78.1818 24.8485H83.0303V29.697H78.1818V24.8485Z" fill="black"/>
<path d="M97.5758 24.8485H102.424V29.697H97.5758V24.8485Z" fill="black"/>
<path d="M107.273 24.8485H112.121V29.697H107.273V24.8485Z" fill="black"/>
<path d="M131.515 24.8485H136.364V29.697H131.515V24.8485Z" fill="black"/>
<path d="M136.364 24.8485H141.212V29.697H136.364V24.8485Z" fill="black"/>
<path d="M146.061 24.8485H150.909V29.697H146.061V24.8485Z" fill="black"/>
<path d="M175.152 24.8485H180V29.697H175.152V24.8485Z" fill="black"/>
<path d="M20 29.697H24.8485V34.5455H20V29.697Z" fill="black"/>
<path d="M29.697 29.697H34.5455V34.5455H29.697V29.697Z" fill="black"/>
<path d="M34.5455 29.697H39.3939V34.5455H34.5455V29.697Z" fill="black"/>
<path d="M39.3939 29.697H44.2424V34.5455H39.3939V29.697Z" fill="black"/>
<path d="M49.0909 29.697H53.9394V34.5455H49.0909V29.697Z" fill="black"/>
<path d="M58.7879 29.697H63.6364V34.5455H58.7879V29.697Z" fill="black"/>
<path d="M63.6364 29.697H68.4848V34.5455H63.6364V29.697Z" fill="black"/>
<path d="M83.0303 29.697H87.8788V34.5455H83.0303V29.697Z" fill="black"/>
<path d="M87.8788 29.697H92.7273V34.5455H87.8788V29.697Z" fill="black"/>
<path d="M92.7273 29.697H97.5758V34.5455H92.7273V29.697Z" fill="black"/>
<path d="M97.5758 29.697H102.424V34.5455H97.5758V29.697Z" fill="black"/>
<path d="M102.424 29.697H107.273V34.5455H102.424V29.697Z" fill="black"/>
<path d="M116.97 29.697H121.818V34.5455H116.97V29.697Z" fill="black"/>
<path d="M126.667 29.697H131.515V34.5455H126.667V29.697Z" fill="black"/>
<path d="M131.515 29.697H136.364V34.5455H131.515V29.697Z" fill="black"/>
<path d="M146.061 29.697H150.909V34.5455H146.061V29.697Z" fill="black"/>
<path d="M155.758 29.697H160.606V34.5455H155.758V29.697Z" fill="black"/>
<path d="M160.606 29.697H165.455V34.5455H160.606V29.697Z" fill="black"/>
<path d="M165.455 29.697H170.303V34.5455H165.455V29.697Z" fill="black"/>
<path d="M175.152 29.697H180V34.5455H175.152V29.697Z" fill="black"/>
<path d="M20 34.5455H24.8485V39.3939H20V34.5455Z" fill="black"/>
<path d="M29.697 34.5455H34.5455V39.3939H29.697V34.5455Z" fill="black"/>
<path d="M34.5455 34.5455H39.3939V39.3939H34.5455V34.5455Z" fill="black"/>
<path d="M39.3939 34.5455H44.2424V39.3939H39.3939V34.5455Z" fill="black"/>
<path d="M49.0909 34.5455H53.9394V39.3939H49.0909V34.5455Z" fill="black"/>
<path d="M63.6364 34.5455H68.4848V39.3939H63.6364V34.5455Z" fill="black"/>
<path d="M83.0303 34.5455H87.8788V39.3939H83.0303V34.5455Z" fill="black"/>
<path d="M87.8788 34.5455H92.7273V39.3939H87.8788V34.5455Z" fill="black"/>
<path d="M112.121 34.5455H116.97V39.3939H112.121V34.5455Z" fill="black"/>
<path d="M126.667 34.5455H131.515V39.3939H126.667V34.5455Z" fill="black"/>
<path d="M136.364 34.5455H141.212V39.3939H136.364V34.5455Z" fill="black"/>
<path d="M146.061 34.5455H150.909V39.3939H146.061V34.5455Z" fill="black"/>
<path d="M155.758 34.5455H160.606V39.3939H155.758V34.5455Z" fill="black"/>
<path d="M160.606 34.5455H165.455V39.3939H160.606V34.5455Z" fill="black"/>
<path d="M165.455 34.5455H170.303V39.3939H165.455V34.5455Z" fill="black"/>
<path d="M175.152 34.5455H180V39.3939H175.152V34.5455Z" fill="black"/>
<path d="M20 39.3939H24.8485V44.2424H20V39.3939Z" fill="black"/>
<path d="M29.697 39.3939H34.5455V44.2424H29.697V39.3939Z" fill="black"/>
<path d="M34.5455 39.3939H39.3939V44.2424H34.5455V39.3939Z" fill="black"/>
<path d="M39.3939 39.3939H44.2424V44.2424H39.3939V39.3939Z" fill="black"/>
<path d="M49.0909 39.3939H53.9394V44.2424H49.0909V39.3939Z" fill="black"/>
<path d="M63.6364 39.3939H68.4848V44.2424H63.6364V39.3939Z" fill="black"/>
<path d="M68.4848 39.3939H73.3333V44.2424H68.4848V39.3939Z" fill="black"/>
<path d="M78.1818 39.3939H83.0303V44.2424H78.1818V39.3939Z" fill="black"/>
<path d="M83.0303 39.3939H87.8788V44.2424H83.0303V39.3939Z" fill="black"/>
<path d="M92.7273 39.3939H97.5758V44.2424H92.7273V39.3939Z" fill="black"/>
<path d="M97.5758 39.3939H102.424V44.2424H97.5758V39.3939Z" fill="black"/>
<path d="M116.97 39.3939H121.818V44.2424H116.97V39.3939Z" fill="black"/>
<path d="M121.818 39.3939H126.667V44.2424H121.818V39.3939Z" fill="black"/>
<path d="M131.515 39.3939H136.364V44.2424H131.515V39.3939Z" fill="black"/>
<path d="M136.364 39.3939H141.212V44.2424H136.364V39.3939Z" fill="black"/>
<path d="M146.061 39.3939H150.909V44.2424H146.061V39.3939Z" fill="black"/>
<path d="M155.758 39.3939H160.606V44.2424H155.758V39.3939Z" fill="black"/>
<path d="M160.606 39.3939H165.455V44.2424H160.606V39.3939Z" fill="black"/>
<path d="M165.455 39.3939H170.303V44.2424H165.455V39.3939Z" fill="black"/>
<path d="M175.152 39.3939H180V44.2424H175.152V39.3939Z" fill="black"/>
<path d="M20 44.2424H24.8485V49.0909H20V44.2424Z" fill="black"/>
<path d="M49.0909 44.2424H53.9394V49.0909H49.0909V44.2424Z" fill="black"/>
<path d="M63.6364 44.2424H68.4848V49.0909H63.6364V44.2424Z" fill="black"/>
<path d="M68.4848 44.2424H73.3333V49.0909H68.4848V44.2424Z" fill="black"/>
<path d="M73.3333 44.2424H78.1818V49.0909H73.3333V44.2424Z" fill="black"/>
<path d="M78.1818 44.2424H83.0303V49.0909H78.1818V44.2424Z" fill="black"/>
<path d="M83.0303 44.2424H87.8788V49.0909H83.0303V44.2424Z" fill="black"/>
<path d="M92.7273 44.2424H97.5758V49.0909H92.7273V44.2424Z" fill="black"/>
<path d="M97.5758 44.2424H102.424V49.0909H97.5758V44.2424Z" fill="black"/>
<path d="M107.273 44.2424H112.121V49.0909H107.273V44.2424Z" fill="black"/>
<path d="M112.121 44.2424H116.97V49.0909H112.121V44.2424Z" fill="black"/>
<path d="M116.97 44.2424H121.818V49.0909H116.97V44.2424Z" fill="black"/>
<path d="M126.667 44.2424H131.515V49.0909H126.667V44.2424Z" fill="black"/>
<path d="M136.364 44.2424H141.212V49.0909H136.364V44.2424Z" fill="black"/>
<path d="M146.061 44.2424H150.909V49.0909H146.061V44.2424Z" fill="black"/>
<path d="M175.152 44.2424H180V49.0909H175.152V44.2424Z" fill="black"/>
<path d="M20 49.0909H24.8485V53.9394H20V49.0909Z" fill="black"/>
<path d="M24.8485 49.0909H29.697V53.9394H24.8485V49.0909Z" fill="black"/>
<path d="M29.697 49.0909H34.5455V53.9394H29.697V49.0909Z" fill="black"/>
<path d="M34.5455 49.0909H39.3939V53.9394H34.5455V49.0909Z" fill="black"/>
<path d="M39.3939 49.0909H44.2424V53.9394H39.3939V49.0909Z" fill="black"/>
<path d="M44.2424 49.0909H49.0909V53.9394H44.2424V49.0909Z" fill="black"/>
<path d="M49.0909 49.0909H53.9394V53.9394H49.0909V49.0909Z" fill="black"/>
<path d="M58.7879 49.0909H63.6364V53.9394H58.7879V49.0909Z" fill="black"/>
<path d="M68.4848 49.0909H73.3333V53.9394H68.4848V49.0909Z" fill="black"/>
<path d="M78.1818 49.0909H83.0303V53.9394H78.1818V49.0909Z" fill="black"/>
<path d="M87.8788 49.0909H92.7273V53.9394H87.8788V49.0909Z" fill="black"/>
<path d="M97.5758 49.0909H102.424V53.9394H97.5758V49.0909Z" fill="black"/>
<path d="M107.273 49.0909H112.121V53.9394H107.273V49.0909Z" fill="black"/>
<path d="M116.97 49.0909H121.818V53.9394H116.97V49.0909Z" fill="black"/>
<path d="M126.667 49.0909H131.515V53.9394H126.667V49.0909Z" fill="black"/>
<path d="M136.364 49.0909H141.212V53.9394H136.364V49.0909Z" fill="black"/>
<path d="M146.061 49.0909H150.909V53.9394H146.061V49.0909Z" fill="black"/>
<path d="M150.909 49.0909H155.758V53.9394H150.909V49.0909Z" fill="black"/>
<path d="M155.758 49.0909H160.606V53.9394H155.758V49.0909Z" fill="black"/>
<path d="M160.606 49.0909H165.455V53.9394H160.606V49.0909Z" fill="black"/>
<path d="M165.455 49.0909H170.303V53.9394H165.455V49.0909Z" fill="black"/>
<path d="M170.303 49.0909H175.152V53.9394H170.303V49.0909Z" fill="black"/>
<path d="M175.152 49.0909H180V53.9394H175.152V49.0909Z" fill="black"/>
<path d="M73.3333 53.9394H78.1818V58.7879H73.3333V53.9394Z" fill="black"/>
<path d="M78.1818 53.9394H83.0303V58.7879H78.1818V53.9394Z" fill="black"/>
<path d="M102.424 53.9394H107.273V58.7879H102.424V53.9394Z" fill="black"/>
<path d="M107.273 53.9394H112.121V58.7879H107.273V53.9394Z" fill="black"/>
<path d="M112.121 53.9394H116.97V58.7879H112.121V53.9394Z" fill="black"/>
<path d="M116.97 53.9394H121.818V58.7879H116.97V53.9394Z" fill="black"/>
<path d="M131.515 53.9394H136.364V58.7879H131.515V53.9394Z" fill="black"/>
<path d="M24.8485 58.7879H29.697V63.6364H24.8485V58.7879Z" fill="black"/>
<path d="M29.697 58.7879H34.5455V63.6364H29.697V58.7879Z" fill="black"/>
<path d="M34.5455 58.7879H39.3939V63.6364H34.5455V58.7879Z" fill="black"/>
<path d="M44.2424 58.7879H49.0909V63.6364H44.2424V58.7879Z" fill="black"/>
<path d="M49.0909 58.7879H53.9394V63.6364H49.0909V58.7879Z" fill="black"/>
<path d="M78.1818 58.7879H83.0303V63.6364H78.1818V58.7879Z" fill="black"/>
<path d="M83.0303 58.7879H87.8788V63.6364H83.0303V58.7879Z" fill="black"/>
<path d="M87.8788 58.7879H92.7273V63.6364H87.8788V58.7879Z" fill="black"/>
<path d="M92.7273 58.7879H97.5758V63.6364H92.7273V58.7879Z" fill="black"/>
<path d="M107.273 58.7879H112.121V63.6364H107.273V58.7879Z" fill="black"/>
<path d="M112.121 58.7879H116.97V63.6364H112.121V58.7879Z" fill="black"/>
<path d="M121.818 58.7879H126.667V63.6364H121.818V58.7879Z" fill="black"/>
<path d="M165.455 58.7879H170.303V63.6364H165.455V58.7879Z" fill="black"/>
<path d="M170.303 58.7879H175.152V63.6364H170.303V58.7879Z" fill="black"/>
<path d="M20 63.6364H24.8485V68.4848H20V63.6364Z" fill="black"/>
<path d="M34.5455 63.6364H39.3939V68.4848H34.5455V63.6364Z" fill="black"/>
<path d="M53.9394 63.6364H58.7879V68.4848H53.9394V63.6364Z" fill="black"/>
<path d="M73.3333 63.6364H78.1818V68.4848H73.3333V63.6364Z" fill="black"/>
<path d="M78.1818 63.6364H83.0303V68.4848H78.1818V63.6364Z" fill="black"/>
<path d="M87.8788 63.6364H92.7273V68.4848H87.8788V63.6364Z" fill="black"/>
<path d="M92.7273 63.6364H97.5758V68.4848H92.7273V63.6364Z" fill="black"/>
<path d="M107.273 63.6364H112.121V68.4848H107.273V63.6364Z" fill="black"/>
<path d="M112.121 63.6364H116.97V68.4848H112.121V63.6364Z" fill="black"/>
<path d="M131.515 63.6364H136.364V68.4848H131.515V63.6364Z" fill="black"/>
<path d="M146.061 63.6364H150.909V68.4848H146.061V63.6364Z" fill="black"/>
<path d="M150.909 63.6364H155.758V68.4848H150.909V63.6364Z" fill="black"/>
<path d="M160.606 63.6364H165.455V68.4848H160.606V63.6364Z" fill="black"/>
<path d="M165.455 63.6364H170.303V68.4848H165.455V63.6364Z" fill="black"/>
<path d="M170.303 63.6364H175.152V68.4848H170.303V63.6364Z" fill="black"/>
<path d="M175.152 63.6364H180V68.4848H175.152V63.6364Z" fill="black"/>
<path d="M20 68.4848H24.8485V73.3333H20V68.4848Z" fill="black"/>
<path d="M29.697 68.4848H34.5455V73.3333H29.697V68.4848Z" fill="black"/>
<path d="M39.3939 68.4848H44.2424V73.3333H39.3939V68.4848Z" fill="black"/>
<path d="M49.0909 68.4848H53.9394V73.3333H49.0909V68.4848Z" fill="black"/>
<path d="M73.3333 68.4848H78.1818V73.3333H73.3333V68.4848Z" fill="black"/>
<path d="M78.1818 68.4848H83.0303V73.3333H78.1818V68.4848Z" fill="black"/>
<path d="M97.5758 68.4848H102.424V73.3333H97.5758V68.4848Z" fill="black"/>
<path d="M102.424 68.4848H107.273V73.3333H102.424V68.4848Z" fill="black"/>
<path d="M126.667 68.4848H131.515V73.3333H126.667V68.4848Z" fill="black"/>
<path d="M131.515 68.4848H136.364V73.3333H131.515V68.4848Z" fill="black"/>
<path d="M136.364 68.4848H141.212V73.3333H136.364V68.4848Z" fill="black"/>
<path d="M146.061 68.4848H150.909V73.3333H146.061V68.4848Z" fill="black"/>
<path d="M150.909 68.4848H155.758V73.3333H150.909V68.4848Z" fill="black"/>
<path d="M155.758 68.4848H160.606V73.3333H155.758V68.4848Z" fill="black"/>
<path d="M160.606 68.4848H165.455V73.3333H160.606V68.4848Z" fill="black"/>
<path d="M175.152 68.4848H180V73.3333H175.152V68.4848Z" fill="black"/>
<path d="M20 73.3333H24.8485V78.1818H20V73.3333Z" fill="black"/>
<path d="M58.7879 73.3333H63.6364V78.1818H58.7879V73.3333Z" fill="black"/>
<path d="M87.8788 73.3333H92.7273V78.1818H87.8788V73.3333Z" fill="black"/>
<path d="M107.273 73.3333H112.121V78.1818H107.273V73.3333Z" fill="black"/>
<path d="M112.121 73.3333H116.97V78.1818H112.121V73.3333Z" fill="black"/>
<path d="M116.97 73.3333H121.818V78.1818H116.97V73.3333Z" fill="black"/>
<path d="M136.364 73.3333H141.212V78.1818H136.364V73.3333Z" fill="black"/>
<path d="M150.909 73.3333H155.758V78.1818H150.909V73.3333Z" fill="black"/>
<path d="M160.606 73.3333H165.455V78.1818H160.606V73.3333Z" fill="black"/>
<path d="M170.303 73.3333H175.152V78.1818H170.303V73.3333Z" fill="black"/>
<path d="M20 78.1818H24.8485V83.0303H20V78.1818Z" fill="black"/>
<path d="M24.8485 78.1818H29.697V83.0303H24.8485V78.1818Z" fill="black"/>
<path d="M34.5455 78.1818H39.3939V83.0303H34.5455V78.1818Z" fill="black"/>
<path d="M44.2424 78.1818H49.0909V83.0303H44.2424V78.1818Z" fill="black"/>
<path d="M49.0909 78.1818H53.9394V83.0303H49.0909V78.1818Z" fill="black"/>
<path d="M53.9394 78.1818H58.7879V83.0303H53.9394V78.1818Z" fill="black"/>
<path d="M58.7879 78.1818H63.6364V83.0303H58.7879V78.1818Z" fill="black"/>
<path d="M63.6364 78.1818H68.4848V83.0303H63.6364V78.1818Z" fill="black"/>
<path d="M68.4848 78.1818H73.3333V83.0303H68.4848V78.1818Z" fill="black"/>
<path d="M126.667 78.1818H131.515V83.0303H126.667V78.1818Z" fill="black"/>
<path d="M141.212 78.1818H146.061V83.0303H141.212V78.1818Z" fill="black"/>
<path d="M155.758 78.1818H160.606V83.0303H155.758V78.1818Z" fill="black"/>
<path d="M160.606 78.1818H165.455V83.0303H160.606V78.1818Z" fill="black"/>
<path d="M170.303 78.1818H175.152V83.0303H170.303V78.1818Z" fill="black"/>
<path d="M34.5455 83.0303H39.3939V87.8788H34.5455V83.0303Z" fill="black"/>
<path d="M53.9394 83.0303H58.7879V87.8788H53.9394V83.0303Z" fill="black"/>
<path d="M73.3333 83.0303H78.1818V87.8788H73.3333V83.0303Z" fill="black"/>
<path d="M131.515 83.0303H136.364V87.8788H131.515V83.0303Z" fill="black"/>
<path d="M136.364 83.0303H141.212V87.8788H136.364V83.0303Z" fill="black"/>
<path d="M160.606 83.0303H165.455V87.8788H160.606V83.0303Z" fill="black"/>
<path d="M170.303 83.0303H175.152V87.8788H170.303V83.0303Z" fill="black"/>
<path d="M20 87.8788H24.8485V92.7273H20V87.8788Z" fill="black"/>
<path d="M34.5455 87.8788H39.3939V92.7273H34.5455V87.8788Z" fill="black"/>
<path d="M44.2424 87.8788H49.0909V92.7273H44.2424V87.8788Z" fill="black"/>
<path d="M49.0909 87.8788H53.9394V92.7273H49.0909V87.8788Z" fill="black"/>
<path d="M58.7879 87.8788H63.6364V92.7273H58.7879V87.8788Z" fill="black"/>
<path d="M68.4848 87.8788H73.3333V92.7273H68.4848V87.8788Z" fill="black"/>
<path d="M126.667 87.8788H131.515V92.7273H126.667V87.8788Z" fill="black"/>
<path d="M146.061 87.8788H150.909V92.7273H146.061V87.8788Z" fill="black"/>
<path d="M150.909 87.8788H155.758V92.7273H150.909V87.8788Z" fill="black"/>
<path d="M155.758 87.8788H160.606V92.7273H155.758V87.8788Z" fill="black"/>
<path d="M160.606 87.8788H165.455V92.7273H160.606V87.8788Z" fill="black"/>
<path d="M20 92.7273H24.8485V97.5758H20V92.7273Z" fill="black"/>
<path d="M34.5455 92.7273H39.3939V97.5758H34.5455V92.7273Z" fill="black"/>
<path d="M121.818 92.7273H126.667V97.5758H121.818V92.7273Z" fill="black"/>
<path d="M126.667 92.7273H131.515V97.5758H126.667V92.7273Z" fill="black"/>
<path d="M131.515 92.7273H136.364V97.5758H131.515V92.7273Z" fill="black"/>
<path d="M136.364 92.7273H141.212V97.5758H136.364V92.7273Z" fill="black"/>
<path d="M141.212 92.7273H146.061V97.5758H141.212V92.7273Z" fill="black"/>
<path d="M146.061 92.7273H150.909V97.5758H146.061V92.7273Z" fill="black"/>
<path d="M150.909 92.7273H155.758V97.5758H150.909V92.7273Z" fill="black"/>
<path d="M155.758 92.7273H160.606V97.5758H155.758V92.7273Z" fill="black"/>
<path d="M160.606 92.7273H165.455V97.5758H160.606V92.7273Z" fill="black"/>
<path d="M165.455 92.7273H170.303V97.5758H165.455V92.7273Z" fill="black"/>
<path d="M44.2424 97.5758H49.0909V102.424H44.2424V97.5758Z" fill="black"/>
<path d="M49.0909 97.5758H53.9394V102.424H49.0909V97.5758Z" fill="black"/>
<path d="M73.3333 97.5758H78.1818V102.424H73.3333V97.5758Z" fill="black"/>
<path d="M121.818 97.5758H126.667V102.424H121.818V97.5758Z" fill="black"/>
<path d="M126.667 97.5758H131.515V102.424H126.667V97.5758Z" fill="black"/>
<path d="M131.515 97.5758H136.364V102.424H131.515V97.5758Z" fill="black"/>
<path d="M141.212 97.5758H146.061V102.424H141.212V97.5758Z" fill="black"/>
<path d="M146.061 97.5758H150.909V102.424H146.061V97.5758Z" fill="black"/>
<path d="M155.758 97.5758H160.606V102.424H155.758V97.5758Z" fill="black"/>
<path d="M20 102.424H24.8485V107.273H20V102.424Z" fill="black"/>
<path d="M29.697 102.424H34.5455V107.273H29.697V102.424Z" fill="black"/>
<path d="M39.3939 102.424H44.2424V107.273H39.3939V102.424Z" fill="black"/>
<path d="M53.9394 102.424H58.7879V107.273H53.9394V102.424Z" fill="black"/>
<path d="M68.4848 102.424H73.3333V107.273H68.4848V102.424Z" fill="black"/>
<path d="M73.3333 102.424H78.1818V107.273H73.3333V102.424Z" fill="black"/>
<path d="M131.515 102.424H136.364V107.273H131.515V102.424Z" fill="black"/>
<path d="M136.364 102.424H141.212V107.273H136.364V102.424Z" fill="black"/>
<path d="M146.061 102.424H150.909V107.273H146.061V102.424Z" fill="black"/>
<path d="M155.758 102.424H160.606V107.273H155.758V102.424Z" fill="black"/>
<path d="M160.606 102.424H165.455V107.273H160.606V102.424Z" fill="black"/>
<path d="M175.152 102.424H180V107.273H175.152V102.424Z" fill="black"/>
<path d="M24.8485 107.273H29.697V112.121H24.8485V107.273Z" fill="black"/>
<path d="M29.697 107.273H34.5455V112.121H29.697V107.273Z" fill="black"/>
<path d="M34.5455 107.273H39.3939V112.121H34.5455V107.273Z" fill="black"/>
<path d="M49.0909 107.273H53.9394V112.121H49.0909V107.273Z" fill="black"/>
<path d="M53.9394 107.273H58.7879V112.121H53.9394V107.273Z" fill="black"/>
<path d="M73.3333 107.273H78.1818V112.121H73.3333V107.273Z" fill="black"/>
<path d="M121.818 107.273H126.667V112.121H121.818V107.273Z" fill="black"/>
<path d="M126.667 107.273H131.515V112.121H126.667V107.273Z" fill="black"/>
<path d="M146.061 107.273H150.909V112.121H146.061V107.273Z" fill="black"/>
<path d="M150.909 107.273H155.758V112.121H150.909V107.273Z" fill="black"/>
<path d="M155.758 107.273H160.606V112.121H155.758V107.273Z" fill="black"/>
<path d="M165.455 107.273H170.303V112.121H165.455V107.273Z" fill="black"/>
<path d="M20 112.121H24.8485V116.97H20V112.121Z" fill="black"/>
<path d="M34.5455 112.121H39.3939V116.97H34.5455V112.121Z" fill="black"/>
<path d="M44.2424 112.121H49.0909V116.97H44.2424V112.121Z" fill="black"/>
<path d="M58.7879 112.121H63.6364V116.97H58.7879V112.121Z" fill="black"/>
<path d="M73.3333 112.121H78.1818V116.97H73.3333V112.121Z" fill="black"/>
<path d="M136.364 112.121H141.212V116.97H136.364V112.121Z" fill="black"/>
<path d="M141.212 112.121H146.061V116.97H141.212V112.121Z" fill="black"/>
<path d="M146.061 112.121H150.909V116.97H146.061V112.121Z" fill="black"/>
<path d="M155.758 112.121H160.606V116.97H155.758V112.121Z" fill="black"/>
<path d="M170.303 112.121H175.152V116.97H170.303V112.121Z" fill="black"/>
<path d="M24.8485 116.97H29.697V121.818H24.8485V116.97Z" fill="black"/>
<path d="M29.697 116.97H34.5455V121.818H29.697V116.97Z" fill="black"/>
<path d="M34.5455 116.97H39.3939V121.818H34.5455V116.97Z" fill="black"/>
<path d="M39.3939 116.97H44.2424V121.818H39.3939V116.97Z" fill="black"/>
<path d="M44.2424 116.97H49.0909V121.818H44.2424V116.97Z" fill="black"/>
<path d="M49.0909 116.97H53.9394V121.818H49.0909V116.97Z" fill="black"/>
<path d="M58.7879 116.97H63.6364V121.818H58.7879V116.97Z" fill="black"/>
<path d="M121.818 116.97H126.667V121.818H121.818V116.97Z" fill="black"/>
<path d="M136.364 116.97H141.212V121.818H136.364V116.97Z" fill="black"/>
<path d="M160.606 116.97H165.455V121.818H160.606V116.97Z" fill="black"/>
<path d="M165.455 116.97H170.303V121.818H165.455V116.97Z" fill="black"/>
<path d="M175.152 116.97H180V121.818H175.152V116.97Z" fill="black"/>
<path d="M20 121.818H24.8485V126.667H20V121.818Z" fill="black"/>
<path d="M24.8485 121.818H29.697V126.667H24.8485V121.818Z" fill="black"/>
<path d="M29.697 121.818H34.5455V126.667H29.697V121.818Z" fill="black"/>
<path d="M34.5455 121.818H39.3939V126.667H34.5455V121.818Z" fill="black"/>
<path d="M44.2424 121.818H49.0909V126.667H44.2424V121.818Z" fill="black"/>
<path d="M53.9394 121.818H58.7879V126.667H53.9394V121.818Z" fill="black"/>
<path d="M68.4848 121.818H73.3333V126.667H68.4848V121.818Z" fill="black"/>
<path d="M92.7273 121.818H97.5758V126.667H92.7273V121.818Z" fill="black"/>
<path d="M97.5758 121.818H102.424V126.667H97.5758V121.818Z" fill="black"/>
<path d="M116.97 121.818H121.818V126.667H116.97V121.818Z" fill="black"/>
<path d="M121.818 121.818H126.667V126.667H121.818V121.818Z" fill="black"/>
<path d="M165.455 121.818H170.303V126.667H165.455V121.818Z" fill="black"/>
<path d="M175.152 121.818H180V126.667H175.152V121.818Z" fill="black"/>
<path d="M29.697 126.667H34.5455V131.515H29.697V126.667Z" fill="black"/>
<path d="M44.2424 126.667H49.0909V131.515H44.2424V126.667Z" fill="black"/>
<path d="M49.0909 126.667H53.9394V131.515H49.0909V126.667Z" fill="black"/>
<path d="M63.6364 126.667H68.4848V131.515H63.6364V126.667Z" fill="black"/>
<path d="M68.4848 126.667H73.3333V131.515H68.4848V126.667Z" fill="black"/>
<path d="M73.3333 126.667H78.1818V131.515H73.3333V126.667Z" fill="black"/>
<path d="M78.1818 126.667H83.0303V131.515H78.1818V126.667Z" fill="black"/>
<path d="M97.5758 126.667H102.424V131.515H97.5758V126.667Z" fill="black"/>
<path d="M126.667 126.667H131.515V131.515H126.667V126.667Z" fill="black"/>
<path d="M131.515 126.667H136.364V131.515H131.515V126.667Z" fill="black"/>
<path d="M136.364 126.667H141.212V131.515H136.364V126.667Z" fill="black"/>
<path d="M141.212 126.667H146.061V131.515H141.212V126.667Z" fill="black"/>
<path d="M146.061 126.667H150.909V131.515H146.061V126.667Z" fill="black"/>
<path d="M150.909 126.667H155.758V131.515H150.909V126.667Z" fill="black"/>
<path d="M165.455 126.667H170.303V131.515H165.455V126.667Z" fill="black"/>
<path d="M170.303 126.667H175.152V131.515H170.303V126.667Z" fill="black"/>
<path d="M175.152 126.667H180V131.515H175.152V126.667Z" fill="black"/>
<path d="M24.8485 131.515H29.697V136.364H24.8485V131.515Z" fill="black"/>
<path d="M29.697 131.515H34.5455V136.364H29.697V131.515Z" fill="black"/>
<path d="M34.5455 131.515H39.3939V136.364H34.5455V131.515Z" fill="black"/>
<path d="M39.3939 131.515H44.2424V136.364H39.3939V131.515Z" fill="black"/>
<path d="M53.9394 131.515H58.7879V136.364H53.9394V131.515Z" fill="black"/>
<path d="M58.7879 131.515H63.6364V136.364H58.7879V131.515Z" fill="black"/>
<path d="M83.0303 131.515H87.8788V136.364H83.0303V131.515Z" fill="black"/>
<path d="M87.8788 131.515H92.7273V136.364H87.8788V131.515Z" fill="black"/>
<path d="M92.7273 131.515H97.5758V136.364H92.7273V131.515Z" fill="black"/>
<path d="M107.273 131.515H112.121V136.364H107.273V131.515Z" fill="black"/>
<path d="M112.121 131.515H116.97V136.364H112.121V131.515Z" fill="black"/>
<path d="M126.667 131.515H131.515V136.364H126.667V131.515Z" fill="black"/>
<path d="M136.364 131.515H141.212V136.364H136.364V131.515Z" fill="black"/>
<path d="M160.606 131.515H165.455V136.364H160.606V131.515Z" fill="black"/>
<path d="M170.303 131.515H175.152V136.364H170.303V131.515Z" fill="black"/>
<path d="M20 136.364H24.8485V141.212H20V136.364Z" fill="black"/>
<path d="M29.697 136.364H34.5455V141.212H29.697V136.364Z" fill="black"/>
<path d="M49.0909 136.364H53.9394V141.212H49.0909V136.364Z" fill="black"/>
<path d="M53.9394 136.364H58.7879V141.212H53.9394V136.364Z" fill="black"/>
<path d="M58.7879 136.364H63.6364V141.212H58.7879V136.364Z" fill="black"/>
<path d="M68.4848 136.364H73.3333V141.212H68.4848V136.364Z" fill="black"/>
<path d="M83.0303 136.364H87.8788V141.212H83.0303V136.364Z" fill="black"/>
<path d="M97.5758 136.364H102.424V141.212H97.5758V136.364Z" fill="black"/>
<path d="M102.424 136.364H107.273V141.212H102.424V136.364Z" fill="black"/>
<path d="M107.273 136.364H112.121V141.212H107.273V136.364Z" fill="black"/>
<path d="M131.515 136.364H136.364V141.212H131.515V136.364Z" fill="black"/>
<path d="M136.364 136.364H141.212V141.212H136.364V136.364Z" fill="black"/>
<path d="M141.212 136.364H146.061V141.212H141.212V136.364Z" fill="black"/>
<path d="M146.061 136.364H150.909V141.212H146.061V136.364Z" fill="black"/>
<path d="M150.909 136.364H155.758V141.212H150.909V136.364Z" fill="black"/>
<path d="M155.758 136.364H160.606V141.212H155.758V136.364Z" fill="black"/>
<path d="M160.606 136.364H165.455V141.212H160.606V136.364Z" fill="black"/>
<path d="M165.455 136.364H170.303V141.212H165.455V136.364Z" fill="black"/>
<path d="M170.303 136.364H175.152V141.212H170.303V136.364Z" fill="black"/>
<path d="M175.152 136.364H180V141.212H175.152V136.364Z" fill="black"/>
<path d="M58.7879 141.212H63.6364V146.061H58.7879V141.212Z" fill="black"/>
<path d="M63.6364 141.212H68.4848V146.061H63.6364V141.212Z" fill="black"/>
<path d="M83.0303 141.212H87.8788V146.061H83.0303V141.212Z" fill="black"/>
<path d="M107.273 141.212H112.121V146.061H107.273V141.212Z" fill="black"/>
<path d="M112.121 141.212H116.97V146.061H112.121V141.212Z" fill="black"/>
<path d="M121.818 141.212H126.667V146.061H121.818V141.212Z" fill="black"/>
<path d="M136.364 141.212H141.212V146.061H136.364V141.212Z" fill="black"/>
<path d="M155.758 141.212H160.606V146.061H155.758V141.212Z" fill="black"/>
<path d="M160.606 141.212H165.455V146.061H160.606V141.212Z" fill="black"/>
<path d="M170.303 141.212H175.152V146.061H170.303V141.212Z" fill="black"/>
<path d="M175.152 141.212H180V146.061H175.152V141.212Z" fill="black"/>
<path d="M20 146.061H24.8485V150.909H20V146.061Z" fill="black"/>
<path d="M24.8485 146.061H29.697V150.909H24.8485V146.061Z" fill="black"/>
<path d="M29.697 146.061H34.5455V150.909H29.697V146.061Z" fill="black"/>
<path d="M34.5455 146.061H39.3939V150.909H34.5455V146.061Z" fill="black"/>
<path d="M39.3939 146.061H44.2424V150.909H39.3939V146.061Z" fill="black"/>
<path d="M44.2424 146.061H49.0909V150.909H44.2424V146.061Z" fill="black"/>
<path d="M49.0909 146.061H53.9394V150.909H49.0909V146.061Z" fill="black"/>
<path d="M63.6364 146.061H68.4848V150.909H63.6364V146.061Z" fill="black"/>
<path d="M68.4848 146.061H73.3333V150.909H68.4848V146.061Z" fill="black"/>
<path d="M73.3333 146.061H78.1818V150.909H73.3333V146.061Z" fill="black"/>
<path d="M92.7273 146.061H97.5758V150.909H92.7273V146.061Z" fill="black"/>
<path d="M97.5758 146.061H102.424V150.909H97.5758V146.061Z" fill="black"/>
<path d="M107.273 146.061H112.121V150.909H107.273V146.061Z" fill="black"/>
<path d="M112.121 146.061H116.97V150.909H112.121V146.061Z" fill="black"/>
<path d="M116.97 146.061H121.818V150.909H116.97V146.061Z" fill="black"/>
<path d="M126.667 146.061H131.515V150.909H126.667V146.061Z" fill="black"/>
<path d="M131.515 146.061H136.364V150.909H131.515V146.061Z" fill="black"/>
<path d="M136.364 146.061H141.212V150.909H136.364V146.061Z" fill="black"/>
<path d="M146.061 146.061H150.909V150.909H146.061V146.061Z" fill="black"/>
<path d="M155.758 146.061H160.606V150.909H155.758V146.061Z" fill="black"/>
<path d="M20 150.909H24.8485V155.758H20V150.909Z" fill="black"/>
<path d="M49.0909 150.909H53.9394V155.758H49.0909V150.909Z" fill="black"/>
<path d="M58.7879 150.909H63.6364V155.758H58.7879V150.909Z" fill="black"/>
<path d="M73.3333 150.909H78.1818V155.758H73.3333V150.909Z" fill="black"/>
<path d="M87.8788 150.909H92.7273V155.758H87.8788V150.909Z" fill="black"/>
<path d="M92.7273 150.909H97.5758V155.758H92.7273V150.909Z" fill="black"/>
<path d="M112.121 150.909H116.97V155.758H112.121V150.909Z" fill="black"/>
<path d="M121.818 150.909H126.667V155.758H121.818V150.909Z" fill="black"/>
<path d="M131.515 150.909H136.364V155.758H131.515V150.909Z" fill="black"/>
<path d="M136.364 150.909H141.212V155.758H136.364V150.909Z" fill="black"/>
<path d="M155.758 150.909H160.606V155.758H155.758V150.909Z" fill="black"/>
<path d="M160.606 150.909H165.455V155.758H160.606V150.909Z" fill="black"/>
<path d="M165.455 150.909H170.303V155.758H165.455V150.909Z" fill="black"/>
<path d="M170.303 150.909H175.152V155.758H170.303V150.909Z" fill="black"/>
<path d="M175.152 150.909H180V155.758H175.152V150.909Z" fill="black"/>
<path d="M20 155.758H24.8485V160.606H20V155.758Z" fill="black"/>
<path d="M29.697 155.758H34.5455V160.606H29.697V155.758Z" fill="black"/>
<path d="M34.5455 155.758H39.3939V160.606H34.5455V155.758Z" fill="black"/>
<path d="M39.3939 155.758H44.2424V160.606H39.3939V155.758Z" fill="black"/>
<path d="M49.0909 155.758H53.9394V160.606H49.0909V155.758Z" fill="black"/>
<path d="M63.6364 155.758H68.4848V160.606H63.6364V155.758Z" fill="black"/>
<path d="M68.4848 155.758H73.3333V160.606H68.4848V155.758Z" fill="black"/>
<path d="M73.3333 155.758H78.1818V160.606H73.3333V155.758Z" fill="black"/>
<path d="M87.8788 155.758H92.7273V160.606H87.8788V155.758Z" fill="black"/>
<path d="M102.424 155.758H107.273V160.606H102.424V155.758Z" fill="black"/>
<path d="M107.273 155.758H112.121V160.606H107.273V155.758Z" fill="black"/>
<path d="M116.97 155.758H121.818V160.606H116.97V155.758Z" fill="black"/>
<path d="M126.667 155.758H131.515V160.606H126.667V155.758Z" fill="black"/>
<path d="M131.515 155.758H136.364V160.606H131.515V155.758Z" fill="black"/>
<path d="M136.364 155.758H141.212V160.606H136.364V155.758Z" fill="black"/>
<path d="M141.212 155.758H146.061V160.606H141.212V155.758Z" fill="black"/>
<path d="M146.061 155.758H150.909V160.606H146.061V155.758Z" fill="black"/>
<path d="M150.909 155.758H155.758V160.606H150.909V155.758Z" fill="black"/>
<path d="M155.758 155.758H160.606V160.606H155.758V155.758Z" fill="black"/>
<path d="M165.455 155.758H170.303V160.606H165.455V155.758Z" fill="black"/>
<path d="M170.303 155.758H175.152V160.606H170.303V155.758Z" fill="black"/>
<path d="M20 160.606H24.8485V165.455H20V160.606Z" fill="black"/>
<path d="M29.697 160.606H34.5455V165.455H29.697V160.606Z" fill="black"/>
<path d="M34.5455 160.606H39.3939V165.455H34.5455V160.606Z" fill="black"/>
<path d="M39.3939 160.606H44.2424V165.455H39.3939V160.606Z" fill="black"/>
<path d="M49.0909 160.606H53.9394V165.455H49.0909V160.606Z" fill="black"/>
<path d="M58.7879 160.606H63.6364V165.455H58.7879V160.606Z" fill="black"/>
<path d="M63.6364 160.606H68.4848V165.455H63.6364V160.606Z" fill="black"/>
<path d="M68.4848 160.606H73.3333V165.455H68.4848V160.606Z" fill="black"/>
<path d="M92.7273 160.606H97.5758V165.455H92.7273V160.606Z" fill="black"/>
<path d="M112.121 160.606H116.97V165.455H112.121V160.606Z" fill="black"/>
<path d="M116.97 160.606H121.818V165.455H116.97V160.606Z" fill="black"/>
<path d="M121.818 160.606H126.667V165.455H121.818V160.606Z" fill="black"/>
<path d="M126.667 160.606H131.515V165.455H126.667V160.606Z" fill="black"/>
<path d="M136.364 160.606H141.212V165.455H136.364V160.606Z" fill="black"/>
<path d="M141.212 160.606H146.061V165.455H141.212V160.606Z" fill="black"/>
<path d="M150.909 160.606H155.758V165.455H150.909V160.606Z" fill="black"/>
<path d="M160.606 160.606H165.455V165.455H160.606V160.606Z" fill="black"/>
<path d="M170.303 160.606H175.152V165.455H170.303V160.606Z" fill="black"/>
<path d="M175.152 160.606H180V165.455H175.152V160.606Z" fill="black"/>
<path d="M20 165.455H24.8485V170.303H20V165.455Z" fill="black"/>
<path d="M29.697 165.455H34.5455V170.303H29.697V165.455Z" fill="black"/>
<path d="M34.5455 165.455H39.3939V170.303H34.5455V165.455Z" fill="black"/>
<path d="M39.3939 165.455H44.2424V170.303H39.3939V165.455Z" fill="black"/>
<path d="M49.0909 165.455H53.9394V170.303H49.0909V165.455Z" fill="black"/>
<path d="M58.7879 165.455H63.6364V170.303H58.7879V165.455Z" fill="black"/>
<path d="M68.4848 165.455H73.3333V170.303H68.4848V165.455Z" fill="black"/>
<path d="M73.3333 165.455H78.1818V170.303H73.3333V165.455Z" fill="black"/>
<path d="M78.1818 165.455H83.0303V170.303H78.1818V165.455Z" fill="black"/>
<path d="M87.8788 165.455H92.7273V170.303H87.8788V165.455Z" fill="black"/>
<path d="M92.7273 165.455H97.5758V170.303H92.7273V165.455Z" fill="black"/>
<path d="M102.424 165.455H107.273V170.303H102.424V165.455Z" fill="black"/>
<path d="M107.273 165.455H112.121V170.303H107.273V165.455Z" fill="black"/>
<path d="M126.667 165.455H131.515V170.303H126.667V165.455Z" fill="black"/>
<path d="M131.515 165.455H136.364V170.303H131.515V165.455Z" fill="black"/>
<path d="M146.061 165.455H150.909V170.303H146.061V165.455Z" fill="black"/>
<path d="M150.909 165.455H155.758V170.303H150.909V165.455Z" fill="black"/>
<path d="M20 170.303H24.8485V175.152H20V170.303Z" fill="black"/>
<path d="M49.0909 170.303H53.9394V175.152H49.0909V170.303Z" fill="black"/>
<path d="M58.7879 170.303H63.6364V175.152H58.7879V170.303Z" fill="black"/>
<path d="M63.6364 170.303H68.4848V175.152H63.6364V170.303Z" fill="black"/>
<path d="M68.4848 170.303H73.3333V175.152H68.4848V170.303Z" fill="black"/>
<path d="M83.0303 170.303H87.8788V175.152H83.0303V170.303Z" fill="black"/>
<path d="M87.8788 170.303H92.7273V175.152H87.8788V170.303Z" fill="black"/>
<path d="M102.424 170.303H107.273V175.152H102.424V170.303Z" fill="black"/>
<path d="M107.273 170.303H112.121V175.152H107.273V170.303Z" fill="black"/>
<path d="M112.121 170.303H116.97V175.152H112.121V170.303Z" fill="black"/>
<path d="M116.97 170.303H121.818V175.152H116.97V170.303Z" fill="black"/>
<path d="M131.515 170.303H136.364V175.152H131.515V170.303Z" fill="black"/>
<path d="M136.364 170.303H141.212V175.152H136.364V170.303Z" fill="black"/>
<path d="M141.212 170.303H146.061V175.152H141.212V170.303Z" fill="black"/>
<path d="M150.909 170.303H155.758V175.152H150.909V170.303Z" fill="black"/>
<path d="M155.758 170.303H160.606V175.152H155.758V170.303Z" fill="black"/>
<path d="M175.152 170.303H180V175.152H175.152V170.303Z" fill="black"/>
<path d="M20 175.152H24.8485V180H20V175.152Z" fill="black"/>
<path d="M24.8485 175.152H29.697V180H24.8485V175.152Z" fill="black"/>
<path d="M29.697 175.152H34.5455V180H29.697V175.152Z" fill="black"/>
<path d="M34.5455 175.152H39.3939V180H34.5455V175.152Z" fill="black"/>
<path d="M39.3939 175.152H44.2424V180H39.3939V175.152Z" fill="black"/>
<path d="M44.2424 175.152H49.0909V180H44.2424V175.152Z" fill="black"/>
<path d="M49.0909 175.152H53.9394V180H49.0909V175.152Z" fill="black"/>
<path d="M83.0303 175.152H87.8788V180H83.0303V175.152Z" fill="black"/>
<path d="M97.5758 175.152H102.424V180H97.5758V175.152Z" fill="black"/>
<path d="M102.424 175.152H107.273V180H102.424V175.152Z" fill="black"/>
<path d="M107.273 175.152H112.121V180H107.273V175.152Z" fill="black"/>
<path d="M121.818 175.152H126.667V180H121.818V175.152Z" fill="black"/>
<path d="M155.758 175.152H160.606V180H155.758V175.152Z" fill="black"/>
<path d="M160.606 175.152H165.455V180H160.606V175.152Z" fill="black"/>
<path d="M165.455 175.152H170.303V180H165.455V175.152Z" fill="black"/>
<path d="M24.8485 20H20V24.8485M24.8485 20V24.8485M24.8485 20H29.697M24.8485 24.8485H20M24.8485 24.8485H29.697M24.8485 24.8485V29.697M20 24.8485V29.697M29.697 20V24.8485M29.697 20H34.5455M29.697 24.8485H34.5455M34.5455 20V24.8485M34.5455 20H39.3939M34.5455 24.8485H39.3939M39.3939 20V24.8485M39.3939 20H44.2424M39.3939 24.8485H44.2424M44.2424 20V24.8485M44.2424 20H49.0909M44.2424 24.8485H49.0909M49.0909 20V24.8485M49.0909 20H53.9394V24.8485M49.0909 24.8485H53.9394M49.0909 24.8485V29.697M53.9394 24.8485V29.697M83.0303 24.8485V20H78.1818V24.8485M83.0303 24.8485H78.1818M83.0303 24.8485V29.697M78.1818 24.8485H73.3333M78.1818 24.8485V29.697M92.7273 20H87.8788V24.8485H92.7273M92.7273 20V24.8485M92.7273 20H97.5758M92.7273 24.8485H97.5758M97.5758 20V24.8485M97.5758 20H102.424M97.5758 24.8485H102.424M97.5758 24.8485V29.697M102.424 20V24.8485M102.424 20H107.273M102.424 24.8485H107.273M102.424 24.8485V29.697M107.273 20V24.8485M107.273 20H112.121V24.8485M107.273 24.8485H112.121M107.273 24.8485V29.697M112.121 24.8485V29.697H107.273M136.364 24.8485V20H131.515V24.8485M136.364 24.8485H131.515M136.364 24.8485V29.697M136.364 24.8485H141.212V29.697H136.364M131.515 24.8485V29.697M150.909 20H146.061V24.8485M150.909 20V24.8485M150.909 20H155.758M150.909 24.8485H146.061M150.909 24.8485H155.758M150.909 24.8485V29.697M146.061 24.8485V29.697M155.758 20V24.8485M155.758 20H160.606M155.758 24.8485H160.606M160.606 20V24.8485M160.606 20H165.455M160.606 24.8485H165.455M165.455 20V24.8485M165.455 20H170.303M165.455 24.8485H170.303M170.303 20V24.8485M170.303 20H175.152M170.303 24.8485H175.152M175.152 20V24.8485M175.152 20H180V24.8485M175.152 24.8485H180M175.152 24.8485V29.697M180 24.8485V29.697M24.8485 29.697H20M24.8485 29.697V34.5455M20 29.697V34.5455M53.9394 29.697H49.0909M53.9394 29.697V34.5455M49.0909 29.697V34.5455M63.6364 29.697V24.8485H58.7879V29.697M63.6364 29.697H58.7879M63.6364 29.697V34.5455M63.6364 29.697H68.4848M58.7879 29.697V34.5455H63.6364M73.3333 24.8485H68.4848V29.697M73.3333 24.8485V29.697M73.3333 29.697H68.4848M73.3333 29.697H78.1818M68.4848 29.697V34.5455M78.1818 29.697H83.0303M83.0303 29.697H87.8788M83.0303 29.697V34.5455M102.424 29.697H97.5758M102.424 29.697V34.5455M102.424 29.697H107.273M97.5758 29.697H92.7273M97.5758 29.697V34.5455M107.273 29.697V34.5455H102.424M136.364 29.697H131.515M136.364 29.697V34.5455M131.515 29.697H126.667V34.5455M131.515 29.697V34.5455M150.909 29.697H146.061M150.909 29.697V34.5455M146.061 29.697V34.5455M180 29.697H175.152M180 29.697V34.5455M175.152 29.697V34.5455M24.8485 34.5455H20M24.8485 34.5455V39.3939M20 34.5455V39.3939M34.5455 29.697H29.697V34.5455M34.5455 29.697V34.5455M34.5455 29.697H39.3939M34.5455 34.5455H29.697M34.5455 34.5455H39.3939M34.5455 34.5455V39.3939M29.697 34.5455V39.3939M39.3939 29.697V34.5455M39.3939 29.697H44.2424V34.5455M39.3939 34.5455H44.2424M39.3939 34.5455V39.3939M44.2424 34.5455V39.3939M53.9394 34.5455H49.0909M53.9394 34.5455V39.3939M49.0909 34.5455V39.3939M63.6364 34.5455H68.4848M63.6364 34.5455V39.3939M68.4848 34.5455V39.3939M87.8788 29.697V34.5455M87.8788 29.697H92.7273M87.8788 34.5455H83.0303M87.8788 34.5455H92.7273M87.8788 34.5455V39.3939M83.0303 34.5455V39.3939M92.7273 29.697V34.5455M92.7273 34.5455H97.5758M92.7273 34.5455V39.3939M97.5758 34.5455H102.424M116.97 34.5455H121.818V29.697H116.97V34.5455ZM116.97 34.5455H112.121V39.3939H116.97M116.97 34.5455V39.3939M131.515 34.5455H126.667M131.515 34.5455H136.364M131.515 34.5455V39.3939M126.667 34.5455V39.3939M136.364 34.5455H141.212V39.3939M136.364 34.5455V39.3939M150.909 34.5455H146.061M150.909 34.5455V39.3939M146.061 34.5455V39.3939M160.606 29.697H155.758V34.5455M160.606 29.697V34.5455M160.606 29.697H165.455M160.606 34.5455H155.758M160.606 34.5455H165.455M160.606 34.5455V39.3939M155.758 34.5455V39.3939M165.455 29.697V34.5455M165.455 29.697H170.303V34.5455M165.455 34.5455H170.303M165.455 34.5455V39.3939M170.303 34.5455V39.3939M180 34.5455H175.152M180 34.5455V39.3939M175.152 34.5455V39.3939M24.8485 39.3939H20M24.8485 39.3939V44.2424M20 39.3939V44.2424M34.5455 39.3939H29.697M34.5455 39.3939H39.3939M34.5455 39.3939V44.2424M29.697 39.3939V44.2424H34.5455M39.3939 39.3939H44.2424M39.3939 39.3939V44.2424M44.2424 39.3939V44.2424H39.3939M53.9394 39.3939H49.0909M53.9394 39.3939V44.2424M49.0909 39.3939V44.2424M68.4848 39.3939H63.6364M68.4848 39.3939V44.2424M68.4848 39.3939H73.3333V44.2424M63.6364 39.3939V44.2424M87.8788 39.3939H83.0303M87.8788 39.3939H92.7273M87.8788 39.3939V44.2424M83.0303 39.3939H78.1818V44.2424M83.0303 39.3939V44.2424M92.7273 39.3939H97.5758M92.7273 39.3939V44.2424M116.97 39.3939H121.818M116.97 39.3939V44.2424M131.515 39.3939H126.667M131.515 39.3939H136.364M131.515 39.3939V44.2424M126.667 39.3939H121.818M126.667 39.3939V44.2424M141.212 39.3939H136.364M141.212 39.3939V44.2424M136.364 39.3939V44.2424M150.909 39.3939H146.061M150.909 39.3939V44.2424M146.061 39.3939V44.2424M160.606 39.3939H155.758M160.606 39.3939H165.455M160.606 39.3939V44.2424M155.758 39.3939V44.2424H160.606M165.455 39.3939H170.303M165.455 39.3939V44.2424M170.303 39.3939V44.2424H165.455M180 39.3939H175.152M180 39.3939V44.2424M175.152 39.3939V44.2424M24.8485 44.2424H20M24.8485 44.2424V49.0909M20 44.2424V49.0909M34.5455 44.2424H39.3939M53.9394 44.2424H49.0909M53.9394 44.2424V49.0909M49.0909 44.2424V49.0909M68.4848 44.2424H63.6364M68.4848 44.2424H73.3333M68.4848 44.2424V49.0909M63.6364 44.2424V49.0909M73.3333 44.2424V49.0909M73.3333 44.2424H78.1818M83.0303 44.2424H78.1818M83.0303 44.2424H87.8788M83.0303 44.2424V49.0909M78.1818 44.2424V49.0909M87.8788 44.2424V49.0909M97.5758 39.3939V44.2424M97.5758 39.3939H102.424V44.2424M97.5758 44.2424H92.7273M97.5758 44.2424H102.424M97.5758 44.2424V49.0909M92.7273 44.2424V49.0909M102.424 44.2424V49.0909M121.818 39.3939V44.2424M121.818 44.2424H116.97M121.818 44.2424H126.667M121.818 44.2424V49.0909M116.97 44.2424H112.121M116.97 44.2424V49.0909M126.667 44.2424H131.515M126.667 44.2424V49.0909M136.364 44.2424H131.515M136.364 44.2424H141.212M136.364 44.2424V49.0909M131.515 44.2424V49.0909M141.212 44.2424V49.0909M150.909 44.2424H146.061M150.909 44.2424V49.0909M146.061 44.2424V49.0909M160.606 44.2424H165.455M180 44.2424H175.152M180 44.2424V49.0909M175.152 44.2424V49.0909M24.8485 49.0909H20M24.8485 49.0909V53.9394M24.8485 49.0909H29.697M20 49.0909V53.9394H24.8485M53.9394 49.0909H49.0909M53.9394 49.0909V53.9394H49.0909M49.0909 49.0909H44.2424M49.0909 49.0909V53.9394M68.4848 49.0909H63.6364M68.4848 49.0909H73.3333M68.4848 49.0909V53.9394H73.3333M63.6364 49.0909H58.7879V53.9394H63.6364V49.0909ZM73.3333 49.0909H78.1818M73.3333 49.0909V53.9394M78.1818 49.0909H83.0303M78.1818 49.0909V53.9394M83.0303 49.0909H87.8788M83.0303 49.0909V53.9394M87.8788 49.0909H92.7273M87.8788 49.0909V53.9394H92.7273V49.0909M97.5758 49.0909H92.7273M97.5758 49.0909H102.424M97.5758 49.0909V53.9394H102.424M102.424 49.0909V53.9394M112.121 44.2424H107.273V49.0909M112.121 44.2424V49.0909M112.121 49.0909H107.273M112.121 49.0909H116.97M112.121 49.0909V53.9394M107.273 49.0909V53.9394M116.97 49.0909H121.818M116.97 49.0909V53.9394M121.818 49.0909V53.9394M131.515 49.0909H126.667M131.515 49.0909V53.9394M126.667 49.0909V53.9394H131.515M141.212 49.0909H136.364M141.212 49.0909V53.9394H136.364M136.364 49.0909V53.9394M150.909 49.0909H146.061M150.909 49.0909V53.9394M150.909 49.0909H155.758M146.061 49.0909V53.9394H150.909M180 49.0909H175.152M180 49.0909V53.9394H175.152M175.152 49.0909H170.303M175.152 49.0909V53.9394M24.8485 53.9394H29.697M29.697 49.0909V53.9394M29.697 49.0909H34.5455M29.697 53.9394H34.5455M34.5455 49.0909V53.9394M34.5455 49.0909H39.3939M34.5455 53.9394H39.3939M39.3939 49.0909V53.9394M39.3939 49.0909H44.2424M39.3939 53.9394H44.2424M44.2424 49.0909V53.9394M44.2424 53.9394H49.0909M73.3333 53.9394H78.1818M73.3333 53.9394V58.7879H78.1818M83.0303 53.9394H78.1818M83.0303 53.9394V58.7879M78.1818 53.9394V58.7879M102.424 53.9394H107.273M102.424 53.9394V58.7879H107.273M112.121 53.9394H107.273M112.121 53.9394V58.7879M112.121 53.9394H116.97M107.273 53.9394V58.7879M121.818 53.9394H116.97M121.818 53.9394V58.7879M116.97 53.9394V58.7879M131.515 53.9394H136.364M131.515 53.9394V58.7879H136.364V53.9394M150.909 53.9394H155.758M155.758 49.0909V53.9394M155.758 49.0909H160.606M155.758 53.9394H160.606M160.606 49.0909V53.9394M160.606 49.0909H165.455M160.606 53.9394H165.455M165.455 49.0909V53.9394M165.455 49.0909H170.303M165.455 53.9394H170.303M170.303 49.0909V53.9394M170.303 53.9394H175.152M78.1818 58.7879H83.0303M78.1818 58.7879V63.6364M83.0303 58.7879V63.6364M83.0303 58.7879H87.8788M107.273 58.7879H112.121M107.273 58.7879V63.6364M112.121 58.7879H116.97M112.121 58.7879V63.6364M116.97 58.7879H121.818M116.97 58.7879V63.6364M121.818 58.7879H126.667V63.6364H121.818V58.7879ZM29.697 58.7879H24.8485V63.6364M29.697 58.7879V63.6364M29.697 58.7879H34.5455M29.697 63.6364H24.8485M29.697 63.6364H34.5455M24.8485 63.6364H20V68.4848M24.8485 63.6364V68.4848M34.5455 58.7879V63.6364M34.5455 58.7879H39.3939V63.6364M34.5455 63.6364H39.3939M34.5455 63.6364V68.4848M39.3939 63.6364V68.4848M49.0909 58.7879H44.2424V63.6364H49.0909M49.0909 58.7879V63.6364M49.0909 58.7879H53.9394V63.6364M49.0909 63.6364H53.9394M53.9394 63.6364H58.7879V68.4848H53.9394M53.9394 63.6364V68.4848M83.0303 63.6364H78.1818M83.0303 63.6364H87.8788M83.0303 63.6364V68.4848M78.1818 63.6364H73.3333V68.4848M78.1818 63.6364V68.4848M87.8788 58.7879V63.6364M87.8788 58.7879H92.7273M87.8788 63.6364H92.7273M87.8788 63.6364V68.4848H92.7273M92.7273 58.7879V63.6364M92.7273 58.7879H97.5758V63.6364M92.7273 63.6364H97.5758M92.7273 63.6364V68.4848M97.5758 63.6364V68.4848M112.121 63.6364H107.273M112.121 63.6364H116.97M112.121 63.6364V68.4848M107.273 63.6364V68.4848M116.97 63.6364V68.4848H112.121M170.303 58.7879H165.455V63.6364M170.303 58.7879V63.6364M170.303 58.7879H175.152V63.6364M170.303 63.6364H165.455M170.303 63.6364H175.152M170.303 63.6364V68.4848M165.455 63.6364H160.606V68.4848M165.455 63.6364V68.4848M175.152 63.6364V68.4848M175.152 63.6364H180V68.4848M24.8485 68.4848H20M24.8485 68.4848V73.3333M20 68.4848V73.3333M39.3939 68.4848H34.5455M39.3939 68.4848H44.2424V73.3333H39.3939V68.4848ZM34.5455 68.4848H29.697V73.3333H34.5455V68.4848ZM53.9394 68.4848H49.0909V73.3333H53.9394V68.4848ZM78.1818 68.4848H73.3333M78.1818 68.4848H83.0303M78.1818 68.4848V73.3333M73.3333 68.4848V73.3333H78.1818M83.0303 68.4848V73.3333H78.1818M92.7273 68.4848H97.5758M97.5758 68.4848H102.424M97.5758 68.4848V73.3333H102.424M112.121 68.4848H107.273M107.273 68.4848H102.424M107.273 68.4848V73.3333M136.364 68.4848V63.6364H131.515V68.4848M136.364 68.4848H131.515M136.364 68.4848V73.3333M136.364 68.4848H141.212V73.3333M131.515 68.4848H126.667V73.3333H131.515M131.515 68.4848V73.3333M150.909 63.6364H146.061V68.4848M150.909 63.6364V68.4848M150.909 63.6364H155.758V68.4848M150.909 68.4848H146.061M150.909 68.4848H155.758M150.909 68.4848V73.3333M146.061 68.4848V73.3333H150.909M155.758 68.4848V73.3333M155.758 68.4848H160.606M165.455 68.4848H160.606M165.455 68.4848H170.303M165.455 68.4848V73.3333M160.606 68.4848V73.3333M170.303 68.4848H175.152M175.152 68.4848H180M175.152 68.4848V73.3333M180 68.4848V73.3333H175.152M24.8485 73.3333H20M24.8485 73.3333V78.1818M20 73.3333V78.1818M102.424 68.4848V73.3333M102.424 73.3333H107.273M107.273 73.3333H112.121M107.273 73.3333V78.1818H112.121M131.515 73.3333H136.364M136.364 73.3333H141.212M136.364 73.3333V78.1818H141.212M141.212 73.3333V78.1818M150.909 73.3333H155.758M150.909 73.3333V78.1818H155.758M155.758 73.3333H160.606M155.758 73.3333V78.1818M160.606 73.3333H165.455M160.606 73.3333V78.1818M165.455 73.3333V78.1818M175.152 73.3333H170.303V78.1818M175.152 73.3333V78.1818M24.8485 78.1818H20M24.8485 78.1818V83.0303M24.8485 78.1818H29.697V83.0303H24.8485M20 78.1818V83.0303H24.8485M63.6364 78.1818V73.3333H58.7879V78.1818M63.6364 78.1818H58.7879M63.6364 78.1818V83.0303M63.6364 78.1818H68.4848M58.7879 78.1818H53.9394M58.7879 78.1818V83.0303M112.121 73.3333V78.1818M112.121 73.3333H116.97M112.121 78.1818H116.97M116.97 73.3333V78.1818M116.97 73.3333H121.818V78.1818H116.97M141.212 78.1818H146.061V83.0303H141.212M141.212 78.1818V83.0303M155.758 78.1818H160.606M155.758 78.1818V83.0303H160.606M165.455 78.1818H160.606M165.455 78.1818V83.0303M160.606 78.1818V83.0303M175.152 78.1818H170.303M175.152 78.1818V83.0303M170.303 78.1818V83.0303M39.3939 83.0303V78.1818H34.5455V83.0303M39.3939 83.0303H34.5455M39.3939 83.0303V87.8788M34.5455 83.0303V87.8788M49.0909 78.1818H44.2424V83.0303H49.0909M49.0909 78.1818V83.0303M49.0909 78.1818H53.9394M49.0909 83.0303H53.9394M53.9394 78.1818V83.0303M53.9394 83.0303H58.7879M53.9394 83.0303V87.8788M58.7879 83.0303H63.6364M58.7879 83.0303V87.8788M63.6364 83.0303H68.4848M68.4848 78.1818V83.0303M68.4848 78.1818H73.3333V83.0303M68.4848 83.0303H73.3333M73.3333 83.0303H78.1818V87.8788H73.3333M73.3333 83.0303V87.8788M131.515 83.0303V78.1818H126.667V83.0303H131.515ZM131.515 83.0303H136.364M131.515 83.0303V87.8788M141.212 83.0303H136.364M141.212 83.0303V87.8788H136.364M160.606 83.0303H165.455M160.606 83.0303V87.8788M165.455 83.0303V87.8788M175.152 83.0303H170.303M175.152 83.0303V87.8788H170.303V83.0303M39.3939 87.8788H34.5455M39.3939 87.8788V92.7273M34.5455 87.8788V92.7273M58.7879 87.8788H53.9394M58.7879 87.8788H63.6364V92.7273H58.7879V87.8788ZM53.9394 87.8788H49.0909M53.9394 87.8788V92.7273H49.0909M73.3333 87.8788H68.4848V92.7273H73.3333V87.8788ZM136.364 83.0303V87.8788M136.364 87.8788H131.515M131.515 87.8788H126.667V92.7273M131.515 87.8788V92.7273M165.455 87.8788H160.606M165.455 87.8788V92.7273M160.606 87.8788H155.758M160.606 87.8788V92.7273M24.8485 92.7273V87.8788H20V92.7273M24.8485 92.7273H20M24.8485 92.7273V97.5758H20V92.7273M39.3939 92.7273H34.5455M39.3939 92.7273V97.5758H34.5455V92.7273M49.0909 87.8788H44.2424V92.7273H49.0909M49.0909 87.8788V92.7273M131.515 92.7273H126.667M131.515 92.7273V97.5758M131.515 92.7273H136.364M126.667 92.7273H121.818V97.5758M126.667 92.7273V97.5758M150.909 87.8788H146.061V92.7273M150.909 87.8788V92.7273M150.909 87.8788H155.758M150.909 92.7273H146.061M150.909 92.7273H155.758M150.909 92.7273V97.5758M146.061 92.7273H141.212M146.061 92.7273V97.5758M155.758 87.8788V92.7273M155.758 92.7273H160.606M155.758 92.7273V97.5758M160.606 92.7273H165.455M160.606 92.7273V97.5758M165.455 92.7273V97.5758M165.455 92.7273H170.303V97.5758H165.455M126.667 97.5758H121.818M126.667 97.5758H131.515M126.667 97.5758V102.424M121.818 97.5758V102.424H126.667M131.515 97.5758H136.364M131.515 97.5758V102.424M136.364 92.7273V97.5758M136.364 92.7273H141.212M136.364 97.5758H141.212M136.364 97.5758V102.424M141.212 92.7273V97.5758M141.212 97.5758H146.061M141.212 97.5758V102.424M146.061 97.5758H150.909M146.061 97.5758V102.424M150.909 97.5758H155.758M150.909 97.5758V102.424M155.758 97.5758H160.606M155.758 97.5758V102.424M160.606 97.5758H165.455M160.606 97.5758V102.424M49.0909 97.5758H44.2424V102.424M49.0909 97.5758V102.424M49.0909 97.5758H53.9394V102.424M49.0909 102.424H44.2424M49.0909 102.424H53.9394M44.2424 102.424H39.3939V107.273M44.2424 102.424V107.273H39.3939M53.9394 102.424H58.7879V107.273M53.9394 102.424V107.273M78.1818 102.424V97.5758H73.3333V102.424M78.1818 102.424H73.3333M78.1818 102.424V107.273M73.3333 102.424H68.4848V107.273H73.3333M73.3333 102.424V107.273M126.667 102.424H131.515M131.515 102.424H136.364M131.515 102.424V107.273M136.364 102.424V107.273M136.364 102.424H141.212M146.061 102.424H141.212M146.061 102.424H150.909M146.061 102.424V107.273M141.212 102.424V107.273H136.364M150.909 102.424V107.273M160.606 102.424H155.758M160.606 102.424V107.273M160.606 102.424H165.455V107.273M155.758 102.424V107.273M24.8485 107.273V102.424H20V107.273H24.8485ZM24.8485 107.273H29.697M24.8485 107.273V112.121M34.5455 107.273V102.424H29.697V107.273M34.5455 107.273H29.697M34.5455 107.273V112.121M34.5455 107.273H39.3939M29.697 107.273V112.121M39.3939 107.273V112.121M58.7879 107.273H53.9394M58.7879 107.273V112.121M53.9394 107.273H49.0909V112.121M53.9394 107.273V112.121M73.3333 107.273H78.1818M73.3333 107.273V112.121M78.1818 107.273V112.121M136.364 107.273H131.515M131.515 107.273H126.667M131.515 107.273V112.121H126.667M150.909 107.273H146.061M150.909 107.273V112.121M150.909 107.273H155.758M146.061 107.273V112.121M160.606 107.273H155.758M160.606 107.273H165.455M160.606 107.273V112.121M155.758 107.273V112.121M165.455 107.273H170.303V112.121M165.455 107.273V112.121H170.303M29.697 112.121H24.8485M29.697 112.121H34.5455M24.8485 112.121H20V116.97H24.8485M24.8485 112.121V116.97M34.5455 112.121H39.3939M34.5455 112.121V116.97M39.3939 112.121V116.97M53.9394 112.121H49.0909M53.9394 112.121H58.7879M49.0909 112.121H44.2424V116.97M49.0909 112.121V116.97M58.7879 112.121H63.6364V116.97M58.7879 112.121V116.97M78.1818 112.121H73.3333M78.1818 112.121V116.97H73.3333V112.121M126.667 107.273H121.818V112.121H126.667M126.667 107.273V112.121M150.909 112.121H146.061M150.909 112.121H155.758M150.909 112.121V116.97H146.061M146.061 112.121H141.212M146.061 112.121V116.97M155.758 112.121H160.606M155.758 112.121V116.97H160.606M160.606 112.121V116.97M170.303 112.121H175.152V116.97M170.303 112.121V116.97M24.8485 116.97H29.697M24.8485 116.97V121.818M39.3939 116.97H34.5455M39.3939 116.97V121.818M39.3939 116.97H44.2424M34.5455 116.97H29.697M34.5455 116.97V121.818M49.0909 116.97H44.2424M49.0909 116.97V121.818M49.0909 116.97H53.9394V121.818M44.2424 116.97V121.818M63.6364 116.97H58.7879M63.6364 116.97V121.818H58.7879M58.7879 116.97V121.818M141.212 112.121H136.364V116.97M141.212 112.121V116.97M141.212 116.97H136.364M141.212 116.97H146.061M141.212 116.97V121.818H136.364V116.97M160.606 116.97H165.455M160.606 116.97V121.818H165.455M175.152 116.97H170.303M175.152 116.97H180V121.818M175.152 116.97V121.818M170.303 116.97H165.455M170.303 116.97V121.818M29.697 116.97V121.818M29.697 121.818H24.8485M29.697 121.818H34.5455M29.697 121.818V126.667M24.8485 121.818H20V126.667H24.8485M24.8485 121.818V126.667M34.5455 121.818H39.3939M34.5455 121.818V126.667M39.3939 121.818H44.2424M39.3939 121.818V126.667H34.5455M44.2424 121.818H49.0909M44.2424 121.818V126.667M49.0909 121.818H53.9394M49.0909 121.818V126.667M53.9394 121.818H58.7879M53.9394 121.818V126.667M58.7879 121.818V126.667H53.9394M126.667 121.818V116.97H121.818V121.818M126.667 121.818H121.818M126.667 121.818V126.667M121.818 121.818H116.97V126.667H121.818M121.818 121.818V126.667M165.455 116.97V121.818M165.455 121.818H170.303M165.455 121.818V126.667M170.303 121.818V126.667M180 121.818H175.152M180 121.818V126.667M175.152 121.818V126.667M24.8485 126.667H29.697M29.697 126.667H34.5455M29.697 126.667V131.515M34.5455 126.667V131.515M49.0909 126.667H44.2424M49.0909 126.667V131.515M49.0909 126.667H53.9394M44.2424 126.667V131.515M53.9394 126.667V131.515M73.3333 126.667V121.818H68.4848V126.667M73.3333 126.667H68.4848M73.3333 126.667V131.515M73.3333 126.667H78.1818M68.4848 126.667H63.6364V131.515M68.4848 126.667V131.515M97.5758 121.818H92.7273V126.667H97.5758M97.5758 121.818V126.667M97.5758 121.818H102.424V126.667M97.5758 126.667H102.424M97.5758 126.667V131.515M102.424 126.667V131.515H97.5758M121.818 126.667H126.667M126.667 126.667H131.515M126.667 126.667V131.515M170.303 126.667H165.455M170.303 126.667V131.515M170.303 126.667H175.152M165.455 126.667V131.515M180 126.667H175.152M180 126.667V131.515H175.152M175.152 126.667V131.515M34.5455 131.515H29.697M34.5455 131.515V136.364M34.5455 131.515H39.3939M29.697 131.515H24.8485V136.364M29.697 131.515V136.364M49.0909 131.515H44.2424M49.0909 131.515H53.9394M44.2424 131.515H39.3939M44.2424 131.515V136.364H39.3939M53.9394 131.515H58.7879M53.9394 131.515V136.364M68.4848 131.515H63.6364M68.4848 131.515H73.3333M63.6364 131.515H58.7879M63.6364 131.515V136.364M73.3333 131.515H78.1818M78.1818 126.667V131.515M78.1818 126.667H83.0303V131.515M78.1818 131.515H83.0303M83.0303 131.515H87.8788M83.0303 131.515V136.364M97.5758 131.515H92.7273M97.5758 131.515V136.364M131.515 126.667V131.515M131.515 126.667H136.364M131.515 131.515H126.667M131.515 131.515H136.364M131.515 131.515V136.364M126.667 131.515V136.364H131.515M136.364 126.667V131.515M136.364 126.667H141.212M136.364 131.515H141.212M136.364 131.515V136.364M141.212 126.667V131.515M141.212 126.667H146.061M141.212 131.515H146.061M141.212 131.515V136.364M146.061 126.667V131.515M146.061 126.667H150.909M146.061 131.515H150.909M150.909 126.667V131.515M150.909 126.667H155.758V131.515H150.909M170.303 131.515H165.455M170.303 131.515H175.152M170.303 131.515V136.364M165.455 131.515H160.606V136.364M165.455 131.515V136.364M175.152 131.515V136.364M29.697 136.364H24.8485M29.697 136.364H34.5455M29.697 136.364V141.212H34.5455V136.364M24.8485 136.364H20V141.212H24.8485V136.364ZM34.5455 136.364H39.3939M39.3939 131.515V136.364M58.7879 131.515V136.364M58.7879 136.364H53.9394M58.7879 136.364H63.6364M58.7879 136.364V141.212M53.9394 136.364H49.0909V141.212H53.9394M53.9394 136.364V141.212M63.6364 136.364V141.212M87.8788 131.515V136.364M87.8788 131.515H92.7273M87.8788 136.364H83.0303M87.8788 136.364H92.7273M87.8788 136.364V141.212M83.0303 136.364V141.212M92.7273 131.515V136.364M92.7273 136.364H97.5758M97.5758 136.364H102.424M97.5758 136.364V141.212H102.424M112.121 131.515H107.273V136.364M112.121 131.515V136.364M112.121 131.515H116.97V136.364H112.121M112.121 136.364H107.273M112.121 136.364V141.212M107.273 136.364H102.424M107.273 136.364V141.212M131.515 136.364H136.364M131.515 136.364V141.212H136.364M141.212 136.364H136.364M141.212 136.364V141.212M141.212 136.364H146.061M136.364 136.364V141.212M165.455 136.364H160.606M165.455 136.364V141.212M165.455 136.364H170.303M160.606 136.364H155.758M160.606 136.364V141.212M175.152 136.364H170.303M175.152 136.364V141.212M175.152 136.364H180V141.212M170.303 136.364V141.212M53.9394 141.212H58.7879M58.7879 141.212H63.6364M58.7879 141.212V146.061H63.6364M63.6364 141.212V146.061M63.6364 141.212H68.4848M68.4848 141.212H73.3333V136.364H68.4848V141.212ZM68.4848 141.212V146.061M87.8788 141.212H83.0303M87.8788 141.212V146.061H83.0303V141.212M102.424 136.364V141.212M102.424 141.212H107.273M107.273 141.212H112.121M107.273 141.212V146.061M112.121 141.212V146.061M112.121 141.212H116.97V146.061M136.364 141.212H141.212M136.364 141.212V146.061M141.212 141.212H146.061M141.212 141.212V146.061M146.061 136.364V141.212M146.061 136.364H150.909M146.061 141.212H150.909M150.909 136.364V141.212M150.909 136.364H155.758M150.909 141.212H155.758M155.758 136.364V141.212M155.758 141.212H160.606M155.758 141.212V146.061M160.606 141.212H165.455M160.606 141.212V146.061M165.455 141.212H170.303M165.455 141.212V146.061H160.606M170.303 141.212H175.152M170.303 141.212V146.061H175.152M175.152 141.212H180M175.152 141.212V146.061M180 141.212V146.061H175.152M63.6364 146.061H68.4848M63.6364 146.061V150.909M68.4848 146.061V150.909M68.4848 146.061H73.3333M112.121 146.061H107.273M112.121 146.061H116.97M112.121 146.061V150.909M107.273 146.061V150.909H112.121M116.97 146.061V150.909M116.97 146.061H121.818M126.667 146.061V141.212H121.818V146.061M126.667 146.061H121.818M126.667 146.061H131.515M126.667 146.061V150.909M121.818 146.061V150.909M141.212 146.061H136.364M141.212 146.061V150.909M136.364 146.061H131.515M136.364 146.061V150.909M160.606 146.061H155.758M160.606 146.061V150.909M155.758 146.061V150.909M24.8485 146.061H20V150.909M24.8485 146.061V150.909M24.8485 146.061H29.697M24.8485 150.909H20M24.8485 150.909H29.697M24.8485 150.909V155.758M20 150.909V155.758M29.697 146.061V150.909M29.697 146.061H34.5455M29.697 150.909H34.5455M34.5455 146.061V150.909M34.5455 146.061H39.3939M34.5455 150.909H39.3939M39.3939 146.061V150.909M39.3939 146.061H44.2424M39.3939 150.909H44.2424M44.2424 146.061V150.909M44.2424 146.061H49.0909M44.2424 150.909H49.0909M49.0909 146.061V150.909M49.0909 146.061H53.9394V150.909M49.0909 150.909H53.9394M49.0909 150.909V155.758M53.9394 150.909V155.758M68.4848 150.909H63.6364M68.4848 150.909H73.3333M63.6364 150.909H58.7879V155.758H63.6364M63.6364 150.909V155.758M73.3333 146.061V150.909M73.3333 146.061H78.1818V150.909M73.3333 150.909H78.1818M73.3333 150.909V155.758M78.1818 150.909V155.758M97.5758 146.061H92.7273V150.909M97.5758 146.061V150.909M97.5758 146.061H102.424V150.909H97.5758M97.5758 150.909H92.7273M97.5758 150.909V155.758H92.7273M92.7273 150.909H87.8788V155.758M92.7273 150.909V155.758M112.121 150.909H116.97M112.121 150.909V155.758M116.97 150.909H121.818M116.97 150.909V155.758M121.818 150.909H126.667M121.818 150.909V155.758M131.515 146.061V150.909M131.515 150.909H126.667M131.515 150.909H136.364M131.515 150.909V155.758M126.667 150.909V155.758M136.364 150.909H141.212M136.364 150.909V155.758M141.212 150.909V155.758M160.606 150.909H155.758M160.606 150.909V155.758M160.606 150.909H165.455M155.758 150.909V155.758M24.8485 155.758H20M24.8485 155.758V160.606M20 155.758V160.606M53.9394 155.758H49.0909M53.9394 155.758V160.606M49.0909 155.758V160.606M63.6364 155.758H68.4848M63.6364 155.758V160.606M78.1818 155.758H73.3333M78.1818 155.758V160.606H73.3333M73.3333 155.758H68.4848M73.3333 155.758V160.606M92.7273 155.758H87.8788M92.7273 155.758V160.606M87.8788 155.758V160.606H92.7273M116.97 155.758H112.121M116.97 155.758H121.818M116.97 155.758V160.606M112.121 155.758H107.273M112.121 155.758V160.606M126.667 155.758H121.818M126.667 155.758H131.515M126.667 155.758V160.606M121.818 155.758V160.606M136.364 155.758H131.515M136.364 155.758H141.212M136.364 155.758V160.606M131.515 155.758V160.606M141.212 155.758V160.606M141.212 155.758H146.061M160.606 155.758H155.758M160.606 155.758H165.455M160.606 155.758V160.606M155.758 155.758H150.909M155.758 155.758V160.606M165.455 150.909V155.758M165.455 150.909H170.303M165.455 155.758H170.303M165.455 155.758V160.606M170.303 150.909V155.758M170.303 150.909H175.152M170.303 155.758H175.152M170.303 155.758V160.606M175.152 150.909V155.758M175.152 150.909H180V155.758H175.152M175.152 155.758V160.606M24.8485 160.606H20M24.8485 160.606V165.455M20 160.606V165.455M34.5455 155.758H29.697V160.606M34.5455 155.758V160.606M34.5455 155.758H39.3939M34.5455 160.606H29.697M34.5455 160.606H39.3939M34.5455 160.606V165.455M29.697 160.606V165.455M39.3939 155.758V160.606M39.3939 155.758H44.2424V160.606M39.3939 160.606H44.2424M39.3939 160.606V165.455M44.2424 160.606V165.455M53.9394 160.606H49.0909M53.9394 160.606V165.455M49.0909 160.606V165.455M68.4848 155.758V160.606M68.4848 160.606H63.6364M68.4848 160.606H73.3333M68.4848 160.606V165.455M63.6364 160.606H58.7879V165.455M63.6364 160.606V165.455M73.3333 160.606V165.455M92.7273 160.606H97.5758V165.455M92.7273 160.606V165.455M107.273 155.758H102.424V160.606H107.273M107.273 155.758V160.606M107.273 160.606H112.121M112.121 160.606H116.97M112.121 160.606V165.455M121.818 160.606H116.97M121.818 160.606V165.455M121.818 160.606H126.667M116.97 160.606V165.455M131.515 160.606H126.667M131.515 160.606H136.364M131.515 160.606V165.455M126.667 160.606V165.455M136.364 160.606H141.212M136.364 160.606V165.455M141.212 160.606H146.061M141.212 160.606V165.455M146.061 155.758V160.606M146.061 155.758H150.909M146.061 160.606H150.909M146.061 160.606V165.455M150.909 155.758V160.606M150.909 160.606H155.758M150.909 160.606V165.455M155.758 160.606H160.606M155.758 160.606V165.455M160.606 160.606H165.455M160.606 160.606V165.455H165.455V160.606M170.303 160.606H165.455M170.303 160.606H175.152M170.303 160.606V165.455H175.152M175.152 160.606V165.455M175.152 160.606H180V165.455H175.152M24.8485 165.455H20M24.8485 165.455V170.303M20 165.455V170.303M34.5455 165.455H29.697M34.5455 165.455H39.3939M34.5455 165.455V170.303M29.697 165.455V170.303H34.5455M39.3939 165.455H44.2424M39.3939 165.455V170.303M44.2424 165.455V170.303H39.3939M53.9394 165.455H49.0909M53.9394 165.455V170.303M49.0909 165.455V170.303M63.6364 165.455H58.7879M63.6364 165.455H68.4848M63.6364 165.455V170.303M58.7879 165.455V170.303M68.4848 165.455H73.3333M68.4848 165.455V170.303M73.3333 165.455V170.303M73.3333 165.455H78.1818M97.5758 165.455H92.7273M97.5758 165.455V170.303H92.7273M92.7273 165.455H87.8788V170.303M92.7273 165.455V170.303M116.97 165.455H112.121M116.97 165.455H121.818M112.121 165.455H107.273M112.121 165.455V170.303M121.818 165.455H126.667M126.667 165.455H131.515M126.667 165.455V170.303H131.515M131.515 165.455V170.303M131.515 165.455H136.364M141.212 165.455H136.364M141.212 165.455H146.061M136.364 165.455V170.303M146.061 165.455H150.909M146.061 165.455V170.303M155.758 165.455H150.909M155.758 165.455V170.303M150.909 165.455V170.303M24.8485 170.303H20M24.8485 170.303V175.152M20 170.303V175.152M34.5455 170.303H39.3939M53.9394 170.303H49.0909M53.9394 170.303V175.152M49.0909 170.303V175.152M63.6364 170.303H58.7879M63.6364 170.303V175.152M63.6364 170.303H68.4848M58.7879 170.303V175.152H63.6364M73.3333 170.303H68.4848M73.3333 170.303H78.1818M73.3333 170.303V175.152H68.4848M68.4848 170.303V175.152M78.1818 165.455V170.303M78.1818 165.455H83.0303V170.303M78.1818 170.303H83.0303M83.0303 170.303H87.8788M83.0303 170.303V175.152M92.7273 170.303H87.8788M92.7273 170.303V175.152H87.8788M87.8788 170.303V175.152M107.273 165.455H102.424V170.303M107.273 165.455V170.303M107.273 170.303H102.424M107.273 170.303H112.121M107.273 170.303V175.152M102.424 170.303V175.152M112.121 170.303V175.152M112.121 170.303H116.97M131.515 170.303H136.364M131.515 170.303V175.152H136.364M136.364 170.303V175.152M136.364 170.303H141.212M150.909 170.303H146.061M150.909 170.303H155.758M150.909 170.303V175.152H155.758M146.061 170.303H141.212M146.061 170.303V175.152H141.212M155.758 170.303V175.152M155.758 170.303H160.606V175.152M24.8485 175.152H20M24.8485 175.152V180M24.8485 175.152H29.697M20 175.152V180H24.8485M53.9394 175.152H49.0909M53.9394 175.152V180H49.0909M49.0909 175.152H44.2424M49.0909 175.152V180M63.6364 175.152H68.4848M87.8788 175.152H83.0303M87.8788 175.152V180H83.0303V175.152M107.273 175.152H102.424M107.273 175.152H112.121M107.273 175.152V180M102.424 175.152H97.5758V180H102.424M102.424 175.152V180M112.121 175.152H116.97M112.121 175.152V180H107.273M116.97 170.303V175.152M116.97 170.303H121.818V175.152M116.97 175.152H121.818M121.818 175.152H126.667V180H121.818V175.152ZM136.364 175.152H141.212M141.212 170.303V175.152M155.758 175.152H160.606M155.758 175.152V180H160.606M160.606 175.152V180M160.606 175.152H165.455M24.8485 180H29.697M29.697 175.152V180M29.697 175.152H34.5455M29.697 180H34.5455M34.5455 175.152V180M34.5455 175.152H39.3939M34.5455 180H39.3939M39.3939 175.152V180M39.3939 175.152H44.2424M39.3939 180H44.2424M44.2424 175.152V180M44.2424 180H49.0909M102.424 180H107.273M160.606 180H165.455M165.455 175.152V180M165.455 175.152H170.303V180H165.455M116.97 20H121.818V24.8485H116.97V20ZM87.8788 73.3333H92.7273V78.1818H87.8788V73.3333ZM175.152 102.424H180V107.273H175.152V102.424ZM146.061 146.061H150.909V150.909H146.061V146.061ZM175.152 170.303H180V175.152H175.152V170.303Z" stroke="black" stroke-width="0.5"/>
<defs>
<filter id="filter0_i_239_774" x="87.4512" y="87.4512" width="25.0977" height="25.598" filterUnits="userSpaceOnUse" color-interpolation-filters="sRGB">
<feFlood flood-opacity="0" result="BackgroundImageFix"/>
<feBlend mode="normal" in="SourceGraphic" in2="BackgroundImageFix" result="shape"/>
<feColorMatrix in="SourceAlpha" type="matrix" values="0 0 0 0 0 0 0 0 0 0 0 0 0 0 0 0 0 0 127 0" result="hardAlpha"/>
<feOffset dy="0.5"/>
<feGaussianBlur stdDeviation="1.25"/>
<feComposite in2="hardAlpha" operator="arithmetic" k2="-1" k3="1"/>
<feColorMatrix type="matrix" values="0 0 0 0 0 0 0 0 0 0 0 0 0 0 0 0 0 0 0.1 0"/>
<feBlend mode="normal" in2="shape" result="effect1_innerShadow_239_774"/>
</filter>
<clipPath id="clip0_239_774">
<rect width="25.098" height="25.098" fill="white" transform="translate(87.4512 87.4512)"/>
</clipPath>
</defs>
</svg>
