<svg width="206" height="136" viewBox="0 0 206 136" fill="none" xmlns="http://www.w3.org/2000/svg">
<g filter="url(#filter0_b_221_1564)">
<rect width="205.097" height="136" rx="12" fill="#131417"/>
<rect x="0.5" y="0.5" width="204.097" height="135" rx="11.5" stroke="#DCD9F0" stroke-opacity="0.02"/>
</g>
<g opacity="0.2">
<path d="M29.3177 102.352H22.4245C19.4303 102.352 17.6453 104.137 17.6453 107.131V114.016C17.6453 117.019 19.4303 118.804 22.4245 118.804H29.3095C32.3037 118.804 34.0887 117.019 34.0887 114.025V107.131C34.0969 104.137 32.3119 102.352 29.3177 102.352ZM22.7288 114.502C22.7124 114.502 22.6877 114.502 22.6712 114.502C21.8733 114.428 21.1248 114.057 20.5654 113.465C19.2493 112.083 19.2493 109.838 20.5654 108.456L22.3669 106.564C23.0085 105.889 23.8722 105.511 24.7935 105.511C25.7148 105.511 26.5785 105.881 27.2201 106.564C28.5362 107.946 28.5362 110.191 27.2201 111.573L26.3235 112.519C26.0849 112.766 25.6983 112.774 25.4516 112.544C25.2048 112.305 25.1966 111.919 25.4269 111.672L26.3235 110.726C27.1954 109.813 27.1954 108.324 26.3235 107.419C25.5091 106.564 24.0778 106.564 23.2553 107.419L21.4538 109.311C20.5819 110.224 20.5819 111.713 21.4538 112.618C21.8075 112.996 22.2846 113.227 22.7864 113.276C23.1237 113.309 23.3704 113.613 23.3375 113.951C23.3128 114.263 23.0414 114.502 22.7288 114.502ZM31.1767 112.708L29.3753 114.6C28.7337 115.275 27.8699 115.653 26.9487 115.653C26.0274 115.653 25.1637 115.283 24.522 114.6C23.2059 113.218 23.2059 110.973 24.522 109.591L25.4187 108.645C25.6572 108.398 26.0438 108.39 26.2906 108.62C26.5374 108.859 26.5456 109.245 26.3153 109.492L25.4187 110.438C24.5467 111.351 24.5467 112.84 25.4187 113.745C26.233 114.6 27.6643 114.609 28.4869 113.745L30.2883 111.853C31.1603 110.94 31.1603 109.451 30.2883 108.546C29.9346 108.168 29.4575 107.937 28.9557 107.888C28.6185 107.855 28.3717 107.551 28.4046 107.214C28.4375 106.876 28.7337 106.621 29.0791 106.662C29.877 106.745 30.6256 107.107 31.1849 107.699C32.4928 109.073 32.4928 111.327 31.1767 112.708Z" fill="white"/>
</g>
<g opacity="0.2">
<path d="M25.8711 84.2718C26.6116 84.2718 27.2119 83.6715 27.2119 82.931C27.2119 82.1904 26.6116 81.5901 25.8711 81.5901C25.1306 81.5901 24.5303 82.1904 24.5303 82.931C24.5303 83.6715 25.1306 84.2718 25.8711 84.2718Z" fill="white"/>
<path d="M29.6961 77.7651H22.0461C21.9803 77.7651 21.9227 77.7651 21.8569 77.7651V76.8109C21.8569 74.4008 22.5396 72.7968 25.8711 72.7968C29.4328 72.7968 29.8853 74.5324 29.8853 76.0459C29.8853 76.3668 30.1403 76.6218 30.4611 76.6218C30.7819 76.6218 31.0369 76.3668 31.0369 76.0459C31.0369 73.1258 29.3012 71.6451 25.8711 71.6451C21.2399 71.6451 20.7053 74.59 20.7053 76.8109V77.8392C18.402 78.1271 17.6453 79.2951 17.6453 82.1659V83.6959C17.6453 87.0685 18.6735 88.0968 22.0461 88.0968H29.6961C33.0687 88.0968 34.0969 87.0685 34.0969 83.6959V82.1659C34.0969 78.7934 33.0687 77.7651 29.6961 77.7651ZM25.8711 85.4151C24.4974 85.4151 23.3869 84.2964 23.3869 82.9309C23.3869 81.5572 24.5056 80.4468 25.8711 80.4468C27.2366 80.4468 28.3553 81.5655 28.3553 82.9309C28.3553 84.3047 27.2448 85.4151 25.8711 85.4151Z" fill="white"/>
</g>
<path d="M44.0042 80.8777V79.7437H50.8322L49.2122 78.1237L49.9022 77.4337L52.7822 80.3137L49.9022 83.1937L49.2122 82.5037L50.8382 80.8777H44.0042ZM57.7072 84.0938V75.4537H62.9092V76.8997H59.1532V79.0537H62.1892V80.4937H59.1532V84.0938H57.7072ZM63.9884 84.0938V75.4537H65.2904L68.2784 81.5737L71.2664 75.4537H72.5684V84.0938H71.2184V78.5557L68.5664 84.0938H67.9904L65.3444 78.5557V84.0938H63.9884ZM75.7541 84.0938V77.0317L74.1341 78.0217V76.4257L75.7541 75.4537H77.2301V84.0938H75.7541ZM81.9878 84.2558C81.5558 84.2558 81.1478 84.1718 80.7638 84.0037C80.3798 83.8357 80.0458 83.5977 79.7618 83.2897C79.4818 82.9817 79.2798 82.6177 79.1558 82.1977L80.5538 81.8197C80.6538 82.1637 80.8358 82.4297 81.0998 82.6177C81.3678 82.8017 81.6618 82.8917 81.9818 82.8877C82.2658 82.8877 82.5198 82.8217 82.7438 82.6897C82.9678 82.5577 83.1438 82.3797 83.2718 82.1557C83.3998 81.9277 83.4638 81.6737 83.4638 81.3937C83.4638 80.9657 83.3258 80.6077 83.0498 80.3197C82.7738 80.0317 82.4178 79.8877 81.9818 79.8877C81.8498 79.8877 81.7198 79.9057 81.5918 79.9417C81.4678 79.9777 81.3478 80.0277 81.2318 80.0917L80.5718 78.9517L83.4758 76.4677L83.6018 76.8157H79.4918V75.4537H84.7898V76.8217L82.4558 79.0657L82.4438 78.6397C82.9678 78.6757 83.4138 78.8217 83.7818 79.0777C84.1538 79.3337 84.4378 79.6637 84.6338 80.0677C84.8338 80.4717 84.9338 80.9137 84.9338 81.3937C84.9338 81.9377 84.7998 82.4257 84.5318 82.8577C84.2678 83.2897 83.9118 83.6317 83.4638 83.8837C83.0198 84.1318 82.5278 84.2558 81.9878 84.2558ZM86.3684 80.3377V79.2037H89.9684V80.3377H86.3684ZM94.6355 84.2738C94.0235 84.2738 93.4835 84.1438 93.0155 83.8837C92.5475 83.6197 92.1815 83.2537 91.9175 82.7857C91.6575 82.3177 91.5275 81.7777 91.5275 81.1657V78.3817C91.5275 77.7697 91.6575 77.2297 91.9175 76.7617C92.1815 76.2937 92.5475 75.9297 93.0155 75.6697C93.4835 75.4057 94.0235 75.2737 94.6355 75.2737C95.2475 75.2737 95.7855 75.4057 96.2495 75.6697C96.7175 75.9297 97.0835 76.2937 97.3475 76.7617C97.6115 77.2297 97.7435 77.7697 97.7435 78.3817V81.1657C97.7435 81.7777 97.6115 82.3177 97.3475 82.7857C97.0835 83.2537 96.7175 83.6197 96.2495 83.8837C95.7855 84.1438 95.2475 84.2738 94.6355 84.2738ZM94.6355 82.8997C94.9395 82.8997 95.2155 82.8277 95.4635 82.6837C95.7115 82.5357 95.9075 82.3397 96.0515 82.0957C96.1955 81.8477 96.2675 81.5717 96.2675 81.2677V78.2737C96.2675 77.9657 96.1955 77.6897 96.0515 77.4457C95.9075 77.1977 95.7115 77.0017 95.4635 76.8577C95.2155 76.7097 94.9395 76.6357 94.6355 76.6357C94.3315 76.6357 94.0555 76.7097 93.8075 76.8577C93.5595 77.0017 93.3635 77.1977 93.2195 77.4457C93.0755 77.6897 93.0035 77.9657 93.0035 78.2737V81.2677C93.0035 81.5717 93.0755 81.8477 93.2195 82.0957C93.3635 82.3397 93.5595 82.5357 93.8075 82.6837C94.0555 82.8277 94.3315 82.8997 94.6355 82.8997ZM102.216 75.2857C102.78 75.2857 103.288 75.4197 103.74 75.6877C104.192 75.9517 104.548 76.3197 104.808 76.7917C105.072 77.2597 105.204 77.7997 105.204 78.4117V81.0457C105.204 81.6977 105.072 82.2677 104.808 82.7557C104.548 83.2397 104.182 83.6137 103.71 83.8777C103.238 84.1418 102.686 84.2738 102.054 84.2738C101.618 84.2738 101.206 84.1998 100.818 84.0517C100.43 83.8997 100.082 83.6677 99.7739 83.3557L100.812 82.3417C100.968 82.5217 101.154 82.6637 101.37 82.7677C101.59 82.8677 101.818 82.9177 102.054 82.9177C102.39 82.9177 102.684 82.8397 102.936 82.6837C103.188 82.5237 103.384 82.3177 103.524 82.0657C103.664 81.8097 103.734 81.5357 103.734 81.2437V79.8097L103.992 80.0977C103.748 80.3857 103.452 80.6117 103.104 80.7757C102.756 80.9357 102.39 81.0157 102.006 81.0157C101.466 81.0157 100.986 80.8917 100.566 80.6437C100.15 80.3957 99.8219 80.0597 99.5819 79.6357C99.3459 79.2077 99.2279 78.7237 99.2279 78.1837C99.2279 77.6437 99.3639 77.1557 99.6359 76.7197C99.9079 76.2797 100.27 75.9317 100.722 75.6757C101.178 75.4157 101.676 75.2857 102.216 75.2857ZM102.216 76.6657C101.936 76.6657 101.68 76.7337 101.448 76.8697C101.216 77.0057 101.032 77.1897 100.896 77.4217C100.76 77.6497 100.692 77.9037 100.692 78.1837C100.692 78.4637 100.758 78.7197 100.89 78.9517C101.026 79.1837 101.208 79.3677 101.436 79.5037C101.668 79.6397 101.924 79.7077 102.204 79.7077C102.484 79.7077 102.74 79.6397 102.972 79.5037C103.204 79.3677 103.388 79.1837 103.524 78.9517C103.664 78.7197 103.734 78.4637 103.734 78.1837C103.734 77.9117 103.666 77.6617 103.53 77.4337C103.394 77.2017 103.21 77.0157 102.978 76.8757C102.75 76.7357 102.496 76.6657 102.216 76.6657ZM110.467 84.0938V82.6657H106.639V81.3157L109.405 75.4537H111.055L108.289 81.3157H110.467V79.0657H111.931V81.3157H112.741V82.6657H111.931V84.0938H110.467ZM113.94 84.0817V82.8217L117.636 79.5277C117.924 79.2717 118.124 79.0297 118.236 78.8017C118.348 78.5737 118.404 78.3537 118.404 78.1417C118.404 77.8537 118.342 77.5977 118.218 77.3737C118.094 77.1457 117.922 76.9657 117.702 76.8337C117.486 76.7017 117.236 76.6357 116.952 76.6357C116.652 76.6357 116.386 76.7057 116.154 76.8457C115.926 76.9817 115.748 77.1637 115.62 77.3917C115.492 77.6197 115.432 77.8657 115.44 78.1297H113.952C113.952 77.5537 114.08 77.0517 114.336 76.6237C114.596 76.1957 114.952 75.8637 115.404 75.6277C115.86 75.3917 116.386 75.2737 116.982 75.2737C117.534 75.2737 118.03 75.3977 118.47 75.6457C118.91 75.8897 119.256 76.2297 119.508 76.6657C119.76 77.0977 119.886 77.5957 119.886 78.1597C119.886 78.5717 119.83 78.9177 119.718 79.1977C119.606 79.4777 119.438 79.7357 119.214 79.9717C118.994 80.2077 118.72 80.4697 118.392 80.7577L115.77 83.0797L115.638 82.7197H119.886V84.0817H113.94Z" fill="white"/>
<path d="M44.0042 111.589V110.455H50.8322L49.2122 108.835L49.9022 108.145L52.7822 111.025L49.9022 113.905L49.2122 113.215L50.8382 111.589H44.0042ZM59.8912 106.165H61.3432L59.0392 114.805H57.5872L59.8912 106.165ZM66.0966 114.985C65.4646 114.985 64.8946 114.875 64.3866 114.655C63.8826 114.435 63.4666 114.121 63.1386 113.713C62.8146 113.301 62.6086 112.813 62.5206 112.249L64.0206 112.021C64.1486 112.533 64.4106 112.929 64.8066 113.209C65.2066 113.489 65.6666 113.629 66.1866 113.629C66.4946 113.629 66.7846 113.581 67.0566 113.485C67.3286 113.389 67.5486 113.249 67.7166 113.065C67.8886 112.881 67.9746 112.655 67.9746 112.387C67.9746 112.267 67.9546 112.157 67.9146 112.057C67.8746 111.953 67.8146 111.861 67.7346 111.781C67.6586 111.701 67.5586 111.629 67.4346 111.565C67.3146 111.497 67.1746 111.439 67.0146 111.391L64.7826 110.731C64.5906 110.675 64.3826 110.601 64.1586 110.509C63.9386 110.413 63.7286 110.283 63.5286 110.119C63.3326 109.951 63.1706 109.739 63.0426 109.483C62.9186 109.223 62.8566 108.903 62.8566 108.523C62.8566 107.967 62.9966 107.501 63.2766 107.125C63.5606 106.745 63.9406 106.461 64.4166 106.273C64.8966 106.085 65.4286 105.993 66.0126 105.997C66.6046 106.001 67.1326 106.103 67.5966 106.303C68.0606 106.499 68.4486 106.785 68.7606 107.161C69.0726 107.537 69.2926 107.991 69.4206 108.523L67.8666 108.793C67.8026 108.489 67.6786 108.231 67.4946 108.019C67.3146 107.803 67.0926 107.639 66.8286 107.527C66.5686 107.415 66.2906 107.355 65.9946 107.347C65.7066 107.343 65.4386 107.387 65.1906 107.479C64.9466 107.567 64.7486 107.695 64.5966 107.863C64.4486 108.031 64.3746 108.227 64.3746 108.451C64.3746 108.663 64.4386 108.837 64.5666 108.973C64.6946 109.105 64.8526 109.211 65.0406 109.291C65.2326 109.367 65.4266 109.431 65.6226 109.483L67.1706 109.915C67.3826 109.971 67.6206 110.047 67.8846 110.143C68.1486 110.239 68.4026 110.373 68.6466 110.545C68.8906 110.717 69.0906 110.943 69.2466 111.223C69.4066 111.503 69.4866 111.859 69.4866 112.291C69.4866 112.739 69.3926 113.133 69.2046 113.473C69.0206 113.809 68.7706 114.089 68.4546 114.313C68.1386 114.537 67.7766 114.705 67.3686 114.817C66.9646 114.929 66.5406 114.985 66.0966 114.985ZM73.7313 114.985C73.0753 114.985 72.4993 114.843 72.0033 114.559C71.5073 114.275 71.1193 113.881 70.8393 113.377C70.5633 112.873 70.4253 112.293 70.4253 111.637C70.4253 110.929 70.5613 110.315 70.8333 109.795C71.1053 109.271 71.4833 108.865 71.9673 108.577C72.4513 108.289 73.0113 108.145 73.6473 108.145C74.3193 108.145 74.8893 108.303 75.3573 108.619C75.8293 108.931 76.1793 109.373 76.4073 109.945C76.6353 110.517 76.7213 111.191 76.6653 111.967H75.2313V111.439C75.2273 110.735 75.1033 110.221 74.8593 109.897C74.6153 109.573 74.2313 109.411 73.7073 109.411C73.1153 109.411 72.6753 109.595 72.3873 109.963C72.0993 110.327 71.9553 110.861 71.9553 111.565C71.9553 112.221 72.0993 112.729 72.3873 113.089C72.6753 113.449 73.0953 113.629 73.6473 113.629C74.0033 113.629 74.3093 113.551 74.5653 113.395C74.8253 113.235 75.0253 113.005 75.1653 112.705L76.5933 113.137C76.3453 113.721 75.9613 114.175 75.4413 114.499C74.9253 114.823 74.3553 114.985 73.7313 114.985ZM71.4993 111.967V110.875H75.9573V111.967H71.4993ZM78.0041 114.805V108.325H79.2821V109.903L79.1261 109.699C79.2061 109.483 79.3121 109.287 79.4441 109.111C79.5801 108.931 79.7421 108.783 79.9301 108.667C80.0901 108.559 80.2661 108.475 80.4581 108.415C80.6541 108.351 80.8541 108.313 81.0581 108.301C81.2621 108.285 81.4601 108.293 81.6521 108.325V109.675C81.4601 109.619 81.2381 109.601 80.9861 109.621C80.7381 109.641 80.5141 109.711 80.3141 109.831C80.1141 109.939 79.9501 110.077 79.8221 110.245C79.6981 110.413 79.6061 110.605 79.5461 110.821C79.4861 111.033 79.4561 111.263 79.4561 111.511V114.805H78.0041ZM86.361 114.985C85.801 114.985 85.275 114.887 84.783 114.691C84.295 114.491 83.865 114.199 83.493 113.815C83.125 113.431 82.837 112.961 82.629 112.405C82.421 111.845 82.317 111.205 82.317 110.485C82.317 109.541 82.493 108.735 82.845 108.067C83.197 107.395 83.679 106.881 84.291 106.525C84.903 106.165 85.593 105.985 86.361 105.985C87.425 105.985 88.267 106.233 88.887 106.729C89.511 107.221 89.933 107.913 90.153 108.805L88.677 109.039C88.513 108.527 88.245 108.119 87.873 107.815C87.501 107.507 87.027 107.353 86.451 107.353C85.871 107.345 85.389 107.471 85.005 107.731C84.621 107.991 84.331 108.357 84.135 108.829C83.943 109.301 83.847 109.853 83.847 110.485C83.847 111.117 83.943 111.667 84.135 112.135C84.327 112.599 84.615 112.961 84.999 113.221C85.387 113.481 85.871 113.615 86.451 113.623C86.887 113.627 87.269 113.549 87.597 113.389C87.925 113.225 88.193 112.979 88.401 112.651C88.609 112.319 88.749 111.905 88.821 111.409H87.297V110.275H90.357C90.365 110.339 90.371 110.433 90.375 110.557C90.379 110.681 90.381 110.755 90.381 110.779C90.381 111.595 90.219 112.321 89.895 112.957C89.575 113.589 89.115 114.085 88.515 114.445C87.915 114.805 87.197 114.985 86.361 114.985ZM93.3981 114.985C92.9301 114.985 92.5341 114.897 92.2101 114.721C91.8861 114.541 91.6401 114.303 91.4721 114.007C91.3081 113.711 91.2261 113.385 91.2261 113.029C91.2261 112.717 91.2781 112.437 91.3821 112.189C91.4861 111.937 91.6461 111.721 91.8621 111.541C92.0781 111.357 92.3581 111.207 92.7021 111.091C92.9621 111.007 93.2661 110.931 93.6141 110.863C93.9661 110.795 94.3461 110.733 94.7541 110.677C95.1661 110.617 95.5961 110.553 96.0441 110.485L95.5281 110.779C95.5321 110.331 95.4321 110.001 95.2281 109.789C95.0241 109.577 94.6801 109.471 94.1961 109.471C93.9041 109.471 93.6221 109.539 93.3501 109.675C93.0781 109.811 92.8881 110.045 92.7801 110.377L91.4601 109.963C91.6201 109.415 91.9241 108.975 92.3721 108.643C92.8241 108.311 93.4321 108.145 94.1961 108.145C94.7721 108.145 95.2781 108.239 95.7141 108.427C96.1541 108.615 96.4801 108.923 96.6921 109.351C96.8081 109.579 96.8781 109.813 96.9021 110.053C96.9261 110.289 96.9381 110.547 96.9381 110.827V114.805H95.6721V113.401L95.8821 113.629C95.5901 114.097 95.2481 114.441 94.8561 114.661C94.4681 114.877 93.9821 114.985 93.3981 114.985ZM93.6861 113.833C94.0141 113.833 94.2941 113.775 94.5261 113.659C94.7581 113.543 94.9421 113.401 95.0781 113.233C95.2181 113.065 95.3121 112.907 95.3601 112.759C95.4361 112.575 95.4781 112.365 95.4861 112.129C95.4981 111.889 95.5041 111.695 95.5041 111.547L95.9481 111.679C95.5121 111.747 95.1381 111.807 94.8261 111.859C94.5141 111.911 94.2461 111.961 94.0221 112.009C93.7981 112.053 93.6001 112.103 93.4281 112.159C93.2601 112.219 93.1181 112.289 93.0021 112.369C92.8861 112.449 92.7961 112.541 92.7321 112.645C92.6721 112.749 92.6421 112.871 92.6421 113.011C92.6421 113.171 92.6821 113.313 92.7621 113.437C92.8421 113.557 92.9581 113.653 93.1101 113.725C93.2661 113.797 93.4581 113.833 93.6861 113.833ZM98.9889 117.685L100.237 114.259L100.261 115.267L97.4349 108.325H98.9409L100.945 113.461H100.561L102.511 108.325H103.957L100.345 117.685H98.9889ZM104.612 114.793V113.533L108.308 110.239C108.596 109.983 108.796 109.741 108.908 109.513C109.02 109.285 109.076 109.065 109.076 108.853C109.076 108.565 109.014 108.309 108.89 108.085C108.766 107.857 108.594 107.677 108.374 107.545C108.158 107.413 107.908 107.347 107.624 107.347C107.324 107.347 107.058 107.417 106.826 107.557C106.598 107.693 106.42 107.875 106.292 108.103C106.164 108.331 106.104 108.577 106.112 108.841H104.624C104.624 108.265 104.752 107.763 105.008 107.335C105.268 106.907 105.624 106.575 106.076 106.339C106.532 106.103 107.058 105.985 107.654 105.985C108.206 105.985 108.702 106.109 109.142 106.357C109.582 106.601 109.928 106.941 110.18 107.377C110.432 107.809 110.558 108.307 110.558 108.871C110.558 109.283 110.502 109.629 110.39 109.909C110.278 110.189 110.11 110.447 109.886 110.683C109.666 110.919 109.392 111.181 109.064 111.469L106.442 113.791L106.31 113.431H110.558V114.793H104.612ZM115.354 114.805V113.377H111.526V112.027L114.292 106.165H115.942L113.176 112.027H115.354V109.777H116.818V112.027H117.628V113.377H116.818V114.805H115.354Z" fill="white"/>
<defs>
<filter id="filter0_b_221_1564" x="-12.5" y="-12.5" width="230.097" height="161" filterUnits="userSpaceOnUse" color-interpolation-filters="sRGB">
<feFlood flood-opacity="0" result="BackgroundImageFix"/>
<feGaussianBlur in="BackgroundImageFix" stdDeviation="6.25"/>
<feComposite in2="SourceAlpha" operator="in" result="effect1_backgroundBlur_221_1564"/>
<feBlend mode="normal" in="SourceGraphic" in2="effect1_backgroundBlur_221_1564" result="shape"/>
</filter>
</defs>
</svg>
