<svg width="268" height="268" viewBox="0 0 268 268" fill="none" xmlns="http://www.w3.org/2000/svg">
<rect width="268" height="268" rx="20" fill="#131417"/>
<rect x="13.9583" y="13.9584" width="240.083" height="240.083" rx="16" fill="white"/>
<path d="M135.103 117.468C134.856 117.325 134.576 117.25 134.291 117.25C134.006 117.25 133.726 117.325 133.479 117.468L125.762 122.001L140.859 130.855V148.781L148.555 144.261C148.799 144.119 149.001 143.915 149.141 143.669C149.281 143.424 149.354 143.146 149.354 142.863V125.865L135.103 117.468Z" fill="black"/>
<path d="M125.775 126.76L118.646 130.876L129.868 137.443V150.75L136.984 146.641C137.164 146.537 137.314 146.386 137.419 146.204C137.523 146.023 137.578 145.817 137.578 145.607V132.97L127.016 126.76C126.829 126.647 126.614 126.587 126.395 126.587C126.177 126.587 125.962 126.647 125.775 126.76Z" fill="black"/>
<path d="M126.462 148.265V139.292L118.818 143.778L126.462 148.265Z" fill="black"/>
<path d="M39.0833 39.0834H44.8359V44.8359H39.0833V39.0834Z" fill="black"/>
<path d="M44.8359 39.0834H50.5884V44.8359H44.8359V39.0834Z" fill="black"/>
<path d="M50.5884 39.0834H56.3409V44.8359H50.5884V39.0834Z" fill="black"/>
<path d="M56.3409 39.0834H62.0934V44.8359H56.3409V39.0834Z" fill="black"/>
<path d="M62.0934 39.0834H67.846V44.8359H62.0934V39.0834Z" fill="black"/>
<path d="M67.846 39.0834H73.5985V44.8359H67.846V39.0834Z" fill="black"/>
<path d="M73.5985 39.0834H79.351V44.8359H73.5985V39.0834Z" fill="black"/>
<path d="M108.114 39.0834H113.866V44.8359H108.114V39.0834Z" fill="black"/>
<path d="M119.619 39.0834H125.371V44.8359H119.619V39.0834Z" fill="black"/>
<path d="M125.371 39.0834H131.124V44.8359H125.371V39.0834Z" fill="black"/>
<path d="M131.124 39.0834H136.876V44.8359H131.124V39.0834Z" fill="black"/>
<path d="M136.876 39.0834H142.629V44.8359H136.876V39.0834Z" fill="black"/>
<path d="M142.629 39.0834H148.381V44.8359H142.629V39.0834Z" fill="black"/>
<path d="M154.134 39.0834H159.886V44.8359H154.134V39.0834Z" fill="black"/>
<path d="M171.391 39.0834H177.144V44.8359H171.391V39.0834Z" fill="black"/>
<path d="M188.649 39.0834H194.402V44.8359H188.649V39.0834Z" fill="black"/>
<path d="M194.402 39.0834H200.154V44.8359H194.402V39.0834Z" fill="black"/>
<path d="M200.154 39.0834H205.907V44.8359H200.154V39.0834Z" fill="black"/>
<path d="M205.907 39.0834H211.659V44.8359H205.907V39.0834Z" fill="black"/>
<path d="M211.659 39.0834H217.412V44.8359H211.659V39.0834Z" fill="black"/>
<path d="M217.412 39.0834H223.164V44.8359H217.412V39.0834Z" fill="black"/>
<path d="M223.164 39.0834H228.917V44.8359H223.164V39.0834Z" fill="black"/>
<path d="M39.0833 44.8359H44.8359V50.5884H39.0833V44.8359Z" fill="black"/>
<path d="M73.5985 44.8359H79.351V50.5884H73.5985V44.8359Z" fill="black"/>
<path d="M85.1035 44.8359H90.8561V50.5884H85.1035V44.8359Z" fill="black"/>
<path d="M96.6086 44.8359H102.361V50.5884H96.6086V44.8359Z" fill="black"/>
<path d="M102.361 44.8359H108.114V50.5884H102.361V44.8359Z" fill="black"/>
<path d="M108.114 44.8359H113.866V50.5884H108.114V44.8359Z" fill="black"/>
<path d="M131.124 44.8359H136.876V50.5884H131.124V44.8359Z" fill="black"/>
<path d="M142.629 44.8359H148.381V50.5884H142.629V44.8359Z" fill="black"/>
<path d="M171.391 44.8359H177.144V50.5884H171.391V44.8359Z" fill="black"/>
<path d="M177.144 44.8359H182.896V50.5884H177.144V44.8359Z" fill="black"/>
<path d="M188.649 44.8359H194.402V50.5884H188.649V44.8359Z" fill="black"/>
<path d="M223.164 44.8359H228.917V50.5884H223.164V44.8359Z" fill="black"/>
<path d="M39.0833 50.5884H44.8359V56.341H39.0833V50.5884Z" fill="black"/>
<path d="M50.5884 50.5884H56.3409V56.341H50.5884V50.5884Z" fill="black"/>
<path d="M56.3409 50.5884H62.0934V56.341H56.3409V50.5884Z" fill="black"/>
<path d="M62.0934 50.5884H67.846V56.341H62.0934V50.5884Z" fill="black"/>
<path d="M73.5985 50.5884H79.351V56.341H73.5985V50.5884Z" fill="black"/>
<path d="M85.1035 50.5884H90.8561V56.341H85.1035V50.5884Z" fill="black"/>
<path d="M90.8561 50.5884H96.6086V56.341H90.8561V50.5884Z" fill="black"/>
<path d="M113.866 50.5884H119.619V56.341H113.866V50.5884Z" fill="black"/>
<path d="M119.619 50.5884H125.371V56.341H119.619V50.5884Z" fill="black"/>
<path d="M125.371 50.5884H131.124V56.341H125.371V50.5884Z" fill="black"/>
<path d="M131.124 50.5884H136.876V56.341H131.124V50.5884Z" fill="black"/>
<path d="M136.876 50.5884H142.629V56.341H136.876V50.5884Z" fill="black"/>
<path d="M154.134 50.5884H159.886V56.341H154.134V50.5884Z" fill="black"/>
<path d="M165.639 50.5884H171.391V56.341H165.639V50.5884Z" fill="black"/>
<path d="M171.391 50.5884H177.144V56.341H171.391V50.5884Z" fill="black"/>
<path d="M188.649 50.5884H194.402V56.341H188.649V50.5884Z" fill="black"/>
<path d="M200.154 50.5884H205.907V56.341H200.154V50.5884Z" fill="black"/>
<path d="M205.907 50.5884H211.659V56.341H205.907V50.5884Z" fill="black"/>
<path d="M211.659 50.5884H217.412V56.341H211.659V50.5884Z" fill="black"/>
<path d="M223.164 50.5884H228.917V56.341H223.164V50.5884Z" fill="black"/>
<path d="M39.0833 56.341H44.8359V62.0935H39.0833V56.341Z" fill="black"/>
<path d="M50.5884 56.341H56.3409V62.0935H50.5884V56.341Z" fill="black"/>
<path d="M56.3409 56.341H62.0934V62.0935H56.3409V56.341Z" fill="black"/>
<path d="M62.0934 56.341H67.846V62.0935H62.0934V56.341Z" fill="black"/>
<path d="M73.5985 56.341H79.351V62.0935H73.5985V56.341Z" fill="black"/>
<path d="M90.8561 56.341H96.6086V62.0935H90.8561V56.341Z" fill="black"/>
<path d="M113.866 56.341H119.619V62.0935H113.866V56.341Z" fill="black"/>
<path d="M119.619 56.341H125.371V62.0935H119.619V56.341Z" fill="black"/>
<path d="M148.381 56.341H154.134V62.0935H148.381V56.341Z" fill="black"/>
<path d="M165.639 56.341H171.391V62.0935H165.639V56.341Z" fill="black"/>
<path d="M177.144 56.341H182.896V62.0935H177.144V56.341Z" fill="black"/>
<path d="M188.649 56.341H194.402V62.0935H188.649V56.341Z" fill="black"/>
<path d="M200.154 56.341H205.907V62.0935H200.154V56.341Z" fill="black"/>
<path d="M205.907 56.341H211.659V62.0935H205.907V56.341Z" fill="black"/>
<path d="M211.659 56.341H217.412V62.0935H211.659V56.341Z" fill="black"/>
<path d="M223.164 56.341H228.917V62.0935H223.164V56.341Z" fill="black"/>
<path d="M39.0833 62.0935H44.8359V67.846H39.0833V62.0935Z" fill="black"/>
<path d="M50.5884 62.0935H56.3409V67.846H50.5884V62.0935Z" fill="black"/>
<path d="M56.3409 62.0935H62.0934V67.846H56.3409V62.0935Z" fill="black"/>
<path d="M62.0934 62.0935H67.846V67.846H62.0934V62.0935Z" fill="black"/>
<path d="M73.5985 62.0935H79.351V67.846H73.5985V62.0935Z" fill="black"/>
<path d="M90.8561 62.0935H96.6086V67.846H90.8561V62.0935Z" fill="black"/>
<path d="M96.6086 62.0935H102.361V67.846H96.6086V62.0935Z" fill="black"/>
<path d="M108.114 62.0935H113.866V67.846H108.114V62.0935Z" fill="black"/>
<path d="M113.866 62.0935H119.619V67.846H113.866V62.0935Z" fill="black"/>
<path d="M125.371 62.0935H131.124V67.846H125.371V62.0935Z" fill="black"/>
<path d="M131.124 62.0935H136.876V67.846H131.124V62.0935Z" fill="black"/>
<path d="M154.134 62.0935H159.886V67.846H154.134V62.0935Z" fill="black"/>
<path d="M159.886 62.0935H165.639V67.846H159.886V62.0935Z" fill="black"/>
<path d="M171.391 62.0935H177.144V67.846H171.391V62.0935Z" fill="black"/>
<path d="M177.144 62.0935H182.896V67.846H177.144V62.0935Z" fill="black"/>
<path d="M188.649 62.0935H194.402V67.846H188.649V62.0935Z" fill="black"/>
<path d="M200.154 62.0935H205.907V67.846H200.154V62.0935Z" fill="black"/>
<path d="M205.907 62.0935H211.659V67.846H205.907V62.0935Z" fill="black"/>
<path d="M211.659 62.0935H217.412V67.846H211.659V62.0935Z" fill="black"/>
<path d="M223.164 62.0935H228.917V67.846H223.164V62.0935Z" fill="black"/>
<path d="M39.0833 67.846H44.8359V73.5985H39.0833V67.846Z" fill="black"/>
<path d="M73.5985 67.846H79.351V73.5985H73.5985V67.846Z" fill="black"/>
<path d="M90.8561 67.846H96.6086V73.5985H90.8561V67.846Z" fill="black"/>
<path d="M96.6086 67.846H102.361V73.5985H96.6086V67.846Z" fill="black"/>
<path d="M102.361 67.846H108.114V73.5985H102.361V67.846Z" fill="black"/>
<path d="M108.114 67.846H113.866V73.5985H108.114V67.846Z" fill="black"/>
<path d="M113.866 67.846H119.619V73.5985H113.866V67.846Z" fill="black"/>
<path d="M125.371 67.846H131.124V73.5985H125.371V67.846Z" fill="black"/>
<path d="M131.124 67.846H136.876V73.5985H131.124V67.846Z" fill="black"/>
<path d="M142.629 67.846H148.381V73.5985H142.629V67.846Z" fill="black"/>
<path d="M148.381 67.846H154.134V73.5985H148.381V67.846Z" fill="black"/>
<path d="M154.134 67.846H159.886V73.5985H154.134V67.846Z" fill="black"/>
<path d="M165.639 67.846H171.391V73.5985H165.639V67.846Z" fill="black"/>
<path d="M177.144 67.846H182.896V73.5985H177.144V67.846Z" fill="black"/>
<path d="M188.649 67.846H194.402V73.5985H188.649V67.846Z" fill="black"/>
<path d="M223.164 67.846H228.917V73.5985H223.164V67.846Z" fill="black"/>
<path d="M39.0833 73.5985H44.8359V79.3511H39.0833V73.5985Z" fill="black"/>
<path d="M44.8359 73.5985H50.5884V79.3511H44.8359V73.5985Z" fill="black"/>
<path d="M50.5884 73.5985H56.3409V79.3511H50.5884V73.5985Z" fill="black"/>
<path d="M56.3409 73.5985H62.0934V79.3511H56.3409V73.5985Z" fill="black"/>
<path d="M62.0934 73.5985H67.846V79.3511H62.0934V73.5985Z" fill="black"/>
<path d="M67.846 73.5985H73.5985V79.3511H67.846V73.5985Z" fill="black"/>
<path d="M73.5985 73.5985H79.351V79.3511H73.5985V73.5985Z" fill="black"/>
<path d="M85.1035 73.5985H90.8561V79.3511H85.1035V73.5985Z" fill="black"/>
<path d="M96.6086 73.5985H102.361V79.3511H96.6086V73.5985Z" fill="black"/>
<path d="M108.114 73.5985H113.866V79.3511H108.114V73.5985Z" fill="black"/>
<path d="M119.619 73.5985H125.371V79.3511H119.619V73.5985Z" fill="black"/>
<path d="M131.124 73.5985H136.876V79.3511H131.124V73.5985Z" fill="black"/>
<path d="M142.629 73.5985H148.381V79.3511H142.629V73.5985Z" fill="black"/>
<path d="M154.134 73.5985H159.886V79.3511H154.134V73.5985Z" fill="black"/>
<path d="M165.639 73.5985H171.391V79.3511H165.639V73.5985Z" fill="black"/>
<path d="M177.144 73.5985H182.896V79.3511H177.144V73.5985Z" fill="black"/>
<path d="M188.649 73.5985H194.402V79.3511H188.649V73.5985Z" fill="black"/>
<path d="M194.402 73.5985H200.154V79.3511H194.402V73.5985Z" fill="black"/>
<path d="M200.154 73.5985H205.907V79.3511H200.154V73.5985Z" fill="black"/>
<path d="M205.907 73.5985H211.659V79.3511H205.907V73.5985Z" fill="black"/>
<path d="M211.659 73.5985H217.412V79.3511H211.659V73.5985Z" fill="black"/>
<path d="M217.412 73.5985H223.164V79.3511H217.412V73.5985Z" fill="black"/>
<path d="M223.164 73.5985H228.917V79.3511H223.164V73.5985Z" fill="black"/>
<path d="M102.361 79.3511H108.114V85.1036H102.361V79.3511Z" fill="black"/>
<path d="M108.114 79.3511H113.866V85.1036H108.114V79.3511Z" fill="black"/>
<path d="M136.876 79.3511H142.629V85.1036H136.876V79.3511Z" fill="black"/>
<path d="M142.629 79.3511H148.381V85.1036H142.629V79.3511Z" fill="black"/>
<path d="M148.381 79.3511H154.134V85.1036H148.381V79.3511Z" fill="black"/>
<path d="M154.134 79.3511H159.886V85.1036H154.134V79.3511Z" fill="black"/>
<path d="M171.391 79.3511H177.144V85.1036H171.391V79.3511Z" fill="black"/>
<path d="M44.8359 85.1036H50.5884V90.8561H44.8359V85.1036Z" fill="black"/>
<path d="M50.5884 85.1036H56.3409V90.8561H50.5884V85.1036Z" fill="black"/>
<path d="M56.3409 85.1036H62.0934V90.8561H56.3409V85.1036Z" fill="black"/>
<path d="M67.846 85.1036H73.5985V90.8561H67.846V85.1036Z" fill="black"/>
<path d="M73.5985 85.1036H79.351V90.8561H73.5985V85.1036Z" fill="black"/>
<path d="M108.114 85.1036H113.866V90.8561H108.114V85.1036Z" fill="black"/>
<path d="M113.866 85.1036H119.619V90.8561H113.866V85.1036Z" fill="black"/>
<path d="M119.619 85.1036H125.371V90.8561H119.619V85.1036Z" fill="black"/>
<path d="M125.371 85.1036H131.124V90.8561H125.371V85.1036Z" fill="black"/>
<path d="M142.629 85.1036H148.381V90.8561H142.629V85.1036Z" fill="black"/>
<path d="M148.381 85.1036H154.134V90.8561H148.381V85.1036Z" fill="black"/>
<path d="M159.886 85.1036H165.639V90.8561H159.886V85.1036Z" fill="black"/>
<path d="M211.659 85.1036H217.412V90.8561H211.659V85.1036Z" fill="black"/>
<path d="M217.412 85.1036H223.164V90.8561H217.412V85.1036Z" fill="black"/>
<path d="M39.0833 90.8561H44.8359V96.6086H39.0833V90.8561Z" fill="black"/>
<path d="M56.3409 90.8561H62.0934V96.6086H56.3409V90.8561Z" fill="black"/>
<path d="M79.351 90.8561H85.1035V96.6086H79.351V90.8561Z" fill="black"/>
<path d="M102.361 90.8561H108.114V96.6086H102.361V90.8561Z" fill="black"/>
<path d="M108.114 90.8561H113.866V96.6086H108.114V90.8561Z" fill="black"/>
<path d="M119.619 90.8561H125.371V96.6086H119.619V90.8561Z" fill="black"/>
<path d="M125.371 90.8561H131.124V96.6086H125.371V90.8561Z" fill="black"/>
<path d="M142.629 90.8561H148.381V96.6086H142.629V90.8561Z" fill="black"/>
<path d="M148.381 90.8561H154.134V96.6086H148.381V90.8561Z" fill="black"/>
<path d="M171.391 90.8561H177.144V96.6086H171.391V90.8561Z" fill="black"/>
<path d="M188.649 90.8561H194.402V96.6086H188.649V90.8561Z" fill="black"/>
<path d="M194.402 90.8561H200.154V96.6086H194.402V90.8561Z" fill="black"/>
<path d="M205.907 90.8561H211.659V96.6086H205.907V90.8561Z" fill="black"/>
<path d="M211.659 90.8561H217.412V96.6086H211.659V90.8561Z" fill="black"/>
<path d="M217.412 90.8561H223.164V96.6086H217.412V90.8561Z" fill="black"/>
<path d="M223.164 90.8561H228.917V96.6086H223.164V90.8561Z" fill="black"/>
<path d="M39.0833 96.6086H44.8359V102.361H39.0833V96.6086Z" fill="black"/>
<path d="M50.5884 96.6086H56.3409V102.361H50.5884V96.6086Z" fill="black"/>
<path d="M62.0934 96.6086H67.846V102.361H62.0934V96.6086Z" fill="black"/>
<path d="M73.5985 96.6086H79.351V102.361H73.5985V96.6086Z" fill="black"/>
<path d="M102.361 96.6086H108.114V102.361H102.361V96.6086Z" fill="black"/>
<path d="M108.114 96.6086H113.866V102.361H108.114V96.6086Z" fill="black"/>
<path d="M131.124 96.6086H136.876V102.361H131.124V96.6086Z" fill="black"/>
<path d="M136.876 96.6086H142.629V102.361H136.876V96.6086Z" fill="black"/>
<path d="M165.639 96.6086H171.391V102.361H165.639V96.6086Z" fill="black"/>
<path d="M171.391 96.6086H177.144V102.361H171.391V96.6086Z" fill="black"/>
<path d="M177.144 96.6086H182.896V102.361H177.144V96.6086Z" fill="black"/>
<path d="M188.649 96.6086H194.402V102.361H188.649V96.6086Z" fill="black"/>
<path d="M194.402 96.6086H200.154V102.361H194.402V96.6086Z" fill="black"/>
<path d="M200.154 96.6086H205.907V102.361H200.154V96.6086Z" fill="black"/>
<path d="M205.907 96.6086H211.659V102.361H205.907V96.6086Z" fill="black"/>
<path d="M223.164 96.6086H228.917V102.361H223.164V96.6086Z" fill="black"/>
<path d="M39.0833 102.361H44.8359V108.114H39.0833V102.361Z" fill="black"/>
<path d="M85.1035 102.361H90.8561V108.114H85.1035V102.361Z" fill="black"/>
<path d="M119.619 102.361H125.371V108.114H119.619V102.361Z" fill="black"/>
<path d="M142.629 102.361H148.381V108.114H142.629V102.361Z" fill="black"/>
<path d="M148.381 102.361H154.134V108.114H148.381V102.361Z" fill="black"/>
<path d="M154.134 102.361H159.886V108.114H154.134V102.361Z" fill="black"/>
<path d="M177.144 102.361H182.896V108.114H177.144V102.361Z" fill="black"/>
<path d="M194.402 102.361H200.154V108.114H194.402V102.361Z" fill="black"/>
<path d="M205.907 102.361H211.659V108.114H205.907V102.361Z" fill="black"/>
<path d="M217.412 102.361H223.164V108.114H217.412V102.361Z" fill="black"/>
<path d="M39.0833 108.114H44.8359V113.866H39.0833V108.114Z" fill="black"/>
<path d="M44.8359 108.114H50.5884V113.866H44.8359V108.114Z" fill="black"/>
<path d="M56.3409 108.114H62.0934V113.866H56.3409V108.114Z" fill="black"/>
<path d="M67.846 108.114H73.5985V113.866H67.846V108.114Z" fill="black"/>
<path d="M73.5985 108.114H79.351V113.866H73.5985V108.114Z" fill="black"/>
<path d="M79.351 108.114H85.1035V113.866H79.351V108.114Z" fill="black"/>
<path d="M85.1035 108.114H90.8561V113.866H85.1035V108.114Z" fill="black"/>
<path d="M90.8561 108.114H96.6086V113.866H90.8561V108.114Z" fill="black"/>
<path d="M96.6086 108.114H102.361V113.866H96.6086V108.114Z" fill="black"/>
<path d="M165.639 108.114H171.391V113.866H165.639V108.114Z" fill="black"/>
<path d="M182.896 108.114H188.649V113.866H182.896V108.114Z" fill="black"/>
<path d="M200.154 108.114H205.907V113.866H200.154V108.114Z" fill="black"/>
<path d="M205.907 108.114H211.659V113.866H205.907V108.114Z" fill="black"/>
<path d="M217.412 108.114H223.164V113.866H217.412V108.114Z" fill="black"/>
<path d="M56.3409 113.866H62.0934V119.619H56.3409V113.866Z" fill="black"/>
<path d="M79.351 113.866H85.1035V119.619H79.351V113.866Z" fill="black"/>
<path d="M102.361 113.866H108.114V119.619H102.361V113.866Z" fill="black"/>
<path d="M171.391 113.866H177.144V119.619H171.391V113.866Z" fill="black"/>
<path d="M177.144 113.866H182.896V119.619H177.144V113.866Z" fill="black"/>
<path d="M205.907 113.866H211.659V119.619H205.907V113.866Z" fill="black"/>
<path d="M217.412 113.866H223.164V119.619H217.412V113.866Z" fill="black"/>
<path d="M39.0833 119.619H44.8359V125.371H39.0833V119.619Z" fill="black"/>
<path d="M56.3409 119.619H62.0934V125.371H56.3409V119.619Z" fill="black"/>
<path d="M67.846 119.619H73.5985V125.371H67.846V119.619Z" fill="black"/>
<path d="M73.5985 119.619H79.351V125.371H73.5985V119.619Z" fill="black"/>
<path d="M85.1035 119.619H90.8561V125.371H85.1035V119.619Z" fill="black"/>
<path d="M96.6086 119.619H102.361V125.371H96.6086V119.619Z" fill="black"/>
<path d="M165.639 119.619H171.391V125.371H165.639V119.619Z" fill="black"/>
<path d="M188.649 119.619H194.402V125.371H188.649V119.619Z" fill="black"/>
<path d="M194.402 119.619H200.154V125.371H194.402V119.619Z" fill="black"/>
<path d="M200.154 119.619H205.907V125.371H200.154V119.619Z" fill="black"/>
<path d="M205.907 119.619H211.659V125.371H205.907V119.619Z" fill="black"/>
<path d="M39.0833 125.371H44.8359V131.124H39.0833V125.371Z" fill="black"/>
<path d="M56.3409 125.371H62.0934V131.124H56.3409V125.371Z" fill="black"/>
<path d="M159.886 125.371H165.639V131.124H159.886V125.371Z" fill="black"/>
<path d="M165.639 125.371H171.391V131.124H165.639V125.371Z" fill="black"/>
<path d="M171.391 125.371H177.144V131.124H171.391V125.371Z" fill="black"/>
<path d="M177.144 125.371H182.896V131.124H177.144V125.371Z" fill="black"/>
<path d="M182.896 125.371H188.649V131.124H182.896V125.371Z" fill="black"/>
<path d="M188.649 125.371H194.402V131.124H188.649V125.371Z" fill="black"/>
<path d="M194.402 125.371H200.154V131.124H194.402V125.371Z" fill="black"/>
<path d="M200.154 125.371H205.907V131.124H200.154V125.371Z" fill="black"/>
<path d="M205.907 125.371H211.659V131.124H205.907V125.371Z" fill="black"/>
<path d="M211.659 125.371H217.412V131.124H211.659V125.371Z" fill="black"/>
<path d="M67.846 131.124H73.5985V136.876H67.846V131.124Z" fill="black"/>
<path d="M73.5985 131.124H79.351V136.876H73.5985V131.124Z" fill="black"/>
<path d="M102.361 131.124H108.114V136.876H102.361V131.124Z" fill="black"/>
<path d="M159.886 131.124H165.639V136.876H159.886V131.124Z" fill="black"/>
<path d="M165.639 131.124H171.391V136.876H165.639V131.124Z" fill="black"/>
<path d="M171.391 131.124H177.144V136.876H171.391V131.124Z" fill="black"/>
<path d="M182.896 131.124H188.649V136.876H182.896V131.124Z" fill="black"/>
<path d="M188.649 131.124H194.402V136.876H188.649V131.124Z" fill="black"/>
<path d="M200.154 131.124H205.907V136.876H200.154V131.124Z" fill="black"/>
<path d="M39.0833 136.876H44.8359V142.629H39.0833V136.876Z" fill="black"/>
<path d="M50.5884 136.876H56.3409V142.629H50.5884V136.876Z" fill="black"/>
<path d="M62.0934 136.876H67.846V142.629H62.0934V136.876Z" fill="black"/>
<path d="M79.351 136.876H85.1035V142.629H79.351V136.876Z" fill="black"/>
<path d="M96.6086 136.876H102.361V142.629H96.6086V136.876Z" fill="black"/>
<path d="M102.361 136.876H108.114V142.629H102.361V136.876Z" fill="black"/>
<path d="M171.391 136.876H177.144V142.629H171.391V136.876Z" fill="black"/>
<path d="M177.144 136.876H182.896V142.629H177.144V136.876Z" fill="black"/>
<path d="M188.649 136.876H194.402V142.629H188.649V136.876Z" fill="black"/>
<path d="M200.154 136.876H205.907V142.629H200.154V136.876Z" fill="black"/>
<path d="M205.907 136.876H211.659V142.629H205.907V136.876Z" fill="black"/>
<path d="M223.164 136.876H228.917V142.629H223.164V136.876Z" fill="black"/>
<path d="M44.8359 142.629H50.5884V148.381H44.8359V142.629Z" fill="black"/>
<path d="M50.5884 142.629H56.3409V148.381H50.5884V142.629Z" fill="black"/>
<path d="M56.3409 142.629H62.0934V148.381H56.3409V142.629Z" fill="black"/>
<path d="M73.5985 142.629H79.351V148.381H73.5985V142.629Z" fill="black"/>
<path d="M79.351 142.629H85.1035V148.381H79.351V142.629Z" fill="black"/>
<path d="M102.361 142.629H108.114V148.381H102.361V142.629Z" fill="black"/>
<path d="M159.886 142.629H165.639V148.381H159.886V142.629Z" fill="black"/>
<path d="M165.639 142.629H171.391V148.381H165.639V142.629Z" fill="black"/>
<path d="M188.649 142.629H194.402V148.381H188.649V142.629Z" fill="black"/>
<path d="M194.402 142.629H200.154V148.381H194.402V142.629Z" fill="black"/>
<path d="M200.154 142.629H205.907V148.381H200.154V142.629Z" fill="black"/>
<path d="M211.659 142.629H217.412V148.381H211.659V142.629Z" fill="black"/>
<path d="M39.0833 148.381H44.8359V154.134H39.0833V148.381Z" fill="black"/>
<path d="M56.3409 148.381H62.0934V154.134H56.3409V148.381Z" fill="black"/>
<path d="M67.846 148.381H73.5985V154.134H67.846V148.381Z" fill="black"/>
<path d="M85.1035 148.381H90.8561V154.134H85.1035V148.381Z" fill="black"/>
<path d="M102.361 148.381H108.114V154.134H102.361V148.381Z" fill="black"/>
<path d="M177.144 148.381H182.896V154.134H177.144V148.381Z" fill="black"/>
<path d="M182.896 148.381H188.649V154.134H182.896V148.381Z" fill="black"/>
<path d="M188.649 148.381H194.402V154.134H188.649V148.381Z" fill="black"/>
<path d="M200.154 148.381H205.907V154.134H200.154V148.381Z" fill="black"/>
<path d="M217.412 148.381H223.164V154.134H217.412V148.381Z" fill="black"/>
<path d="M44.8359 154.134H50.5884V159.886H44.8359V154.134Z" fill="black"/>
<path d="M50.5884 154.134H56.3409V159.886H50.5884V154.134Z" fill="black"/>
<path d="M56.3409 154.134H62.0934V159.886H56.3409V154.134Z" fill="black"/>
<path d="M62.0934 154.134H67.846V159.886H62.0934V154.134Z" fill="black"/>
<path d="M67.846 154.134H73.5985V159.886H67.846V154.134Z" fill="black"/>
<path d="M73.5985 154.134H79.351V159.886H73.5985V154.134Z" fill="black"/>
<path d="M85.1035 154.134H90.8561V159.886H85.1035V154.134Z" fill="black"/>
<path d="M159.886 154.134H165.639V159.886H159.886V154.134Z" fill="black"/>
<path d="M177.144 154.134H182.896V159.886H177.144V154.134Z" fill="black"/>
<path d="M205.907 154.134H211.659V159.886H205.907V154.134Z" fill="black"/>
<path d="M211.659 154.134H217.412V159.886H211.659V154.134Z" fill="black"/>
<path d="M223.164 154.134H228.917V159.886H223.164V154.134Z" fill="black"/>
<path d="M39.0833 159.886H44.8359V165.639H39.0833V159.886Z" fill="black"/>
<path d="M44.8359 159.886H50.5884V165.639H44.8359V159.886Z" fill="black"/>
<path d="M50.5884 159.886H56.3409V165.639H50.5884V159.886Z" fill="black"/>
<path d="M56.3409 159.886H62.0934V165.639H56.3409V159.886Z" fill="black"/>
<path d="M67.846 159.886H73.5985V165.639H67.846V159.886Z" fill="black"/>
<path d="M79.351 159.886H85.1035V165.639H79.351V159.886Z" fill="black"/>
<path d="M96.6086 159.886H102.361V165.639H96.6086V159.886Z" fill="black"/>
<path d="M125.371 159.886H131.124V165.639H125.371V159.886Z" fill="black"/>
<path d="M131.124 159.886H136.876V165.639H131.124V159.886Z" fill="black"/>
<path d="M154.134 159.886H159.886V165.639H154.134V159.886Z" fill="black"/>
<path d="M159.886 159.886H165.639V165.639H159.886V159.886Z" fill="black"/>
<path d="M211.659 159.886H217.412V165.639H211.659V159.886Z" fill="black"/>
<path d="M223.164 159.886H228.917V165.639H223.164V159.886Z" fill="black"/>
<path d="M50.5884 165.639H56.3409V171.391H50.5884V165.639Z" fill="black"/>
<path d="M67.846 165.639H73.5985V171.391H67.846V165.639Z" fill="black"/>
<path d="M73.5985 165.639H79.351V171.391H73.5985V165.639Z" fill="black"/>
<path d="M90.8561 165.639H96.6086V171.391H90.8561V165.639Z" fill="black"/>
<path d="M96.6086 165.639H102.361V171.391H96.6086V165.639Z" fill="black"/>
<path d="M102.361 165.639H108.114V171.391H102.361V165.639Z" fill="black"/>
<path d="M108.114 165.639H113.866V171.391H108.114V165.639Z" fill="black"/>
<path d="M131.124 165.639H136.876V171.391H131.124V165.639Z" fill="black"/>
<path d="M165.639 165.639H171.391V171.391H165.639V165.639Z" fill="black"/>
<path d="M171.391 165.639H177.144V171.391H171.391V165.639Z" fill="black"/>
<path d="M177.144 165.639H182.896V171.391H177.144V165.639Z" fill="black"/>
<path d="M182.896 165.639H188.649V171.391H182.896V165.639Z" fill="black"/>
<path d="M188.649 165.639H194.402V171.391H188.649V165.639Z" fill="black"/>
<path d="M194.402 165.639H200.154V171.391H194.402V165.639Z" fill="black"/>
<path d="M211.659 165.639H217.412V171.391H211.659V165.639Z" fill="black"/>
<path d="M217.412 165.639H223.164V171.391H217.412V165.639Z" fill="black"/>
<path d="M223.164 165.639H228.917V171.391H223.164V165.639Z" fill="black"/>
<path d="M44.8359 171.391H50.5884V177.144H44.8359V171.391Z" fill="black"/>
<path d="M50.5884 171.391H56.3409V177.144H50.5884V171.391Z" fill="black"/>
<path d="M56.3409 171.391H62.0934V177.144H56.3409V171.391Z" fill="black"/>
<path d="M62.0934 171.391H67.846V177.144H62.0934V171.391Z" fill="black"/>
<path d="M79.351 171.391H85.1035V177.144H79.351V171.391Z" fill="black"/>
<path d="M85.1035 171.391H90.8561V177.144H85.1035V171.391Z" fill="black"/>
<path d="M113.866 171.391H119.619V177.144H113.866V171.391Z" fill="black"/>
<path d="M119.619 171.391H125.371V177.144H119.619V171.391Z" fill="black"/>
<path d="M125.371 171.391H131.124V177.144H125.371V171.391Z" fill="black"/>
<path d="M142.629 171.391H148.381V177.144H142.629V171.391Z" fill="black"/>
<path d="M148.381 171.391H154.134V177.144H148.381V171.391Z" fill="black"/>
<path d="M165.639 171.391H171.391V177.144H165.639V171.391Z" fill="black"/>
<path d="M177.144 171.391H182.896V177.144H177.144V171.391Z" fill="black"/>
<path d="M205.907 171.391H211.659V177.144H205.907V171.391Z" fill="black"/>
<path d="M217.412 171.391H223.164V177.144H217.412V171.391Z" fill="black"/>
<path d="M39.0833 177.144H44.8359V182.897H39.0833V177.144Z" fill="black"/>
<path d="M50.5884 177.144H56.3409V182.897H50.5884V177.144Z" fill="black"/>
<path d="M73.5985 177.144H79.351V182.897H73.5985V177.144Z" fill="black"/>
<path d="M79.351 177.144H85.1035V182.897H79.351V177.144Z" fill="black"/>
<path d="M85.1035 177.144H90.8561V182.897H85.1035V177.144Z" fill="black"/>
<path d="M96.6086 177.144H102.361V182.897H96.6086V177.144Z" fill="black"/>
<path d="M113.866 177.144H119.619V182.897H113.866V177.144Z" fill="black"/>
<path d="M131.124 177.144H136.876V182.897H131.124V177.144Z" fill="black"/>
<path d="M136.876 177.144H142.629V182.897H136.876V177.144Z" fill="black"/>
<path d="M142.629 177.144H148.381V182.897H142.629V177.144Z" fill="black"/>
<path d="M171.391 177.144H177.144V182.897H171.391V177.144Z" fill="black"/>
<path d="M177.144 177.144H182.896V182.897H177.144V177.144Z" fill="black"/>
<path d="M182.896 177.144H188.649V182.897H182.896V177.144Z" fill="black"/>
<path d="M188.649 177.144H194.402V182.897H188.649V177.144Z" fill="black"/>
<path d="M194.402 177.144H200.154V182.897H194.402V177.144Z" fill="black"/>
<path d="M200.154 177.144H205.907V182.897H200.154V177.144Z" fill="black"/>
<path d="M205.907 177.144H211.659V182.897H205.907V177.144Z" fill="black"/>
<path d="M211.659 177.144H217.412V182.897H211.659V177.144Z" fill="black"/>
<path d="M217.412 177.144H223.164V182.897H217.412V177.144Z" fill="black"/>
<path d="M223.164 177.144H228.917V182.897H223.164V177.144Z" fill="black"/>
<path d="M85.1035 182.897H90.8561V188.649H85.1035V182.897Z" fill="black"/>
<path d="M90.8561 182.897H96.6086V188.649H90.8561V182.897Z" fill="black"/>
<path d="M113.866 182.897H119.619V188.649H113.866V182.897Z" fill="black"/>
<path d="M142.629 182.897H148.381V188.649H142.629V182.897Z" fill="black"/>
<path d="M148.381 182.897H154.134V188.649H148.381V182.897Z" fill="black"/>
<path d="M159.886 182.897H165.639V188.649H159.886V182.897Z" fill="black"/>
<path d="M177.144 182.897H182.896V188.649H177.144V182.897Z" fill="black"/>
<path d="M200.154 182.897H205.907V188.649H200.154V182.897Z" fill="black"/>
<path d="M205.907 182.897H211.659V188.649H205.907V182.897Z" fill="black"/>
<path d="M217.412 182.897H223.164V188.649H217.412V182.897Z" fill="black"/>
<path d="M223.164 182.897H228.917V188.649H223.164V182.897Z" fill="black"/>
<path d="M39.0833 188.649H44.8359V194.402H39.0833V188.649Z" fill="black"/>
<path d="M44.8359 188.649H50.5884V194.402H44.8359V188.649Z" fill="black"/>
<path d="M50.5884 188.649H56.3409V194.402H50.5884V188.649Z" fill="black"/>
<path d="M56.3409 188.649H62.0934V194.402H56.3409V188.649Z" fill="black"/>
<path d="M62.0934 188.649H67.846V194.402H62.0934V188.649Z" fill="black"/>
<path d="M67.846 188.649H73.5985V194.402H67.846V188.649Z" fill="black"/>
<path d="M73.5985 188.649H79.351V194.402H73.5985V188.649Z" fill="black"/>
<path d="M90.8561 188.649H96.6086V194.402H90.8561V188.649Z" fill="black"/>
<path d="M96.6086 188.649H102.361V194.402H96.6086V188.649Z" fill="black"/>
<path d="M102.361 188.649H108.114V194.402H102.361V188.649Z" fill="black"/>
<path d="M125.371 188.649H131.124V194.402H125.371V188.649Z" fill="black"/>
<path d="M131.124 188.649H136.876V194.402H131.124V188.649Z" fill="black"/>
<path d="M142.629 188.649H148.381V194.402H142.629V188.649Z" fill="black"/>
<path d="M148.381 188.649H154.134V194.402H148.381V188.649Z" fill="black"/>
<path d="M154.134 188.649H159.886V194.402H154.134V188.649Z" fill="black"/>
<path d="M165.639 188.649H171.391V194.402H165.639V188.649Z" fill="black"/>
<path d="M171.391 188.649H177.144V194.402H171.391V188.649Z" fill="black"/>
<path d="M177.144 188.649H182.896V194.402H177.144V188.649Z" fill="black"/>
<path d="M188.649 188.649H194.402V194.402H188.649V188.649Z" fill="black"/>
<path d="M200.154 188.649H205.907V194.402H200.154V188.649Z" fill="black"/>
<path d="M39.0833 194.402H44.8359V200.154H39.0833V194.402Z" fill="black"/>
<path d="M73.5985 194.402H79.351V200.154H73.5985V194.402Z" fill="black"/>
<path d="M85.1035 194.402H90.8561V200.154H85.1035V194.402Z" fill="black"/>
<path d="M102.361 194.402H108.114V200.154H102.361V194.402Z" fill="black"/>
<path d="M119.619 194.402H125.371V200.154H119.619V194.402Z" fill="black"/>
<path d="M125.371 194.402H131.124V200.154H125.371V194.402Z" fill="black"/>
<path d="M148.381 194.402H154.134V200.154H148.381V194.402Z" fill="black"/>
<path d="M159.886 194.402H165.639V200.154H159.886V194.402Z" fill="black"/>
<path d="M171.391 194.402H177.144V200.154H171.391V194.402Z" fill="black"/>
<path d="M177.144 194.402H182.896V200.154H177.144V194.402Z" fill="black"/>
<path d="M200.154 194.402H205.907V200.154H200.154V194.402Z" fill="black"/>
<path d="M205.907 194.402H211.659V200.154H205.907V194.402Z" fill="black"/>
<path d="M211.659 194.402H217.412V200.154H211.659V194.402Z" fill="black"/>
<path d="M217.412 194.402H223.164V200.154H217.412V194.402Z" fill="black"/>
<path d="M223.164 194.402H228.917V200.154H223.164V194.402Z" fill="black"/>
<path d="M39.0833 200.154H44.8359V205.907H39.0833V200.154Z" fill="black"/>
<path d="M50.5884 200.154H56.3409V205.907H50.5884V200.154Z" fill="black"/>
<path d="M56.3409 200.154H62.0934V205.907H56.3409V200.154Z" fill="black"/>
<path d="M62.0934 200.154H67.846V205.907H62.0934V200.154Z" fill="black"/>
<path d="M73.5985 200.154H79.351V205.907H73.5985V200.154Z" fill="black"/>
<path d="M90.8561 200.154H96.6086V205.907H90.8561V200.154Z" fill="black"/>
<path d="M96.6086 200.154H102.361V205.907H96.6086V200.154Z" fill="black"/>
<path d="M102.361 200.154H108.114V205.907H102.361V200.154Z" fill="black"/>
<path d="M119.619 200.154H125.371V205.907H119.619V200.154Z" fill="black"/>
<path d="M136.876 200.154H142.629V205.907H136.876V200.154Z" fill="black"/>
<path d="M142.629 200.154H148.381V205.907H142.629V200.154Z" fill="black"/>
<path d="M154.134 200.154H159.886V205.907H154.134V200.154Z" fill="black"/>
<path d="M165.639 200.154H171.391V205.907H165.639V200.154Z" fill="black"/>
<path d="M171.391 200.154H177.144V205.907H171.391V200.154Z" fill="black"/>
<path d="M177.144 200.154H182.896V205.907H177.144V200.154Z" fill="black"/>
<path d="M182.896 200.154H188.649V205.907H182.896V200.154Z" fill="black"/>
<path d="M188.649 200.154H194.402V205.907H188.649V200.154Z" fill="black"/>
<path d="M194.402 200.154H200.154V205.907H194.402V200.154Z" fill="black"/>
<path d="M200.154 200.154H205.907V205.907H200.154V200.154Z" fill="black"/>
<path d="M211.659 200.154H217.412V205.907H211.659V200.154Z" fill="black"/>
<path d="M217.412 200.154H223.164V205.907H217.412V200.154Z" fill="black"/>
<path d="M39.0833 205.907H44.8359V211.659H39.0833V205.907Z" fill="black"/>
<path d="M50.5884 205.907H56.3409V211.659H50.5884V205.907Z" fill="black"/>
<path d="M56.3409 205.907H62.0934V211.659H56.3409V205.907Z" fill="black"/>
<path d="M62.0934 205.907H67.846V211.659H62.0934V205.907Z" fill="black"/>
<path d="M73.5985 205.907H79.351V211.659H73.5985V205.907Z" fill="black"/>
<path d="M85.1035 205.907H90.8561V211.659H85.1035V205.907Z" fill="black"/>
<path d="M90.8561 205.907H96.6086V211.659H90.8561V205.907Z" fill="black"/>
<path d="M96.6086 205.907H102.361V211.659H96.6086V205.907Z" fill="black"/>
<path d="M125.371 205.907H131.124V211.659H125.371V205.907Z" fill="black"/>
<path d="M148.381 205.907H154.134V211.659H148.381V205.907Z" fill="black"/>
<path d="M154.134 205.907H159.886V211.659H154.134V205.907Z" fill="black"/>
<path d="M159.886 205.907H165.639V211.659H159.886V205.907Z" fill="black"/>
<path d="M165.639 205.907H171.391V211.659H165.639V205.907Z" fill="black"/>
<path d="M177.144 205.907H182.896V211.659H177.144V205.907Z" fill="black"/>
<path d="M182.896 205.907H188.649V211.659H182.896V205.907Z" fill="black"/>
<path d="M194.402 205.907H200.154V211.659H194.402V205.907Z" fill="black"/>
<path d="M205.907 205.907H211.659V211.659H205.907V205.907Z" fill="black"/>
<path d="M217.412 205.907H223.164V211.659H217.412V205.907Z" fill="black"/>
<path d="M223.164 205.907H228.917V211.659H223.164V205.907Z" fill="black"/>
<path d="M39.0833 211.659H44.8359V217.412H39.0833V211.659Z" fill="black"/>
<path d="M50.5884 211.659H56.3409V217.412H50.5884V211.659Z" fill="black"/>
<path d="M56.3409 211.659H62.0934V217.412H56.3409V211.659Z" fill="black"/>
<path d="M62.0934 211.659H67.846V217.412H62.0934V211.659Z" fill="black"/>
<path d="M73.5985 211.659H79.351V217.412H73.5985V211.659Z" fill="black"/>
<path d="M85.1035 211.659H90.8561V217.412H85.1035V211.659Z" fill="black"/>
<path d="M96.6086 211.659H102.361V217.412H96.6086V211.659Z" fill="black"/>
<path d="M102.361 211.659H108.114V217.412H102.361V211.659Z" fill="black"/>
<path d="M108.114 211.659H113.866V217.412H108.114V211.659Z" fill="black"/>
<path d="M119.619 211.659H125.371V217.412H119.619V211.659Z" fill="black"/>
<path d="M125.371 211.659H131.124V217.412H125.371V211.659Z" fill="black"/>
<path d="M136.876 211.659H142.629V217.412H136.876V211.659Z" fill="black"/>
<path d="M142.629 211.659H148.381V217.412H142.629V211.659Z" fill="black"/>
<path d="M165.639 211.659H171.391V217.412H165.639V211.659Z" fill="black"/>
<path d="M171.391 211.659H177.144V217.412H171.391V211.659Z" fill="black"/>
<path d="M188.649 211.659H194.402V217.412H188.649V211.659Z" fill="black"/>
<path d="M194.402 211.659H200.154V217.412H194.402V211.659Z" fill="black"/>
<path d="M39.0833 217.412H44.8359V223.164H39.0833V217.412Z" fill="black"/>
<path d="M73.5985 217.412H79.351V223.164H73.5985V217.412Z" fill="black"/>
<path d="M85.1035 217.412H90.8561V223.164H85.1035V217.412Z" fill="black"/>
<path d="M90.8561 217.412H96.6086V223.164H90.8561V217.412Z" fill="black"/>
<path d="M96.6086 217.412H102.361V223.164H96.6086V217.412Z" fill="black"/>
<path d="M113.866 217.412H119.619V223.164H113.866V217.412Z" fill="black"/>
<path d="M119.619 217.412H125.371V223.164H119.619V217.412Z" fill="black"/>
<path d="M136.876 217.412H142.629V223.164H136.876V217.412Z" fill="black"/>
<path d="M142.629 217.412H148.381V223.164H142.629V217.412Z" fill="black"/>
<path d="M148.381 217.412H154.134V223.164H148.381V217.412Z" fill="black"/>
<path d="M154.134 217.412H159.886V223.164H154.134V217.412Z" fill="black"/>
<path d="M171.391 217.412H177.144V223.164H171.391V217.412Z" fill="black"/>
<path d="M177.144 217.412H182.896V223.164H177.144V217.412Z" fill="black"/>
<path d="M182.896 217.412H188.649V223.164H182.896V217.412Z" fill="black"/>
<path d="M194.402 217.412H200.154V223.164H194.402V217.412Z" fill="black"/>
<path d="M200.154 217.412H205.907V223.164H200.154V217.412Z" fill="black"/>
<path d="M223.164 217.412H228.917V223.164H223.164V217.412Z" fill="black"/>
<path d="M39.0833 223.164H44.8359V228.917H39.0833V223.164Z" fill="black"/>
<path d="M44.8359 223.164H50.5884V228.917H44.8359V223.164Z" fill="black"/>
<path d="M50.5884 223.164H56.3409V228.917H50.5884V223.164Z" fill="black"/>
<path d="M56.3409 223.164H62.0934V228.917H56.3409V223.164Z" fill="black"/>
<path d="M62.0934 223.164H67.846V228.917H62.0934V223.164Z" fill="black"/>
<path d="M67.846 223.164H73.5985V228.917H67.846V223.164Z" fill="black"/>
<path d="M73.5985 223.164H79.351V228.917H73.5985V223.164Z" fill="black"/>
<path d="M113.866 223.164H119.619V228.917H113.866V223.164Z" fill="black"/>
<path d="M131.124 223.164H136.876V228.917H131.124V223.164Z" fill="black"/>
<path d="M136.876 223.164H142.629V228.917H136.876V223.164Z" fill="black"/>
<path d="M142.629 223.164H148.381V228.917H142.629V223.164Z" fill="black"/>
<path d="M159.886 223.164H165.639V228.917H159.886V223.164Z" fill="black"/>
<path d="M200.154 223.164H205.907V228.917H200.154V223.164Z" fill="black"/>
<path d="M205.907 223.164H211.659V228.917H205.907V223.164Z" fill="black"/>
<path d="M211.659 223.164H217.412V228.917H211.659V223.164Z" fill="black"/>
<path d="M44.8359 39.0834H39.0833V44.8359M44.8359 39.0834V44.8359M44.8359 39.0834H50.5884M44.8359 44.8359H39.0833M44.8359 44.8359H50.5884M44.8359 44.8359V50.5884M39.0833 44.8359V50.5884M50.5884 39.0834V44.8359M50.5884 39.0834H56.3409M50.5884 44.8359H56.3409M56.3409 39.0834V44.8359M56.3409 39.0834H62.0934M56.3409 44.8359H62.0934M62.0934 39.0834V44.8359M62.0934 39.0834H67.846M62.0934 44.8359H67.846M67.846 39.0834V44.8359M67.846 39.0834H73.5985M67.846 44.8359H73.5985M73.5985 39.0834V44.8359M73.5985 39.0834H79.351V44.8359M73.5985 44.8359H79.351M73.5985 44.8359V50.5884M79.351 44.8359V50.5884M113.866 44.8359V39.0834H108.114V44.8359M113.866 44.8359H108.114M113.866 44.8359V50.5884M108.114 44.8359H102.361M108.114 44.8359V50.5884M125.371 39.0834H119.619V44.8359H125.371M125.371 39.0834V44.8359M125.371 39.0834H131.124M125.371 44.8359H131.124M131.124 39.0834V44.8359M131.124 39.0834H136.876M131.124 44.8359H136.876M131.124 44.8359V50.5884M136.876 39.0834V44.8359M136.876 39.0834H142.629M136.876 44.8359H142.629M136.876 44.8359V50.5884M142.629 39.0834V44.8359M142.629 39.0834H148.381V44.8359M142.629 44.8359H148.381M142.629 44.8359V50.5884M148.381 44.8359V50.5884H142.629M177.144 44.8359V39.0834H171.391V44.8359M177.144 44.8359H171.391M177.144 44.8359V50.5884M177.144 44.8359H182.896V50.5884H177.144M171.391 44.8359V50.5884M194.402 39.0834H188.649V44.8359M194.402 39.0834V44.8359M194.402 39.0834H200.154M194.402 44.8359H188.649M194.402 44.8359H200.154M194.402 44.8359V50.5884M188.649 44.8359V50.5884M200.154 39.0834V44.8359M200.154 39.0834H205.907M200.154 44.8359H205.907M205.907 39.0834V44.8359M205.907 39.0834H211.659M205.907 44.8359H211.659M211.659 39.0834V44.8359M211.659 39.0834H217.412M211.659 44.8359H217.412M217.412 39.0834V44.8359M217.412 39.0834H223.164M217.412 44.8359H223.164M223.164 39.0834V44.8359M223.164 39.0834H228.917V44.8359M223.164 44.8359H228.917M223.164 44.8359V50.5884M228.917 44.8359V50.5884M44.8359 50.5884H39.0833M44.8359 50.5884V56.341M39.0833 50.5884V56.341M79.351 50.5884H73.5985M79.351 50.5884V56.341M73.5985 50.5884V56.341M90.8561 50.5884V44.8359H85.1035V50.5884M90.8561 50.5884H85.1035M90.8561 50.5884V56.341M90.8561 50.5884H96.6086M85.1035 50.5884V56.341H90.8561M102.361 44.8359H96.6086V50.5884M102.361 44.8359V50.5884M102.361 50.5884H96.6086M102.361 50.5884H108.114M96.6086 50.5884V56.341M108.114 50.5884H113.866M113.866 50.5884H119.619M113.866 50.5884V56.341M136.876 50.5884H131.124M136.876 50.5884V56.341M136.876 50.5884H142.629M131.124 50.5884H125.371M131.124 50.5884V56.341M142.629 50.5884V56.341H136.876M177.144 50.5884H171.391M177.144 50.5884V56.341M171.391 50.5884H165.639V56.341M171.391 50.5884V56.341M194.402 50.5884H188.649M194.402 50.5884V56.341M188.649 50.5884V56.341M228.917 50.5884H223.164M228.917 50.5884V56.341M223.164 50.5884V56.341M44.8359 56.341H39.0833M44.8359 56.341V62.0935M39.0833 56.341V62.0935M56.3409 50.5884H50.5884V56.341M56.3409 50.5884V56.341M56.3409 50.5884H62.0934M56.3409 56.341H50.5884M56.3409 56.341H62.0934M56.3409 56.341V62.0935M50.5884 56.341V62.0935M62.0934 50.5884V56.341M62.0934 50.5884H67.846V56.341M62.0934 56.341H67.846M62.0934 56.341V62.0935M67.846 56.341V62.0935M79.351 56.341H73.5985M79.351 56.341V62.0935M73.5985 56.341V62.0935M90.8561 56.341H96.6086M90.8561 56.341V62.0935M96.6086 56.341V62.0935M119.619 50.5884V56.341M119.619 50.5884H125.371M119.619 56.341H113.866M119.619 56.341H125.371M119.619 56.341V62.0935M113.866 56.341V62.0935M125.371 50.5884V56.341M125.371 56.341H131.124M125.371 56.341V62.0935M131.124 56.341H136.876M154.134 56.341H159.886V50.5884H154.134V56.341ZM154.134 56.341H148.381V62.0935H154.134M154.134 56.341V62.0935M171.391 56.341H165.639M171.391 56.341H177.144M171.391 56.341V62.0935M165.639 56.341V62.0935M177.144 56.341H182.896V62.0935M177.144 56.341V62.0935M194.402 56.341H188.649M194.402 56.341V62.0935M188.649 56.341V62.0935M205.907 50.5884H200.154V56.341M205.907 50.5884V56.341M205.907 50.5884H211.659M205.907 56.341H200.154M205.907 56.341H211.659M205.907 56.341V62.0935M200.154 56.341V62.0935M211.659 50.5884V56.341M211.659 50.5884H217.412V56.341M211.659 56.341H217.412M211.659 56.341V62.0935M217.412 56.341V62.0935M228.917 56.341H223.164M228.917 56.341V62.0935M223.164 56.341V62.0935M44.8359 62.0935H39.0833M44.8359 62.0935V67.846M39.0833 62.0935V67.846M56.3409 62.0935H50.5884M56.3409 62.0935H62.0934M56.3409 62.0935V67.846M50.5884 62.0935V67.846H56.3409M62.0934 62.0935H67.846M62.0934 62.0935V67.846M67.846 62.0935V67.846H62.0934M79.351 62.0935H73.5985M79.351 62.0935V67.846M73.5985 62.0935V67.846M96.6086 62.0935H90.8561M96.6086 62.0935V67.846M96.6086 62.0935H102.361V67.846M90.8561 62.0935V67.846M119.619 62.0935H113.866M119.619 62.0935H125.371M119.619 62.0935V67.846M113.866 62.0935H108.114V67.846M113.866 62.0935V67.846M125.371 62.0935H131.124M125.371 62.0935V67.846M154.134 62.0935H159.886M154.134 62.0935V67.846M171.391 62.0935H165.639M171.391 62.0935H177.144M171.391 62.0935V67.846M165.639 62.0935H159.886M165.639 62.0935V67.846M182.896 62.0935H177.144M182.896 62.0935V67.846M177.144 62.0935V67.846M194.402 62.0935H188.649M194.402 62.0935V67.846M188.649 62.0935V67.846M205.907 62.0935H200.154M205.907 62.0935H211.659M205.907 62.0935V67.846M200.154 62.0935V67.846H205.907M211.659 62.0935H217.412M211.659 62.0935V67.846M217.412 62.0935V67.846H211.659M228.917 62.0935H223.164M228.917 62.0935V67.846M223.164 62.0935V67.846M44.8359 67.846H39.0833M44.8359 67.846V73.5985M39.0833 67.846V73.5985M56.3409 67.846H62.0934M79.351 67.846H73.5985M79.351 67.846V73.5985M73.5985 67.846V73.5985M96.6086 67.846H90.8561M96.6086 67.846H102.361M96.6086 67.846V73.5985M90.8561 67.846V73.5985M102.361 67.846V73.5985M102.361 67.846H108.114M113.866 67.846H108.114M113.866 67.846H119.619M113.866 67.846V73.5985M108.114 67.846V73.5985M119.619 67.846V73.5985M131.124 62.0935V67.846M131.124 62.0935H136.876V67.846M131.124 67.846H125.371M131.124 67.846H136.876M131.124 67.846V73.5985M125.371 67.846V73.5985M136.876 67.846V73.5985M159.886 62.0935V67.846M159.886 67.846H154.134M159.886 67.846H165.639M159.886 67.846V73.5985M154.134 67.846H148.381M154.134 67.846V73.5985M165.639 67.846H171.391M165.639 67.846V73.5985M177.144 67.846H171.391M177.144 67.846H182.896M177.144 67.846V73.5985M171.391 67.846V73.5985M182.896 67.846V73.5985M194.402 67.846H188.649M194.402 67.846V73.5985M188.649 67.846V73.5985M205.907 67.846H211.659M228.917 67.846H223.164M228.917 67.846V73.5985M223.164 67.846V73.5985M44.8359 73.5985H39.0833M44.8359 73.5985V79.3511M44.8359 73.5985H50.5884M39.0833 73.5985V79.3511H44.8359M79.351 73.5985H73.5985M79.351 73.5985V79.3511H73.5985M73.5985 73.5985H67.846M73.5985 73.5985V79.3511M96.6086 73.5985H90.8561M96.6086 73.5985H102.361M96.6086 73.5985V79.3511H102.361M90.8561 73.5985H85.1035V79.3511H90.8561V73.5985ZM102.361 73.5985H108.114M102.361 73.5985V79.3511M108.114 73.5985H113.866M108.114 73.5985V79.3511M113.866 73.5985H119.619M113.866 73.5985V79.3511M119.619 73.5985H125.371M119.619 73.5985V79.3511H125.371V73.5985M131.124 73.5985H125.371M131.124 73.5985H136.876M131.124 73.5985V79.3511H136.876M136.876 73.5985V79.3511M148.381 67.846H142.629V73.5985M148.381 67.846V73.5985M148.381 73.5985H142.629M148.381 73.5985H154.134M148.381 73.5985V79.3511M142.629 73.5985V79.3511M154.134 73.5985H159.886M154.134 73.5985V79.3511M159.886 73.5985V79.3511M171.391 73.5985H165.639M171.391 73.5985V79.3511M165.639 73.5985V79.3511H171.391M182.896 73.5985H177.144M182.896 73.5985V79.3511H177.144M177.144 73.5985V79.3511M194.402 73.5985H188.649M194.402 73.5985V79.3511M194.402 73.5985H200.154M188.649 73.5985V79.3511H194.402M228.917 73.5985H223.164M228.917 73.5985V79.3511H223.164M223.164 73.5985H217.412M223.164 73.5985V79.3511M44.8359 79.3511H50.5884M50.5884 73.5985V79.3511M50.5884 73.5985H56.3409M50.5884 79.3511H56.3409M56.3409 73.5985V79.3511M56.3409 73.5985H62.0934M56.3409 79.3511H62.0934M62.0934 73.5985V79.3511M62.0934 73.5985H67.846M62.0934 79.3511H67.846M67.846 73.5985V79.3511M67.846 79.3511H73.5985M102.361 79.3511H108.114M102.361 79.3511V85.1036H108.114M113.866 79.3511H108.114M113.866 79.3511V85.1036M108.114 79.3511V85.1036M136.876 79.3511H142.629M136.876 79.3511V85.1036H142.629M148.381 79.3511H142.629M148.381 79.3511V85.1036M148.381 79.3511H154.134M142.629 79.3511V85.1036M159.886 79.3511H154.134M159.886 79.3511V85.1036M154.134 79.3511V85.1036M171.391 79.3511H177.144M171.391 79.3511V85.1036H177.144V79.3511M194.402 79.3511H200.154M200.154 73.5985V79.3511M200.154 73.5985H205.907M200.154 79.3511H205.907M205.907 73.5985V79.3511M205.907 73.5985H211.659M205.907 79.3511H211.659M211.659 73.5985V79.3511M211.659 73.5985H217.412M211.659 79.3511H217.412M217.412 73.5985V79.3511M217.412 79.3511H223.164M108.114 85.1036H113.866M108.114 85.1036V90.8561M113.866 85.1036V90.8561M113.866 85.1036H119.619M142.629 85.1036H148.381M142.629 85.1036V90.8561M148.381 85.1036H154.134M148.381 85.1036V90.8561M154.134 85.1036H159.886M154.134 85.1036V90.8561M159.886 85.1036H165.639V90.8561H159.886V85.1036ZM50.5884 85.1036H44.8359V90.8561M50.5884 85.1036V90.8561M50.5884 85.1036H56.3409M50.5884 90.8561H44.8359M50.5884 90.8561H56.3409M44.8359 90.8561H39.0833V96.6086M44.8359 90.8561V96.6086M56.3409 85.1036V90.8561M56.3409 85.1036H62.0934V90.8561M56.3409 90.8561H62.0934M56.3409 90.8561V96.6086M62.0934 90.8561V96.6086M73.5985 85.1036H67.846V90.8561H73.5985M73.5985 85.1036V90.8561M73.5985 85.1036H79.351V90.8561M73.5985 90.8561H79.351M79.351 90.8561H85.1035V96.6086H79.351M79.351 90.8561V96.6086M113.866 90.8561H108.114M113.866 90.8561H119.619M113.866 90.8561V96.6086M108.114 90.8561H102.361V96.6086M108.114 90.8561V96.6086M119.619 85.1036V90.8561M119.619 85.1036H125.371M119.619 90.8561H125.371M119.619 90.8561V96.6086H125.371M125.371 85.1036V90.8561M125.371 85.1036H131.124V90.8561M125.371 90.8561H131.124M125.371 90.8561V96.6086M131.124 90.8561V96.6086M148.381 90.8561H142.629M148.381 90.8561H154.134M148.381 90.8561V96.6086M142.629 90.8561V96.6086M154.134 90.8561V96.6086H148.381M217.412 85.1036H211.659V90.8561M217.412 85.1036V90.8561M217.412 85.1036H223.164V90.8561M217.412 90.8561H211.659M217.412 90.8561H223.164M217.412 90.8561V96.6086M211.659 90.8561H205.907V96.6086M211.659 90.8561V96.6086M223.164 90.8561V96.6086M223.164 90.8561H228.917V96.6086M44.8359 96.6086H39.0833M44.8359 96.6086V102.361M39.0833 96.6086V102.361M62.0934 96.6086H56.3409M62.0934 96.6086H67.846V102.361H62.0934V96.6086ZM56.3409 96.6086H50.5884V102.361H56.3409V96.6086ZM79.351 96.6086H73.5985V102.361H79.351V96.6086ZM108.114 96.6086H102.361M108.114 96.6086H113.866M108.114 96.6086V102.361M102.361 96.6086V102.361H108.114M113.866 96.6086V102.361H108.114M125.371 96.6086H131.124M131.124 96.6086H136.876M131.124 96.6086V102.361H136.876M148.381 96.6086H142.629M142.629 96.6086H136.876M142.629 96.6086V102.361M177.144 96.6086V90.8561H171.391V96.6086M177.144 96.6086H171.391M177.144 96.6086V102.361M177.144 96.6086H182.896V102.361M171.391 96.6086H165.639V102.361H171.391M171.391 96.6086V102.361M194.402 90.8561H188.649V96.6086M194.402 90.8561V96.6086M194.402 90.8561H200.154V96.6086M194.402 96.6086H188.649M194.402 96.6086H200.154M194.402 96.6086V102.361M188.649 96.6086V102.361H194.402M200.154 96.6086V102.361M200.154 96.6086H205.907M211.659 96.6086H205.907M211.659 96.6086H217.412M211.659 96.6086V102.361M205.907 96.6086V102.361M217.412 96.6086H223.164M223.164 96.6086H228.917M223.164 96.6086V102.361M228.917 96.6086V102.361H223.164M44.8359 102.361H39.0833M44.8359 102.361V108.114M39.0833 102.361V108.114M136.876 96.6086V102.361M136.876 102.361H142.629M142.629 102.361H148.381M142.629 102.361V108.114H148.381M171.391 102.361H177.144M177.144 102.361H182.896M177.144 102.361V108.114H182.896M182.896 102.361V108.114M194.402 102.361H200.154M194.402 102.361V108.114H200.154M200.154 102.361H205.907M200.154 102.361V108.114M205.907 102.361H211.659M205.907 102.361V108.114M211.659 102.361V108.114M223.164 102.361H217.412V108.114M223.164 102.361V108.114M44.8359 108.114H39.0833M44.8359 108.114V113.866M44.8359 108.114H50.5884V113.866H44.8359M39.0833 108.114V113.866H44.8359M90.8561 108.114V102.361H85.1035V108.114M90.8561 108.114H85.1035M90.8561 108.114V113.866M90.8561 108.114H96.6086M85.1035 108.114H79.351M85.1035 108.114V113.866M148.381 102.361V108.114M148.381 102.361H154.134M148.381 108.114H154.134M154.134 102.361V108.114M154.134 102.361H159.886V108.114H154.134M182.896 108.114H188.649V113.866H182.896M182.896 108.114V113.866M200.154 108.114H205.907M200.154 108.114V113.866H205.907M211.659 108.114H205.907M211.659 108.114V113.866M205.907 108.114V113.866M223.164 108.114H217.412M223.164 108.114V113.866M217.412 108.114V113.866M62.0934 113.866V108.114H56.3409V113.866M62.0934 113.866H56.3409M62.0934 113.866V119.619M56.3409 113.866V119.619M73.5985 108.114H67.846V113.866H73.5985M73.5985 108.114V113.866M73.5985 108.114H79.351M73.5985 113.866H79.351M79.351 108.114V113.866M79.351 113.866H85.1035M79.351 113.866V119.619M85.1035 113.866H90.8561M85.1035 113.866V119.619M90.8561 113.866H96.6086M96.6086 108.114V113.866M96.6086 108.114H102.361V113.866M96.6086 113.866H102.361M102.361 113.866H108.114V119.619H102.361M102.361 113.866V119.619M171.391 113.866V108.114H165.639V113.866H171.391ZM171.391 113.866H177.144M171.391 113.866V119.619M182.896 113.866H177.144M182.896 113.866V119.619H177.144M205.907 113.866H211.659M205.907 113.866V119.619M211.659 113.866V119.619M223.164 113.866H217.412M223.164 113.866V119.619H217.412V113.866M62.0934 119.619H56.3409M62.0934 119.619V125.371M56.3409 119.619V125.371M85.1035 119.619H79.351M85.1035 119.619H90.8561V125.371H85.1035V119.619ZM79.351 119.619H73.5985M79.351 119.619V125.371H73.5985M102.361 119.619H96.6086V125.371H102.361V119.619ZM177.144 113.866V119.619M177.144 119.619H171.391M171.391 119.619H165.639V125.371M171.391 119.619V125.371M211.659 119.619H205.907M211.659 119.619V125.371M205.907 119.619H200.154M205.907 119.619V125.371M44.8359 125.371V119.619H39.0833V125.371M44.8359 125.371H39.0833M44.8359 125.371V131.124H39.0833V125.371M62.0934 125.371H56.3409M62.0934 125.371V131.124H56.3409V125.371M73.5985 119.619H67.846V125.371H73.5985M73.5985 119.619V125.371M171.391 125.371H165.639M171.391 125.371V131.124M171.391 125.371H177.144M165.639 125.371H159.886V131.124M165.639 125.371V131.124M194.402 119.619H188.649V125.371M194.402 119.619V125.371M194.402 119.619H200.154M194.402 125.371H188.649M194.402 125.371H200.154M194.402 125.371V131.124M188.649 125.371H182.896M188.649 125.371V131.124M200.154 119.619V125.371M200.154 125.371H205.907M200.154 125.371V131.124M205.907 125.371H211.659M205.907 125.371V131.124M211.659 125.371V131.124M211.659 125.371H217.412V131.124H211.659M165.639 131.124H159.886M165.639 131.124H171.391M165.639 131.124V136.876M159.886 131.124V136.876H165.639M171.391 131.124H177.144M171.391 131.124V136.876M177.144 125.371V131.124M177.144 125.371H182.896M177.144 131.124H182.896M177.144 131.124V136.876M182.896 125.371V131.124M182.896 131.124H188.649M182.896 131.124V136.876M188.649 131.124H194.402M188.649 131.124V136.876M194.402 131.124H200.154M194.402 131.124V136.876M200.154 131.124H205.907M200.154 131.124V136.876M205.907 131.124H211.659M205.907 131.124V136.876M73.5985 131.124H67.846V136.876M73.5985 131.124V136.876M73.5985 131.124H79.351V136.876M73.5985 136.876H67.846M73.5985 136.876H79.351M67.846 136.876H62.0934V142.629M67.846 136.876V142.629H62.0934M79.351 136.876H85.1035V142.629M79.351 136.876V142.629M108.114 136.876V131.124H102.361V136.876M108.114 136.876H102.361M108.114 136.876V142.629M102.361 136.876H96.6086V142.629H102.361M102.361 136.876V142.629M165.639 136.876H171.391M171.391 136.876H177.144M171.391 136.876V142.629M177.144 136.876V142.629M177.144 136.876H182.896M188.649 136.876H182.896M188.649 136.876H194.402M188.649 136.876V142.629M182.896 136.876V142.629H177.144M194.402 136.876V142.629M205.907 136.876H200.154M205.907 136.876V142.629M205.907 136.876H211.659V142.629M200.154 136.876V142.629M44.8359 142.629V136.876H39.0833V142.629H44.8359ZM44.8359 142.629H50.5884M44.8359 142.629V148.381M56.3409 142.629V136.876H50.5884V142.629M56.3409 142.629H50.5884M56.3409 142.629V148.381M56.3409 142.629H62.0934M50.5884 142.629V148.381M62.0934 142.629V148.381M85.1035 142.629H79.351M85.1035 142.629V148.381M79.351 142.629H73.5985V148.381M79.351 142.629V148.381M102.361 142.629H108.114M102.361 142.629V148.381M108.114 142.629V148.381M177.144 142.629H171.391M171.391 142.629H165.639M171.391 142.629V148.381H165.639M194.402 142.629H188.649M194.402 142.629V148.381M194.402 142.629H200.154M188.649 142.629V148.381M205.907 142.629H200.154M205.907 142.629H211.659M205.907 142.629V148.381M200.154 142.629V148.381M211.659 142.629H217.412V148.381M211.659 142.629V148.381H217.412M50.5884 148.381H44.8359M50.5884 148.381H56.3409M44.8359 148.381H39.0833V154.134H44.8359M44.8359 148.381V154.134M56.3409 148.381H62.0934M56.3409 148.381V154.134M62.0934 148.381V154.134M79.351 148.381H73.5985M79.351 148.381H85.1035M73.5985 148.381H67.846V154.134M73.5985 148.381V154.134M85.1035 148.381H90.8561V154.134M85.1035 148.381V154.134M108.114 148.381H102.361M108.114 148.381V154.134H102.361V148.381M165.639 142.629H159.886V148.381H165.639M165.639 142.629V148.381M194.402 148.381H188.649M194.402 148.381H200.154M194.402 148.381V154.134H188.649M188.649 148.381H182.896M188.649 148.381V154.134M200.154 148.381H205.907M200.154 148.381V154.134H205.907M205.907 148.381V154.134M217.412 148.381H223.164V154.134M217.412 148.381V154.134M44.8359 154.134H50.5884M44.8359 154.134V159.886M62.0934 154.134H56.3409M62.0934 154.134V159.886M62.0934 154.134H67.846M56.3409 154.134H50.5884M56.3409 154.134V159.886M73.5985 154.134H67.846M73.5985 154.134V159.886M73.5985 154.134H79.351V159.886M67.846 154.134V159.886M90.8561 154.134H85.1035M90.8561 154.134V159.886H85.1035M85.1035 154.134V159.886M182.896 148.381H177.144V154.134M182.896 148.381V154.134M182.896 154.134H177.144M182.896 154.134H188.649M182.896 154.134V159.886H177.144V154.134M205.907 154.134H211.659M205.907 154.134V159.886H211.659M223.164 154.134H217.412M223.164 154.134H228.917V159.886M223.164 154.134V159.886M217.412 154.134H211.659M217.412 154.134V159.886M50.5884 154.134V159.886M50.5884 159.886H44.8359M50.5884 159.886H56.3409M50.5884 159.886V165.639M44.8359 159.886H39.0833V165.639H44.8359M44.8359 159.886V165.639M56.3409 159.886H62.0934M56.3409 159.886V165.639M62.0934 159.886H67.846M62.0934 159.886V165.639H56.3409M67.846 159.886H73.5985M67.846 159.886V165.639M73.5985 159.886H79.351M73.5985 159.886V165.639M79.351 159.886H85.1035M79.351 159.886V165.639M85.1035 159.886V165.639H79.351M165.639 159.886V154.134H159.886V159.886M165.639 159.886H159.886M165.639 159.886V165.639M159.886 159.886H154.134V165.639H159.886M159.886 159.886V165.639M211.659 154.134V159.886M211.659 159.886H217.412M211.659 159.886V165.639M217.412 159.886V165.639M228.917 159.886H223.164M228.917 159.886V165.639M223.164 159.886V165.639M44.8359 165.639H50.5884M50.5884 165.639H56.3409M50.5884 165.639V171.391M56.3409 165.639V171.391M73.5985 165.639H67.846M73.5985 165.639V171.391M73.5985 165.639H79.351M67.846 165.639V171.391M79.351 165.639V171.391M102.361 165.639V159.886H96.6086V165.639M102.361 165.639H96.6086M102.361 165.639V171.391M102.361 165.639H108.114M96.6086 165.639H90.8561V171.391M96.6086 165.639V171.391M131.124 159.886H125.371V165.639H131.124M131.124 159.886V165.639M131.124 159.886H136.876V165.639M131.124 165.639H136.876M131.124 165.639V171.391M136.876 165.639V171.391H131.124M159.886 165.639H165.639M165.639 165.639H171.391M165.639 165.639V171.391M217.412 165.639H211.659M217.412 165.639V171.391M217.412 165.639H223.164M211.659 165.639V171.391M228.917 165.639H223.164M228.917 165.639V171.391H223.164M223.164 165.639V171.391M56.3409 171.391H50.5884M56.3409 171.391V177.144M56.3409 171.391H62.0934M50.5884 171.391H44.8359V177.144M50.5884 171.391V177.144M73.5985 171.391H67.846M73.5985 171.391H79.351M67.846 171.391H62.0934M67.846 171.391V177.144H62.0934M79.351 171.391H85.1035M79.351 171.391V177.144M96.6086 171.391H90.8561M96.6086 171.391H102.361M90.8561 171.391H85.1035M90.8561 171.391V177.144M102.361 171.391H108.114M108.114 165.639V171.391M108.114 165.639H113.866V171.391M108.114 171.391H113.866M113.866 171.391H119.619M113.866 171.391V177.144M131.124 171.391H125.371M131.124 171.391V177.144M171.391 165.639V171.391M171.391 165.639H177.144M171.391 171.391H165.639M171.391 171.391H177.144M171.391 171.391V177.144M165.639 171.391V177.144H171.391M177.144 165.639V171.391M177.144 165.639H182.896M177.144 171.391H182.896M177.144 171.391V177.144M182.896 165.639V171.391M182.896 165.639H188.649M182.896 171.391H188.649M182.896 171.391V177.144M188.649 165.639V171.391M188.649 165.639H194.402M188.649 171.391H194.402M194.402 165.639V171.391M194.402 165.639H200.154V171.391H194.402M217.412 171.391H211.659M217.412 171.391H223.164M217.412 171.391V177.144M211.659 171.391H205.907V177.144M211.659 171.391V177.144M223.164 171.391V177.144M50.5884 177.144H44.8359M50.5884 177.144H56.3409M50.5884 177.144V182.897H56.3409V177.144M44.8359 177.144H39.0833V182.897H44.8359V177.144ZM56.3409 177.144H62.0934M62.0934 171.391V177.144M85.1035 171.391V177.144M85.1035 177.144H79.351M85.1035 177.144H90.8561M85.1035 177.144V182.897M79.351 177.144H73.5985V182.897H79.351M79.351 177.144V182.897M90.8561 177.144V182.897M119.619 171.391V177.144M119.619 171.391H125.371M119.619 177.144H113.866M119.619 177.144H125.371M119.619 177.144V182.897M113.866 177.144V182.897M125.371 171.391V177.144M125.371 177.144H131.124M131.124 177.144H136.876M131.124 177.144V182.897H136.876M148.381 171.391H142.629V177.144M148.381 171.391V177.144M148.381 171.391H154.134V177.144H148.381M148.381 177.144H142.629M148.381 177.144V182.897M142.629 177.144H136.876M142.629 177.144V182.897M171.391 177.144H177.144M171.391 177.144V182.897H177.144M182.896 177.144H177.144M182.896 177.144V182.897M182.896 177.144H188.649M177.144 177.144V182.897M211.659 177.144H205.907M211.659 177.144V182.897M211.659 177.144H217.412M205.907 177.144H200.154M205.907 177.144V182.897M223.164 177.144H217.412M223.164 177.144V182.897M223.164 177.144H228.917V182.897M217.412 177.144V182.897M79.351 182.897H85.1035M85.1035 182.897H90.8561M85.1035 182.897V188.649H90.8561M90.8561 182.897V188.649M90.8561 182.897H96.6086M96.6086 182.897H102.361V177.144H96.6086V182.897ZM96.6086 182.897V188.649M119.619 182.897H113.866M119.619 182.897V188.649H113.866V182.897M136.876 177.144V182.897M136.876 182.897H142.629M142.629 182.897H148.381M142.629 182.897V188.649M148.381 182.897V188.649M148.381 182.897H154.134V188.649M177.144 182.897H182.896M177.144 182.897V188.649M182.896 182.897H188.649M182.896 182.897V188.649M188.649 177.144V182.897M188.649 177.144H194.402M188.649 182.897H194.402M194.402 177.144V182.897M194.402 177.144H200.154M194.402 182.897H200.154M200.154 177.144V182.897M200.154 182.897H205.907M200.154 182.897V188.649M205.907 182.897H211.659M205.907 182.897V188.649M211.659 182.897H217.412M211.659 182.897V188.649H205.907M217.412 182.897H223.164M217.412 182.897V188.649H223.164M223.164 182.897H228.917M223.164 182.897V188.649M228.917 182.897V188.649H223.164M90.8561 188.649H96.6086M90.8561 188.649V194.402M96.6086 188.649V194.402M96.6086 188.649H102.361M148.381 188.649H142.629M148.381 188.649H154.134M148.381 188.649V194.402M142.629 188.649V194.402H148.381M154.134 188.649V194.402M154.134 188.649H159.886M165.639 188.649V182.897H159.886V188.649M165.639 188.649H159.886M165.639 188.649H171.391M165.639 188.649V194.402M159.886 188.649V194.402M182.896 188.649H177.144M182.896 188.649V194.402M177.144 188.649H171.391M177.144 188.649V194.402M205.907 188.649H200.154M205.907 188.649V194.402M200.154 188.649V194.402M44.8359 188.649H39.0833V194.402M44.8359 188.649V194.402M44.8359 188.649H50.5884M44.8359 194.402H39.0833M44.8359 194.402H50.5884M44.8359 194.402V200.154M39.0833 194.402V200.154M50.5884 188.649V194.402M50.5884 188.649H56.3409M50.5884 194.402H56.3409M56.3409 188.649V194.402M56.3409 188.649H62.0934M56.3409 194.402H62.0934M62.0934 188.649V194.402M62.0934 188.649H67.846M62.0934 194.402H67.846M67.846 188.649V194.402M67.846 188.649H73.5985M67.846 194.402H73.5985M73.5985 188.649V194.402M73.5985 188.649H79.351V194.402M73.5985 194.402H79.351M73.5985 194.402V200.154M79.351 194.402V200.154M96.6086 194.402H90.8561M96.6086 194.402H102.361M90.8561 194.402H85.1035V200.154H90.8561M90.8561 194.402V200.154M102.361 188.649V194.402M102.361 188.649H108.114V194.402M102.361 194.402H108.114M102.361 194.402V200.154M108.114 194.402V200.154M131.124 188.649H125.371V194.402M131.124 188.649V194.402M131.124 188.649H136.876V194.402H131.124M131.124 194.402H125.371M131.124 194.402V200.154H125.371M125.371 194.402H119.619V200.154M125.371 194.402V200.154M148.381 194.402H154.134M148.381 194.402V200.154M154.134 194.402H159.886M154.134 194.402V200.154M159.886 194.402H165.639M159.886 194.402V200.154M171.391 188.649V194.402M171.391 194.402H165.639M171.391 194.402H177.144M171.391 194.402V200.154M165.639 194.402V200.154M177.144 194.402H182.896M177.144 194.402V200.154M182.896 194.402V200.154M205.907 194.402H200.154M205.907 194.402V200.154M205.907 194.402H211.659M200.154 194.402V200.154M44.8359 200.154H39.0833M44.8359 200.154V205.907M39.0833 200.154V205.907M79.351 200.154H73.5985M79.351 200.154V205.907M73.5985 200.154V205.907M90.8561 200.154H96.6086M90.8561 200.154V205.907M108.114 200.154H102.361M108.114 200.154V205.907H102.361M102.361 200.154H96.6086M102.361 200.154V205.907M125.371 200.154H119.619M125.371 200.154V205.907M119.619 200.154V205.907H125.371M154.134 200.154H148.381M154.134 200.154H159.886M154.134 200.154V205.907M148.381 200.154H142.629M148.381 200.154V205.907M165.639 200.154H159.886M165.639 200.154H171.391M165.639 200.154V205.907M159.886 200.154V205.907M177.144 200.154H171.391M177.144 200.154H182.896M177.144 200.154V205.907M171.391 200.154V205.907M182.896 200.154V205.907M182.896 200.154H188.649M205.907 200.154H200.154M205.907 200.154H211.659M205.907 200.154V205.907M200.154 200.154H194.402M200.154 200.154V205.907M211.659 194.402V200.154M211.659 194.402H217.412M211.659 200.154H217.412M211.659 200.154V205.907M217.412 194.402V200.154M217.412 194.402H223.164M217.412 200.154H223.164M217.412 200.154V205.907M223.164 194.402V200.154M223.164 194.402H228.917V200.154H223.164M223.164 200.154V205.907M44.8359 205.907H39.0833M44.8359 205.907V211.659M39.0833 205.907V211.659M56.3409 200.154H50.5884V205.907M56.3409 200.154V205.907M56.3409 200.154H62.0934M56.3409 205.907H50.5884M56.3409 205.907H62.0934M56.3409 205.907V211.659M50.5884 205.907V211.659M62.0934 200.154V205.907M62.0934 200.154H67.846V205.907M62.0934 205.907H67.846M62.0934 205.907V211.659M67.846 205.907V211.659M79.351 205.907H73.5985M79.351 205.907V211.659M73.5985 205.907V211.659M96.6086 200.154V205.907M96.6086 205.907H90.8561M96.6086 205.907H102.361M96.6086 205.907V211.659M90.8561 205.907H85.1035V211.659M90.8561 205.907V211.659M102.361 205.907V211.659M125.371 205.907H131.124V211.659M125.371 205.907V211.659M142.629 200.154H136.876V205.907H142.629M142.629 200.154V205.907M142.629 205.907H148.381M148.381 205.907H154.134M148.381 205.907V211.659M159.886 205.907H154.134M159.886 205.907V211.659M159.886 205.907H165.639M154.134 205.907V211.659M171.391 205.907H165.639M171.391 205.907H177.144M171.391 205.907V211.659M165.639 205.907V211.659M177.144 205.907H182.896M177.144 205.907V211.659M182.896 205.907H188.649M182.896 205.907V211.659M188.649 200.154V205.907M188.649 200.154H194.402M188.649 205.907H194.402M188.649 205.907V211.659M194.402 200.154V205.907M194.402 205.907H200.154M194.402 205.907V211.659M200.154 205.907H205.907M200.154 205.907V211.659M205.907 205.907H211.659M205.907 205.907V211.659H211.659V205.907M217.412 205.907H211.659M217.412 205.907H223.164M217.412 205.907V211.659H223.164M223.164 205.907V211.659M223.164 205.907H228.917V211.659H223.164M44.8359 211.659H39.0833M44.8359 211.659V217.412M39.0833 211.659V217.412M56.3409 211.659H50.5884M56.3409 211.659H62.0934M56.3409 211.659V217.412M50.5884 211.659V217.412H56.3409M62.0934 211.659H67.846M62.0934 211.659V217.412M67.846 211.659V217.412H62.0934M79.351 211.659H73.5985M79.351 211.659V217.412M73.5985 211.659V217.412M90.8561 211.659H85.1035M90.8561 211.659H96.6086M90.8561 211.659V217.412M85.1035 211.659V217.412M96.6086 211.659H102.361M96.6086 211.659V217.412M102.361 211.659V217.412M102.361 211.659H108.114M131.124 211.659H125.371M131.124 211.659V217.412H125.371M125.371 211.659H119.619V217.412M125.371 211.659V217.412M154.134 211.659H148.381M154.134 211.659H159.886M148.381 211.659H142.629M148.381 211.659V217.412M159.886 211.659H165.639M165.639 211.659H171.391M165.639 211.659V217.412H171.391M171.391 211.659V217.412M171.391 211.659H177.144M182.896 211.659H177.144M182.896 211.659H188.649M177.144 211.659V217.412M188.649 211.659H194.402M188.649 211.659V217.412M200.154 211.659H194.402M200.154 211.659V217.412M194.402 211.659V217.412M44.8359 217.412H39.0833M44.8359 217.412V223.164M39.0833 217.412V223.164M56.3409 217.412H62.0934M79.351 217.412H73.5985M79.351 217.412V223.164M73.5985 217.412V223.164M90.8561 217.412H85.1035M90.8561 217.412V223.164M90.8561 217.412H96.6086M85.1035 217.412V223.164H90.8561M102.361 217.412H96.6086M102.361 217.412H108.114M102.361 217.412V223.164H96.6086M96.6086 217.412V223.164M108.114 211.659V217.412M108.114 211.659H113.866V217.412M108.114 217.412H113.866M113.866 217.412H119.619M113.866 217.412V223.164M125.371 217.412H119.619M125.371 217.412V223.164H119.619M119.619 217.412V223.164M142.629 211.659H136.876V217.412M142.629 211.659V217.412M142.629 217.412H136.876M142.629 217.412H148.381M142.629 217.412V223.164M136.876 217.412V223.164M148.381 217.412V223.164M148.381 217.412H154.134M171.391 217.412H177.144M171.391 217.412V223.164H177.144M177.144 217.412V223.164M177.144 217.412H182.896M194.402 217.412H188.649M194.402 217.412H200.154M194.402 217.412V223.164H200.154M188.649 217.412H182.896M188.649 217.412V223.164H182.896M200.154 217.412V223.164M200.154 217.412H205.907V223.164M44.8359 223.164H39.0833M44.8359 223.164V228.917M44.8359 223.164H50.5884M39.0833 223.164V228.917H44.8359M79.351 223.164H73.5985M79.351 223.164V228.917H73.5985M73.5985 223.164H67.846M73.5985 223.164V228.917M90.8561 223.164H96.6086M119.619 223.164H113.866M119.619 223.164V228.917H113.866V223.164M142.629 223.164H136.876M142.629 223.164H148.381M142.629 223.164V228.917M136.876 223.164H131.124V228.917H136.876M136.876 223.164V228.917M148.381 223.164H154.134M148.381 223.164V228.917H142.629M154.134 217.412V223.164M154.134 217.412H159.886V223.164M154.134 223.164H159.886M159.886 223.164H165.639V228.917H159.886V223.164ZM177.144 223.164H182.896M182.896 217.412V223.164M200.154 223.164H205.907M200.154 223.164V228.917H205.907M205.907 223.164V228.917M205.907 223.164H211.659M44.8359 228.917H50.5884M50.5884 223.164V228.917M50.5884 223.164H56.3409M50.5884 228.917H56.3409M56.3409 223.164V228.917M56.3409 223.164H62.0934M56.3409 228.917H62.0934M62.0934 223.164V228.917M62.0934 223.164H67.846M62.0934 228.917H67.846M67.846 223.164V228.917M67.846 228.917H73.5985M136.876 228.917H142.629M205.907 228.917H211.659M211.659 223.164V228.917M211.659 223.164H217.412V228.917H211.659M154.134 39.0834H159.886V44.8359H154.134V39.0834ZM119.619 102.361H125.371V108.114H119.619V102.361ZM223.164 136.876H228.917V142.629H223.164V136.876ZM188.649 188.649H194.402V194.402H188.649V188.649ZM223.164 217.412H228.917V223.164H223.164V217.412Z" stroke="black" stroke-width="0.5"/>
</svg>
