<svg width="40" height="40" viewBox="0 0 40 40" fill="none" xmlns="http://www.w3.org/2000/svg">
<path d="M20.0003 3.33527C17.8116 3.33527 15.6443 3.76637 13.6222 4.60395C11.6001 5.44153 9.76281 6.66918 8.21517 8.21683C5.08957 11.3424 3.33362 15.5817 3.33362 20.0019C3.33362 24.4222 5.08957 28.6614 8.21517 31.7871C9.76281 33.3347 11.6001 34.5624 13.6222 35.3999C15.6443 36.2375 17.8116 36.6686 20.0003 36.6686C24.4206 36.6686 28.6598 34.9127 31.7854 31.7871C34.911 28.6614 36.667 24.4222 36.667 20.0019H33.3336C33.3336 23.5382 31.9289 26.9295 29.4284 29.43C26.9279 31.9305 23.5365 33.3353 20.0003 33.3353C16.4641 33.3353 13.0727 31.9305 10.5722 29.43C8.07171 26.9295 6.66695 23.5382 6.66695 20.0019C6.66695 16.4657 8.07171 13.0743 10.5722 10.5738C13.0727 8.07337 16.4641 6.66861 20.0003 6.66861V3.33527ZM31.3003 5.00194C31.017 5.00194 30.7169 5.11861 30.5003 5.33527L28.467 7.35194L32.6336 11.5186L34.6669 9.50194C35.1003 9.06861 35.1003 8.33527 34.6669 7.91861L32.0836 5.33527C31.867 5.11861 31.5836 5.00194 31.3003 5.00194ZM27.2836 8.53527L15.0003 20.8353V25.0019H19.167L31.4503 12.7019L27.2836 8.53527Z" fill="#6A87F8"/>
</svg>
