<svg width="40" height="40" viewBox="0 0 40 40" fill="none" xmlns="http://www.w3.org/2000/svg">
<path fill-rule="evenodd" clip-rule="evenodd" d="M19.934 0C8.99784 0 0.132324 9.06384 0.132324 20C0.132324 30.9362 8.99784 40 19.934 40C30.8702 40 39.7357 30.9362 39.7357 20C39.7357 9.06384 30.8702 0 19.934 0ZM21.4877 13.3848C21.8844 12.8717 22.6696 12.8717 23.0663 13.3848L31.6114 24.4368C32.1072 25.0781 31.6417 26 30.8221 26H9.04615C8.22651 26 7.76103 25.0781 8.25688 24.4368L13.3943 17.7922C13.7561 17.3242 14.4542 17.2753 14.8799 17.6883L18.3955 21.4724C18.6939 21.7892 19.2086 21.802 19.5237 21.5003C19.7993 21.2365 19.8285 20.818 19.5919 20.5214L18.2693 18.6213C18.0385 18.2763 18.0541 17.8258 18.3083 17.497L21.4877 13.3848Z" fill="#6A87F8"/>
</svg>
