<svg width="142" height="153" viewBox="0 0 142 153" fill="none" xmlns="http://www.w3.org/2000/svg">
<g filter="url(#filter0_b_277_854)">
<rect x="0.000244141" width="142" height="153" rx="8" fill="#111214"/>
<rect x="0.500244" y="0.5" width="141" height="152" rx="7.5" stroke="#DCD9F0" stroke-opacity="0.02"/>
</g>
<rect x="58.0002" y="6" width="26" height="2" rx="1" fill="white" fill-opacity="0.1"/>
<path d="M67.7925 38.7634C68.3339 38.505 69.2361 38.2069 69.7975 38.1075C70.3389 38.0081 71.2011 37.9684 71.7024 38.028C72.2036 38.0678 73.2663 38.4454 74.0884 38.8429C75.4518 39.5187 75.8528 39.8764 78.4594 42.7187C80.0434 44.428 81.4469 45.8391 81.5672 45.8391C81.7076 45.8391 82.1086 45.4615 82.4294 45.0242C82.7502 44.5671 83.3918 43.9907 83.8329 43.7323C84.3743 43.4143 84.9558 43.2553 85.5773 43.2553C86.1187 43.2553 86.8806 43.3944 87.2816 43.5733C87.7027 43.7323 88.224 44.0304 88.4245 44.2093C88.6451 44.3882 89.5674 45.5609 90.4897 46.7932C91.392 48.0056 92.194 49.1584 92.2542 49.3174C92.3143 49.4764 92.2943 49.6155 92.194 49.6155C92.1138 49.6155 91.6526 49.4764 91.1514 49.3174C90.6501 49.1385 89.427 48.7608 88.4446 48.4826C87.4621 48.2043 85.9583 47.8068 85.1362 47.5882C84.3141 47.3894 83.1312 47.131 82.5296 47.0118C81.9281 46.8925 80.304 46.6342 78.9205 46.4553C77.3767 46.2366 74.8302 46.0975 72.3039 46.0578C70.0382 46.0379 66.9303 46.1174 65.3864 46.2366C63.8024 46.3559 61.1758 46.7534 59.3713 47.131C57.6068 47.5087 54.6995 48.2838 52.915 48.8602C51.1305 49.4366 49.5866 49.854 49.5064 49.7546C49.4262 49.6751 49.6468 49.1981 50.0277 48.6615C50.4087 48.1447 51.311 46.9323 52.0328 45.9584C52.8348 44.8851 53.6769 44.0106 54.1581 43.7323C54.6995 43.4143 55.281 43.2553 55.9627 43.2553C56.6444 43.2553 57.286 43.4143 57.9677 43.7522C58.5291 44.0304 59.2309 44.6068 59.5718 45.0441C59.9126 45.4814 60.2535 45.859 60.3738 45.859C60.4941 45.859 61.0956 45.2429 61.7372 44.5075C62.3789 43.7721 63.7824 42.2814 64.8451 41.2081C66.0481 40.0156 67.1709 39.0814 67.7925 38.7634Z" fill="#6A87F8"/>
<path d="M62.1783 47.1112C62.6195 47.0515 63.622 46.9323 64.3839 46.8528C65.1458 46.7534 68.0732 46.6739 70.8402 46.654C73.6272 46.654 76.7952 46.7335 77.8579 46.8528C78.9406 46.9522 80.7652 47.2304 81.9281 47.4491C83.0911 47.6677 84.9357 48.0851 86.0385 48.3633C87.1413 48.6416 89.1263 49.2577 90.4496 49.7149C91.7729 50.1919 93.7178 50.9472 94.7605 51.4043C95.8031 51.8614 97.5475 52.6565 98.6102 53.213C99.6929 53.7496 100.575 54.1471 100.575 54.0875C100.575 54.0279 99.8934 53.4912 99.0713 52.895C98.1891 52.2589 97.5675 51.6627 97.5675 51.4639C97.5675 51.126 97.7881 51.126 100.816 51.2453C102.961 51.3447 104.605 51.5434 105.588 51.7819C106.791 52.0999 107.232 52.3186 107.733 52.8751C108.335 53.531 108.395 53.7099 108.395 54.8428C108.375 55.8564 108.275 56.2937 107.733 57.2477C107.332 57.9632 106.43 59.0365 105.387 60.0303C104.184 61.1831 103.202 61.8986 102.019 62.4949C101.116 62.952 100.174 63.3297 99.9135 63.3297C99.6729 63.3297 98.2092 62.6141 96.6653 61.7396C95.1214 60.885 92.9158 59.752 91.7529 59.2552C90.59 58.7384 88.9258 58.0626 88.0435 57.7645C87.1613 57.4465 85.6174 56.9695 84.6349 56.6912C83.6525 56.4129 82.1487 56.0353 81.3266 55.8763C80.5045 55.6974 78.8403 55.4192 77.6173 55.2602C76.3942 55.121 73.928 54.9223 72.1034 54.8627C69.9379 54.7633 68.2136 54.803 67.0907 54.962C66.1483 55.0813 64.4441 55.3397 63.2811 55.4987C62.1182 55.6577 60.1933 56.0552 58.9703 56.3732C57.7472 56.6912 56.0028 57.208 55.0604 57.526C54.118 57.844 52.8949 58.3011 52.3536 58.5198C51.7922 58.7384 50.4889 59.3148 49.4463 59.8117C48.4036 60.2887 46.4988 61.2825 45.2356 62.0179C43.9725 62.7334 42.7694 63.3297 42.5689 63.3297C42.3885 63.3297 41.7468 63.1508 41.1654 62.9123C40.604 62.6738 39.7217 62.2166 39.2205 61.8787C38.7192 61.521 37.5964 60.5272 36.7142 59.6527C35.6314 58.5926 34.8962 57.6651 34.5086 56.8701C34.1276 56.0949 33.9271 55.3595 33.9071 54.7633C33.9071 54.2664 34.0274 53.6304 34.1477 53.372C34.288 53.1136 34.7492 52.6962 35.1502 52.4776C35.5713 52.2391 36.4936 51.9012 37.2154 51.7223C37.9372 51.5633 39.9222 51.3447 41.6265 51.285C43.9324 51.1658 44.7745 51.2055 44.8747 51.3645C44.975 51.5236 44.594 51.9211 43.7719 52.4776C43.0902 52.9546 42.3885 53.5111 42.2281 53.69C41.9473 54.0279 41.9674 54.0279 42.4286 53.8887C42.7093 53.8092 43.0301 53.6701 43.1303 53.5906C43.2306 53.4912 43.9725 53.1136 44.7344 52.736C45.4963 52.3583 47.4011 51.5037 48.945 50.8478C50.4889 50.2118 52.6543 49.3969 53.7571 49.059C54.8599 48.741 56.6243 48.264 57.667 48.0254C58.7095 47.787 59.7522 47.5484 59.9728 47.5087C60.1933 47.4689 60.5944 47.3894 60.8751 47.3298C61.1558 47.2702 61.7372 47.1708 62.1783 47.1112Z" fill="#6A87F8"/>
<path d="M36.3131 76.0103C36.9748 75.6724 38.5588 75.0563 39.822 74.6389C41.0849 74.2216 42.1679 73.8637 42.2281 73.8637C42.2882 73.8637 42.5288 74.0029 42.7694 74.2016C43.01 74.4004 43.391 75.1159 43.6115 75.7917C43.8522 76.4873 44.1128 77.66 44.2331 78.4351C44.3334 79.2103 44.5339 80.2438 44.6341 80.7606C44.7544 81.2972 45.0752 82.5295 45.376 83.5034C45.6567 84.4773 46.3384 86.4649 46.8798 87.876C47.4412 89.2872 48.1029 90.8971 48.3836 91.4536C48.6643 91.9903 49.4663 93.3816 50.148 94.5344C50.8498 95.6871 51.9325 97.3368 52.5741 98.2113C53.1957 99.0859 54.3185 100.517 55.0604 101.391C55.8023 102.266 57.2058 103.737 58.1883 104.671C59.1708 105.605 60.8751 107.056 61.9778 107.871C63.0806 108.686 64.4039 109.66 64.9253 109.998C65.4666 110.355 65.8877 110.693 65.8877 110.773C65.8877 110.872 65.6671 111.329 65.3864 111.826C65.1057 112.323 64.7649 112.899 64.6245 113.118C64.4842 113.317 64.043 114.072 63.622 114.748C63.1608 115.523 62.7398 116 62.5192 116C62.3387 116 61.7172 115.881 61.1758 115.702C60.6144 115.543 59.8324 115.404 59.4114 115.404C59.0104 115.404 58.6695 115.483 58.6695 115.602C58.6695 115.722 57.8274 115.801 56.5241 115.801C55.3211 115.801 53.4965 115.662 52.4538 115.483C51.4112 115.324 49.9676 115.046 49.2457 114.867C48.5239 114.688 47.3409 114.251 46.579 113.873C45.8372 113.516 44.8948 112.919 44.4737 112.542C44.0727 112.184 43.5113 111.448 43.2506 110.912C42.9098 110.216 42.8095 109.739 42.9098 109.242C42.9699 108.845 43.3509 108.169 43.792 107.652C44.2131 107.155 45.0351 106.46 45.5965 106.102C46.3585 105.645 46.7595 105.506 47.0803 105.605C47.3409 105.685 48.2232 106.34 49.0452 107.056C49.8673 107.791 51.4513 108.944 52.5541 109.64C53.6569 110.335 54.6995 110.932 54.8599 110.991C55.0203 111.051 54.4388 110.574 53.5566 109.938C52.6744 109.302 51.4513 108.368 50.8498 107.871C50.2483 107.374 49.0051 106.201 48.0828 105.267C47.1605 104.333 46.0778 103.121 45.6366 102.584C45.2156 102.027 44.4136 100.835 43.8923 99.9008C43.3509 98.9666 42.5689 97.4561 42.1479 96.5219C41.7268 95.5878 41.025 93.7592 40.5839 92.4474C40.1629 91.1356 39.7217 89.6648 39.6014 89.1679C39.4811 88.6711 39.2606 88.1145 39.1002 87.9158C38.9398 87.7369 38.8796 87.5381 38.9598 87.4984C39.0601 87.4388 38.9598 86.6636 38.7593 85.7493C38.5588 84.8351 38.0976 83.1655 37.7367 82.0127C37.3157 80.6413 36.9949 79.9258 36.7944 79.9258C36.634 79.9258 36.5337 80.0649 36.5538 80.2239C36.5738 80.3829 37.0951 81.973 37.6966 83.7419C38.3182 85.5307 38.8195 87.1208 38.8195 87.2798C38.8195 87.4388 38.7593 87.5779 38.6591 87.5779C38.5789 87.5978 38.3383 87.399 38.1177 87.1605C37.8971 86.922 36.6741 85.8686 35.4109 84.7953C34.1477 83.7419 32.8645 82.5891 32.5436 82.2512C32.1226 81.7543 32.0023 81.4165 32.0023 80.6612C31.9822 79.886 32.1025 79.568 32.7041 78.8326C33.085 78.3357 33.7868 77.6401 34.2479 77.2625C34.7292 76.9047 35.6515 76.3283 36.3131 76.0103Z" fill="#6A87F8"/>
<path d="M36.594 80.5815C36.4937 80.3828 36.4737 80.1244 36.5338 80.0051C36.614 79.9057 36.7744 79.8461 36.8947 79.8859C37.015 79.9256 37.396 80.8995 37.7569 82.0324C38.1178 83.1653 38.5588 84.8351 38.7593 85.7493C38.9598 86.6636 39.0602 87.4386 38.98 87.4982C38.8797 87.538 38.8195 87.4388 38.8195 87.2798C38.8195 87.1208 38.3584 85.61 37.797 83.9604C37.2356 82.2908 36.6942 80.7604 36.594 80.5815Z" fill="black"/>
<path d="M104.004 82.6684C104.244 81.8138 104.605 80.7604 104.826 80.3231C105.167 79.6474 105.267 79.5877 105.407 79.8859C105.528 80.1045 105.468 80.502 105.207 81.0784C105.006 81.5355 104.605 82.4896 104.325 83.2051C104.064 83.9206 103.783 84.6361 103.723 84.7951C103.656 84.9806 103.616 84.9343 103.603 84.656C103.583 84.3976 103.783 83.5032 104.004 82.6684Z" fill="black"/>
<path d="M53.7572 114.032C53.2159 113.814 52.0329 113.277 51.1507 112.84C50.2684 112.402 49.6068 112.045 49.707 112.045C49.7872 112.025 50.4088 112.243 51.1106 112.502C51.7923 112.76 53.5768 113.396 55.0605 113.913C56.5443 114.43 57.9077 114.887 58.0681 114.927C58.2285 114.966 58.3288 115.066 58.2686 115.125C58.2084 115.185 57.5869 115.086 56.8651 114.907C56.1432 114.728 55.3813 114.549 55.1608 114.489C54.9402 114.45 54.3186 114.231 53.7572 114.032Z" fill="black"/>
<path d="M87.2416 113.853C88.2241 113.515 89.7279 112.979 90.55 112.641C91.372 112.303 92.134 112.045 92.2543 112.045C92.3746 112.045 92.1741 112.184 91.8533 112.363C91.5324 112.541 90.3094 113.078 89.1464 113.575C87.9835 114.072 86.5399 114.589 85.9383 114.728C85.3368 114.887 84.6952 115.006 84.5348 114.986C84.3744 114.986 84.5148 114.867 84.8356 114.728C85.1564 114.589 86.2592 114.191 87.2416 113.853Z" fill="black"/>
<path d="M60.514 61.6201C61.7572 61.3419 63.8625 60.9443 65.1858 60.7456C66.5091 60.5468 67.6721 60.4077 67.7924 60.4276C67.9127 60.4673 68.033 61.0437 68.1934 63.0313H74.2085L74.409 60.6462L75.9128 60.686C76.7349 60.7058 78.76 61.004 80.4242 61.3419C82.0683 61.6797 83.4919 62.0176 83.5521 62.0971C83.6323 62.1766 83.5721 62.7332 83.4117 63.3294C83.2513 63.9654 83.2112 64.5021 83.3115 64.6213C83.4117 64.7406 83.6924 64.8797 83.9531 64.9592L83.9844 64.9688C84.2679 65.0552 84.9582 65.2656 85.5371 65.476C86.1386 65.6946 87.081 66.0723 87.6424 66.3306C88.1838 66.589 88.685 66.8275 88.7452 66.8474C88.8053 66.8872 89.0259 66.3306 89.2464 65.6151C89.467 64.8996 89.6876 64.3232 89.7477 64.3232C89.8079 64.3232 90.67 64.7406 93.4571 66.2114L93.5172 67.3045C93.5573 67.9604 93.4771 68.5368 93.3167 68.7753C93.0761 69.0933 92.9357 69.1132 92.0535 68.9343C91.4921 68.8151 90.9908 68.7753 90.8906 68.8548C90.8104 68.9343 90.7101 70.4449 90.65 72.2337C90.5698 74.6784 90.6099 75.4933 90.7903 75.5927C90.9307 75.6722 91.4921 75.7914 93.056 75.9504L92.9959 76.8448C92.9758 77.3417 92.7352 78.7131 92.4946 79.9256C92.1137 81.8336 92.0134 82.1119 91.6525 82.092C91.4319 82.092 90.9106 82.0324 90.4896 81.9529C89.9883 81.8535 89.6675 81.8932 89.487 82.0721C89.3667 82.2112 88.9457 83.1653 88.5647 84.1988C88.1838 85.2323 87.6624 86.5441 87.4018 87.0808C87.1211 87.6373 86.9607 88.1938 87.0208 88.3329C87.101 88.4721 87.5822 88.5714 88.3442 88.5714C89.1662 88.5714 89.5472 88.6509 89.5472 88.8298C89.5472 88.9491 89.1261 89.7839 88.6249 90.6584C88.5869 90.7274 88.5484 90.7974 88.5094 90.8681C88.0551 91.6932 87.5395 92.6297 87.0409 93.6L83.933 93.3416L83.3716 94.0571C83.0709 94.4546 82.4293 95.2496 81.948 95.8062C81.6901 96.1044 81.3689 96.4712 81.0707 96.8116C80.8125 97.1064 80.5716 97.3814 80.4042 97.5751C80.0232 97.9726 79.6623 98.3105 79.562 98.3105C79.4818 98.3105 79.2813 98.072 79.1009 97.754C78.9204 97.4558 77.3765 94.9515 72.5042 87.1801L73.8877 85.0535C74.15 84.6319 74.4798 84.1061 74.8322 83.5445C75.4766 82.5171 76.1963 81.3699 76.7149 80.5218C77.5369 79.21 78.3389 77.9777 78.4993 77.7591C78.5755 77.6752 78.6991 77.5679 78.8431 77.443C79.0401 77.272 79.2753 77.0678 79.4797 76.8448C79.5824 76.7328 79.6657 76.6653 79.7411 76.6041C79.9113 76.4661 80.0416 76.3605 80.2638 75.8511C80.5846 75.1952 80.9054 74.6585 81.0257 74.6585C81.146 74.6585 81.527 74.9567 81.8678 75.3144C82.2287 75.6523 82.5696 75.9107 82.6298 75.8511C82.6699 75.7914 82.9305 74.4598 83.2112 72.8697C83.4719 71.2797 83.7927 69.312 83.913 68.4971C84.0132 67.6822 84.0533 66.9468 83.9731 66.8872C83.8929 66.8077 82.309 67.7418 80.4242 68.9343C78.5395 70.1269 77.0156 71.2002 77.0156 71.3393C77.0156 71.4585 77.4166 71.8362 78.76 72.7703L77.7374 73.7641C77.176 74.3206 76.7149 74.8374 76.7149 74.9566C76.6948 75.0759 76.8352 75.2945 77.0156 75.4535C77.2963 75.7318 77.2963 75.7914 76.9555 76.1492C76.755 76.3678 76.1334 77.2622 75.572 78.1367C75.0106 79.0113 73.988 80.6212 73.3063 81.7144C73.0743 82.0863 72.8378 82.4627 72.6195 82.8102C72.1961 83.484 71.8413 84.0486 71.7223 84.2584C71.5418 84.5566 71.2812 84.7752 71.1208 84.7553C70.9603 84.7156 70.1984 83.6622 69.4365 82.41C68.7733 81.32 67.7302 79.6728 66.9818 78.4909C66.8705 78.3151 66.7656 78.1495 66.6695 77.9976C65.9076 76.8051 65.286 75.7914 65.286 75.7119C65.286 75.6125 65.4264 75.4138 65.5868 75.2548C65.8675 74.9964 65.7873 74.8374 64.885 73.9231C64.3437 73.3467 63.8825 72.8101 63.8825 72.7306C63.9026 72.6312 64.2635 72.2536 65.5267 71.1803L63.4815 69.8884C62.8313 69.474 62.1542 69.0464 61.6332 68.7173C61.2545 68.4781 60.9582 68.291 60.8148 68.1989C60.4539 67.9604 59.7922 67.5629 59.331 67.3045C58.8498 67.0263 58.4288 66.8474 58.3887 66.907C58.3486 66.9667 58.3887 67.4635 58.4889 68.0002C58.5892 68.5567 58.8298 70.0673 59.0102 71.379C59.1907 72.6908 59.3711 74.2411 59.3912 74.8175C59.4313 75.374 59.5115 75.8511 59.5716 75.8511C59.6318 75.8511 60.0328 75.5728 60.4739 75.2548C61.1356 74.7579 61.3361 74.6983 61.5967 74.9169C61.7572 75.0362 62.0579 75.6523 62.2183 76.2486C62.3787 76.8448 62.5592 77.3616 62.5993 77.4014C62.6394 77.4212 62.8599 77.3218 63.0805 77.2026C63.281 77.0635 63.5015 76.984 63.5416 77.0436C63.5593 77.0698 63.6351 77.196 63.7486 77.3849C63.8932 77.6256 64.099 77.9681 64.3236 78.3355C64.7046 78.9914 65.8876 80.8995 66.9703 82.569C68.033 84.2187 68.8951 85.6497 68.8951 85.7491C68.8951 85.8286 69.0756 86.1069 69.2962 86.3851C69.5167 86.6634 69.6972 87.041 69.6972 87.2398C69.6972 87.4187 69.1959 88.3329 68.5944 89.2671C67.9929 90.2012 67.4916 90.9963 67.4916 91.0559C67.4916 91.1155 66.85 92.1689 66.0881 93.4012C65.7349 93.9487 65.4022 94.476 65.1343 94.9006C64.8089 95.4163 64.5791 95.7805 64.5241 95.8459C64.5068 95.8717 64.4753 95.919 64.4328 95.9829C64.2789 96.2139 63.9805 96.6621 63.682 97.0981C63.301 97.6546 62.9 98.1117 62.7797 98.1117C62.6594 98.1117 61.9376 97.3763 61.1757 96.4819C60.3937 95.5677 59.4914 94.4944 58.5691 93.3018L55.6618 93.5403L54.7796 92.2087C54.2983 91.4534 53.6968 90.4397 53.4362 89.923C53.1755 89.4062 53.0352 88.9093 53.1154 88.8298C53.2156 88.7503 53.777 88.6509 54.3785 88.6311C55.1806 88.5913 55.4613 88.4919 55.4613 88.2733C55.4613 88.1143 55.3009 87.6373 55.1004 87.2398C54.8798 86.8224 54.3184 85.4311 53.8372 84.1392C53.0552 82.0324 52.9149 81.7939 52.554 81.9131C52.3334 81.9727 51.8121 82.092 51.4111 82.1715C50.7494 82.2908 50.6492 82.251 50.4687 81.8137C50.3484 81.5355 50.0276 80.2436 49.787 78.9318C49.5263 77.62 49.3459 76.4274 49.386 76.3082C49.4261 76.1691 49.9875 75.9306 51.8923 75.5529L51.7519 72.2734C51.6717 70.4648 51.5514 68.9145 51.4913 68.8151C51.4111 68.7356 51.0301 68.7555 50.6492 68.8747C50.2682 68.994 49.7469 69.0933 49.4862 69.0933C49.2456 69.0933 49.0451 69.0337 49.0451 68.9542C49.0251 68.8548 48.985 68.2983 48.9449 67.7021C48.8847 67.0064 48.9449 66.4896 49.1053 66.2909C49.2256 66.112 49.9875 65.635 50.7494 65.2375C51.5915 64.8002 52.2331 64.6015 52.3534 64.7008C52.4738 64.8002 52.6141 65.3369 52.7144 65.8934C52.8146 66.6884 52.9349 66.907 53.2156 66.907C53.4161 66.907 53.6567 66.8275 53.757 66.7282C53.8773 66.6486 54.8598 66.2313 55.9625 65.8139C57.0653 65.3965 58.2082 64.9393 59.0704 64.522L58.6694 63.6276C58.4488 63.1307 58.2684 62.594 58.2684 62.435C58.2684 62.2164 58.8899 61.9978 60.514 61.6201Z" fill="#6A87F8"/>
<path d="M68.9954 92.9441C69.8576 91.5727 70.6195 90.2609 70.7197 90.0224V90.0025C70.82 89.764 70.9804 89.5652 71.1007 89.5652C71.201 89.5652 71.6822 90.1615 72.1433 90.8969C72.6245 91.6522 73.0456 92.3279 73.0857 92.4472C73.1258 92.5664 73.2261 92.6857 73.3063 92.7453C73.3664 92.8049 73.7273 93.3416 74.0882 93.9379C74.4491 94.5341 75.1309 95.6472 75.6321 96.4223C76.1133 97.1975 76.5745 97.9527 76.6547 98.1117C76.7349 98.2707 77.1961 99.0061 78.6197 101.093L79.4618 100.596C79.943 100.318 80.5445 100.099 80.8252 100.099C81.126 100.099 81.3064 100.199 81.2663 100.358C81.2463 100.517 80.5044 101.252 79.6222 102.007C78.74 102.783 77.4768 103.816 76.8151 104.313C76.1534 104.81 74.7499 105.764 73.7073 106.44C72.5443 107.175 71.5819 107.652 71.2411 107.652C70.9002 107.652 69.8977 107.135 68.5342 106.241C67.3512 105.446 65.8876 104.432 65.286 103.955C64.6845 103.498 63.5015 102.484 62.6795 101.709C61.4764 100.596 61.2158 100.258 61.4163 100.06C61.6168 99.8409 61.7772 99.8807 62.3186 100.238C62.6795 100.497 63.2008 100.795 63.4614 100.934C63.7622 101.093 63.9828 101.113 64.0229 100.994C64.0429 100.874 64.5241 100.099 65.0855 99.2446C65.6269 98.4099 66.0881 97.6745 66.0881 97.6148C66.0881 97.5552 66.3888 97.0385 66.7698 96.4621C67.1307 95.9055 68.1332 94.3155 68.9954 92.9441Z" fill="#6A87F8"/>
<path d="M67.7324 99.8214C67.5118 99.6425 67.8126 99.0065 69.1961 96.5817V96.5618C70.1385 94.9122 71.0207 93.5407 71.141 93.5407C71.2613 93.5407 71.5219 93.8389 71.7024 94.1768C71.9029 94.5345 72.6247 95.7668 73.3064 96.9196C73.9882 98.0724 74.5696 99.2053 74.5696 99.4239C74.6097 99.7419 74.1686 100.219 73.0057 101.173C72.1235 101.908 71.2613 102.485 71.1009 102.485C70.9405 102.485 70.1585 101.928 69.3966 101.252C68.6347 100.577 67.8727 99.9407 67.7324 99.8214Z" fill="black"/>
<path fill-rule="evenodd" clip-rule="evenodd" d="M65.7874 56.0751C64.5644 56.2341 62.3187 56.6117 60.7748 56.9496C59.2309 57.2875 56.9251 57.9036 55.6619 58.3409C54.3987 58.7781 52.4137 59.5334 51.2508 60.0502C50.0879 60.5471 48.2833 61.4216 47.2407 61.9781C46.1981 62.5545 45.0953 63.2502 44.7945 63.5682C44.2532 64.1048 44.2331 64.1644 44.3334 65.9731C44.3675 66.5364 44.4209 67.6807 44.4827 69.0043C44.5299 70.016 44.582 71.1324 44.6341 72.1743C44.7344 74.5792 44.8747 76.7656 44.9349 77.0438C44.995 77.3221 45.1153 78.2165 45.2156 79.0314C45.3359 79.8463 45.6767 81.5556 46.0176 82.8077C46.3384 84.0599 46.96 86.0276 47.4011 87.1804C47.8222 88.3332 48.7645 90.44 49.4864 91.8512C50.2082 93.2623 51.331 95.2499 51.9726 96.2635C52.6343 97.2573 53.697 98.7679 54.3586 99.6424C55.0203 100.497 56.6845 102.306 58.068 103.677C59.4515 105.049 61.1157 106.599 61.7773 107.096C62.439 107.613 63.5217 108.427 64.1834 108.885C64.8451 109.342 66.4692 110.316 67.7925 111.031C69.1158 111.747 70.3991 112.482 70.6597 112.641C71.0808 112.899 71.2412 112.86 72.6648 112.144C73.5069 111.707 74.5495 111.13 74.9906 110.852C75.6924 110.375 75.7726 110.355 75.9932 110.673C76.1135 110.872 76.6147 111.747 77.116 112.621C77.6173 113.516 78.2589 114.629 78.5596 115.125L79.121 116C80.6048 115.801 81.2264 115.662 81.467 115.583C81.7276 115.483 82.2489 115.404 82.6299 115.404C83.0109 115.404 83.3718 115.483 83.4319 115.602C83.4921 115.722 84.3743 115.801 85.4971 115.801C86.5598 115.801 88.3443 115.662 89.4471 115.503C90.5499 115.344 92.1338 115.006 92.9559 114.788C93.778 114.569 94.9409 114.132 95.5424 113.853C96.144 113.555 97.0262 112.959 97.5074 112.522C98.1089 111.985 98.53 111.369 98.7906 110.693C99.1315 109.739 99.1515 109.56 98.8708 108.805C98.7104 108.288 98.2092 107.613 97.6678 107.116C97.1665 106.639 96.4046 106.082 95.9635 105.863C95.5224 105.645 95.0011 105.466 94.8006 105.466C94.6201 105.466 94.0988 105.844 93.6577 106.301C93.2166 106.738 92.3143 107.513 91.6526 107.99C90.991 108.467 90.3895 108.865 90.2892 108.845C90.209 108.845 90.7103 108.368 91.392 107.811C92.0937 107.235 93.0161 106.36 93.4572 105.883C93.8983 105.386 94.5399 104.711 94.8607 104.373C95.1815 104.015 95.743 103.379 96.0838 102.962C96.4247 102.544 97.0863 101.57 97.5675 100.795C97.7875 100.441 98.02 100.057 98.2287 99.7134C98.4766 99.3046 98.6909 98.9513 98.8107 98.7679C99.0112 98.4101 99.4122 97.5554 99.6929 96.8797C99.9736 96.184 100.335 95.3492 100.475 95.0312C100.615 94.7132 100.916 93.8983 101.137 93.2424C101.357 92.5865 101.778 91.1953 102.079 90.1617C102.36 89.1282 102.7 88.035 102.801 87.7369C102.921 87.3791 103.081 87.2201 103.282 87.2798C103.462 87.3394 104.284 86.763 105.347 85.8487C106.31 84.9941 107.613 83.9009 108.234 83.404C108.856 82.9071 109.498 82.2711 109.678 81.973C109.859 81.655 109.999 81.0786 109.999 80.6811C110.019 80.1444 109.818 79.6277 109.357 78.932C108.916 78.2761 108.214 77.6202 107.292 77.0041C106.39 76.4078 104.806 75.6724 102.921 74.9569C100.194 73.9432 99.9335 73.8836 99.4122 74.142C99.1114 74.2811 98.7305 74.6985 98.55 75.0761C98.3696 75.4538 98.129 76.0302 98.0087 76.3482C97.8884 76.6662 97.748 77.4811 97.7079 78.137C97.6478 78.7929 97.3871 80.1643 97.1264 81.1581C96.8858 82.1717 96.6252 82.9469 96.565 82.9071C96.5049 82.8475 96.6653 81.973 96.9059 80.9593C97.1665 79.9655 97.4472 77.9581 97.5475 76.5469C97.6678 75.1358 97.8082 71.737 97.8884 68.9942L98.0087 64.0253C96.966 63.0315 95.362 62.0974 93.7579 61.2825C92.1539 60.4874 89.7077 59.4142 88.2841 58.8974C86.8806 58.3806 84.8555 57.7247 83.7728 57.4465C82.7101 57.1682 80.8654 56.7707 79.6624 56.5521C78.4794 56.3533 76.4543 56.0949 75.151 55.9757C73.8678 55.8763 71.7224 55.7968 70.3991 55.7968C69.0757 55.8167 67.0105 55.9359 65.7874 56.0751ZM64.6848 59.7718C63.3013 59.9705 61.2361 60.3879 60.0731 60.6662C58.9102 60.9643 57.0656 61.5009 55.9628 61.8786C54.86 62.2562 52.5743 63.2301 50.89 64.045L47.8423 65.5158C47.9827 71.2996 48.123 74.1418 48.2433 75.553C48.3636 76.9642 48.6042 78.753 48.7646 79.5281C48.9251 80.3033 49.2459 81.6349 49.4664 82.5094C49.707 83.384 50.0278 84.497 50.1882 84.9939C50.3486 85.4908 50.8098 86.6038 51.1908 87.4783C51.5918 88.3529 52.0529 89.3864 52.2133 89.764C52.3938 90.1417 53.0755 91.3938 53.7372 92.5466C54.3988 93.6994 55.5417 95.4485 56.2635 96.4224C57.0054 97.4161 58.6295 99.2447 59.8927 100.517C61.1559 101.769 62.6797 103.24 63.2812 103.737C63.8828 104.253 65.4266 105.386 66.6898 106.241C67.953 107.096 69.517 108.069 70.1586 108.427C71.2814 109.023 71.3215 109.043 71.9631 108.725C72.304 108.546 73.5872 107.732 74.8103 106.937C76.0334 106.142 77.9582 104.73 79.1212 103.816C80.2841 102.902 81.9282 101.411 82.8105 100.477C83.6726 99.5627 84.7554 98.3106 85.2366 97.7143C85.6977 97.118 86.6201 95.8261 87.2817 94.8323C87.9434 93.8584 89.1665 91.7118 90.0086 90.0622C90.8307 88.4324 91.7129 86.6038 91.9334 86.0473C92.1741 85.4709 92.5751 84.1194 92.8357 83.066C93.1164 81.9927 93.4773 80.3231 93.6377 79.3293C93.7981 78.3554 94.0789 76.0896 94.2593 74.3207C94.4197 72.5319 94.5601 69.8686 94.5601 68.3978V65.7146C92.4548 64.5022 90.9109 63.727 89.7479 63.2102C88.585 62.7133 86.7003 61.9779 85.5373 61.6202C84.3744 61.2426 82.4496 60.7059 81.2265 60.4475C80.0034 60.1891 78.0585 59.8314 76.8755 59.6525C75.472 59.4736 73.3667 59.3544 70.9606 59.3742C68.354 59.3742 66.4091 59.5134 64.6848 59.7718ZM60.514 61.6201C61.7572 61.3419 63.8625 60.9443 65.1858 60.7456C66.5091 60.5468 67.6721 60.4077 67.7924 60.4276C67.9127 60.4673 68.033 61.0437 68.1934 63.0313H74.2085L74.409 60.6462L75.9128 60.686C76.7349 60.7058 78.76 61.004 80.4242 61.3419C82.0683 61.6797 83.4919 62.0176 83.5521 62.0971C83.6323 62.1766 83.5721 62.7332 83.4117 63.3294C83.2513 63.9654 83.2112 64.5021 83.3115 64.6213C83.4117 64.7406 83.6924 64.8797 83.9531 64.9592L83.9844 64.9688C84.2679 65.0552 84.9582 65.2656 85.5371 65.476C86.1386 65.6946 87.081 66.0723 87.6424 66.3306C88.1838 66.589 88.685 66.8275 88.7452 66.8474C88.8053 66.8872 89.0259 66.3306 89.2464 65.6151C89.467 64.8996 89.6876 64.3232 89.7477 64.3232C89.8079 64.3232 90.67 64.7406 93.4571 66.2114L93.5172 67.3045C93.5573 67.9604 93.4771 68.5368 93.3167 68.7753C93.0761 69.0933 92.9357 69.1132 92.0535 68.9343C91.4921 68.8151 90.9908 68.7753 90.8906 68.8548C90.8104 68.9343 90.7101 70.4449 90.65 72.2337C90.5698 74.6784 90.6099 75.4933 90.7903 75.5927C90.9307 75.6722 91.4921 75.7914 93.056 75.9504L92.9959 76.8448C92.9758 77.3417 92.7352 78.7131 92.4946 79.9256C92.1137 81.8336 92.0134 82.1119 91.6525 82.092C91.4319 82.092 90.9106 82.0324 90.4896 81.9529C89.9883 81.8535 89.6675 81.8932 89.487 82.0721C89.3667 82.2112 88.9457 83.1653 88.5647 84.1988C88.1838 85.2323 87.6624 86.5441 87.4018 87.0808C87.1211 87.6373 86.9607 88.1938 87.0208 88.3329C87.101 88.4721 87.5822 88.5714 88.3442 88.5714C89.1662 88.5714 89.5472 88.6509 89.5472 88.8298C89.5472 88.9491 89.1261 89.7839 88.6249 90.6584C88.5869 90.7274 88.5484 90.7974 88.5094 90.8681C88.0551 91.6932 87.5395 92.6297 87.0409 93.6L83.933 93.3416L83.3716 94.0571C83.0709 94.4546 82.4293 95.2496 81.948 95.8062C81.6901 96.1044 81.3689 96.4712 81.0707 96.8116C80.8125 97.1064 80.5716 97.3814 80.4042 97.5751C80.0232 97.9726 79.6623 98.3105 79.562 98.3105C79.4818 98.3105 79.2813 98.072 79.1009 97.754C78.9204 97.4558 77.3765 94.9515 72.5042 87.1801L73.8877 85.0535C74.15 84.6319 74.4798 84.1061 74.8322 83.5445C75.4766 82.5171 76.1963 81.3699 76.7149 80.5218C77.5369 79.21 78.3389 77.9777 78.4993 77.7591C78.5755 77.6752 78.6991 77.5679 78.8431 77.443C79.0401 77.272 79.2753 77.0678 79.4797 76.8448C79.5824 76.7328 79.6657 76.6653 79.7411 76.6041C79.9113 76.4661 80.0416 76.3605 80.2638 75.8511C80.5846 75.1952 80.9054 74.6585 81.0257 74.6585C81.146 74.6585 81.527 74.9567 81.8678 75.3144C82.2287 75.6523 82.5696 75.9107 82.6298 75.8511C82.6699 75.7914 82.9305 74.4598 83.2112 72.8697C83.4719 71.2797 83.7927 69.312 83.913 68.4971C84.0132 67.6822 84.0533 66.9468 83.9731 66.8872C83.8929 66.8077 82.309 67.7418 80.4242 68.9343C78.5395 70.1269 77.0156 71.2002 77.0156 71.3393C77.0156 71.4585 77.4166 71.8362 78.76 72.7703L77.7374 73.7641C77.176 74.3206 76.7149 74.8374 76.7149 74.9566C76.6948 75.0759 76.8352 75.2945 77.0156 75.4535C77.2963 75.7318 77.2963 75.7914 76.9555 76.1492C76.755 76.3678 76.1334 77.2622 75.572 78.1367C75.0106 79.0113 73.988 80.6212 73.3063 81.7144C73.0743 82.0863 72.8378 82.4627 72.6195 82.8102C72.1961 83.484 71.8413 84.0486 71.7223 84.2584C71.5418 84.5566 71.2812 84.7752 71.1208 84.7553C70.9603 84.7156 70.1984 83.6622 69.4365 82.41C68.7733 81.32 67.7302 79.6728 66.9818 78.4909C66.8705 78.3151 66.7656 78.1495 66.6695 77.9976C65.9076 76.8051 65.286 75.7914 65.286 75.7119C65.286 75.6125 65.4264 75.4138 65.5868 75.2548C65.8675 74.9964 65.7873 74.8374 64.885 73.9231C64.3437 73.3467 63.8825 72.8101 63.8825 72.7306C63.9026 72.6312 64.2635 72.2536 65.5267 71.1803L63.4815 69.8884C62.8313 69.474 62.1542 69.0464 61.6332 68.7173C61.2545 68.4781 60.9582 68.291 60.8148 68.1989C60.4539 67.9604 59.7922 67.5629 59.331 67.3045C58.8498 67.0263 58.4288 66.8474 58.3887 66.907C58.3486 66.9667 58.3887 67.4635 58.4889 68.0002C58.5892 68.5567 58.8298 70.0673 59.0102 71.379C59.1907 72.6908 59.3711 74.2411 59.3912 74.8175C59.4313 75.374 59.5115 75.8511 59.5716 75.8511C59.6318 75.8511 60.0328 75.5728 60.4739 75.2548C61.1356 74.7579 61.3361 74.6983 61.5967 74.9169C61.7572 75.0362 62.0579 75.6523 62.2183 76.2486C62.3787 76.8448 62.5592 77.3616 62.5993 77.4014C62.6394 77.4212 62.8599 77.3218 63.0805 77.2026C63.281 77.0635 63.5015 76.984 63.5416 77.0436C63.5593 77.0698 63.6351 77.196 63.7486 77.3849C63.8932 77.6256 64.099 77.9681 64.3236 78.3355C64.7046 78.9914 65.8876 80.8995 66.9703 82.569C68.033 84.2187 68.8951 85.6497 68.8951 85.7491C68.8951 85.8286 69.0756 86.1069 69.2962 86.3851C69.5167 86.6634 69.6972 87.041 69.6972 87.2398C69.6972 87.4187 69.1959 88.3329 68.5944 89.2671C67.9929 90.2012 67.4916 90.9963 67.4916 91.0559C67.4916 91.1155 66.85 92.1689 66.0881 93.4012C65.7349 93.9487 65.4022 94.476 65.1343 94.9006C64.8089 95.4163 64.5791 95.7805 64.5241 95.8459C64.5068 95.8717 64.4753 95.919 64.4328 95.9829C64.2789 96.2139 63.9805 96.6621 63.682 97.0981C63.301 97.6546 62.9 98.1117 62.7797 98.1117C62.6594 98.1117 61.9376 97.3763 61.1757 96.4819C60.3937 95.5677 59.4914 94.4944 58.5691 93.3018L55.6618 93.5403L54.7796 92.2087C54.2983 91.4534 53.6968 90.4397 53.4362 89.923C53.1755 89.4062 53.0352 88.9093 53.1154 88.8298C53.2156 88.7503 53.777 88.6509 54.3785 88.6311C55.1806 88.5913 55.4613 88.4919 55.4613 88.2733C55.4613 88.1143 55.3009 87.6373 55.1004 87.2398C54.8798 86.8224 54.3184 85.4311 53.8372 84.1392C53.0552 82.0324 52.9149 81.7939 52.554 81.9131C52.3334 81.9727 51.8121 82.092 51.4111 82.1715C50.7494 82.2908 50.6492 82.251 50.4687 81.8137C50.3484 81.5355 50.0276 80.2436 49.787 78.9318C49.5263 77.62 49.3459 76.4274 49.386 76.3082C49.4261 76.1691 49.9875 75.9306 51.8923 75.5529L51.7519 72.2734C51.6717 70.4648 51.5514 68.9145 51.4913 68.8151C51.4111 68.7356 51.0301 68.7555 50.6492 68.8747C50.2682 68.994 49.7469 69.0933 49.4862 69.0933C49.2456 69.0933 49.0451 69.0337 49.0451 68.9542C49.0251 68.8548 48.985 68.2983 48.9449 67.7021C48.8847 67.0064 48.9449 66.4896 49.1053 66.2909C49.2256 66.112 49.9875 65.635 50.7494 65.2375C51.5915 64.8002 52.2331 64.6015 52.3534 64.7008C52.4738 64.8002 52.6141 65.3369 52.7144 65.8934C52.8146 66.6884 52.9349 66.907 53.2156 66.907C53.4161 66.907 53.6567 66.8275 53.757 66.7282C53.8773 66.6486 54.8598 66.2313 55.9625 65.8139C57.0653 65.3965 58.2082 64.9393 59.0704 64.522L58.6694 63.6276C58.4488 63.1307 58.2684 62.594 58.2684 62.435C58.2684 62.2164 58.8899 61.9978 60.514 61.6201ZM68.9954 92.9441C69.8576 91.5727 70.6195 90.2609 70.7197 90.0224V90.0025C70.82 89.764 70.9804 89.5652 71.1007 89.5652C71.201 89.5652 71.6822 90.1615 72.1433 90.8969C72.6245 91.6522 73.0456 92.3279 73.0857 92.4472C73.1258 92.5664 73.2261 92.6857 73.3063 92.7453C73.3664 92.8049 73.7273 93.3416 74.0882 93.9379C74.4491 94.5341 75.1309 95.6472 75.6321 96.4223C76.1133 97.1975 76.5745 97.9527 76.6547 98.1117C76.7349 98.2707 77.1961 99.0061 78.6197 101.093L79.4618 100.596C79.943 100.318 80.5445 100.099 80.8252 100.099C81.126 100.099 81.3064 100.199 81.2663 100.358C81.2463 100.517 80.5044 101.252 79.6222 102.007C78.74 102.783 77.4768 103.816 76.8151 104.313C76.1534 104.81 74.7499 105.764 73.7073 106.44C72.5443 107.175 71.5819 107.652 71.2411 107.652C70.9002 107.652 69.8977 107.135 68.5342 106.241C67.3512 105.446 65.8876 104.432 65.286 103.955C64.6845 103.498 63.5015 102.484 62.6795 101.709C61.4764 100.596 61.2158 100.258 61.4163 100.06C61.6168 99.8409 61.7772 99.8807 62.3186 100.238C62.6795 100.497 63.2008 100.795 63.4614 100.934C63.7622 101.093 63.9828 101.113 64.0229 100.994C64.0429 100.874 64.5241 100.099 65.0855 99.2446C65.6269 98.4099 66.0881 97.6745 66.0881 97.6148C66.0881 97.5552 66.3888 97.0385 66.7698 96.4621C67.1307 95.9055 68.1332 94.3155 68.9954 92.9441Z" fill="#6A87F8"/>
<g filter="url(#filter1_b_277_854)">
<rect x="29.0002" y="107" width="77" height="29" rx="14.5" fill="#252833" fill-opacity="0.6"/>
<rect x="29.5002" y="107.5" width="76" height="28" rx="14" stroke="white" stroke-opacity="0.02"/>
</g>
<path d="M59.8246 126H58.4686V117.072H59.9326V120.936C60.3166 120.276 61.1086 119.88 62.0086 119.88C63.7006 119.88 64.7326 121.2 64.7326 123.072C64.7326 124.896 63.6166 126.156 61.9126 126.156C61.0246 126.156 60.2686 125.76 59.9206 125.076L59.8246 126ZM59.9446 123.012C59.9446 124.08 60.6046 124.812 61.6126 124.812C62.6446 124.812 63.2566 124.068 63.2566 123.012C63.2566 121.956 62.6446 121.2 61.6126 121.2C60.6046 121.2 59.9446 121.944 59.9446 123.012ZM69.7777 120.072H71.2417V126H69.8857L69.7777 125.208C69.4177 125.772 68.6497 126.156 67.8577 126.156C66.4897 126.156 65.6857 125.232 65.6857 123.78V120.072H67.1497V123.264C67.1497 124.392 67.5937 124.848 68.4097 124.848C69.3337 124.848 69.7777 124.308 69.7777 123.18V120.072ZM72.2378 128.748V127.524H73.1138C73.6898 127.524 74.0498 127.392 74.3018 126.696L74.4698 126.252L72.0818 120.072H73.6298L75.1538 124.392L76.7618 120.072H78.2738L75.3698 127.32C74.9258 128.424 74.3018 128.88 73.3298 128.88C72.9218 128.88 72.5618 128.832 72.2378 128.748Z" fill="#999999"/>
<defs>
<filter id="filter0_b_277_854" x="-12.4998" y="-12.5" width="167" height="178" filterUnits="userSpaceOnUse" color-interpolation-filters="sRGB">
<feFlood flood-opacity="0" result="BackgroundImageFix"/>
<feGaussianBlur in="BackgroundImageFix" stdDeviation="6.25"/>
<feComposite in2="SourceAlpha" operator="in" result="effect1_backgroundBlur_277_854"/>
<feBlend mode="normal" in="SourceGraphic" in2="effect1_backgroundBlur_277_854" result="shape"/>
</filter>
<filter id="filter1_b_277_854" x="-0.999756" y="77" width="137" height="89" filterUnits="userSpaceOnUse" color-interpolation-filters="sRGB">
<feFlood flood-opacity="0" result="BackgroundImageFix"/>
<feGaussianBlur in="BackgroundImageFix" stdDeviation="15"/>
<feComposite in2="SourceAlpha" operator="in" result="effect1_backgroundBlur_277_854"/>
<feBlend mode="normal" in="SourceGraphic" in2="effect1_backgroundBlur_277_854" result="shape"/>
</filter>
</defs>
</svg>
