<svg width="40" height="40" viewBox="0 0 40 40" fill="none" xmlns="http://www.w3.org/2000/svg">
<g clip-path="url(#clip0_0_798)">
<path d="M31.7851 8.21489C25.3033 1.73308 14.6967 1.73308 8.21489 8.21489C1.73308 14.6967 1.73308 25.3033 8.21489 31.7851C14.6967 38.2669 25.3033 38.2669 31.7851 31.7851C38.2669 25.3033 38.2669 14.6967 31.7851 8.21489ZM17.0537 9.98266H25.3033V18.2322L22.357 15.286L17.643 20L15.286 17.643L20 12.9289L17.0537 9.98266ZM22.9463 30.0173L14.6967 30.0173L14.6967 21.7678L17.643 24.714L22.357 20L24.714 22.357L20 27.0711L22.9463 30.0173Z" fill="#6A87F8"/>
</g>
<defs>
<clipPath id="clip0_0_798">
<rect width="40" height="40" rx="7" fill="white"/>
</clipPath>
</defs>
</svg>
