<svg width="40" height="40" viewBox="0 0 40 40" fill="none" xmlns="http://www.w3.org/2000/svg">
<path d="M20 0C11.0965 0 3.18352 5.98053 0.759171 14.5431C0.690476 14.7849 0.731345 15.0443 0.867867 15.2548C1.00526 15.4652 1.22636 15.6055 1.47418 15.6403L12.9603 17.2554C13.3237 17.3067 13.6637 17.1068 13.8332 16.7816C14.788 14.9572 16.5274 13.6087 18.6039 13.1861C18.9631 13.1131 19.249 12.8422 19.3003 12.4796L20.9137 0.993546C20.9485 0.743981 20.8463 0.491046 20.681 0.300611C20.5176 0.110177 20.2513 0 20 0ZM25.0883 0.737092C24.9672 0.755571 24.85 0.799606 24.7452 0.867867C24.5348 1.00526 24.3945 1.22636 24.3597 1.47418L22.7446 12.9603C22.6933 13.3237 22.8932 13.6637 23.2184 13.8332C25.0428 14.788 26.3912 16.5274 26.8139 18.6039C26.8869 18.9631 27.1578 19.249 27.5204 19.3003L39.0065 20.9137C39.0395 20.9189 39.0736 20.9205 39.1067 20.9205C39.3232 20.9205 39.5342 20.8262 39.6994 20.6827C39.8898 20.5184 40 20.2513 40 20C40 11.0965 34.0195 3.18352 25.4569 0.759171C25.3347 0.724823 25.2094 0.718614 25.0883 0.737092ZM0.806726 19.0812C0.62159 19.1023 0.443437 19.1933 0.300611 19.3173C0.110177 19.4816 0 19.7487 0 20C0 28.9035 5.98053 36.8165 14.5431 39.2408C14.6214 39.2626 14.701 39.2731 14.7792 39.2731C14.9462 39.2731 15.1121 39.2243 15.2548 39.1321C15.4652 38.9947 15.6055 38.7736 15.6403 38.5258L17.2554 27.0397C17.3067 26.6763 17.1068 26.3363 16.7816 26.1668C14.9564 25.212 13.6087 23.4718 13.1861 21.3944C13.1131 21.0352 12.8422 20.751 12.4796 20.6997L0.993546 19.0846C0.93159 19.0748 0.868437 19.0742 0.806726 19.0812ZM27.0397 22.7446C26.6763 22.6933 26.3363 22.8932 26.1668 23.2184C25.212 25.0428 23.4726 26.3912 21.3961 26.8139C21.0369 26.8869 20.751 27.1578 20.6997 27.5204L19.0863 39.0065C19.0515 39.256 19.1537 39.509 19.319 39.6994C19.4824 39.8898 19.7487 40 20 40C28.9035 40 36.8165 34.0195 39.2408 25.4569C39.3095 25.2151 39.2687 24.9557 39.1321 24.7452C38.9947 24.5348 38.7736 24.3945 38.5258 24.3597L27.0397 22.7446Z" fill="#6A87F8"/>
</svg>
