<svg width="24" height="24" viewBox="0 0 24 24" fill="none" xmlns="http://www.w3.org/2000/svg">
<g opacity="0.2">
<path d="M21.2695 9.18005C20.9795 8.72005 20.6695 8.29005 20.3495 7.89005C19.9795 7.42005 19.2795 7.38005 18.8595 7.80005L15.8595 10.8001C16.0795 11.4601 16.1195 12.2201 15.9195 13.0101C15.5695 14.4201 14.4295 15.5601 13.0195 15.9101C12.2295 16.1101 11.4695 16.0701 10.8095 15.8501C10.8095 15.8501 9.37946 17.2801 8.34946 18.3101C7.84946 18.8101 8.00946 19.6901 8.67946 19.9501C9.74946 20.3601 10.8595 20.5701 11.9995 20.5701C13.7795 20.5701 15.5095 20.0501 17.0895 19.0801C18.6995 18.0801 20.1495 16.6101 21.3195 14.74C22.2695 13.2301 22.2195 10.6901 21.2695 9.18005Z" fill="white"/>
<path d="M14.0206 9.98001L9.98062 14.02C9.47062 13.5 9.14062 12.78 9.14062 12C9.14062 10.43 10.4206 9.14001 12.0006 9.14001C12.7806 9.14001 13.5006 9.47001 14.0206 9.98001Z" fill="white"/>
<path d="M18.25 5.75005L14.86 9.14005C14.13 8.40005 13.12 7.96005 12 7.96005C9.76 7.96005 7.96 9.77005 7.96 12.0001C7.96 13.1201 8.41 14.1301 9.14 14.8601L5.76 18.2501H5.75C4.64 17.3501 3.62 16.2001 2.75 14.8401C1.75 13.2701 1.75 10.7201 2.75 9.15005C3.91 7.33005 5.33 5.90005 6.91 4.92005C8.49 3.96005 10.22 3.43005 12 3.43005C14.23 3.43005 16.39 4.25005 18.25 5.75005Z" fill="white"/>
<path d="M14.8601 12C14.8601 13.57 13.5801 14.86 12.0001 14.86C11.9401 14.86 11.8901 14.86 11.8301 14.84L14.8401 11.83C14.8601 11.89 14.8601 11.94 14.8601 12Z" fill="white"/>
<path d="M21.7709 2.23C21.4709 1.93 20.9809 1.93 20.6809 2.23L2.23086 20.69C1.93086 20.99 1.93086 21.48 2.23086 21.78C2.38086 21.92 2.57086 22 2.77086 22C2.97086 22 3.16086 21.92 3.31086 21.77L21.7709 3.31C22.0809 3.01 22.0809 2.53 21.7709 2.23Z" fill="white"/>
</g>
</svg>
