<svg width="114" height="22" viewBox="0 0 114 22" fill="none" xmlns="http://www.w3.org/2000/svg">
<path d="M32.8045 16.7888C35.1659 16.7888 36.65 15.3963 37.0547 14.1304L35.1321 13.4026C34.8452 14.352 34.0019 15.0007 32.8551 15.0007C31.4217 15.0007 30.3083 13.988 30.3083 12.4373C30.3083 10.8866 31.4217 9.87392 32.8382 9.87392C33.985 9.87392 34.7946 10.5227 35.0815 11.4879L37.0041 10.7758C36.5993 9.47831 35.1153 8.08585 32.8045 8.08585C30.1229 8.08585 28.1666 9.98468 28.1666 12.4532C28.1666 14.9216 30.1567 16.7888 32.8045 16.7888Z" fill="black"/>
<path d="M40.3468 9.19349V8.25991H38.3229V16.5989H40.465V11.8519C40.465 10.7284 41.443 9.95303 42.9949 9.95303V8.07002C41.8815 8.07002 40.9541 8.52891 40.3468 9.19349Z" fill="black"/>
<path d="M50.3581 8.25991L47.8451 14.9849L45.5514 8.25991H43.3419L46.4791 16.5989H47.1537L45.9393 19.4313H48.0476L49.1944 16.5989L52.5845 8.25991H50.3581Z" fill="black"/>
<path d="M58.6158 8.07002C57.3512 8.07002 56.3222 8.54474 55.6308 9.35173V8.25991H53.6407V19.4313H55.7824V15.7128C56.4572 16.3932 57.4015 16.7888 58.5655 16.7888C61.112 16.7888 62.9674 14.9216 62.9674 12.4373C62.9674 9.9372 61.1626 8.07002 58.6158 8.07002ZM58.2786 15.0166C56.7439 15.0166 55.6983 13.9564 55.6983 12.4373C55.6983 10.9183 56.7439 9.8581 58.2786 9.8581C59.7461 9.8581 60.8254 10.9499 60.8254 12.4373C60.8254 13.9089 59.7461 15.0166 58.2786 15.0166Z" fill="black"/>
<path d="M68.2605 16.5989H69.6602V14.8425H68.6822C67.7207 14.8425 67.1978 14.3203 67.1978 13.3551V9.98468H69.5927V8.25991H67.2653V6.09208H65.174V7.40544C65.174 7.97509 64.8873 8.25991 64.2969 8.25991H63.4873V9.98468H65.0392V13.5766C65.0392 15.4122 66.1354 16.5989 68.2605 16.5989Z" fill="black"/>
<path d="M74.988 16.7888C77.7539 16.7888 79.7272 14.9216 79.7272 12.4373C79.7272 9.9372 77.7539 8.07002 74.988 8.07002C72.2049 8.07002 70.2486 9.9372 70.2486 12.4373C70.2486 14.9216 72.2049 16.7888 74.988 16.7888ZM75.0049 15.0007C73.453 15.0007 72.3906 13.9247 72.3906 12.4373C72.3906 10.9341 73.453 9.87392 75.0049 9.87392C76.5396 9.87392 77.5683 10.9341 77.5683 12.4215C77.5683 13.9247 76.5227 15.0007 75.0049 15.0007Z" fill="black"/>
<path d="M91.786 8.07002C90.2847 8.07002 89.273 8.65549 88.7838 9.43086C88.2777 8.56056 87.3838 8.07002 85.9673 8.07002C84.7698 8.07002 83.8421 8.54474 83.2854 9.17769V8.25991H81.2616V16.5831H83.4036V11.5354C83.4205 10.7442 84.095 9.87392 85.3093 9.8581C86.5068 9.8581 87.1647 10.6967 87.1647 11.7886V16.5831H89.3067V11.5354C89.3236 10.76 89.9812 9.87392 91.2124 9.8581C92.4099 9.8581 93.0509 10.7126 93.0509 11.7886V16.5831H95.1927V11.4246C95.1927 9.54162 93.9952 8.07002 91.786 8.07002Z" fill="black"/>
<path d="M103.06 8.25991V13.3076C103.06 14.2254 102.284 14.9849 101.087 15.0007C99.8895 15.0007 99.1305 14.257 99.1305 13.181V8.25991H96.9885V13.4342C96.9885 15.3647 98.2029 16.7888 100.463 16.7888C101.61 16.7888 102.571 16.3299 103.195 15.6811V16.5989H105.202V8.25991H103.06Z" fill="black"/>
<path d="M110.323 16.7888C112.55 16.7888 114 15.8077 114 14.1463C114 11.0923 109.126 11.9626 109.126 10.4436C109.126 9.9372 109.547 9.62072 110.34 9.62072C111.082 9.62072 111.605 9.92137 111.841 10.5543L113.713 9.87392C113.342 8.73463 112.094 8.07002 110.374 8.07002C108.283 8.07002 106.933 9.01945 106.933 10.5385C106.933 13.4026 111.807 12.643 111.807 14.2887C111.807 14.8742 111.268 15.2064 110.408 15.2064C109.328 15.2064 108.637 14.7475 108.384 13.9722L106.512 14.6526C107.001 16.0609 108.401 16.7888 110.323 16.7888Z" fill="black"/>
<path d="M19.9779 5.04569L10.9786 0.165284C10.5732 -0.0550948 10.0675 -0.0550948 9.65983 0.165284L0.66054 5.04569C0.252828 5.26607 0 5.67689 0 6.11979V15.8806C0 16.3214 0.252828 16.7322 0.66054 16.9547L9.65983 21.8353C9.86026 21.9444 10.088 22 10.3204 22C10.5527 22 10.7805 21.9422 10.9809 21.8353L19.9802 16.9547C20.3879 16.7343 20.6407 16.3236 20.6407 15.8806V6.11979C20.6407 5.67903 20.3879 5.26821 19.9802 5.04569H19.9779ZM10.5231 10.3947C10.3978 10.4632 10.2406 10.4632 10.1154 10.3947L1.36663 5.65119L10.1154 0.907725C10.2384 0.841398 10.4001 0.841398 10.5231 0.907725L19.2718 5.65119L10.5231 10.3947ZM9.65983 11.135C9.72361 11.1692 9.79192 11.1992 9.86482 11.2227V20.9536L1.11608 16.2123C0.990808 16.1438 0.911088 16.0176 0.911088 15.8806V6.39151L9.65983 11.135Z" fill="black"/>
</svg>
