<svg width="84" height="24" viewBox="0 0 84 24" fill="none" xmlns="http://www.w3.org/2000/svg">
<path d="M41.9776 13.967H31.8563C31.9997 14.8765 32.4011 15.6101 33.0319 16.1381C33.6626 16.6662 34.4654 16.9596 35.469 16.9596C36.6446 16.9596 37.6481 16.5488 38.5082 15.6981L41.1461 16.9596C40.4866 17.9279 39.6837 18.632 38.7663 19.1015C37.8488 19.5709 36.7593 19.8056 35.469 19.8056C33.4906 19.8056 31.9137 19.1601 30.6521 17.8985C29.4193 16.637 28.7884 15.0526 28.7884 13.1161C28.7884 11.1504 29.4193 9.53669 30.6521 8.24568C31.885 6.95476 33.4333 6.30929 35.297 6.30929C37.2753 6.30929 38.8809 6.95476 40.1138 8.24568C41.3468 9.53669 41.9776 11.2384 41.9776 13.3802V13.967ZM38.8523 11.4437C38.6516 10.7396 38.2215 10.1528 37.6194 9.7127C37.0173 9.27258 36.3005 9.03793 35.4977 9.03793C34.6088 9.03793 33.8633 9.30194 33.1752 9.80071C32.7738 10.1235 32.3724 10.681 32.0284 11.4731H38.8523V11.4437Z" fill="white"/>
<path d="M44.1156 6.63202H47.2696V7.9523C47.9863 7.33618 48.6171 6.89607 49.2192 6.66136C49.7926 6.42664 50.3947 6.30929 50.9968 6.30929C52.2298 6.30929 53.2907 6.74938 54.1508 7.62957C54.8676 8.39242 55.2403 9.50732 55.2403 10.9743V19.4535H52.1438V13.8497C52.1438 12.324 52.0865 11.2971 51.9431 10.7982C51.7997 10.2995 51.5704 9.91808 51.255 9.65407C50.9108 9.38995 50.5094 9.27258 50.022 9.27258C49.3912 9.27258 48.8465 9.47795 48.3877 9.91808C47.929 10.3582 47.6136 10.945 47.4416 11.7371C47.3556 12.1479 47.2982 12.9988 47.2982 14.3484V19.4829H44.1443V6.63202H44.1156Z" fill="white"/>
<path d="M64.1886 6.30929C65.3641 6.30929 66.4823 6.60268 67.5145 7.21882C68.5467 7.83495 69.3782 8.65644 69.9516 9.68333C70.5251 10.7102 70.8405 11.8545 70.8405 13.0574C70.8405 14.2604 70.5537 15.4047 69.9516 16.4608C69.3782 17.5171 68.5754 18.3386 67.5431 18.9254C66.511 19.5123 65.4215 19.8056 64.1886 19.8056C62.3822 19.8056 60.8626 19.1601 59.5724 17.8399C58.3108 16.5196 57.6514 14.9352 57.6514 13.0574C57.6514 11.0624 58.3682 9.38995 59.8018 8.0403C61.092 6.86673 62.5542 6.30929 64.1886 6.30929ZM64.2173 9.33131C63.2424 9.33131 62.4395 9.68333 61.7801 10.3875C61.1206 11.0917 60.8053 11.9719 60.8053 13.0574C60.8053 14.1724 61.1206 15.0819 61.7801 15.7567C62.4109 16.4608 63.2424 16.7836 64.2173 16.7836C65.1921 16.7836 66.0236 16.4316 66.683 15.7273C67.3424 15.0232 67.6579 14.1137 67.6579 13.0281C67.6579 11.9132 67.3424 11.033 66.683 10.3582C66.0522 9.68333 65.2208 9.33131 64.2173 9.33131Z" fill="white"/>
<path d="M73.7649 1.90788H76.9188V6.63159H78.7825V9.38955H76.9188V19.4531H73.7649V9.38955H72.1593V6.63159H73.7649V1.90788Z" fill="white"/>
<path d="M82.1937 16.1089C82.6811 16.1089 83.1112 16.2849 83.4839 16.637C83.828 16.9891 84 17.4292 84 17.928C84 18.4267 83.828 18.8668 83.4839 19.2482C83.1399 19.6297 82.7098 19.7764 82.1937 19.7764C81.7063 19.7764 81.2761 19.6004 80.9034 19.2482C80.5593 18.8962 80.3873 18.4561 80.3873 17.928C80.3873 17.3998 80.5593 16.9891 80.9034 16.637C81.2761 16.2849 81.6776 16.1089 82.1937 16.1089Z" fill="#FFDF54"/>
<path d="M6.93861 24V16.2836H0L9.28971 0V7.74572H16.085L6.93861 24Z" fill="#FFDF54"/>
</svg>
