<svg width="70" height="26" viewBox="0 0 70 26" fill="none" xmlns="http://www.w3.org/2000/svg">
<path fill-rule="evenodd" clip-rule="evenodd" d="M37.8973 3.52334L33.0167 4.46067V0.919891L37.8973 0V3.52334ZM48.047 5.48471C46.1414 5.48471 44.9164 6.28302 44.2359 6.83851L43.9831 5.7624H39.7052V26L44.5664 25.0801L44.5859 20.1682C45.2859 20.6194 46.3164 21.2616 48.0275 21.2616C51.5081 21.2616 54.6775 18.7623 54.6775 13.2603C54.6581 8.22695 51.4497 5.48471 48.047 5.48471ZM46.8802 17.4432C45.7331 17.4432 45.0524 17.0788 44.5857 16.6274L44.5664 10.1882C45.0719 9.68489 45.7719 9.33782 46.8802 9.33782C48.6497 9.33782 49.8747 11.1081 49.8747 13.3818C49.8747 15.7075 48.6691 17.4432 46.8802 17.4432ZM70 13.4338C70 8.99062 67.5888 5.48471 62.9805 5.48471C58.3528 5.48471 55.5528 8.99062 55.5528 13.3992C55.5528 18.6234 58.8583 21.2616 63.6028 21.2616C65.9167 21.2616 67.6667 20.793 68.9888 20.1335V16.6622C67.6667 17.2523 66.15 17.6168 64.225 17.6168C62.3388 17.6168 60.6667 17.0267 60.4528 14.9786H69.9612C69.9612 14.8831 69.9682 14.6661 69.9761 14.4159C69.9871 14.0757 70 13.6738 70 13.4338ZM60.3944 11.785C60.3944 9.8238 61.736 9.00805 62.961 9.00805C64.1472 9.00805 65.411 9.8238 65.411 11.785H60.3944ZM33.0164 5.77972H37.897V20.9666H33.0164V5.77972ZM27.4751 5.77972L27.7863 7.06412C28.9335 5.18959 31.2085 5.57142 31.8306 5.77972V9.77172C31.228 9.58075 29.2835 9.33782 28.1363 10.6743V20.9666H23.2751V5.77972H27.4751ZM18.0637 2.01332L13.3192 2.91589L13.2999 16.8184C13.2999 19.3871 15.4582 21.279 18.3359 21.279C19.9304 21.279 21.097 21.0187 21.7387 20.7063V17.1829C21.1165 17.4085 18.0442 18.207 18.0442 15.6381V9.4766H21.7387V5.77972H18.0442L18.0637 2.01332ZM6.57231 9.25111C5.54167 9.25111 4.91949 9.51135 4.91949 10.1883C4.91949 10.9274 5.99035 11.2525 7.31884 11.6558C9.48459 12.3134 12.3352 13.1788 12.3473 16.3845C12.3473 19.4914 9.56667 21.2791 5.52231 21.2791C3.85 21.2791 2.02218 20.984 0.213843 20.2898V16.1589C1.84718 16.9573 3.90833 17.5474 5.52231 17.5474C6.61116 17.5474 7.38898 17.2871 7.38898 16.4886C7.38898 15.6701 6.22808 15.2959 4.82671 14.8441C2.69239 14.1561 0 13.2882 0 10.3966C0 7.32449 2.625 5.48471 6.57231 5.48471C8.18616 5.48471 9.78065 5.71032 11.3945 6.28314V10.3619C9.91667 9.65026 8.05 9.25111 6.57231 9.25111Z" fill="white"/>
</svg>
