<svg width="100" height="20" viewBox="0 0 100 20" fill="none" xmlns="http://www.w3.org/2000/svg">
<path d="M23.9799 1.72686C24.1668 0.57617 23.0181 -0.332074 21.9438 0.117141L0.547225 9.064C-0.223159 9.38614 -0.166804 10.4976 0.6322 10.7399L5.04464 12.0781C5.88689 12.3336 6.79874 12.2014 7.53419 11.7176L17.4825 5.17186C17.7825 4.97443 18.1095 5.38072 17.8531 5.63229L10.6921 12.6637C9.99749 13.3459 10.1353 14.5017 10.971 15.0007L18.9885 19.789C19.8877 20.326 21.0445 19.7866 21.2127 18.7516L23.9799 1.72686Z" fill="white"/>
<path d="M35.6233 15V6.74H32.3753V5.2H40.6913V6.74H37.4433V15H35.6233ZM44.6376 15.098C43.8069 15.098 43.0789 14.9347 42.4536 14.608C41.8376 14.272 41.3569 13.8147 41.0116 13.236C40.6756 12.6573 40.5076 11.9993 40.5076 11.262C40.5076 10.5153 40.6709 9.85733 40.9976 9.288C41.3336 8.70933 41.7909 8.25667 42.3696 7.93C42.9576 7.60333 43.6249 7.44 44.3716 7.44C45.0996 7.44 45.7483 7.59867 46.3176 7.916C46.8869 8.23333 47.3349 8.68133 47.6616 9.26C47.9883 9.83867 48.1516 10.52 48.1516 11.304C48.1516 11.3787 48.1469 11.4627 48.1376 11.556C48.1376 11.6493 48.1329 11.738 48.1236 11.822H41.8936V10.66H47.1996L46.5136 11.024C46.5229 10.5947 46.4343 10.2167 46.2476 9.89C46.0609 9.56333 45.8043 9.30667 45.4776 9.12C45.1603 8.93333 44.7916 8.84 44.3716 8.84C43.9423 8.84 43.5643 8.93333 43.2376 9.12C42.9203 9.30667 42.6683 9.568 42.4816 9.904C42.3043 10.2307 42.2156 10.618 42.2156 11.066V11.346C42.2156 11.794 42.3183 12.1907 42.5236 12.536C42.7289 12.8813 43.0183 13.1473 43.3916 13.334C43.7649 13.5207 44.1943 13.614 44.6796 13.614C45.0996 13.614 45.4776 13.5487 45.8136 13.418C46.1496 13.2873 46.4483 13.082 46.7096 12.802L47.6476 13.88C47.3116 14.272 46.8869 14.5753 46.3736 14.79C45.8696 14.9953 45.2909 15.098 44.6376 15.098ZM49.8326 15V4.612H51.5826V15H49.8326ZM57.3934 15.098C56.5628 15.098 55.8348 14.9347 55.2094 14.608C54.5934 14.272 54.1128 13.8147 53.7674 13.236C53.4314 12.6573 53.2634 11.9993 53.2634 11.262C53.2634 10.5153 53.4268 9.85733 53.7534 9.288C54.0894 8.70933 54.5468 8.25667 55.1254 7.93C55.7134 7.60333 56.3808 7.44 57.1274 7.44C57.8554 7.44 58.5041 7.59867 59.0734 7.916C59.6428 8.23333 60.0908 8.68133 60.4174 9.26C60.7441 9.83867 60.9074 10.52 60.9074 11.304C60.9074 11.3787 60.9028 11.4627 60.8934 11.556C60.8934 11.6493 60.8888 11.738 60.8794 11.822H54.6494V10.66H59.9554L59.2694 11.024C59.2788 10.5947 59.1901 10.2167 59.0034 9.89C58.8168 9.56333 58.5601 9.30667 58.2334 9.12C57.9161 8.93333 57.5474 8.84 57.1274 8.84C56.6981 8.84 56.3201 8.93333 55.9934 9.12C55.6761 9.30667 55.4241 9.568 55.2374 9.904C55.0601 10.2307 54.9714 10.618 54.9714 11.066V11.346C54.9714 11.794 55.0741 12.1907 55.2794 12.536C55.4848 12.8813 55.7741 13.1473 56.1474 13.334C56.5208 13.5207 56.9501 13.614 57.4354 13.614C57.8554 13.614 58.2334 13.5487 58.5694 13.418C58.9054 13.2873 59.2041 13.082 59.4654 12.802L60.4034 13.88C60.0674 14.272 59.6428 14.5753 59.1294 14.79C58.6254 14.9953 58.0468 15.098 57.3934 15.098ZM65.9764 17.814C65.2858 17.814 64.6091 17.7207 63.9464 17.534C63.2931 17.3567 62.7564 17.0953 62.3364 16.75L63.1204 15.434C63.4471 15.7047 63.8578 15.9193 64.3524 16.078C64.8564 16.246 65.3651 16.33 65.8784 16.33C66.6998 16.33 67.3018 16.1387 67.6844 15.756C68.0671 15.3827 68.2584 14.818 68.2584 14.062V12.732L68.3984 11.038L68.3424 9.344V7.524H70.0084V13.866C70.0084 15.2193 69.6631 16.2133 68.9724 16.848C68.2818 17.492 67.2831 17.814 65.9764 17.814ZM65.7524 14.664C65.0431 14.664 64.3991 14.5147 63.8204 14.216C63.2511 13.908 62.7984 13.4833 62.4624 12.942C62.1358 12.4007 61.9724 11.766 61.9724 11.038C61.9724 10.3193 62.1358 9.68933 62.4624 9.148C62.7984 8.60667 63.2511 8.18667 63.8204 7.888C64.3991 7.58933 65.0431 7.44 65.7524 7.44C66.3871 7.44 66.9564 7.566 67.4604 7.818C67.9644 8.07 68.3658 8.462 68.6644 8.994C68.9724 9.526 69.1264 10.2073 69.1264 11.038C69.1264 11.8687 68.9724 12.5547 68.6644 13.096C68.3658 13.628 67.9644 14.0247 67.4604 14.286C66.9564 14.538 66.3871 14.664 65.7524 14.664ZM66.0184 13.18C66.4571 13.18 66.8491 13.0913 67.1944 12.914C67.5398 12.7273 67.8058 12.4753 67.9924 12.158C68.1884 11.8313 68.2864 11.458 68.2864 11.038C68.2864 10.618 68.1884 10.2493 67.9924 9.932C67.8058 9.60533 67.5398 9.358 67.1944 9.19C66.8491 9.01267 66.4571 8.924 66.0184 8.924C65.5798 8.924 65.1831 9.01267 64.8284 9.19C64.4831 9.358 64.2124 9.60533 64.0164 9.932C63.8298 10.2493 63.7364 10.618 63.7364 11.038C63.7364 11.458 63.8298 11.8313 64.0164 12.158C64.2124 12.4753 64.4831 12.7273 64.8284 12.914C65.1831 13.0913 65.5798 13.18 66.0184 13.18ZM72.3091 15V7.524H73.9751V9.582L73.7791 8.98C74.0031 8.476 74.3531 8.09333 74.8291 7.832C75.3145 7.57067 75.9165 7.44 76.6351 7.44V9.106C76.5605 9.08733 76.4905 9.078 76.4251 9.078C76.3598 9.06867 76.2945 9.064 76.2291 9.064C75.5665 9.064 75.0391 9.26 74.6471 9.652C74.2551 10.0347 74.0591 10.6087 74.0591 11.374V15H72.3091ZM82.1925 15V13.488L82.0945 13.166V10.52C82.0945 10.0067 81.9405 9.61 81.6325 9.33C81.3245 9.04067 80.8578 8.896 80.2325 8.896C79.8125 8.896 79.3971 8.96133 78.9865 9.092C78.5851 9.22267 78.2445 9.40467 77.9645 9.638L77.2785 8.364C77.6798 8.056 78.1558 7.82733 78.7065 7.678C79.2665 7.51933 79.8451 7.44 80.4425 7.44C81.5251 7.44 82.3605 7.70133 82.9485 8.224C83.5458 8.73733 83.8445 9.53533 83.8445 10.618V15H82.1925ZM79.8405 15.098C79.2805 15.098 78.7905 15.0047 78.3705 14.818C77.9505 14.622 77.6238 14.356 77.3905 14.02C77.1665 13.6747 77.0545 13.2873 77.0545 12.858C77.0545 12.438 77.1525 12.06 77.3485 11.724C77.5538 11.388 77.8851 11.122 78.3425 10.926C78.7998 10.73 79.4065 10.632 80.1625 10.632H82.3325V11.794H80.2885C79.6911 11.794 79.2898 11.892 79.0845 12.088C78.8791 12.2747 78.7765 12.508 78.7765 12.788C78.7765 13.1053 78.9025 13.3573 79.1545 13.544C79.4065 13.7307 79.7565 13.824 80.2045 13.824C80.6338 13.824 81.0165 13.726 81.3525 13.53C81.6978 13.334 81.9451 13.0447 82.0945 12.662L82.3885 13.712C82.2205 14.1507 81.9171 14.4913 81.4785 14.734C81.0491 14.9767 80.5031 15.098 79.8405 15.098ZM95.5264 7.44C96.1237 7.44 96.6511 7.55667 97.1084 7.79C97.575 8.02333 97.939 8.38267 98.2004 8.868C98.4617 9.344 98.5924 9.96 98.5924 10.716V15H96.8424V10.94C96.8424 10.2773 96.6977 9.78267 96.4084 9.456C96.1191 9.12933 95.7037 8.966 95.1624 8.966C94.7797 8.966 94.439 9.05 94.1404 9.218C93.851 9.386 93.6224 9.63333 93.4544 9.96C93.2957 10.2867 93.2164 10.702 93.2164 11.206V15H91.4664V10.94C91.4664 10.2773 91.3217 9.78267 91.0324 9.456C90.743 9.12933 90.3277 8.966 89.7864 8.966C89.4037 8.966 89.063 9.05 88.7644 9.218C88.475 9.386 88.2464 9.63333 88.0784 9.96C87.9197 10.2867 87.8404 10.702 87.8404 11.206V15H86.0904V7.524H87.7564V9.512L87.4624 8.924C87.7144 8.43867 88.0784 8.07 88.5544 7.818C89.0397 7.566 89.5904 7.44 90.2064 7.44C90.9064 7.44 91.513 7.61267 92.0264 7.958C92.5491 8.30333 92.8944 8.826 93.0624 9.526L92.3764 9.288C92.619 8.728 93.0204 8.28 93.5804 7.944C94.1404 7.608 94.7891 7.44 95.5264 7.44Z" fill="white"/>
</svg>
