<svg width="122" height="37" viewBox="0 0 122 37" fill="none" xmlns="http://www.w3.org/2000/svg">
<path d="M115.78 25.9585L117.527 30.4664C117.709 30.9714 117.906 31.57 118.037 32.0264H118.071C118.219 31.57 118.384 30.9864 118.581 30.4346L120.163 25.9585H121.697L119.52 31.3979C118.481 34.0166 117.773 35.3558 116.782 36.1751C116.353 36.5444 115.849 36.8252 115.301 37C115.182 36.7961 114.638 35.9058 114.638 35.9058C115.103 35.7595 115.533 35.5296 115.908 35.2287C116.434 34.8114 116.852 34.2824 117.128 33.6836C117.187 33.5807 117.226 33.4686 117.243 33.3526C117.23 33.2274 117.196 33.1049 117.144 32.9897L114.192 25.9585H115.78ZM82.3728 25.7846C84.8118 25.7846 85.4063 27.3764 85.4063 28.9064V31.7608C85.3954 32.373 85.4392 32.985 85.5374 33.5901H84.2191L84.1037 32.6287H84.0568C83.7737 32.9895 83.4049 33.2807 82.9807 33.4781C82.5566 33.6755 82.0895 33.7736 81.6179 33.7641C80.0024 33.7641 79.179 32.6754 79.179 31.5719C79.179 29.7276 80.8923 28.7194 83.9766 28.7343V28.5772C83.9766 27.9469 83.7947 26.8115 82.1636 26.8115C81.4956 26.8148 80.839 26.9767 80.2527 27.2828L79.754 26.4636C80.5439 26.009 81.451 25.7744 82.3728 25.7865V25.7846ZM109.518 25.7846C111.957 25.7846 112.551 27.3764 112.551 28.9064V31.7608C112.54 32.373 112.584 32.985 112.682 33.5901H111.364L111.249 32.6287H111.2C110.917 32.9895 110.548 33.2807 110.124 33.4781C109.7 33.6755 109.233 33.7736 108.761 33.7641C107.145 33.7641 106.322 32.6754 106.322 31.5719C106.322 29.7276 108.037 28.7194 111.12 28.7343V28.5772C111.12 27.9469 110.938 26.8115 109.307 26.8115C108.639 26.8147 107.982 26.9767 107.396 27.2828L106.901 26.4636C107.69 26.0093 108.597 25.7748 109.518 25.7865V25.7846ZM65.2984 22.7918C66.6831 22.7918 67.5574 23.0761 67.9349 23.2651C67.9349 23.2651 67.4968 23.9945 67.3168 24.2714C66.6869 24.0476 66.0192 23.9367 65.3473 23.944C62.7421 23.944 61.0112 25.5358 61.0112 28.3266C61.0112 30.9284 62.5759 32.5988 65.2808 32.5988C65.9783 32.6026 66.6713 32.4932 67.3305 32.2752C67.4616 32.494 67.9173 33.2459 67.9173 33.2459C67.3892 33.4985 66.335 33.751 64.9835 33.751C61.8542 33.751 59.4935 31.8599 59.4935 28.3752C59.4954 25.0495 61.8522 22.79 65.2984 22.79V22.7918ZM54.5198 25.7846C57.125 25.7846 57.8173 27.9768 57.8173 29.3797C57.815 29.5961 57.7987 29.8123 57.7684 30.0268H52.163C52.1963 31.8973 53.448 32.6754 54.9012 32.6754C55.5513 32.6915 56.1992 32.5959 56.814 32.393C56.947 32.6025 57.3577 33.274 57.3577 33.274C56.5178 33.6089 55.6133 33.7702 54.7036 33.7472C52.2471 33.7472 50.7802 32.2022 50.7802 29.8996C50.7802 27.5971 52.1943 25.7865 54.5237 25.7865L54.5198 25.7846ZM89.9204 23.7663V25.9585H91.9975V27.0154H89.9243V31.1304C89.9243 32.0769 90.204 32.6118 91.0118 32.6118C91.1311 32.6118 91.2386 32.6118 91.3384 32.5988C91.5085 32.8737 91.9251 33.5564 91.9251 33.5564C91.5124 33.6937 91.0769 33.7571 90.6401 33.7435C89.9634 33.7435 89.4197 33.5377 89.0755 33.1599C88.6628 32.7503 88.5142 32.0731 88.5142 31.1734V27.0154H87.2781V25.9585H88.5142V23.7682L89.9204 23.7663ZM100.914 22.8835C102.332 22.8835 103.371 23.1996 104.03 23.7663C104.64 24.2714 105.008 25.0439 105.008 25.9885C105.008 26.9331 104.71 27.7074 104.151 28.2592C103.392 29.0317 102.156 29.4264 100.756 29.4264C100.368 29.4379 99.9812 29.4059 99.6018 29.331V33.5882H98.1682V23.0892C99.076 22.9488 99.9945 22.8806 100.914 22.8853V22.8835ZM38.0204 22.962L39.3386 28.3378C39.6691 29.6621 39.9645 30.9864 40.162 32.0114H40.1953C40.3772 30.9546 40.7233 29.6939 41.1028 28.3228L42.5931 22.9639H44.0932L45.4447 28.3546C45.7577 29.6153 46.0549 30.876 46.2271 31.9965H46.2603C46.4911 30.8293 46.804 29.6471 47.1502 28.3228L48.6171 22.962H50.084L46.9351 33.5882H45.4349L44.0346 28.0554C43.7261 26.9131 43.4838 25.7553 43.309 24.5875H43.2757C43.0482 25.7577 42.7551 26.9153 42.3975 28.0554L40.8329 33.5882H39.3327L36.5144 22.962H38.0204ZM71.6099 22.4009V27.1613H71.6431C71.8887 26.7501 72.248 26.4116 72.6817 26.183C73.1319 25.9295 73.6437 25.7935 74.1662 25.7883C75.2379 25.7883 76.9513 26.4187 76.9513 29.0523V33.592H75.5V29.2076C75.5 27.9787 75.0228 26.9368 73.6537 26.9368C73.2184 26.9446 72.7965 27.0827 72.4474 27.3316C72.0984 27.5806 71.8397 27.9279 71.7077 28.3247C71.6284 28.5368 71.5945 28.762 71.6079 28.9869V33.5901H70.1567V22.3972L71.6099 22.4009ZM80.6243 31.4091C80.6243 32.307 81.2502 32.7334 81.9934 32.7334C82.4151 32.744 82.8293 32.6259 83.1761 32.3962C83.5228 32.1665 83.784 31.8372 83.9219 31.4559C83.973 31.3137 84.0008 31.1648 84.004 31.0145V29.6902C82.4217 29.664 80.6243 29.9314 80.6243 31.4091ZM107.769 31.4091C107.769 32.307 108.395 32.7334 109.138 32.7334C109.56 32.744 109.974 32.6259 110.321 32.3962C110.668 32.1665 110.929 31.8372 111.067 31.4559C111.118 31.3137 111.146 31.1648 111.149 31.0145V29.6902C109.567 29.664 107.769 29.9314 107.769 31.4091ZM54.4044 26.7797C52.9375 26.7797 52.2941 28.0722 52.1787 29.0336H56.415C56.4306 28.1507 56.0356 26.7797 54.4044 26.7797ZM100.953 23.974C100.5 23.962 100.046 23.999 99.6018 24.0843V28.2143C99.9912 28.298 100.39 28.3351 100.789 28.3247C102.52 28.3247 103.574 27.5204 103.574 26.0539C103.568 24.6511 102.53 23.9721 100.947 23.9721L100.953 23.974ZM91.1858 0.018706V2.80947H99.8189V4.25909H91.1858V7.28927H98.1545C98.1545 7.28927 97.2607 11.6437 92.0386 15.3099C94.1509 16.3742 96.9282 17.128 100.327 17.6368C100.327 17.6368 99.7778 18.572 99.3084 19.2921C95.5923 18.6749 92.6957 17.5937 90.423 16.3256C88.1328 17.6255 85.1716 18.7572 81.3421 19.3932C81.0761 19.0191 80.3485 17.7845 80.3485 17.7845C83.8202 17.2645 86.6776 16.4247 88.8134 15.3286C83.5639 11.7279 82.5547 7.28553 82.5547 7.28553H89.5038V4.25535H80.5363V2.80947H89.5038V0.018706H91.1858ZM40.0505 5.35332L41.3961 6.03605C40.7566 7.48941 40.162 8.4789 39.9977 8.7894V19.3352H38.4859V11.0676C37.6175 12.1899 37.1168 12.7642 36.8547 13.0391L36 11.6232C37.6194 9.97902 39.055 7.72135 40.0505 5.35332ZM106.766 0.0766904L108.526 0.450787L108.471 0.589206C107.756 2.37926 107.085 3.9037 106.479 5.11951V19.3352H104.789V8.18149C104.173 9.13616 103.503 10.0572 102.78 10.9405L101.855 9.38421C103.838 6.80294 105.506 3.66802 106.721 0.185182L106.766 0.0766904ZM62.4937 0.0766904L64.0877 0.450787C64.0877 0.450787 63.0727 3.50902 62.2962 5.12699V19.3426H60.6122V8.2376C59.9375 9.45341 59.4857 10.2521 58.9146 10.9666L58.0031 9.45716C60.3638 6.60655 62.4879 0.0729515 62.4879 0.0729515L62.4937 0.0766904ZM51.7738 0L53.2896 0.289928L53.2544 0.420858C52.9414 1.56746 52.5953 2.69349 52.2256 3.77089H56.7612V5.14196H55.6679C55.3862 9.03443 54.6645 12.0496 53.5262 14.1072C54.4298 15.7906 56.1705 17.3656 56.6556 17.792C56.546 17.9922 55.7872 19.2342 55.7872 19.2342C55.7872 19.2342 53.2661 16.7651 52.695 15.5699C52.0535 16.6005 50.8702 17.9361 49.2664 19.3109L48.4606 17.9417C48.4606 17.9417 50.6551 16.2002 51.899 14.0978C51.113 12.1593 50.5993 10.1295 50.3715 8.06178C50.1055 8.50882 49.9607 8.75012 49.6928 9.13356C49.6928 9.13356 48.9848 7.95703 48.8401 7.73631C50.1133 5.59461 51.0677 3.07134 51.7484 0.121586L51.7738 0ZM119.078 0.164603V4.72858H122V6.25864H119.066V16.1946C119.066 16.9542 118.751 17.6826 118.19 18.2204C117.629 18.7581 116.868 19.0615 116.074 19.0639H114.118V17.3805H116.074C116.405 17.38 116.722 17.2541 116.956 17.0304C117.189 16.8067 117.321 16.5035 117.322 16.1871V6.25489H107.967V4.72484H117.32V0.160864L119.078 0.164603ZM77.1449 12.3059V18.9816H65.2808V12.3022L77.1449 12.3059ZM48.003 11.5091V15.1958C48.2866 14.9657 49.1549 14.2362 49.4464 13.9875L50.1446 15.1434L46.9448 17.7266C46.9448 17.7266 46.2681 16.6043 46.1312 16.3966C46.3268 16.1965 46.5713 15.7831 46.5713 14.9938V12.8745H43.663C43.663 16.0282 43.53 17.1766 41.3316 18.8133C41.3316 18.8133 40.8016 17.9192 40.5649 17.5451C42.4543 16.1179 42.2293 14.167 42.2293 11.5053L48.003 11.5091ZM75.5431 13.7537H66.9648V17.6087H75.5392L75.5431 13.7537ZM95.7918 8.72019H84.9565C85.5765 9.95471 87.1079 12.3377 90.4328 14.4102C93.7265 12.3059 95.2168 9.89859 95.7918 8.72019ZM111.374 8.62105L114.433 13.2655L112.839 14.0978L109.976 9.42162L111.374 8.62105ZM54.2303 5.13821H51.7347C51.7093 5.23548 51.4746 5.80036 51.4218 5.91072C51.7327 8.76508 52.1924 10.961 52.7908 12.4219C53.5321 10.7197 54.0171 8.27314 54.2303 5.13821ZM77.3092 9.11112V10.4822H65.1146V9.11112H77.3092ZM48.754 8.39286V9.76392H41.9086V8.40221L48.754 8.39286ZM77.3092 5.92008V7.29114H65.1146V5.92008H77.3092ZM46.1645 0.338562V5.36455H47.7135V1.77322H49.063V6.6533H41.7521V1.85552H43.1799V5.36455H44.7269V0.338562H46.1645ZM40.1229 0.00561122L41.445 0.834239C40.3689 2.9854 38.8794 4.92386 37.0542 6.54856L36.2562 5.22239C37.7035 3.88686 39.0726 2.00329 40.1249 0.00374462L40.1229 0.00561122ZM71.2011 0.0748238L72.3903 2.65235H78.4729V4.1001H64.031V2.65047H70.7043L69.8379 0.639707L71.2011 0.0748238Z" fill="white"/>
<path fill-rule="evenodd" clip-rule="evenodd" d="M3.92062 10.2203C6.75988 7.81658 10.5249 6.75954 14.1418 7.04573C17.2188 7.27826 20.2673 8.49032 22.5716 10.6649C22.9372 11.0303 23.3061 11.394 23.6187 11.8105C19.3065 13.8309 14.9829 15.8274 10.669 17.8444C10.2513 18.065 9.71231 18.0676 9.32148 17.7831C8.3851 17.0932 7.45931 16.3862 6.51723 15.7048C6.32833 15.5353 6.04986 15.6375 5.91144 15.8257C5.81699 16.0208 5.88701 16.2431 5.97007 16.4271C6.73464 18.1604 7.48455 19.9014 8.24505 21.6365C8.37533 21.9636 8.66031 22.2745 9.02265 22.2583C9.35975 22.2906 9.63089 22.053 9.90854 21.8937C14.7183 18.9849 19.532 16.0838 24.3434 13.1784C24.4069 13.1572 24.529 13.0524 24.5665 13.1657C25.3368 14.4501 25.8229 15.9237 25.958 17.4347C26.116 19.1221 25.8245 20.852 25.1438 22.3894C24.0959 24.7735 22.1889 26.6713 19.988 27.8884C16.556 29.7955 12.4058 30.155 8.68718 29.023C8.33625 28.908 7.96577 29.0247 7.65798 29.2104C6.76639 29.7487 5.87236 30.2819 4.98646 30.8296C4.80407 30.925 4.58341 31.086 4.38474 30.9437C4.125 30.8304 4.12907 30.488 4.19746 30.2495C4.40672 29.4915 4.59074 28.7266 4.79186 27.966C4.8627 27.6942 4.87491 27.3765 4.70392 27.1414C4.52642 26.9038 4.27889 26.7394 4.05579 26.5546C2.30517 25.1032 0.90142 23.1271 0.320052 20.8512C-0.220603 18.7822 -0.0724115 16.5259 0.735315 14.5549C1.41765 12.8531 2.56084 11.3829 3.92062 10.2203Z" fill="white"/>
</svg>
