<svg width="64" height="22" viewBox="0 0 64 22" fill="none" xmlns="http://www.w3.org/2000/svg">
<path d="M31.592 18H29.198L33.95 4.842H36.308L41.06 18H38.63L37.568 14.958H32.654L31.592 18ZM34.832 8.766L33.338 13.014H36.902L35.39 8.766C35.282 8.424 35.156 8.028 35.12 7.758C35.066 8.01 34.958 8.406 34.832 8.766ZM49.91 12.618H45.014V18H42.71V4.842H50.846V6.966H45.014V10.548H49.91V12.618ZM56.2348 11.43L51.8608 4.842H54.5968L56.1988 7.2C56.7388 8.01 57.1888 8.766 57.6748 9.666L60.7348 4.842H63.4168L59.1148 11.412L63.4348 18H60.7168L59.2408 15.822C58.6648 14.94 58.1968 14.148 57.6748 13.194L54.4708 18H51.7708L56.2348 11.43Z" fill="white"/>
<path d="M11.254 0.143434C11.0852 0.0494687 10.8937 0 10.6987 0C10.5038 0 10.3123 0.0494687 10.1435 0.143434L4.86645 3.12024L15.1903 8.93458V20.7069L20.4538 17.7388C20.6202 17.6452 20.7582 17.5111 20.854 17.3499C20.9499 17.1888 21.0002 17.0063 21 16.8205V5.65749L11.254 0.143434Z" fill="white"/>
<path d="M4.87527 6.24556L0 8.94818L7.67404 13.2611V22L12.5403 19.3017C12.6639 19.2329 12.7665 19.134 12.8378 19.0148C12.9091 18.8956 12.9467 18.7604 12.9466 18.6228V10.3234L5.72393 6.24556C5.59587 6.17109 5.44915 6.13173 5.2996 6.13173C5.15005 6.13173 5.00333 6.17109 4.87527 6.24556Z" fill="white"/>
<path d="M5.34478 20.368V14.4753L0.117406 17.4217L5.34478 20.368Z" fill="white"/>
</svg>
