<svg width="20" height="20" viewBox="0 0 20 20" fill="none" xmlns="http://www.w3.org/2000/svg">
<g opacity="0.4">
<path d="M13.492 1.66675H6.50866C3.47533 1.66675 1.66699 3.47508 1.66699 6.50841V13.4834C1.66699 16.5251 3.47533 18.3334 6.50866 18.3334H13.4837C16.517 18.3334 18.3253 16.5251 18.3253 13.4917V6.50841C18.3337 3.47508 16.5253 1.66675 13.492 1.66675ZM7.59199 14.0834C7.59199 14.3167 7.40866 14.5001 7.17532 14.5001H4.85033C4.61699 14.5001 4.43366 14.3167 4.43366 14.0834V10.2334C4.43366 9.70842 4.85866 9.28342 5.38366 9.28342H7.17532C7.40866 9.28342 7.59199 9.46675 7.59199 9.70008V14.0834ZM11.5753 14.0834C11.5753 14.3167 11.392 14.5001 11.1587 14.5001H8.83366C8.60033 14.5001 8.41699 14.3167 8.41699 14.0834V6.45008C8.41699 5.92508 8.84199 5.50008 9.36699 5.50008H10.6337C11.1587 5.50008 11.5837 5.92508 11.5837 6.45008V14.0834H11.5753ZM15.567 14.0834C15.567 14.3167 15.3837 14.5001 15.1503 14.5001H12.8253C12.592 14.5001 12.4087 14.3167 12.4087 14.0834V11.1251C12.4087 10.8917 12.592 10.7084 12.8253 10.7084H14.617C15.142 10.7084 15.567 11.1334 15.567 11.6584V14.0834Z" fill="white"/>
</g>
</svg>
