<svg width="20" height="20" viewBox="0 0 20 20" fill="none" xmlns="http://www.w3.org/2000/svg">
<path d="M13.492 1.66663H6.50866C3.47533 1.66663 1.66699 3.47496 1.66699 6.50829V13.4833C1.66699 16.525 3.47533 18.3333 6.50866 18.3333H13.4837C16.517 18.3333 18.3253 16.525 18.3253 13.4916V6.50829C18.3337 3.47496 16.5253 1.66663 13.492 1.66663ZM10.4337 13.125L9.38366 14.175C8.85033 14.7166 7.97533 14.7166 7.43366 14.175L5.82533 12.5666C5.28366 12.025 5.29199 11.1583 5.82533 10.6166L6.88366 9.56663C7.05033 9.40829 7.30866 9.40829 7.47533 9.56663L10.442 12.5333C10.6003 12.7 10.6003 12.9666 10.4337 13.125ZM14.1753 9.38329L11.6087 11.95C11.442 12.1166 11.1837 12.1166 11.017 11.95L8.05033 8.98329C7.88366 8.81663 7.88366 8.55829 8.05033 8.39163L10.617 5.82496C11.1503 5.28329 12.0253 5.28329 12.567 5.82496L14.1753 7.43329C14.717 7.97496 14.717 8.84996 14.1753 9.38329Z" fill="white"/>
</svg>
