<svg width="19" height="18" viewBox="0 0 19 18" fill="none" xmlns="http://www.w3.org/2000/svg">
<path d="M15.0952 8.66243L10.0252 16.0499C9.83022 16.3424 9.51523 16.4999 9.17773 16.4999C9.07273 16.4999 8.96772 16.4849 8.86272 16.4549C8.43522 16.3199 8.14273 15.9374 8.14273 15.4949V11.2649C8.14273 11.0924 7.97772 10.9424 7.77522 10.9424L4.75272 10.9049C4.37022 10.9049 4.01773 10.6874 3.84523 10.3574C3.68023 10.0349 3.70273 9.64494 3.91273 9.33744L8.97523 1.94994C9.23023 1.57494 9.70273 1.40993 10.1377 1.54493C10.5652 1.67993 10.8577 2.06243 10.8577 2.50493V6.73494C10.8577 6.90744 11.0227 7.05744 11.2252 7.05744L14.2477 7.09493C14.6302 7.09493 14.9827 7.30494 15.1552 7.64244C15.3202 7.96494 15.2977 8.35493 15.0952 8.66243Z" fill="black"/>
</svg>
