<svg width="20" height="20" viewBox="0 0 20 20" fill="none" xmlns="http://www.w3.org/2000/svg">
<path d="M10.0003 1.66675C5.40033 1.66675 1.66699 5.40008 1.66699 10.0001C1.66699 14.6001 5.40033 18.3334 10.0003 18.3334C14.6003 18.3334 18.3337 14.6001 18.3337 10.0001C18.3337 5.40008 14.6003 1.66675 10.0003 1.66675ZM12.942 11.0251L8.62533 14.0167C7.99199 14.4584 7.62533 14.2001 7.80866 13.4584L8.60033 10.2584L7.22533 9.91675C6.60033 9.76675 6.52533 9.33342 7.05033 8.96675L11.367 5.97508C12.0003 5.53341 12.367 5.79175 12.1837 6.53342L11.392 9.73342L12.767 10.0751C13.392 10.2334 13.467 10.6584 12.942 11.0251Z" fill="white"/>
</svg>
