<svg width="18" height="16" viewBox="0 0 18 16" fill="none" xmlns="http://www.w3.org/2000/svg">
<path fill-rule="evenodd" clip-rule="evenodd" d="M5.73047 0H7.35117L7.36523 1.59706L13.0781 1.61423V3.19412H11.9074C10.9934 3.19069 10.7332 3.20099 10.7016 3.23534C10.6805 3.25938 10.6172 3.4105 10.5645 3.57192C10.5117 3.73335 10.3887 4.05619 10.2937 4.29318C10.1988 4.53016 10.002 4.95604 9.86133 5.23768C9.71719 5.52274 9.49219 5.93145 9.35859 6.14783C9.22852 6.3642 9.01758 6.69049 8.89453 6.86908C8.77148 7.04768 8.55703 7.34305 8.41992 7.52165C8.2793 7.70024 8.05078 7.98187 7.64648 8.44897L9.71016 10.4582L9.08789 12.0896L6.53906 9.59954L2.44336 13.6008L1.29375 12.4846L2.97422 10.8531C3.90234 9.95673 4.84102 9.05002 5.4668 8.45927L5.17148 8.11926C5.00625 7.93036 4.73555 7.60064 4.57031 7.38426C4.40508 7.16789 4.14844 6.80383 4.0043 6.57715C3.85664 6.35047 3.63164 5.97954 3.50508 5.75286C3.37852 5.52618 3.2168 5.2205 3.02344 4.80836H4.6582L4.84805 5.14494C4.95352 5.32697 5.13281 5.62578 5.24883 5.80437C5.36484 5.98297 5.56172 6.27147 5.68828 6.43976C5.81836 6.60806 6.05742 6.90686 6.22266 7.10263C6.38789 7.29497 6.53203 7.45295 6.54609 7.45295C6.56367 7.45295 6.69023 7.31901 6.82734 7.15758C6.96797 6.99616 7.22813 6.67331 7.40039 6.43976C7.57266 6.20622 7.83984 5.81468 7.9875 5.57426C8.13516 5.33384 8.325 5.00413 8.40938 4.8427C8.49375 4.68128 8.64492 4.37217 8.74336 4.15579C8.84531 3.93942 8.97539 3.63374 9.14062 3.19412H0V1.61423H5.73047V0ZM12.6914 6.38825L14.3191 6.40542L16.1578 11.1966C17.1703 13.8309 18 15.9912 18 15.9981C18 16.0015 17.6309 16.0015 16.3652 15.9878L15.4512 13.6008H11.5488L10.6348 15.9878L9.81563 15.9947C9.05273 16.005 9 16.0015 9.02109 15.9431C9.03164 15.9122 9.84375 13.7897 10.8281 11.2309C11.8125 8.67222 12.6316 6.53593 12.6527 6.48098L12.6914 6.38825ZM12.1992 11.9625C12.1992 11.9762 12.7863 11.99 13.5 11.99C14.2172 11.99 14.8008 11.9762 14.8008 11.9625C14.8008 11.9488 14.5195 11.1829 14.175 10.2624C13.8305 9.34195 13.5316 8.58979 13.5141 8.58979C13.493 8.58979 13.1871 9.34195 12.8391 10.2624C12.4875 11.1829 12.1992 11.9488 12.1992 11.9625Z" fill="#BCBFCC"/>
</svg>
