<svg width="20" height="20" viewBox="0 0 20 20" fill="none" xmlns="http://www.w3.org/2000/svg">
<path d="M13.492 1.66663H6.50866C3.47533 1.66663 1.66699 3.47496 1.66699 6.50829V13.4833C1.66699 16.525 3.47533 18.3333 6.50866 18.3333H13.4837C16.517 18.3333 18.3253 16.525 18.3253 13.4916V6.50829C18.3337 3.47496 16.5253 1.66663 13.492 1.66663ZM6.81699 13.975C6.80033 13.975 6.77533 13.975 6.75866 13.975C5.95033 13.9 5.19199 13.525 4.62533 12.925C3.29199 11.525 3.29199 9.24996 4.62533 7.84996L6.45033 5.93329C7.10033 5.24996 7.97533 4.86663 8.90866 4.86663C9.84199 4.86663 10.717 5.24163 11.367 5.93329C12.7003 7.33329 12.7003 9.60829 11.367 11.0083L10.4587 11.9666C10.217 12.2166 9.82533 12.225 9.57533 11.9916C9.32533 11.75 9.31699 11.3583 9.55033 11.1083L10.4587 10.15C11.342 9.22496 11.342 7.71663 10.4587 6.79996C9.63366 5.93329 8.18366 5.93329 7.35033 6.79996L5.52533 8.71663C4.64199 9.64163 4.64199 11.15 5.52533 12.0666C5.88366 12.45 6.36699 12.6833 6.87533 12.7333C7.21699 12.7666 7.46699 13.075 7.43366 13.4166C7.40866 13.7333 7.13366 13.975 6.81699 13.975ZM15.3753 12.1583L13.5503 14.075C12.9003 14.7583 12.0253 15.1416 11.092 15.1416C10.1587 15.1416 9.28366 14.7666 8.63366 14.075C7.30032 12.675 7.30032 10.4 8.63366 8.99996L9.54199 8.04163C9.78366 7.79163 10.1753 7.78329 10.4253 8.01663C10.6753 8.25829 10.6837 8.64996 10.4503 8.89996L9.54199 9.85829C8.65866 10.7833 8.65866 12.2916 9.54199 13.2083C10.367 14.075 11.817 14.0833 12.6503 13.2083L14.4753 11.2916C15.3587 10.3666 15.3587 8.85829 14.4753 7.94163C14.117 7.55829 13.6337 7.32496 13.1253 7.27496C12.7837 7.24163 12.5337 6.93329 12.567 6.59163C12.6003 6.24996 12.9003 5.99163 13.2503 6.03329C14.0587 6.11663 14.817 6.48329 15.3837 7.08329C16.7087 8.47496 16.7087 10.7583 15.3753 12.1583Z" fill="white"/>
</svg>
