<svg width="24" height="24" viewBox="0 0 24 24" fill="none" xmlns="http://www.w3.org/2000/svg">
<g filter="url(#filter0_i_0_708)">
<path d="M2.90752 10.9675C2.90752 10.9675 12.3427 6.78305 15.615 5.30961C16.8695 4.72029 21.1235 2.83428 21.1235 2.83428C21.1235 2.83428 23.0869 2.00923 22.9233 4.01302C22.8687 4.83815 22.4324 7.72597 21.9961 10.8496C21.3416 15.2698 20.6326 20.1025 20.6326 20.1025C20.6326 20.1025 20.5235 21.4581 19.5964 21.6939C18.6693 21.9296 17.1421 20.8688 16.8695 20.633C16.6512 20.4562 12.779 17.8041 11.361 16.5075C10.9792 16.1539 10.543 15.4467 11.4155 14.6215C13.379 12.6766 15.7241 10.2603 17.1421 8.72795C17.7966 8.02068 18.451 6.37048 15.7241 8.37427C11.8519 11.2622 8.03417 13.9732 8.03417 13.9732C8.03417 13.9732 7.16152 14.5626 5.52538 14.0321C3.88916 13.5018 1.9803 12.7945 1.9803 12.7945C1.9803 12.7945 0.671447 11.9105 2.90752 10.9675Z" fill="white"/>
</g>
<defs>
<filter id="filter0_i_0_708" x="0" y="0" width="24" height="24.5" filterUnits="userSpaceOnUse" color-interpolation-filters="sRGB">
<feFlood flood-opacity="0" result="BackgroundImageFix"/>
<feBlend mode="normal" in="SourceGraphic" in2="BackgroundImageFix" result="shape"/>
<feColorMatrix in="SourceAlpha" type="matrix" values="0 0 0 0 0 0 0 0 0 0 0 0 0 0 0 0 0 0 127 0" result="hardAlpha"/>
<feOffset dy="0.5"/>
<feGaussianBlur stdDeviation="1.25"/>
<feComposite in2="hardAlpha" operator="arithmetic" k2="-1" k3="1"/>
<feColorMatrix type="matrix" values="0 0 0 0 0 0 0 0 0 0 0 0 0 0 0 0 0 0 0.1 0"/>
<feBlend mode="normal" in2="shape" result="effect1_innerShadow_0_708"/>
</filter>
</defs>
</svg>
