<svg width="30" height="30" viewBox="0 0 30 30" fill="none" xmlns="http://www.w3.org/2000/svg">
<g filter="url(#filter0_i_29_1575)">
<path d="M20.6249 9.01908C21.1931 9.01908 21.748 9.0663 22.2955 9.1338C21.3057 4.78697 16.7401 1.49902 11.2502 1.49902C5.03624 1.49902 0 5.70824 0 10.8991C0 13.8919 1.68386 16.5471 4.29563 18.2651L2.81245 21.2394L6.85288 19.5041C7.71929 19.8126 8.61962 20.0667 9.58126 20.1849C9.44984 19.6113 9.37517 19.0232 9.37517 18.4196C9.37517 13.2361 14.4205 9.01908 20.6249 9.01908ZM15.0002 5.72878C15.7766 5.72878 16.4063 6.36041 16.4063 7.13898C16.4063 7.91781 15.7767 8.54899 15.0002 8.54899C14.2233 8.54899 13.5939 7.91781 13.5939 7.13898C13.5939 6.36035 14.2233 5.72878 15.0002 5.72878ZM7.50003 8.54899C6.72349 8.54899 6.09381 7.91781 6.09381 7.13898C6.09381 6.36041 6.72355 5.72878 7.50003 5.72878C8.27652 5.72878 8.90632 6.36041 8.90632 7.13898C8.90626 7.91781 8.27645 8.54899 7.50003 8.54899Z" fill="black"/>
<path d="M30 18.4195C30 14.2662 25.8015 10.8991 20.6249 10.8991C15.448 10.8991 11.2502 14.2662 11.2502 18.4195C11.2502 22.5725 15.448 25.9396 20.6249 25.9396C21.4762 25.9396 22.2861 25.8193 23.0718 25.6484L28.1251 27.8196L26.3774 24.3173C28.5676 22.9408 30 20.8241 30 18.4195ZM17.8125 17.9494C17.036 17.9494 16.4062 17.318 16.4062 16.5391C16.4062 15.7605 17.036 15.1293 17.8125 15.1293C18.5893 15.1293 19.2187 15.7608 19.2187 16.5391C19.2187 17.3181 18.5891 17.9494 17.8125 17.9494ZM23.4374 17.9494C22.6605 17.9494 22.0312 17.318 22.0312 16.5391C22.0312 15.7605 22.6605 15.1293 23.4374 15.1293C24.2142 15.1293 24.8437 15.7608 24.8437 16.5391C24.8437 17.3181 24.2142 17.9494 23.4374 17.9494Z" fill="black"/>
</g>
<defs>
<filter id="filter0_i_29_1575" x="0" y="0" width="30" height="30.5" filterUnits="userSpaceOnUse" color-interpolation-filters="sRGB">
<feFlood flood-opacity="0" result="BackgroundImageFix"/>
<feBlend mode="normal" in="SourceGraphic" in2="BackgroundImageFix" result="shape"/>
<feColorMatrix in="SourceAlpha" type="matrix" values="0 0 0 0 0 0 0 0 0 0 0 0 0 0 0 0 0 0 127 0" result="hardAlpha"/>
<feOffset dy="0.5"/>
<feGaussianBlur stdDeviation="1.25"/>
<feComposite in2="hardAlpha" operator="arithmetic" k2="-1" k3="1"/>
<feColorMatrix type="matrix" values="0 0 0 0 0 0 0 0 0 0 0 0 0 0 0 0 0 0 0.1 0"/>
<feBlend mode="normal" in2="shape" result="effect1_innerShadow_29_1575"/>
</filter>
</defs>
</svg>
