<svg width="88" height="26" viewBox="0 0 88 26" fill="none" xmlns="http://www.w3.org/2000/svg">
<path d="M53.8383 7.64706C54.7129 7.64706 55.4218 6.96232 55.4218 6.11765C55.4218 5.27298 54.7129 4.58824 53.8383 4.58824C52.9638 4.58824 52.2549 5.27298 52.2549 6.11765C52.2549 6.96232 52.9638 7.64706 53.8383 7.64706Z" fill="white"/>
<path fill-rule="evenodd" clip-rule="evenodd" d="M6.88547 13.8083C6.15802 13.8963 4.88499 14.1604 4.15754 14.7766C1.9752 16.6253 3.24823 19.8824 7.70385 19.8824C10.2499 19.8824 12.796 18.2978 14.7965 15.833C11.8867 14.5125 9.52246 13.5442 6.88547 13.8083Z" fill="white"/>
<path fill-rule="evenodd" clip-rule="evenodd" d="M22.4208 16.2922C26.3774 17.5584 27.2566 17.6429 27.2566 17.6429V4.13636C27.2566 1.85714 25.3223 0 22.8604 0H4.39623C2.02227 0 0 1.85714 0 4.13636V21.8636C0 24.1429 1.93434 26 4.39623 26H22.8604C25.2344 26 27.2566 24.1429 27.2566 21.8636V21.6948C27.2566 21.6948 20.2227 18.9091 16.6178 17.2208C14.2438 20.0065 11.1664 21.7792 7.91322 21.7792C2.46189 21.7792 0.615472 17.2208 3.25321 14.2662C3.78076 13.5909 4.74793 13 6.24265 12.6623C8.52869 12.1558 12.2215 13 15.6506 14.0974C16.2661 13 16.7936 11.8182 17.1453 10.5519H6.50642V9.53896H11.9577V7.51299H5.27548V6.5H11.9577V3.88312C11.9577 3.88312 11.9578 3.46104 12.3974 3.46104H15.0351V6.58442H21.6295V7.51299H15.0351V9.37013H20.3985C19.871 11.3961 19.0796 13.2532 18.1125 14.8571C19.871 15.4481 21.3657 15.9545 22.4208 16.2922Z" fill="white"/>
<path fill-rule="evenodd" clip-rule="evenodd" d="M40.004 6.11765L45.8764 18.2447H42.7622L41.1607 15.0222H36.356L34.7544 18.2447H32.708L38.6693 6.45687C38.6693 6.45687 38.8473 6.11765 39.2032 6.11765C39.4701 6.11765 40.004 6.11765 40.004 6.11765ZM36.8898 13.9197H40.6268L38.7583 10.1035L36.8898 13.9197ZM49.8548 18.3412H47.0076V6.80778C47.0076 6.46856 47.1856 6.29895 47.6305 6.29895H49.8548V18.3412ZM55.1934 18.2623H52.3462V9.52739C52.3462 9.18817 52.5241 9.01856 52.969 9.01856H55.1934V18.2623ZM58.6748 9.19986H60.5433V10.0479C60.8992 9.7935 61.2551 9.53908 61.7 9.45428C62.1448 9.28467 62.5897 9.19986 63.2125 9.19986C63.8354 9.19986 64.3692 9.28467 64.8141 9.53908C65.3479 9.7935 65.7038 10.0479 66.0598 10.4719C66.4157 10.896 66.6826 11.32 66.8605 11.8288C67.0385 12.3376 67.1275 12.8465 67.1275 13.4401C67.1275 14.2034 67.0385 14.8818 66.7716 15.4754C66.5046 16.0691 66.2377 16.6627 65.7928 17.0867C65.348 17.5107 64.9031 17.9348 64.2802 18.1892C63.6574 18.4436 63.0346 18.5284 62.3228 18.5284H61.3441C61.0771 18.5284 60.8102 18.4436 60.5433 18.3588V21.4118H57.696V10.3023C57.6071 9.19986 58.0519 9.19986 58.6748 9.19986ZM60.5433 15.8146C60.5433 16.0691 60.5433 16.2387 60.6322 16.4083C60.7212 16.5779 60.8102 16.7475 60.9881 16.9171C61.1661 17.0867 61.344 17.1715 61.522 17.2563C61.7 17.3411 61.9669 17.3411 62.2338 17.3411C62.5007 17.3411 62.6787 17.2563 62.9456 17.0867C63.1236 16.9171 63.3905 16.7475 63.4795 16.4083C63.5684 16.0691 63.7464 15.8146 63.8354 15.3906C63.9243 14.9666 64.0133 14.6274 64.0133 14.1185C64.0133 13.5249 64.0133 13.0161 63.9243 12.5921C63.8354 12.168 63.7464 11.8288 63.5684 11.4896C63.3905 11.2352 63.2125 10.9808 63.0346 10.8112C62.8566 10.6415 62.5897 10.5567 62.3228 10.5567C62.1448 10.5567 61.9669 10.5567 61.7889 10.6415C61.611 10.7264 61.433 10.8112 61.3441 10.896C61.1661 10.9808 61.0771 11.1504 60.8992 11.2352C60.7212 11.4048 60.6322 11.4896 60.5433 11.6592V15.8146ZM72.5564 9.19986C73.2682 9.19986 73.802 9.28467 74.3359 9.36947C74.7807 9.45428 75.2256 9.62389 75.5815 9.8783C75.9374 10.1327 76.1154 10.3871 76.2933 10.6415C76.4713 10.9808 76.5603 11.32 76.5603 11.6592V18.3588H73.713V17.6803C73.5351 17.85 73.3571 17.9348 73.2682 18.0196C73.0902 18.1044 72.9123 18.1892 72.7343 18.274C72.5564 18.3588 72.3784 18.4436 72.1115 18.4436C71.8446 18.5284 71.5776 18.5284 71.3107 18.5284C70.8658 18.5284 70.5099 18.4436 70.154 18.3588C69.7981 18.274 69.5312 18.1044 69.2643 17.85C68.9973 17.6803 68.8194 17.4259 68.7304 17.0867C68.6414 16.8323 68.5524 16.4931 68.5524 16.1539C68.5524 15.8146 68.6414 15.4754 68.7304 15.221C68.8194 14.9666 69.0863 14.7122 69.2643 14.4578C69.4422 14.2034 69.7981 14.0337 70.065 13.8641C70.4209 13.6945 70.6879 13.5249 71.1327 13.3553C71.4886 13.1857 71.8446 13.1009 72.2894 12.9313C72.6453 12.8465 73.0902 12.6769 73.4461 12.5921L73.802 12.5073V11.5744C73.802 11.32 73.802 11.0656 73.713 10.8112C73.6241 10.6415 73.5351 10.4719 73.4461 10.3023C73.3571 10.2175 73.1792 10.0479 73.0902 10.0479C72.9123 9.96311 72.7343 9.96311 72.5564 9.96311C72.5564 9.96311 71.0438 9.96311 69.7091 11.0656L69.0863 10.1327C68.8194 10.3023 70.4209 9.19986 72.5564 9.19986ZM73.5351 13.6945C73.2682 13.7793 73.0012 13.9489 72.7343 14.1185C72.4674 14.2882 72.2005 14.4578 71.9335 14.6274C71.6666 14.797 71.4886 14.9666 71.3997 15.221C71.2217 15.3906 71.2217 15.645 71.2217 15.8146C71.2217 15.9843 71.2217 16.1539 71.3107 16.3235C71.3997 16.4931 71.3997 16.5779 71.4886 16.7475C71.5776 16.9171 71.6666 16.9171 71.7556 17.0019C71.8446 17.0867 71.9335 17.0867 72.1115 17.0867C72.3784 17.0867 72.5564 17.0019 72.8233 16.9171C73.0902 16.7475 73.3571 16.5779 73.6241 16.4083V13.6945H73.5351ZM80.4371 21.327H78.5686L78.4796 19.7157C78.4796 19.7157 80.793 19.8005 81.5048 18.9524C81.7717 18.6132 81.9497 17.6803 81.9497 17.6803L77.3229 9.19986H80.4371L83.3733 14.7122L85.9535 9.19986H88L83.2843 19.2068C83.1063 19.5461 82.3945 21.327 80.4371 21.327Z" fill="white"/>
</svg>
